<svg viewBox="0 0 114 79" fill="none" xmlns="http://www.w3.org/2000/svg">
<path d="M47.4281 85.993C33.6525 85.1228 19.8136 77.9011 12.3139 66.3465C10.3861 63.3762 9.49171 59.4753 9.87546 55.9552C10.2592 52.435 13.3261 49.0296 16.8463 49.4224C20.3605 49.8122 22.5149 53.4956 23.4123 56.913C24.4427 60.8381 24.4034 65.4853 21.5872 68.4072C18.4387 71.6736 12.7974 71.4047 9.10495 68.7668C5.41253 66.1289 2.61754 61.6237 1.47537 57.2333C0.230465 52.438 0.638383 47.407 2.08574 42.6721C3.53309 37.9373 6.96867 33.6617 11.628 31.9786C19.1579 29.2622 27.1591 33.6194 34.4744 36.8706C56.3993 46.6214 82.3821 46.8087 104.443 37.3753C110.556 34.7616 116.535 31.3048 120.569 26.02C121.823 24.3763 122.896 22.5089 123.147 20.4542C123.398 18.3995 122.684 16.1333 120.98 14.9639C119.007 13.6072 116.215 14.0484 114.233 15.393C112.251 16.7346 109.48 19.5356 108.208 21.5662C103.491 29.087 100.116 36.2331 98.8801 45.023C97.7017 53.42 98.9859 62.9864 105.201 69.8576C111.257 76.5535 120.331 79.2578 129.945 79.5086" stroke="white" stroke-linecap="round" stroke-linejoin="round" stroke-dasharray="2 2"/>
<path d="M104.462 52.2129C103.634 52.2129 102.962 51.5413 102.962 50.7129C102.962 49.8845 103.634 49.2129 104.462 49.2129C105.291 49.2129 105.962 49.8845 105.962 50.7129C105.962 51.5413 105.291 52.2129 104.462 52.2129ZM104.462 49.8282C103.976 49.8282 103.578 50.2263 103.578 50.7129C103.578 51.1995 103.976 51.5976 104.462 51.5976C104.949 51.5976 105.347 51.1995 105.347 50.7129C105.347 50.2263 104.949 49.8282 104.462 49.8282Z" fill="white"/>
<path d="M28.7329 28.8848C27.9045 28.8848 27.2329 28.2132 27.2329 27.3848C27.2329 26.5563 27.9045 25.8848 28.7329 25.8848C29.5613 25.8848 30.2329 26.5563 30.2329 27.3848C30.2369 28.2132 29.5613 28.8848 28.7329 28.8848ZM28.7329 26.5C28.2463 26.5 27.8482 26.8982 27.8482 27.3848C27.8482 27.8714 28.2463 28.2695 28.7329 28.2695C29.2195 28.2695 29.6176 27.8714 29.6176 27.3848C29.6216 26.8942 29.2235 26.5 28.7329 26.5Z" fill="white"/>
<path d="M15.4545 75.8985H14.6145V74.7173C14.6145 74.5851 14.5079 74.4785 14.3757 74.4785C14.2435 74.4785 14.1369 74.5851 14.1369 74.7173V75.8985H13.2969C13.1647 75.8985 13.0581 76.0051 13.0581 76.1373C13.0581 76.2694 13.1647 76.3761 13.2969 76.3761H14.1369V77.5572C14.1369 77.6894 14.2435 77.796 14.3757 77.796C14.5079 77.796 14.6145 77.6894 14.6145 77.5572V76.3761H15.4545C15.5867 76.3761 15.6933 76.2694 15.6933 76.1373C15.6933 76.0051 15.5867 75.8985 15.4545 75.8985Z" fill="white"/>
<path d="M99.7042 11.1458H98.3823V9.28169C98.3823 9.07556 98.2165 8.90527 98.0059 8.90527C97.7998 8.90527 97.6295 9.07107 97.6295 9.28169V11.1458H96.3076C96.1014 11.1458 95.9312 11.3116 95.9312 11.5222C95.9312 11.7328 96.097 11.8986 96.3076 11.8986H97.6295V13.7628C97.6295 13.9689 97.7953 14.1392 98.0059 14.1392C98.212 14.1392 98.3823 13.9734 98.3823 13.7628V11.8942H99.7042C99.9104 11.8942 100.081 11.7284 100.081 11.5178C100.081 11.3071 99.9104 11.1458 99.7042 11.1458Z" fill="white"/>
<path d="M30.3455 12.9336H25.3974C25.0239 12.9336 24.7153 12.6304 24.7153 12.2514C24.7153 11.8779 25.0185 11.5693 25.3974 11.5693H30.3455C30.719 11.5693 31.0276 11.8725 31.0276 12.2514C31.0276 12.625 30.7244 12.9336 30.3455 12.9336Z" fill="white"/>
<path d="M36.624 6.65449C36.2505 6.65449 35.9419 6.35133 35.9419 5.97238V1.02977C35.9419 0.656231 36.2451 0.347656 36.624 0.347656C36.9975 0.347656 37.3061 0.650817 37.3061 1.02977V5.97779C37.3007 6.35133 36.9975 6.65449 36.624 6.65449Z" fill="white"/>
<path d="M32.082 8.39249C31.9087 8.39249 31.7355 8.32753 31.6002 8.19219L28.2004 4.79245C27.9351 4.52719 27.9351 4.0941 28.2004 3.82883C28.4657 3.56357 28.8988 3.56357 29.164 3.82883L32.5638 7.22857C32.829 7.49383 32.829 7.92692 32.5638 8.19219C32.4338 8.32753 32.2606 8.39249 32.082 8.39249Z" fill="white"/>
</svg>
