<svg width="128" height="75" viewBox="0 0 128 75" fill="none" xmlns="http://www.w3.org/2000/svg">
<g clip-path="url(#clip0_1061_17678)">
<path d="M47.2746 74.9285C47.2717 74.9285 47.2717 74.9285 47.2687 74.9285C47.1709 74.9254 47.0702 74.9191 46.9724 74.916C46.8894 74.9129 46.8272 74.8382 46.8302 74.7541C46.8331 74.6669 46.9043 74.6015 46.9843 74.6046C47.082 74.6077 47.1798 74.6139 47.2806 74.6171C47.3635 74.6202 47.4258 74.6918 47.4228 74.779C47.4198 74.8631 47.3546 74.9285 47.2746 74.9285Z" fill="#85C74C"/>
<path d="M46.0928 74.8699C46.0898 74.8699 46.0868 74.8699 46.0839 74.8699C45.8883 74.8574 45.6898 74.8419 45.4912 74.8263C45.4083 74.82 45.349 74.7453 45.3549 74.6581C45.3609 74.5709 45.432 74.5086 45.5149 74.5149C45.7105 74.5304 45.909 74.546 46.1016 74.5585C46.1846 74.5647 46.2439 74.6363 46.2409 74.7235C46.235 74.8045 46.1698 74.8699 46.0928 74.8699ZM44.6171 74.7453C44.6112 74.7453 44.6082 74.7453 44.6023 74.7453C44.4067 74.7266 44.2082 74.7048 44.0126 74.6799C43.9326 74.6706 43.8734 74.5927 43.8823 74.5086C43.8911 74.4245 43.9652 74.3623 44.0452 74.3716C44.2408 74.3934 44.4364 74.4152 44.6319 74.4339C44.7119 74.4432 44.7742 74.518 44.7653 74.6052C44.7564 74.6861 44.6942 74.7453 44.6171 74.7453ZM43.1474 74.5709C43.1415 74.5709 43.1355 74.5709 43.1296 74.5709C42.934 74.5429 42.7355 74.5149 42.5429 74.4868C42.4629 74.4744 42.4066 74.3965 42.4185 74.3093C42.4303 74.2252 42.5044 74.1661 42.5874 74.1785C42.78 74.2065 42.9785 74.2346 43.1711 74.2626C43.2511 74.2751 43.3104 74.3529 43.2985 74.437C43.2867 74.5149 43.2215 74.5709 43.1474 74.5709ZM41.6866 74.3467C41.6777 74.3467 41.6717 74.3467 41.6629 74.3436C41.4673 74.3093 41.2717 74.2751 41.0791 74.2408C40.9991 74.2252 40.9458 74.1443 40.9576 74.0602C40.9724 73.9761 41.0495 73.92 41.1295 73.9325C41.3221 73.9667 41.5177 74.0041 41.7103 74.0353C41.7903 74.0477 41.8466 74.1287 41.8317 74.2128C41.8199 74.2906 41.7577 74.3467 41.6866 74.3467ZM40.2287 74.0726C40.2198 74.0726 40.2109 74.0726 40.1991 74.0695C40.0065 74.029 39.8109 73.9885 39.6183 73.9449C39.5383 73.9263 39.4879 73.8453 39.5027 73.7612C39.5205 73.6771 39.5975 73.6242 39.6775 73.6397C39.8701 73.6833 40.0657 73.7238 40.2554 73.7612C40.3354 73.7768 40.3887 73.8609 40.3709 73.9449C40.362 74.0197 40.2998 74.0726 40.2287 74.0726ZM38.7827 73.7487C38.7708 73.7487 38.7619 73.7487 38.7501 73.7456C38.5575 73.6989 38.3649 73.6522 38.1723 73.6024C38.0923 73.5837 38.0448 73.4965 38.0626 73.4155C38.0804 73.3314 38.1634 73.2816 38.2404 73.3003C38.4301 73.3501 38.6227 73.3968 38.8153 73.4436C38.8953 73.4622 38.9456 73.5463 38.9279 73.6304C38.9101 73.702 38.8508 73.7487 38.7827 73.7487ZM37.3455 73.3813C37.3337 73.3813 37.3218 73.3782 37.307 73.375C37.1144 73.3221 36.9218 73.2691 36.7322 73.2131C36.6522 73.1913 36.6077 73.1041 36.6285 73.0231C36.6492 72.9422 36.7322 72.8923 36.8092 72.9141C36.9959 72.9671 37.1885 73.0231 37.3781 73.0761C37.4581 73.0979 37.5056 73.182 37.4848 73.266C37.47 73.3346 37.4107 73.3813 37.3455 73.3813ZM35.9203 72.964C35.9055 72.964 35.8936 72.9608 35.8788 72.9577C35.6891 72.8986 35.4995 72.8394 35.3099 72.7771C35.2328 72.7522 35.1884 72.665 35.2121 72.5809C35.2358 72.4999 35.3187 72.4532 35.3988 72.4781C35.5854 72.5373 35.7751 72.5996 35.9647 72.6588C36.0418 72.6837 36.0892 72.7709 36.0655 72.8518C36.0418 72.9204 35.9855 72.964 35.9203 72.964ZM34.5068 72.4999C34.492 72.4999 34.4772 72.4968 34.4594 72.4906C34.2728 72.4252 34.0831 72.3598 33.8964 72.2913C33.8194 72.2632 33.7779 72.176 33.8046 72.092C33.8312 72.011 33.9142 71.9674 33.9942 71.9954C34.1809 72.0639 34.3676 72.1293 34.5543 72.1947C34.6313 72.2228 34.6728 72.31 34.6491 72.3909C34.6283 72.4563 34.5691 72.4999 34.5068 72.4999ZM33.1082 71.9892C33.0905 71.9892 33.0756 71.9861 33.0579 71.9799C32.8742 71.9082 32.6845 71.8366 32.5008 71.7619C32.4238 71.7307 32.3852 71.6404 32.4149 71.5625C32.4445 71.4816 32.5304 71.4411 32.6045 71.4722C32.7882 71.5439 32.9749 71.6186 33.1586 71.6871C33.2357 71.7151 33.2742 71.8055 33.2475 71.8864C33.2268 71.9487 33.1705 71.9892 33.1082 71.9892ZM31.7274 71.4349C31.7096 71.4349 31.6919 71.4317 31.6711 71.4224C31.4874 71.3445 31.3037 71.2667 31.12 71.1857C31.0429 71.1515 31.0074 71.0611 31.04 70.9833C31.0726 70.9054 31.1585 70.865 31.2326 70.8992C31.4133 70.9771 31.597 71.058 31.7808 71.1328C31.8578 71.1639 31.8933 71.2542 31.8637 71.3352C31.84 71.3975 31.7837 71.4349 31.7274 71.4349ZM30.3614 70.8338C30.3407 70.8338 30.3229 70.8307 30.3021 70.8214C30.1214 70.7373 29.9377 70.6532 29.7599 70.5691C29.6858 70.5348 29.6532 70.4414 29.6858 70.3635C29.7184 70.2857 29.8073 70.2514 29.8814 70.2857C30.0592 70.3698 30.2429 70.4539 30.4207 70.5379C30.4947 70.5722 30.5303 70.6656 30.4977 70.7435C30.471 70.7996 30.4177 70.8338 30.3614 70.8338ZM29.0132 70.1892C28.9924 70.1892 28.9717 70.1829 28.9509 70.1736C28.7732 70.0833 28.5924 69.993 28.4146 69.9026C28.3405 69.8653 28.3109 69.7718 28.3465 69.694C28.382 69.6161 28.4709 69.585 28.545 69.6224C28.7198 69.7127 28.9006 69.803 29.0784 69.8933C29.1524 69.9307 29.185 70.0241 29.1495 70.102C29.1198 70.1549 29.0665 70.1892 29.0132 70.1892ZM27.6857 69.4978C27.662 69.4978 27.6383 69.4916 27.6175 69.4791C27.4427 69.3826 27.2649 69.286 27.0901 69.1895C27.019 69.149 26.9893 69.0556 27.0279 68.9777C27.0664 68.903 27.1553 68.8718 27.2294 68.9123C27.4012 69.0089 27.579 69.1054 27.7538 69.1988C27.8279 69.2393 27.8546 69.3327 27.819 69.4075C27.7894 69.4666 27.739 69.4978 27.6857 69.4978ZM26.3789 68.7659C26.3552 68.7659 26.3286 68.7597 26.3078 68.7473C26.136 68.6476 25.9611 68.5448 25.7893 68.4421C25.7181 68.3985 25.6944 68.305 25.733 68.2303C25.7744 68.1555 25.8633 68.1306 25.9345 68.1711C26.1063 68.2739 26.2782 68.3767 26.45 68.4763C26.5212 68.5168 26.5478 68.6133 26.5063 68.6881C26.4797 68.7379 26.4293 68.7659 26.3789 68.7659ZM126.498 68.168C126.495 68.168 126.495 68.168 126.492 68.168C126.293 68.1618 126.095 68.1524 125.899 68.1431C125.816 68.14 125.754 68.0652 125.757 67.9811C125.76 67.8939 125.831 67.8286 125.911 67.8317C126.107 67.841 126.305 67.8503 126.501 67.8566C126.584 67.8597 126.646 67.9313 126.643 68.0185C126.643 68.0995 126.578 68.168 126.498 68.168ZM125.022 68.0901C125.019 68.0901 125.016 68.0901 125.013 68.0901C124.818 68.0777 124.619 68.0621 124.424 68.0465C124.341 68.0403 124.281 67.9656 124.287 67.8784C124.293 67.7912 124.364 67.7289 124.447 67.7351C124.643 67.7507 124.838 67.7663 125.034 67.7787C125.117 67.7849 125.176 67.8597 125.173 67.9438C125.164 68.0279 125.099 68.0901 125.022 68.0901ZM25.0959 67.9874C25.0692 67.9874 25.0425 67.9811 25.0188 67.9656C24.847 67.8597 24.6781 67.7507 24.5092 67.6417C24.4381 67.5981 24.4173 67.5016 24.4618 67.4268C24.5033 67.3521 24.5951 67.3303 24.6662 67.377C24.8322 67.4829 25.0011 67.5919 25.17 67.6977C25.2411 67.7413 25.2618 67.8379 25.2203 67.9126C25.1937 67.9625 25.1463 67.9874 25.0959 67.9874ZM123.549 67.9687C123.544 67.9687 123.541 67.9687 123.535 67.9687C123.339 67.95 123.141 67.9282 122.945 67.9064C122.865 67.8971 122.806 67.8192 122.815 67.7351C122.824 67.651 122.898 67.5888 122.978 67.5981C123.17 67.6199 123.369 67.6417 123.564 67.6604C123.647 67.6697 123.707 67.7445 123.698 67.8285C123.689 67.9095 123.627 67.9687 123.549 67.9687ZM122.083 67.8005C122.077 67.8005 122.071 67.8005 122.065 67.8005C121.869 67.7756 121.671 67.7476 121.478 67.7196C121.398 67.7071 121.342 67.6292 121.351 67.5451C121.36 67.4611 121.437 67.4019 121.517 67.4112C121.709 67.4393 121.905 67.4673 122.1 67.4922C122.18 67.5015 122.24 67.5794 122.228 67.6666C122.219 67.7445 122.154 67.8005 122.083 67.8005ZM120.619 67.5856C120.61 67.5856 120.604 67.5856 120.595 67.5825C120.4 67.5514 120.204 67.5171 120.011 67.4798C119.931 67.4642 119.878 67.3832 119.89 67.2991C119.905 67.215 119.982 67.159 120.062 67.1714C120.251 67.2057 120.447 67.24 120.643 67.2711C120.723 67.2836 120.779 67.3645 120.767 67.4486C120.752 67.5296 120.69 67.5856 120.619 67.5856ZM119.164 67.3147C119.155 67.3147 119.146 67.3147 119.134 67.3116C118.942 67.2711 118.746 67.2306 118.554 67.187C118.474 67.1683 118.423 67.0874 118.438 67.0033C118.456 66.9192 118.533 66.8662 118.613 66.8818C118.803 66.9223 118.998 66.9659 119.191 67.0033C119.271 67.0188 119.324 67.1029 119.309 67.187C119.297 67.2649 119.235 67.3147 119.164 67.3147ZM23.8365 67.1683C23.8099 67.1683 23.7802 67.159 23.7565 67.1434C23.5906 67.0313 23.4217 66.9161 23.2587 66.8008C23.1906 66.7541 23.1728 66.6576 23.2173 66.586C23.2617 66.5143 23.3536 66.4956 23.4217 66.5424C23.5847 66.6545 23.7506 66.7697 23.9166 66.8818C23.9847 66.9285 24.0054 67.0251 23.961 67.0967C23.9314 67.1434 23.884 67.1683 23.8365 67.1683ZM117.721 66.9939C117.709 66.9939 117.697 66.9939 117.688 66.9908C117.496 66.9441 117.303 66.8943 117.114 66.8444C117.034 66.8226 116.986 66.7386 117.007 66.6545C117.028 66.5704 117.108 66.5206 117.188 66.5424C117.377 66.5922 117.57 66.6389 117.759 66.6856C117.839 66.7043 117.89 66.7884 117.869 66.8725C117.848 66.9441 117.789 66.9939 117.721 66.9939ZM116.29 66.6109C116.278 66.6109 116.263 66.6078 116.251 66.6046C116.059 66.5486 115.869 66.4925 115.682 66.4334C115.602 66.4084 115.558 66.3244 115.582 66.2403C115.605 66.1562 115.688 66.1095 115.765 66.1344C115.952 66.1905 116.142 66.2465 116.331 66.3026C116.411 66.3244 116.456 66.4116 116.435 66.4925C116.414 66.5673 116.355 66.6109 116.29 66.6109ZM22.6039 66.3026C22.5742 66.3026 22.5446 66.2932 22.5209 66.2745C22.3579 66.1562 22.195 66.0347 22.035 65.9164C21.9668 65.8666 21.952 65.77 21.9994 65.6984C22.0468 65.6268 22.1387 65.6112 22.2068 65.661C22.3668 65.7794 22.5298 65.9008 22.6898 66.0161C22.758 66.0659 22.7728 66.1624 22.7283 66.234C22.6957 66.2808 22.6513 66.3026 22.6039 66.3026ZM114.873 66.1718C114.859 66.1718 114.844 66.1687 114.829 66.1655C114.642 66.1032 114.453 66.0378 114.266 65.9693C114.189 65.9413 114.147 65.8541 114.174 65.7731C114.201 65.6922 114.284 65.6486 114.361 65.6766C114.544 65.742 114.734 65.8074 114.918 65.8697C114.995 65.8946 115.039 65.9849 115.013 66.0659C114.995 66.1282 114.936 66.1718 114.873 66.1718ZM113.478 65.6673C113.46 65.6673 113.442 65.6641 113.427 65.6579C113.241 65.5863 113.054 65.5115 112.873 65.4368C112.796 65.4057 112.761 65.3153 112.79 65.2344C112.82 65.1534 112.906 65.116 112.983 65.1472C113.164 65.2219 113.347 65.2935 113.534 65.3652C113.611 65.3963 113.65 65.4835 113.623 65.5645C113.593 65.6268 113.537 65.6673 113.478 65.6673ZM21.3979 65.3963C21.3682 65.3963 21.3356 65.387 21.309 65.3652C21.149 65.2406 20.989 65.116 20.8349 64.9883C20.7697 64.9354 20.7578 64.8389 20.8082 64.7703C20.8586 64.7018 20.9504 64.6894 21.0156 64.7423C21.1697 64.8669 21.3297 64.9915 21.4868 65.116C21.552 65.1659 21.5668 65.2655 21.5164 65.334C21.4868 65.3745 21.4423 65.3963 21.3979 65.3963ZM112.103 65.0942C112.085 65.0942 112.064 65.0911 112.047 65.0818C111.866 65.0008 111.682 64.9167 111.501 64.8326C111.427 64.7984 111.392 64.7049 111.427 64.6271C111.46 64.5492 111.549 64.5119 111.623 64.5492C111.801 64.6333 111.981 64.7143 112.162 64.7953C112.236 64.8295 112.272 64.9198 112.242 65.0008C112.215 65.06 112.159 65.0942 112.103 65.0942ZM110.758 64.4558C110.737 64.4558 110.713 64.4496 110.692 64.4402C110.515 64.3499 110.334 64.2565 110.159 64.1631C110.085 64.1257 110.058 64.0292 110.094 63.9544C110.129 63.8797 110.221 63.8485 110.292 63.8859C110.467 63.9793 110.642 64.0696 110.82 64.16C110.894 64.1973 110.923 64.2907 110.888 64.3686C110.864 64.4247 110.811 64.4558 110.758 64.4558ZM20.2245 64.4496C20.1919 64.4496 20.1593 64.4371 20.1326 64.4153C19.9785 64.2845 19.8215 64.1537 19.6704 64.0229C19.6081 63.9669 19.5992 63.8703 19.6496 63.8049C19.7 63.7395 19.7948 63.7271 19.857 63.7831C20.0082 63.9139 20.1622 64.0447 20.3163 64.1724C20.3815 64.2254 20.3904 64.325 20.34 64.3904C20.3104 64.4278 20.266 64.4496 20.2245 64.4496ZM109.442 63.7458C109.418 63.7458 109.395 63.7395 109.371 63.7271C109.196 63.6274 109.021 63.5246 108.852 63.4219C108.781 63.3783 108.757 63.2848 108.799 63.2101C108.84 63.1354 108.929 63.1104 109 63.154C109.169 63.2568 109.341 63.3565 109.513 63.4561C109.584 63.4966 109.611 63.5932 109.572 63.6679C109.546 63.7177 109.495 63.7458 109.442 63.7458ZM19.0807 63.4561C19.0481 63.4561 19.0125 63.4437 18.9859 63.4188C18.8348 63.2848 18.6836 63.1478 18.5355 63.0108C18.4732 62.9547 18.4673 62.8551 18.5207 62.7897C18.574 62.7243 18.6688 62.7181 18.731 62.7741C18.8792 62.9111 19.0274 63.0482 19.1785 63.1821C19.2407 63.2381 19.2466 63.3378 19.1963 63.4001C19.1637 63.4374 19.1222 63.4561 19.0807 63.4561ZM108.165 62.9641C108.138 62.9641 108.111 62.9579 108.088 62.9392C107.919 62.8302 107.75 62.7149 107.584 62.6028C107.516 62.5561 107.495 62.4596 107.54 62.3879C107.584 62.3163 107.676 62.2945 107.744 62.3412C107.907 62.4533 108.073 62.5655 108.242 62.6713C108.31 62.7181 108.334 62.8115 108.289 62.8862C108.263 62.9392 108.212 62.9641 108.165 62.9641ZM17.9725 62.4253C17.9369 62.4253 17.9014 62.4129 17.8717 62.3848C17.7265 62.2447 17.5813 62.1014 17.4361 61.9582C17.3769 61.899 17.3739 61.7993 17.4302 61.7371C17.4865 61.6748 17.5813 61.6717 17.6406 61.7308C17.7828 61.871 17.928 62.0142 18.0732 62.1544C18.1325 62.2135 18.1384 62.3101 18.0821 62.3755C18.0525 62.4066 18.011 62.4253 17.9725 62.4253ZM106.929 62.1108C106.9 62.1108 106.87 62.1014 106.843 62.0827C106.68 61.9644 106.517 61.8398 106.36 61.7184C106.295 61.6686 106.28 61.5689 106.328 61.5004C106.375 61.4319 106.47 61.4163 106.535 61.4661C106.692 61.5876 106.852 61.709 107.012 61.8274C107.08 61.8772 107.095 61.9737 107.048 62.0454C107.021 62.0859 106.974 62.1108 106.929 62.1108ZM16.8998 61.3509C16.8613 61.3509 16.8257 61.3353 16.7961 61.3073C16.6568 61.1609 16.5146 61.0146 16.3753 60.8651C16.319 60.8028 16.319 60.7062 16.3783 60.644C16.4376 60.5848 16.5294 60.5848 16.5887 60.6471C16.725 60.7934 16.8672 60.9429 17.0065 61.0862C17.0658 61.1454 17.0658 61.245 17.0065 61.3073C16.9739 61.3353 16.9383 61.3509 16.8998 61.3509ZM105.741 61.1827C105.708 61.1827 105.676 61.1703 105.649 61.1485C105.495 61.0208 105.338 60.8869 105.187 60.753C105.125 60.6969 105.116 60.6004 105.166 60.535C105.219 60.4696 105.311 60.4602 105.374 60.5132C105.525 60.644 105.679 60.7748 105.833 60.9024C105.898 60.9554 105.907 61.055 105.857 61.1204C105.827 61.1609 105.785 61.1827 105.741 61.1827ZM15.8627 60.236C15.8242 60.236 15.7827 60.2204 15.756 60.1862C15.6197 60.0367 15.4864 59.881 15.3531 59.7284C15.2968 59.6661 15.3027 59.5664 15.3619 59.5073C15.4212 59.4481 15.516 59.4543 15.5723 59.5166C15.7057 59.6692 15.839 59.8218 15.9724 59.9713C16.0287 60.0336 16.0257 60.1332 15.9664 60.1924C15.9368 60.2235 15.9012 60.236 15.8627 60.236ZM104.606 60.1799C104.571 60.1799 104.535 60.1675 104.508 60.1395C104.36 60.0024 104.212 59.8592 104.067 59.7159C104.007 59.6567 104.005 59.5571 104.061 59.4948C104.117 59.4325 104.212 59.4294 104.271 59.4886C104.413 59.6287 104.562 59.7689 104.707 59.9059C104.769 59.9619 104.772 60.0616 104.719 60.127C104.686 60.1612 104.648 60.1799 104.606 60.1799ZM14.7812 59.2145C14.7278 59.2145 14.6775 59.2145 14.6241 59.2145C14.5412 59.2145 14.476 59.1429 14.4789 59.0557C14.4789 58.9716 14.5471 58.9031 14.6271 58.9031H14.63C14.636 58.9031 14.6449 58.9031 14.6508 58.9031C14.556 58.7879 14.4641 58.6726 14.3693 58.5605C14.316 58.4951 14.3248 58.3955 14.3871 58.3425C14.4493 58.2865 14.5441 58.2958 14.5945 58.3612C14.7219 58.5169 14.8493 58.6758 14.9797 58.8315C14.9975 58.8533 15.0093 58.8782 15.0123 58.9031C15.0775 58.9 15.1427 58.9 15.2079 58.8969C15.2908 58.8937 15.359 58.9591 15.3619 59.0463C15.3649 59.1335 15.3027 59.2052 15.2197 59.2083C15.0775 59.2083 14.9293 59.2145 14.7812 59.2145ZM13.7411 59.1585C13.7352 59.1585 13.7322 59.1585 13.7263 59.1585C13.5278 59.1367 13.3292 59.1117 13.1307 59.0775C13.0507 59.065 12.9944 58.9841 13.0062 58.9C13.0181 58.8159 13.0951 58.7567 13.1751 58.7692C13.3677 58.8003 13.5633 58.8252 13.753 58.847C13.833 58.8564 13.8952 58.9311 13.8863 59.0183C13.8804 59.0993 13.8152 59.1585 13.7411 59.1585ZM16.1027 59.1211C16.0287 59.1211 15.9664 59.065 15.9575 58.9872C15.9457 58.9031 16.002 58.8221 16.085 58.8128C16.2776 58.7847 16.4702 58.7505 16.6598 58.71C16.7398 58.6913 16.8168 58.7474 16.8346 58.8315C16.8494 58.9155 16.7991 58.9965 16.7191 59.0152C16.5235 59.0557 16.325 59.0931 16.1264 59.1211C16.1146 59.1211 16.1087 59.1211 16.1027 59.1211ZM103.53 59.1086C103.492 59.1086 103.453 59.0931 103.427 59.0619C103.287 58.9155 103.148 58.763 103.012 58.6104C102.956 58.5481 102.959 58.4484 103.018 58.3892C103.077 58.3301 103.172 58.3332 103.228 58.3955C103.365 58.545 103.501 58.6944 103.64 58.8408C103.696 58.9031 103.696 58.9996 103.64 59.0619C103.605 59.0931 103.566 59.1086 103.53 59.1086ZM12.2803 58.9C12.2684 58.9 12.2566 58.9 12.2447 58.8969C12.0521 58.847 11.8565 58.7941 11.6639 58.7349C11.5869 58.71 11.5395 58.6228 11.5632 58.5418C11.5869 58.4609 11.6699 58.411 11.7469 58.436C11.9336 58.4951 12.1232 58.5481 12.3129 58.5948C12.3929 58.6135 12.4403 58.6976 12.4225 58.7816C12.4077 58.8533 12.3484 58.9 12.2803 58.9ZM17.5458 58.7879C17.4836 58.7879 17.4243 58.7443 17.4036 58.6789C17.3798 58.5979 17.4243 58.5107 17.5013 58.4827C17.688 58.4235 17.8717 58.355 18.0495 58.2802C18.1266 58.2491 18.2125 58.2896 18.2421 58.3674C18.2718 58.4484 18.2332 58.5387 18.1592 58.5699C17.9754 58.6446 17.7828 58.7162 17.5902 58.7785C17.5754 58.7847 17.5606 58.7879 17.5458 58.7879ZM10.8668 58.4422C10.8491 58.4422 10.8313 58.4391 10.8135 58.4328C10.6268 58.3581 10.4402 58.2771 10.2594 58.1899C10.1853 58.1557 10.1498 58.0622 10.1853 57.9844C10.2179 57.9065 10.3068 57.8723 10.3809 57.9065C10.5587 57.9906 10.7394 58.0685 10.9202 58.1432C10.9972 58.1744 11.0357 58.2647 11.0061 58.3456C10.9824 58.4017 10.9261 58.4422 10.8668 58.4422ZM18.9118 58.193C18.8585 58.193 18.8081 58.1619 18.7814 58.109C18.7429 58.0342 18.7696 57.9377 18.8436 57.8972C19.0155 57.8006 19.1844 57.6979 19.3444 57.592C19.4126 57.5453 19.5044 57.5671 19.5489 57.6387C19.5933 57.7103 19.5726 57.8069 19.5044 57.8536C19.3355 57.9657 19.1607 58.0716 18.9829 58.1712C18.9592 58.1899 18.9355 58.193 18.9118 58.193ZM102.517 57.9719C102.476 57.9719 102.434 57.9532 102.404 57.919C102.274 57.7633 102.144 57.6044 102.016 57.4425C101.963 57.3771 101.972 57.2775 102.034 57.2245C102.096 57.1684 102.191 57.1778 102.241 57.2432C102.366 57.402 102.496 57.5577 102.624 57.7134C102.677 57.7788 102.671 57.8754 102.609 57.9346C102.588 57.9595 102.553 57.9719 102.517 57.9719ZM13.9189 57.891C13.8744 57.891 13.833 57.8723 13.8033 57.8318C13.6789 57.6698 13.5544 57.5048 13.4329 57.3428C13.3826 57.2743 13.3944 57.1778 13.4596 57.1249C13.5248 57.0719 13.6166 57.0844 13.667 57.1529C13.7885 57.3148 13.91 57.4768 14.0345 57.6387C14.0848 57.7041 14.0759 57.8038 14.0107 57.8567C13.9841 57.8816 13.9515 57.891 13.9189 57.891ZM9.52454 57.7851C9.50083 57.7851 9.47713 57.7788 9.45342 57.7664C9.2786 57.6636 9.10377 57.5577 8.93487 57.4456C8.86672 57.3989 8.84598 57.3024 8.88746 57.2307C8.93191 57.1591 9.02377 57.1373 9.09192 57.1809C9.25489 57.2899 9.42379 57.3927 9.59566 57.4923C9.66677 57.5328 9.69344 57.6294 9.65492 57.7041C9.62825 57.757 9.57788 57.7851 9.52454 57.7851ZM20.1445 57.3366C20.103 57.3366 20.0585 57.3179 20.0289 57.2806C19.9756 57.2152 19.9874 57.1155 20.0496 57.0626C20.1978 56.9349 20.343 56.7979 20.4823 56.6577C20.5415 56.5985 20.6334 56.5985 20.6926 56.6608C20.7489 56.7231 20.7489 56.8197 20.6897 56.8819C20.5445 57.0283 20.3934 57.1716 20.2393 57.3055C20.2097 57.3242 20.1771 57.3366 20.1445 57.3366ZM8.28298 56.9411C8.25335 56.9411 8.22075 56.9318 8.19409 56.91C8.03704 56.7854 7.87703 56.6577 7.72294 56.5269C7.65776 56.474 7.64887 56.3743 7.69924 56.3089C7.74961 56.2404 7.84443 56.2311 7.90666 56.284C8.05778 56.4117 8.21483 56.5394 8.36891 56.6608C8.4341 56.7107 8.44892 56.8103 8.39854 56.8788C8.37484 56.9193 8.33039 56.9411 8.28298 56.9411ZM101.578 56.7698C101.533 56.7698 101.489 56.748 101.459 56.7107C101.338 56.5456 101.219 56.3774 101.101 56.2093C101.053 56.1407 101.068 56.0411 101.133 55.9913C101.198 55.9414 101.293 55.957 101.341 56.0255C101.456 56.1906 101.575 56.3587 101.693 56.5207C101.744 56.5892 101.732 56.6857 101.667 56.7387C101.643 56.7605 101.61 56.7698 101.578 56.7698ZM13.0122 56.6639C12.9677 56.6639 12.9233 56.6421 12.8936 56.6017C12.7751 56.4366 12.6566 56.2653 12.544 56.0971C12.4966 56.0286 12.5114 55.929 12.5766 55.8792C12.6418 55.8293 12.7366 55.8449 12.784 55.9134C12.8996 56.0816 13.0151 56.2497 13.1337 56.4148C13.1811 56.4833 13.1692 56.5799 13.104 56.6328C13.0714 56.6515 13.0418 56.6639 13.0122 56.6639ZM21.1845 56.2311C21.1519 56.2311 21.1193 56.2186 21.0927 56.1968C21.0304 56.1439 21.0186 56.0442 21.0719 55.9788C21.1934 55.8231 21.309 55.658 21.4186 55.4899C21.466 55.4182 21.5579 55.4027 21.626 55.4494C21.6942 55.4992 21.709 55.5958 21.6646 55.6674C21.552 55.8418 21.4305 56.0131 21.3031 56.175C21.2705 56.2124 21.226 56.2311 21.1845 56.2311ZM7.1392 55.957C7.10365 55.957 7.06809 55.9445 7.04142 55.9165C6.89623 55.7795 6.74807 55.6362 6.60584 55.4899C6.54657 55.4307 6.54361 55.331 6.60287 55.2688C6.65917 55.2065 6.754 55.2034 6.81326 55.2656C6.95549 55.4089 7.09772 55.549 7.24291 55.6861C7.30514 55.7421 7.3081 55.8418 7.25477 55.9072C7.22217 55.9414 7.18069 55.957 7.1392 55.957ZM100.712 55.5117C100.665 55.5117 100.618 55.4868 100.591 55.4432C100.481 55.2719 100.372 55.0944 100.265 54.92C100.221 54.8483 100.241 54.7518 100.309 54.7051C100.378 54.6584 100.47 54.6802 100.514 54.7518C100.618 54.9231 100.727 55.0975 100.837 55.2688C100.881 55.3404 100.864 55.4369 100.798 55.4836C100.772 55.5023 100.742 55.5117 100.712 55.5117ZM12.1529 55.3964C12.1054 55.3964 12.058 55.3715 12.0314 55.3279C11.9188 55.1566 11.8091 54.9822 11.6995 54.8078C11.655 54.7362 11.6728 54.6397 11.741 54.593C11.8091 54.5462 11.901 54.5649 11.9454 54.6366C12.0521 54.8078 12.1647 54.9822 12.2743 55.1504C12.3218 55.222 12.304 55.3186 12.2358 55.3684C12.2092 55.3871 12.1795 55.3964 12.1529 55.3964ZM21.9994 54.9386C21.9757 54.9386 21.952 54.9324 21.9283 54.92C21.8572 54.8795 21.8305 54.786 21.869 54.7082C21.9609 54.5307 22.0468 54.3469 22.1268 54.1601C22.1594 54.0822 22.2483 54.048 22.3224 54.0822C22.3965 54.1165 22.4291 54.2099 22.3965 54.2878C22.3135 54.4808 22.2246 54.6708 22.1298 54.8546C22.1031 54.9075 22.0527 54.9386 21.9994 54.9386ZM6.08136 54.8701C6.04284 54.8701 6.00136 54.8546 5.97469 54.8203C5.83838 54.6708 5.70504 54.5151 5.5717 54.3594C5.51836 54.294 5.52429 54.1975 5.58355 54.1383C5.64578 54.0822 5.73764 54.0885 5.79393 54.1507C5.92431 54.3033 6.05766 54.459 6.191 54.6054C6.2473 54.6677 6.24433 54.7674 6.18507 54.8265C6.15544 54.8577 6.11988 54.8701 6.08136 54.8701ZM99.9243 54.1975C99.8739 54.1975 99.8235 54.1694 99.7969 54.1196C99.6961 53.9421 99.5983 53.7583 99.5006 53.5777C99.462 53.503 99.4857 53.4064 99.5569 53.3659C99.628 53.3255 99.7198 53.3504 99.7583 53.4251C99.8532 53.6026 99.951 53.7833 100.049 53.9608C100.09 54.0355 100.067 54.1289 99.9954 54.1725C99.9776 54.1881 99.951 54.1975 99.9243 54.1975ZM11.3469 54.0916C11.2965 54.0916 11.2461 54.0635 11.2195 54.0137C11.1187 53.8362 11.0209 53.6493 10.9261 53.4656C10.8876 53.3909 10.9143 53.2943 10.9883 53.2538C11.0595 53.2133 11.1513 53.2414 11.1898 53.3192C11.2817 53.4999 11.3795 53.6805 11.4773 53.8549C11.5187 53.9296 11.495 54.0231 11.4239 54.0667C11.4002 54.0853 11.3735 54.0916 11.3469 54.0916ZM5.10945 53.6992C5.065 53.6992 5.02352 53.6805 4.99388 53.64C4.86943 53.4781 4.74498 53.313 4.62645 53.1479C4.57608 53.0794 4.5909 52.9829 4.65312 52.9299C4.71831 52.877 4.81017 52.8926 4.86054 52.958C4.97907 53.1199 5.10056 53.285 5.22205 53.4438C5.27242 53.5092 5.26353 53.6089 5.2013 53.6618C5.17464 53.6898 5.14204 53.6992 5.10945 53.6992ZM22.5831 53.5123C22.5683 53.5123 22.5505 53.5092 22.5357 53.503C22.4587 53.4749 22.4172 53.3877 22.4439 53.3068C22.5061 53.1168 22.5624 52.9175 22.6128 52.7213C22.6335 52.6372 22.7165 52.5905 22.7935 52.6123C22.8735 52.6341 22.918 52.7213 22.8972 52.8023C22.8439 53.0078 22.7876 53.2102 22.7224 53.4064C22.7046 53.4687 22.6454 53.5123 22.5831 53.5123ZM99.2161 52.8334C99.1628 52.8334 99.1094 52.8023 99.0827 52.7493C98.9939 52.5656 98.905 52.3756 98.819 52.1888C98.7835 52.1109 98.8161 52.0175 98.8872 51.9801C98.9613 51.9427 99.0502 51.977 99.0857 52.0517C99.1716 52.2386 99.2576 52.4223 99.3465 52.6061C99.385 52.6839 99.3554 52.7774 99.2813 52.8147C99.2605 52.8272 99.2398 52.8334 99.2161 52.8334ZM10.6624 52.712C10.6061 52.712 10.5528 52.6777 10.529 52.6216C10.4461 52.4317 10.3661 52.2386 10.289 52.0455C10.2564 51.9645 10.295 51.8742 10.369 51.8431C10.4461 51.8088 10.532 51.8493 10.5616 51.9272C10.6357 52.1171 10.7157 52.3071 10.7957 52.4908C10.8313 52.5687 10.7987 52.6621 10.7217 52.6964C10.7039 52.7088 10.6831 52.712 10.6624 52.712ZM4.2205 52.4566C4.17309 52.4566 4.12865 52.4348 4.09901 52.3912C3.98641 52.2199 3.87381 52.0455 3.76418 51.8711C3.71973 51.7995 3.73751 51.7029 3.80566 51.6562C3.87381 51.6095 3.96567 51.6282 4.01012 51.6998C4.11679 51.8711 4.22939 52.0424 4.33903 52.2106C4.38644 52.2822 4.36866 52.3787 4.30347 52.4286C4.27977 52.4472 4.25013 52.4566 4.2205 52.4566ZM22.9506 52.005C22.9417 52.005 22.9328 52.005 22.9239 52.0019C22.8439 51.9863 22.7906 51.9054 22.8054 51.8213C22.8409 51.622 22.8706 51.4195 22.8943 51.214C22.9061 51.1299 22.9802 51.0676 23.0602 51.0801C23.1402 51.0925 23.1995 51.1704 23.1876 51.2545C23.161 51.4631 23.1313 51.6749 23.0958 51.8773C23.0839 51.9521 23.0217 52.005 22.9506 52.005ZM98.5849 51.4289C98.5286 51.4289 98.4723 51.3946 98.4486 51.3355C98.3686 51.1455 98.2916 50.9524 98.2175 50.7593C98.1879 50.6783 98.2234 50.588 98.2975 50.5569C98.3746 50.5257 98.4605 50.5631 98.4901 50.641C98.5642 50.8309 98.6412 51.0209 98.7183 51.2109C98.7509 51.2887 98.7183 51.3822 98.6412 51.4164C98.6235 51.4258 98.6027 51.4289 98.5849 51.4289ZM10.1083 51.2701C10.0461 51.2701 9.98975 51.2296 9.96901 51.1673C9.90382 50.9711 9.8416 50.7718 9.78233 50.5725C9.75863 50.4915 9.80307 50.4043 9.88012 50.3763C9.95716 50.3513 10.0401 50.3981 10.0668 50.479C10.1231 50.6752 10.1853 50.8714 10.2505 51.0645C10.2772 51.1455 10.2357 51.2358 10.1587 51.2638C10.1409 51.2669 10.1261 51.2701 10.1083 51.2701ZM3.41749 51.1517C3.36712 51.1517 3.31674 51.1237 3.29007 51.077C3.18933 50.8995 3.08858 50.7157 2.9908 50.5351C2.94931 50.4603 2.97598 50.3638 3.0471 50.3233C3.11821 50.2797 3.21007 50.3077 3.24859 50.3825C3.34341 50.56 3.44416 50.7406 3.5449 50.9181C3.58639 50.9929 3.56565 51.0863 3.49453 51.133C3.46786 51.1424 3.44119 51.1517 3.41749 51.1517ZM23.1254 50.4603C23.1224 50.4603 23.1195 50.4603 23.1165 50.4603C23.0335 50.4541 22.9713 50.3825 22.9772 50.2953C22.9891 50.0929 22.995 49.8873 22.998 49.6787C22.998 49.5915 23.0661 49.523 23.1491 49.5261C23.2321 49.5261 23.2973 49.5977 23.2943 49.6849C23.2913 49.8967 23.2824 50.1084 23.2706 50.314C23.2676 50.3949 23.2024 50.4603 23.1254 50.4603ZM98.0308 49.987C97.9716 49.987 97.9153 49.9496 97.8916 49.8842C97.8234 49.6911 97.7553 49.4918 97.6901 49.2956C97.6634 49.2146 97.7049 49.1243 97.7819 49.0963C97.859 49.0683 97.9449 49.1119 97.9716 49.1928C98.0368 49.3859 98.1019 49.5821 98.1701 49.7752C98.1997 49.8562 98.1582 49.9465 98.0842 49.9745C98.0634 49.9839 98.0456 49.987 98.0308 49.987ZM2.69744 49.7908C2.64411 49.7908 2.59077 49.7596 2.5641 49.7067C2.47225 49.5198 2.38335 49.333 2.29742 49.1461C2.26186 49.0683 2.29446 48.9748 2.36557 48.9375C2.43965 48.9001 2.52854 48.9344 2.5641 49.0091C2.64707 49.1928 2.73597 49.3797 2.82486 49.5634C2.86338 49.6413 2.83375 49.7347 2.75967 49.7721C2.74189 49.7845 2.72115 49.7908 2.69744 49.7908ZM9.68159 49.7814C9.6164 49.7814 9.55417 49.7347 9.53935 49.6631C9.49194 49.4607 9.44453 49.2551 9.40305 49.0527C9.38527 48.9686 9.43565 48.8845 9.51565 48.869C9.59565 48.8503 9.67566 48.9032 9.69048 48.9873C9.73196 49.1866 9.77641 49.389 9.82382 49.5884C9.84456 49.6724 9.79715 49.7565 9.71714 49.7783C9.70825 49.7783 9.69344 49.7814 9.68159 49.7814ZM23.1343 48.9032C23.0543 48.9032 22.9891 48.8378 22.9861 48.7537C22.9772 48.5513 22.9654 48.3427 22.9506 48.1371C22.9446 48.0499 23.0039 47.9752 23.0869 47.9689C23.1698 47.9627 23.241 48.025 23.2469 48.1122C23.2617 48.3209 23.2765 48.5326 23.2824 48.7382C23.2854 48.8254 23.2232 48.897 23.1402 48.9001C23.1372 48.9032 23.1372 48.9032 23.1343 48.9032ZM97.5508 48.5139C97.4886 48.5139 97.4293 48.4703 97.4086 48.4049C97.3493 48.2087 97.293 48.0063 97.2367 47.807C97.213 47.7229 97.2604 47.6388 97.3375 47.6139C97.4175 47.589 97.4975 47.6388 97.5212 47.7198C97.5745 47.9191 97.6338 48.1184 97.6901 48.3115C97.7138 48.3925 97.6693 48.4797 97.5923 48.5077C97.5804 48.5139 97.5656 48.5139 97.5508 48.5139ZM2.06629 48.3831C2.00999 48.3831 1.95369 48.3489 1.92999 48.2897C1.84998 48.0966 1.77294 47.9035 1.70183 47.7105C1.67219 47.6295 1.70775 47.5392 1.78479 47.508C1.86184 47.4769 1.94777 47.5143 1.9774 47.5952C2.04851 47.7852 2.12556 47.9783 2.2026 48.1683C2.23519 48.2461 2.19964 48.3395 2.12556 48.3738C2.10481 48.38 2.08407 48.3831 2.06629 48.3831ZM9.38527 48.2586C9.31416 48.2586 9.25193 48.2025 9.24008 48.1278C9.20748 47.9222 9.18081 47.7136 9.15711 47.5049C9.14822 47.4208 9.20452 47.343 9.28749 47.3305C9.36749 47.3212 9.44157 47.3803 9.45342 47.4675C9.47713 47.67 9.5038 47.8755 9.53639 48.0779C9.54824 48.162 9.49491 48.243 9.4149 48.2555C9.40009 48.2555 9.3912 48.2586 9.38527 48.2586ZM23.0039 47.3554C22.9298 47.3554 22.8676 47.2994 22.8557 47.2215C22.8291 47.0191 22.8024 46.8135 22.7698 46.6111C22.755 46.527 22.8113 46.4461 22.8913 46.4336C22.9713 46.418 23.0483 46.4772 23.0602 46.5613C23.0928 46.7668 23.1224 46.9755 23.1491 47.181C23.1609 47.2651 23.1017 47.343 23.0217 47.3554C23.0158 47.3554 23.0098 47.3554 23.0039 47.3554ZM97.1478 47.0191C97.0826 47.0191 97.0204 46.9724 97.0056 46.9007C96.9582 46.7014 96.9108 46.4959 96.8633 46.2935C96.8456 46.2094 96.893 46.1253 96.973 46.1066C97.053 46.0879 97.133 46.1378 97.1508 46.2218C97.1952 46.4243 97.2426 46.6236 97.29 46.8229C97.3108 46.907 97.2634 46.9911 97.1834 47.0129C97.1745 47.016 97.1626 47.0191 97.1478 47.0191ZM1.52404 46.935C1.46181 46.935 1.40551 46.8945 1.38477 46.8322C1.31958 46.636 1.25439 46.4367 1.19513 46.2374C1.17142 46.1564 1.21291 46.0692 1.28995 46.0412C1.36699 46.0163 1.44996 46.0599 1.47663 46.1409C1.53589 46.334 1.59812 46.5333 1.66331 46.7264C1.68997 46.8073 1.65145 46.8976 1.57145 46.9257C1.55663 46.9319 1.54182 46.935 1.52404 46.935ZM9.21637 46.7108C9.13933 46.7108 9.07414 46.6485 9.06821 46.5644C9.0534 46.3558 9.04451 46.144 9.03858 45.9384C9.03562 45.8512 9.10081 45.7796 9.18081 45.7765C9.26378 45.7734 9.33193 45.8419 9.3349 45.926C9.34082 46.1284 9.34971 46.3371 9.36453 46.5426C9.37046 46.6298 9.30823 46.7014 9.22822 46.7077C9.22526 46.7108 9.21933 46.7108 9.21637 46.7108ZM22.752 45.8232C22.6839 45.8232 22.6217 45.7734 22.6068 45.6987C22.5654 45.4993 22.5209 45.2969 22.4765 45.0976C22.4557 45.0135 22.5061 44.9294 22.5861 44.9107C22.6661 44.8889 22.7461 44.9419 22.7639 45.026C22.8113 45.2284 22.8557 45.4339 22.8972 45.6364C22.915 45.7204 22.8646 45.8045 22.7846 45.8201C22.7728 45.8201 22.7609 45.8232 22.752 45.8232ZM96.8189 45.5024C96.7508 45.5024 96.6885 45.4526 96.6737 45.3779C96.6352 45.1755 96.5967 44.9699 96.5611 44.7644C96.5463 44.6803 96.5996 44.5993 96.6796 44.5837C96.7596 44.5682 96.8367 44.6242 96.8515 44.7083C96.8871 44.9107 96.9256 45.1163 96.9641 45.3156C96.9819 45.3997 96.9285 45.4807 96.8485 45.4993C96.8396 45.5024 96.8278 45.5024 96.8189 45.5024ZM1.08253 45.4495C1.01734 45.4495 0.958076 45.4028 0.940297 45.3343C0.919555 45.2595 0.901776 45.1848 0.883997 45.1101C0.851403 44.9855 0.821771 44.8547 0.79214 44.727C0.774361 44.6429 0.821771 44.5588 0.901776 44.5401C0.981781 44.5183 1.06179 44.5713 1.07957 44.6554C1.1092 44.7799 1.13883 44.9076 1.16846 45.0322C1.18624 45.1069 1.20402 45.1786 1.22476 45.2533C1.2455 45.3374 1.20105 45.4215 1.12105 45.4433C1.1092 45.4464 1.09734 45.4495 1.08253 45.4495ZM9.18674 45.1568H9.18378C9.10081 45.1537 9.03858 45.082 9.03858 44.9979C9.04451 44.7893 9.0534 44.5775 9.06525 44.3689C9.07118 44.2817 9.14229 44.2163 9.2223 44.2225C9.30527 44.2287 9.36453 44.3035 9.36157 44.3875C9.34971 44.59 9.34082 44.7986 9.3349 45.0042C9.33193 45.0883 9.26675 45.1568 9.18674 45.1568ZM22.3846 44.3159C22.3224 44.3159 22.2631 44.2723 22.2424 44.2038C22.1861 44.0076 22.1268 43.8083 22.0616 43.6152C22.035 43.5342 22.0764 43.4439 22.1535 43.4159C22.2305 43.3879 22.3165 43.4315 22.3431 43.5124C22.4083 43.7086 22.4676 43.9111 22.5268 44.1104C22.5505 44.1913 22.5061 44.2785 22.4291 44.3035C22.4142 44.3128 22.3994 44.3159 22.3846 44.3159ZM96.5581 43.9702C96.487 43.9702 96.4218 43.9142 96.413 43.8394C96.3833 43.637 96.3537 43.4284 96.327 43.2197C96.3152 43.1356 96.3715 43.0546 96.4544 43.0453C96.5344 43.0328 96.6115 43.092 96.6204 43.1792C96.647 43.3848 96.6767 43.5903 96.7063 43.7927C96.7182 43.8768 96.6648 43.9578 96.5819 43.9702C96.573 43.9702 96.5641 43.9702 96.5581 43.9702ZM0.744729 43.9329C0.676577 43.9329 0.614351 43.883 0.599535 43.8083C0.561014 43.6059 0.525456 43.3972 0.489899 43.1917C0.475083 43.1076 0.531383 43.0266 0.611388 43.011C0.691393 42.9955 0.768435 43.0546 0.78325 43.1387C0.815845 43.3412 0.851403 43.5467 0.889924 43.746C0.904739 43.8301 0.854366 43.9111 0.774361 43.9298C0.765471 43.9329 0.753619 43.9329 0.744729 43.9329ZM9.3023 43.6059C9.29638 43.6059 9.28749 43.6059 9.2786 43.6028C9.19859 43.5903 9.14229 43.5093 9.15415 43.4252C9.18378 43.2197 9.2223 43.0079 9.26971 42.8024C9.28749 42.7183 9.36749 42.6654 9.4475 42.6872C9.5275 42.7058 9.57788 42.7899 9.55713 42.874C9.51269 43.0733 9.47417 43.2726 9.4475 43.472C9.43861 43.5529 9.37638 43.6059 9.3023 43.6059ZM21.8927 42.8491C21.8335 42.8491 21.7801 42.8117 21.7564 42.7526C21.6823 42.5626 21.6023 42.3726 21.5223 42.1889C21.4868 42.111 21.5194 42.0176 21.5964 41.9833C21.6705 41.946 21.7594 41.9802 21.792 42.0612C21.8749 42.2481 21.9549 42.4443 22.029 42.6373C22.0587 42.7183 22.0231 42.8086 21.949 42.8398C21.9283 42.846 21.9105 42.8491 21.8927 42.8491ZM96.3655 42.4287C96.2915 42.4287 96.2263 42.3695 96.2174 42.2885C96.1966 42.083 96.1759 41.8743 96.1581 41.6657C96.1492 41.5785 96.2115 41.5037 96.2915 41.4975C96.3744 41.4913 96.4455 41.5536 96.4515 41.6377C96.4692 41.8432 96.49 42.0487 96.5107 42.2543C96.5196 42.3384 96.4604 42.4162 96.3804 42.4256C96.3744 42.4287 96.3685 42.4287 96.3655 42.4287ZM0.504714 42.4007C0.430636 42.4007 0.368409 42.3446 0.356557 42.2667C0.329889 42.0612 0.306183 41.8525 0.285441 41.6439C0.276552 41.5598 0.335815 41.4819 0.41582 41.4726C0.498788 41.4633 0.569904 41.5255 0.578793 41.6096C0.599535 41.8152 0.62324 42.0207 0.646945 42.2231C0.658798 42.3072 0.599535 42.3851 0.51953 42.3975C0.516567 42.3975 0.510641 42.4007 0.504714 42.4007ZM9.66973 42.1017C9.65195 42.1017 9.63714 42.0986 9.61936 42.0923C9.54232 42.0643 9.5038 41.974 9.53047 41.893C9.59862 41.6968 9.67566 41.4975 9.75863 41.3044C9.79122 41.2266 9.88012 41.1923 9.9542 41.2266C10.0283 41.2608 10.0609 41.3543 10.0283 41.4321C9.94827 41.619 9.87419 41.8089 9.809 41.9989C9.78826 42.0643 9.73196 42.1017 9.66973 42.1017ZM21.2586 41.4415C21.2053 41.4415 21.1549 41.4134 21.1282 41.3605C21.0334 41.1799 20.9356 40.9992 20.8378 40.828C20.7964 40.7532 20.8171 40.6598 20.8882 40.6131C20.9593 40.5695 21.0482 40.5913 21.0927 40.666C21.1934 40.8404 21.2942 41.0242 21.392 41.211C21.4305 41.2858 21.4038 41.3823 21.3327 41.4228C21.306 41.4352 21.2823 41.4415 21.2586 41.4415ZM96.2352 40.8809C96.1581 40.8809 96.0929 40.8186 96.087 40.7345C96.0752 40.529 96.0633 40.3172 96.0514 40.1117C96.0485 40.0245 96.1107 39.9529 96.1907 39.9497C96.2707 39.9466 96.3418 40.012 96.3448 40.0961C96.3537 40.3016 96.3655 40.5103 96.3774 40.7158C96.3833 40.803 96.3211 40.8747 96.2381 40.8809C96.2411 40.8809 96.2381 40.8809 96.2352 40.8809ZM0.356557 40.8529C0.279515 40.8529 0.214326 40.7906 0.208399 40.7065C0.193584 40.501 0.184694 40.2892 0.175805 40.0805C0.172842 39.9933 0.235068 39.9217 0.318036 39.9186C0.398041 39.9155 0.469157 39.9809 0.47212 40.0681C0.481009 40.2736 0.492862 40.4823 0.504714 40.6847C0.510641 40.7719 0.448415 40.8435 0.368409 40.8498C0.362483 40.8498 0.35952 40.8529 0.356557 40.8529ZM10.3009 40.6972C10.2742 40.6972 10.2505 40.6909 10.2268 40.6754C10.1557 40.6318 10.132 40.5352 10.1735 40.4636C10.2742 40.283 10.3839 40.1023 10.4994 39.931C10.5468 39.8594 10.6387 39.8438 10.7068 39.8906C10.775 39.9404 10.7898 40.0369 10.7454 40.1086C10.6357 40.2736 10.529 40.448 10.4313 40.6224C10.4016 40.6691 10.3513 40.6972 10.3009 40.6972ZM20.4704 40.1272C20.426 40.1272 20.3786 40.1054 20.3519 40.0618C20.2363 39.8937 20.1148 39.7317 19.9933 39.5791C19.94 39.5137 19.9489 39.4141 20.0141 39.3611C20.0763 39.3051 20.1711 39.3144 20.2215 39.3829C20.346 39.5418 20.4704 39.7099 20.5919 39.8812C20.6393 39.9497 20.6245 40.0494 20.5593 40.0992C20.5326 40.1179 20.5 40.1272 20.4704 40.1272ZM11.1661 39.4359C11.1306 39.4359 11.098 39.4234 11.0683 39.3985C11.0061 39.3425 11.0002 39.2428 11.0535 39.1774C11.1869 39.0186 11.3261 38.8629 11.4684 38.7165C11.5276 38.6573 11.6195 38.6573 11.6787 38.7196C11.735 38.7819 11.735 38.8784 11.6758 38.9407C11.5395 39.0809 11.4032 39.2303 11.2758 39.3829C11.2491 39.4203 11.2076 39.4359 11.1661 39.4359ZM96.17 39.3269C96.09 39.3269 96.0248 39.2584 96.0218 39.1743C96.0159 38.9687 96.0129 38.757 96.0129 38.5514C96.0129 38.4642 96.0781 38.3957 96.1611 38.3957C96.2411 38.3957 96.3092 38.4642 96.3092 38.5514C96.3122 38.757 96.3152 38.9656 96.3181 39.1712C96.3211 39.2584 96.2559 39.33 96.1729 39.33C96.1729 39.3269 96.17 39.3269 96.17 39.3269ZM0.300257 39.2957C0.220252 39.2957 0.1521 39.2272 0.1521 39.14C0.1521 39.0746 0.1521 39.0092 0.1521 38.9407C0.1521 38.8006 0.1521 38.6542 0.155063 38.5141C0.155063 38.4269 0.223215 38.3583 0.306183 38.3615C0.389152 38.3615 0.454341 38.4331 0.451378 38.5203C0.448415 38.6604 0.448415 38.8037 0.448415 38.9438C0.448415 39.0092 0.448415 39.0746 0.448415 39.14C0.448415 39.2272 0.383225 39.2957 0.300257 39.2957ZM19.5044 38.9501C19.4659 38.9501 19.4303 38.9345 19.4007 38.9065C19.2614 38.7632 19.1163 38.6262 18.9681 38.5016C18.9059 38.4455 18.897 38.349 18.9474 38.2836C19.0007 38.2182 19.0925 38.2089 19.1548 38.2618C19.3059 38.3926 19.46 38.5359 19.6052 38.6853C19.6644 38.7445 19.6644 38.8442 19.6081 38.9065C19.5815 38.9345 19.5429 38.9501 19.5044 38.9501ZM12.2477 38.377C12.2032 38.377 12.1588 38.3552 12.1291 38.3148C12.0788 38.2462 12.0936 38.1497 12.1588 38.0968C12.3218 37.9691 12.4907 37.8476 12.6596 37.7386C12.7277 37.6919 12.8196 37.7168 12.864 37.7884C12.9085 37.8601 12.8847 37.9566 12.8166 38.0033C12.6566 38.1092 12.4936 38.2244 12.3395 38.3459C12.3099 38.3677 12.2803 38.377 12.2477 38.377ZM18.3429 37.994C18.3162 37.994 18.2895 37.9878 18.2658 37.9722C18.0999 37.8663 17.931 37.7698 17.7591 37.6826C17.6851 37.6452 17.6554 37.5518 17.691 37.4739C17.7265 37.396 17.8154 37.3649 17.8895 37.4023C18.0703 37.4926 18.248 37.5954 18.4229 37.7075C18.494 37.7511 18.5147 37.8476 18.4732 37.9224C18.4407 37.966 18.3932 37.994 18.3429 37.994ZM96.164 37.7698C96.1611 37.7698 96.1611 37.7698 96.164 37.7698C96.0811 37.7698 96.0159 37.6981 96.0159 37.6109C96.0189 37.4054 96.0248 37.1936 96.0307 36.985C96.0337 36.8978 96.1018 36.8324 96.1848 36.8355C96.2678 36.8386 96.33 36.9102 96.327 36.9974C96.3211 37.203 96.3152 37.4116 96.3122 37.6172C96.3092 37.7044 96.244 37.7698 96.164 37.7698ZM0.332852 37.7417C0.329889 37.7417 0.326925 37.7417 0.323962 37.7417C0.240994 37.7386 0.178768 37.6639 0.184694 37.5798C0.193584 37.3742 0.208399 37.1625 0.220252 36.9538C0.226178 36.8666 0.297294 36.8043 0.377299 36.8106C0.460267 36.8168 0.51953 36.8915 0.513604 36.9787C0.498788 37.1843 0.486935 37.3929 0.478046 37.5954C0.478046 37.6763 0.412857 37.7417 0.332852 37.7417ZM13.5248 37.5922C13.4685 37.5922 13.4122 37.558 13.3885 37.4988C13.3559 37.421 13.3914 37.3275 13.4655 37.2933C13.6522 37.2092 13.8448 37.1344 14.0345 37.0722C14.1115 37.0472 14.1945 37.094 14.2182 37.1749C14.2419 37.2559 14.1974 37.3431 14.1204 37.368C13.9396 37.4272 13.7589 37.4957 13.5811 37.5767C13.5633 37.5891 13.5426 37.5922 13.5248 37.5922ZM16.9946 37.3618C16.9798 37.3618 16.968 37.3587 16.9532 37.3556C16.7694 37.2995 16.5828 37.2528 16.3931 37.2185C16.3131 37.203 16.2598 37.122 16.2716 37.0379C16.2864 36.9538 16.3635 36.8978 16.4435 36.9102C16.642 36.9476 16.8406 36.9943 17.0361 37.0535C17.1161 37.0784 17.1606 37.1625 17.1369 37.2466C17.1191 37.3182 17.0598 37.3618 16.9946 37.3618ZM14.9441 37.1843C14.8701 37.1843 14.8078 37.1251 14.796 37.0472C14.7871 36.9632 14.8434 36.8853 14.9234 36.8728C15.1249 36.8448 15.3293 36.8324 15.5308 36.8324C15.6138 36.8324 15.679 36.9009 15.679 36.9881C15.679 37.0753 15.6138 37.1438 15.5308 37.1438C15.3412 37.1438 15.1486 37.1594 14.959 37.1843C14.959 37.1843 14.9501 37.1843 14.9441 37.1843ZM96.2144 36.2157C96.2115 36.2157 96.2085 36.2157 96.2055 36.2157C96.1226 36.2126 96.0603 36.1379 96.0663 36.0507C96.0781 35.842 96.09 35.6334 96.1018 35.4278C96.1077 35.3406 96.1789 35.2784 96.2589 35.2846C96.3418 35.2908 96.4011 35.3656 96.3952 35.4496C96.3804 35.6552 96.3685 35.8638 96.3596 36.0694C96.3567 36.1535 96.2915 36.2157 96.2144 36.2157ZM0.448415 36.1908C0.442488 36.1908 0.436562 36.1908 0.433599 36.1908C0.353594 36.1815 0.294331 36.1036 0.30322 36.0195C0.323962 35.814 0.347667 35.6053 0.371373 35.3967C0.380262 35.3126 0.454341 35.2503 0.537309 35.2628C0.617314 35.2721 0.676577 35.3531 0.664724 35.4372C0.641019 35.6427 0.617314 35.8483 0.596572 36.0507C0.587682 36.1317 0.522493 36.1908 0.448415 36.1908ZM96.3211 34.6648C96.3152 34.6648 96.3122 34.6648 96.3063 34.6648C96.2263 34.6555 96.164 34.5808 96.1729 34.4967C96.1907 34.2911 96.2115 34.0794 96.2322 33.8738C96.2411 33.7897 96.3152 33.7275 96.3952 33.7368C96.4752 33.7461 96.5344 33.824 96.5256 33.9081C96.5048 34.1136 96.4841 34.3192 96.4663 34.5247C96.4633 34.6057 96.3981 34.6648 96.3211 34.6648ZM0.643982 34.6493C0.635093 34.6493 0.629167 34.6493 0.620277 34.6462C0.540272 34.6337 0.483972 34.5527 0.495825 34.4686C0.525456 34.2631 0.561014 34.0576 0.596572 33.852C0.611388 33.7679 0.68843 33.7119 0.768435 33.7275C0.84844 33.743 0.901776 33.824 0.886961 33.9081C0.851403 34.1105 0.818808 34.316 0.789177 34.5185C0.777324 34.5932 0.715098 34.6493 0.643982 34.6493ZM0.910666 33.1202C0.901776 33.1202 0.889924 33.1202 0.881034 33.1171C0.801029 33.0984 0.750656 33.0174 0.765471 32.9333C0.806956 32.7309 0.84844 32.5253 0.892887 32.3229C0.910666 32.2388 0.990671 32.1859 1.07068 32.2077C1.15068 32.2264 1.20105 32.3105 1.18031 32.3945C1.13587 32.5939 1.09438 32.7994 1.0529 32.9987C1.04104 33.0672 0.981781 33.1202 0.910666 33.1202ZM96.4841 33.1171C96.4781 33.1171 96.4722 33.1171 96.4663 33.1171C96.3863 33.1046 96.327 33.0267 96.3389 32.9427C96.3596 32.7838 96.3804 32.6219 96.4011 32.4599L96.4189 32.3229C96.4307 32.2388 96.5048 32.1797 96.5878 32.1921C96.6678 32.2046 96.7241 32.2824 96.7122 32.3696L96.6945 32.5067C96.6737 32.6655 96.653 32.8274 96.6322 32.9831C96.6204 33.061 96.5581 33.1171 96.4841 33.1171ZM68.3993 31.915C68.3164 31.915 68.2512 31.8464 68.2512 31.7592C68.2512 31.672 68.3164 31.6035 68.3993 31.6035C68.5949 31.6035 68.7934 31.6035 68.992 31.6004C69.072 31.6004 69.1401 31.6689 69.1401 31.7561C69.1401 31.8433 69.0749 31.9118 68.992 31.9118C68.7964 31.915 68.5949 31.915 68.3993 31.915ZM67.5104 31.9118C67.3119 31.9087 67.1133 31.9087 66.9148 31.9056C66.8318 31.9056 66.7666 31.834 66.7696 31.7468C66.7696 31.6596 66.8378 31.5942 66.9207 31.5942C67.1163 31.5973 67.3148 31.6004 67.5104 31.6004C67.5934 31.6004 67.6586 31.672 67.6586 31.7561C67.6586 31.8433 67.5934 31.9118 67.5104 31.9118ZM69.8809 31.8994C69.8009 31.8994 69.7357 31.8309 69.7328 31.7468C69.7298 31.6596 69.795 31.5911 69.878 31.588C70.0735 31.5848 70.2721 31.5786 70.4676 31.5755H70.4706C70.5506 31.5755 70.6158 31.644 70.6187 31.7281C70.6217 31.8153 70.5565 31.8869 70.4735 31.8869C70.278 31.8932 70.0794 31.8963 69.8809 31.8994ZM66.0318 31.8838H66.0288C65.8333 31.8776 65.6318 31.8714 65.4362 31.8651C65.3532 31.862 65.291 31.7904 65.294 31.7032C65.2969 31.616 65.3651 31.5506 65.4481 31.5537C65.6436 31.5599 65.8421 31.5662 66.0377 31.5724C66.1207 31.5755 66.1829 31.6471 66.1829 31.7312C66.177 31.8184 66.1118 31.8838 66.0318 31.8838ZM71.3595 31.8589C71.2795 31.8589 71.2143 31.7935 71.2114 31.7094C71.2084 31.6222 71.2736 31.5506 71.3536 31.5475C71.5492 31.5412 71.7477 31.5319 71.9433 31.5226C72.0262 31.5194 72.0944 31.5848 72.0974 31.672C72.1003 31.7592 72.0381 31.8309 71.9551 31.834C71.7566 31.8433 71.561 31.8496 71.3625 31.8589C71.3625 31.8589 71.3625 31.8589 71.3595 31.8589ZM64.5532 31.834C64.5502 31.834 64.5502 31.834 64.5472 31.834C64.3517 31.8246 64.1502 31.8153 63.9546 31.806C63.8717 31.8028 63.8094 31.7281 63.8154 31.644C63.8183 31.5568 63.8894 31.4914 63.9694 31.4976C64.165 31.507 64.3635 31.5163 64.5591 31.5257C64.6421 31.5288 64.7043 31.6004 64.7013 31.6876C64.6984 31.7686 64.6302 31.834 64.5532 31.834ZM72.8381 31.7904C72.7611 31.7904 72.6959 31.725 72.69 31.644C72.687 31.5568 72.7492 31.4852 72.8292 31.479C73.0248 31.4696 73.2234 31.4572 73.4189 31.4447C73.4989 31.4385 73.57 31.5039 73.576 31.5911C73.5819 31.6783 73.5197 31.7499 73.4367 31.7561C73.2382 31.7686 73.0426 31.781 72.8441 31.7904C72.8441 31.7904 72.8411 31.7904 72.8381 31.7904ZM63.0746 31.753C63.0716 31.753 63.0686 31.753 63.0657 31.753C62.8701 31.7406 62.6716 31.7281 62.473 31.7156C62.3901 31.7094 62.3308 31.6347 62.3338 31.5506C62.3367 31.4665 62.4108 31.4011 62.4908 31.4042C62.6864 31.4167 62.8849 31.4322 63.0805 31.4416C63.1635 31.4478 63.2257 31.5194 63.2198 31.6066C63.2168 31.6907 63.1516 31.753 63.0746 31.753ZM74.3167 31.697C74.2397 31.697 74.1745 31.6347 74.1686 31.5506C74.1627 31.4634 74.2249 31.3918 74.3049 31.3855C74.5005 31.37 74.699 31.3575 74.8946 31.3419C74.9775 31.3357 75.0487 31.4011 75.0546 31.4852C75.0605 31.5724 74.9983 31.6471 74.9183 31.6534C74.7197 31.6689 74.5242 31.6845 74.3256 31.697C74.3227 31.697 74.3197 31.697 74.3167 31.697ZM61.596 31.6502C61.593 31.6502 61.5871 31.6502 61.5841 31.6502C61.3885 31.6347 61.187 31.6191 60.9915 31.6004C60.9085 31.5942 60.8492 31.5194 60.8552 31.4322C60.8611 31.345 60.9322 31.2828 61.0152 31.289C61.2107 31.3046 61.4093 31.3232 61.6048 31.3388C61.6878 31.345 61.7471 31.4198 61.7411 31.507C61.7382 31.588 61.673 31.6502 61.596 31.6502ZM1.25143 31.6035C1.23958 31.6035 1.22772 31.6004 1.21291 31.5973C1.1329 31.5755 1.08549 31.4914 1.10623 31.4073C1.15661 31.208 1.20698 31.0056 1.26032 30.8032C1.28106 30.7191 1.36403 30.6724 1.44403 30.6942C1.52404 30.716 1.56848 30.8032 1.54774 30.8872C1.49441 31.0866 1.44403 31.2859 1.39366 31.4852C1.37588 31.5568 1.31662 31.6035 1.25143 31.6035ZM96.6974 31.5786C96.6885 31.5786 96.6826 31.5786 96.6737 31.5755C96.5937 31.563 96.5374 31.4821 96.5522 31.398C96.5848 31.1924 96.6174 30.9838 96.65 30.7814C96.6648 30.6973 96.7419 30.6412 96.8219 30.6537C96.9019 30.6693 96.9552 30.7502 96.9434 30.8343C96.9108 31.0367 96.8782 31.2423 96.8456 31.4447C96.8308 31.5257 96.7685 31.5786 96.6974 31.5786ZM75.7924 31.5786C75.7154 31.5786 75.6502 31.5163 75.6442 31.4354C75.6383 31.3482 75.6976 31.2734 75.7805 31.2672C75.9761 31.2485 76.1717 31.2298 76.3702 31.2111C76.4532 31.2018 76.5243 31.2672 76.5302 31.3513C76.5391 31.4354 76.4769 31.5132 76.3969 31.5194C76.2013 31.5381 75.9998 31.5568 75.8072 31.5755C75.8013 31.5786 75.7983 31.5786 75.7924 31.5786ZM60.1233 31.5194C60.1173 31.5194 60.1144 31.5194 60.1085 31.5194C59.9129 31.5008 59.7144 31.479 59.5188 31.4603C59.4388 31.4509 59.3766 31.3762 59.3854 31.289C59.3943 31.2049 59.4655 31.1395 59.5484 31.1488C59.744 31.1706 59.9396 31.1893 60.1381 31.208C60.2211 31.2174 60.2803 31.2921 60.2714 31.3762C60.2625 31.4572 60.1973 31.5194 60.1233 31.5194ZM77.268 31.4322C77.194 31.4322 77.1288 31.3731 77.1199 31.2921C77.111 31.208 77.1703 31.1302 77.2532 31.1208C77.4488 31.099 77.6444 31.0772 77.8399 31.0554C77.9199 31.0461 77.994 31.1084 78.0029 31.1924C78.0118 31.2765 77.9525 31.3544 77.8725 31.3637C77.677 31.3855 77.4784 31.4073 77.2829 31.4291C77.2769 31.4322 77.271 31.4322 77.268 31.4322ZM58.6506 31.3606C58.6447 31.3606 58.6387 31.3606 58.6328 31.3606C58.4372 31.3388 58.2387 31.3139 58.0431 31.289C57.9631 31.2796 57.9039 31.2018 57.9128 31.1177C57.9216 31.0336 57.9957 30.9713 58.0757 30.9807C58.2713 31.0056 58.4669 31.0274 58.6624 31.0492C58.7424 31.0585 58.8017 31.1364 58.7928 31.2205C58.7869 31.3014 58.7247 31.3606 58.6506 31.3606ZM78.7378 31.261C78.6637 31.261 78.5985 31.2018 78.5896 31.1239C78.5807 31.0398 78.637 30.962 78.72 30.9495C78.9156 30.9246 79.1141 30.8997 79.3067 30.8748C79.3867 30.8654 79.4608 30.9246 79.4726 31.0087C79.4815 31.0928 79.4252 31.1706 79.3452 31.1831C79.1497 31.208 78.9541 31.236 78.7555 31.2578C78.7496 31.261 78.7437 31.261 78.7378 31.261ZM57.1779 31.1769C57.172 31.1769 57.166 31.1769 57.1601 31.1769C56.9646 31.152 56.766 31.1239 56.5734 31.0959C56.4934 31.0834 56.4342 31.0056 56.446 30.9215C56.4579 30.8374 56.5319 30.7751 56.6119 30.7876C56.8075 30.8156 57.0031 30.8405 57.1986 30.8686C57.2786 30.8779 57.3379 30.9589 57.3261 31.043C57.3172 31.1208 57.252 31.1769 57.1779 31.1769ZM80.2075 31.0616C80.1334 31.0616 80.0712 31.0056 80.0623 30.9277C80.0504 30.8436 80.1067 30.7627 80.1897 30.7533C80.3823 30.7253 80.5808 30.6973 80.7764 30.6661C80.8564 30.6537 80.9335 30.7129 80.9453 30.7969C80.9572 30.881 80.9009 30.962 80.8209 30.9744C80.6253 31.0025 80.4268 31.0336 80.2342 31.0616C80.2193 31.0616 80.2134 31.0616 80.2075 31.0616ZM55.7111 30.9682C55.7052 30.9682 55.6963 30.9682 55.6904 30.9651C55.4978 30.9371 55.2993 30.9059 55.1037 30.8748C55.0237 30.8623 54.9674 30.7814 54.9792 30.6973C54.9911 30.6132 55.0681 30.554 55.1481 30.5665C55.3437 30.5976 55.5393 30.6288 55.7319 30.6568C55.8119 30.6693 55.8682 30.7471 55.8563 30.8343C55.8474 30.9122 55.7852 30.9682 55.7111 30.9682ZM81.6713 30.8374C81.6002 30.8374 81.535 30.7814 81.5261 30.7066C81.5142 30.6225 81.5676 30.5416 81.6505 30.5291C81.8431 30.498 82.0417 30.4637 82.2343 30.4326C82.3143 30.4201 82.3913 30.4762 82.4032 30.5603C82.415 30.6443 82.3617 30.7253 82.2817 30.7378C82.0861 30.772 81.8906 30.8032 81.695 30.8343C81.6861 30.8374 81.6802 30.8374 81.6713 30.8374ZM54.2503 30.7346C54.2414 30.7346 54.2355 30.7347 54.2266 30.7315C54.034 30.6973 53.8355 30.663 53.6429 30.6288C53.5629 30.6132 53.5066 30.5353 53.5214 30.4481C53.5362 30.3641 53.6103 30.3049 53.6932 30.3205C53.8888 30.3547 54.0844 30.389 54.277 30.4232C54.357 30.4357 54.4133 30.5167 54.3985 30.6007C54.3836 30.6786 54.3214 30.7346 54.2503 30.7346ZM83.1321 30.5883C83.061 30.5883 82.9988 30.5353 82.9869 30.4575C82.9721 30.3734 83.0284 30.2924 83.1084 30.2769C83.304 30.2426 83.4995 30.2052 83.6922 30.171C83.7722 30.1554 83.8492 30.2115 83.864 30.2955C83.8788 30.3796 83.8255 30.4606 83.7455 30.4762C83.5529 30.5135 83.3573 30.5478 83.1618 30.5852C83.1499 30.5852 83.141 30.5883 83.1321 30.5883ZM52.7895 30.4731C52.7806 30.4731 52.7717 30.4731 52.7628 30.4699C52.5672 30.4326 52.3717 30.3952 52.1791 30.3578C52.0991 30.3423 52.0457 30.2613 52.0605 30.1772C52.0754 30.0931 52.1524 30.0371 52.2324 30.0526C52.425 30.09 52.6206 30.1274 52.8132 30.1647C52.8932 30.1803 52.9465 30.2613 52.9317 30.3454C52.9228 30.4201 52.8606 30.4731 52.7895 30.4731ZM84.59 30.3111C84.5189 30.3111 84.4566 30.2582 84.4448 30.1834C84.43 30.0993 84.4833 30.0184 84.5633 30.0028C84.7559 29.9654 84.9515 29.9249 85.1441 29.8845C85.2241 29.8689 85.3011 29.9218 85.3189 30.0059C85.3337 30.09 85.2834 30.171 85.2034 30.1897C85.0108 30.2301 84.8152 30.2706 84.6196 30.308C84.6078 30.3111 84.5989 30.3111 84.59 30.3111ZM51.3346 30.1834C51.3257 30.1834 51.3168 30.1834 51.3049 30.1803C51.1123 30.1398 50.9168 30.0993 50.7242 30.0589C50.6442 30.0402 50.5908 29.9592 50.6086 29.8751C50.6264 29.791 50.7034 29.735 50.7834 29.7537C50.976 29.7941 51.1686 29.8346 51.3642 29.8751C51.4442 29.8907 51.4975 29.9748 51.4798 30.0589C51.4649 30.1336 51.4057 30.1834 51.3346 30.1834ZM1.65738 30.1087C1.64256 30.1087 1.62775 30.1056 1.61293 30.1025C1.53589 30.0775 1.49144 29.9903 1.51515 29.9063C1.57441 29.7069 1.63664 29.5076 1.70183 29.3114C1.72849 29.2305 1.81443 29.1869 1.89147 29.2149C1.96851 29.2429 2.00999 29.3332 1.98333 29.4142C1.91814 29.6073 1.85591 29.8035 1.79961 29.9997C1.77887 30.0651 1.71961 30.1087 1.65738 30.1087ZM96.9552 30.0464C96.9463 30.0464 96.9374 30.0464 96.9256 30.0433C96.8456 30.0277 96.7922 29.9467 96.807 29.8595C96.8456 29.6571 96.8841 29.4485 96.9226 29.246C96.9404 29.1619 97.0174 29.109 97.0974 29.1246C97.1774 29.1433 97.2278 29.2242 97.213 29.3083C97.1745 29.5107 97.136 29.7132 97.0974 29.9156C97.0885 29.9966 97.0263 30.0464 96.9552 30.0464ZM86.0419 30.009C85.9738 30.009 85.9116 29.9592 85.8967 29.8845C85.879 29.8004 85.9323 29.7163 86.0123 29.7007C86.2019 29.6602 86.3975 29.6166 86.5901 29.573C86.6701 29.5543 86.7501 29.6073 86.7649 29.6914C86.7827 29.7755 86.7323 29.8595 86.6523 29.8751C86.4597 29.9187 86.2642 29.9623 86.0716 30.0028C86.0627 30.0059 86.0508 30.009 86.0419 30.009ZM49.8856 29.872C49.8767 29.872 49.8648 29.872 49.853 29.8689C49.6604 29.8253 49.4648 29.7817 49.2722 29.735C49.1922 29.7163 49.1418 29.6322 49.1596 29.5481C49.1774 29.464 49.2574 29.4111 49.3374 29.4298C49.5271 29.4734 49.7226 29.5201 49.9152 29.5637C49.9952 29.5824 50.0456 29.6633 50.0278 29.7474C50.016 29.8222 49.9537 29.872 49.8856 29.872ZM87.4879 29.6789C87.4198 29.6789 87.3605 29.6291 87.3428 29.5575C87.325 29.4734 87.3754 29.3893 87.4554 29.3706C87.648 29.3239 87.8406 29.2772 88.0302 29.2305C88.1102 29.2118 88.1902 29.2616 88.208 29.3457C88.2258 29.4298 88.1784 29.5139 88.0984 29.5325C87.9087 29.5793 87.7132 29.626 87.5205 29.6727C87.5087 29.6789 87.4998 29.6789 87.4879 29.6789ZM48.4396 29.5325C48.4277 29.5325 48.4159 29.5325 48.407 29.5294C48.2144 29.4827 48.0188 29.4329 47.8292 29.3862C47.7492 29.3675 47.7018 29.2834 47.7195 29.1993C47.7373 29.1152 47.8173 29.0654 47.8973 29.0841C48.087 29.1308 48.2796 29.1806 48.4722 29.2274C48.5522 29.246 48.6025 29.3301 48.5818 29.4142C48.57 29.4827 48.5077 29.5325 48.4396 29.5325ZM88.928 29.3239C88.8599 29.3239 88.8006 29.2772 88.7828 29.2056C88.7621 29.1215 88.8125 29.0374 88.8925 29.0187C89.0821 28.9689 89.2777 28.919 89.4673 28.8692C89.5473 28.8474 89.6273 28.9004 89.6481 28.9813C89.6688 29.0654 89.6184 29.1495 89.5414 29.1713C89.3518 29.2211 89.1562 29.271 88.9666 29.3208C88.9517 29.3239 88.9399 29.3239 88.928 29.3239ZM47.0024 29.1651C46.9906 29.1651 46.9787 29.1651 46.9669 29.1588C46.7743 29.109 46.5817 29.0561 46.392 29.0062C46.312 28.9844 46.2646 28.9004 46.2854 28.8163C46.3061 28.7322 46.3861 28.6824 46.4661 28.7042C46.6558 28.754 46.8484 28.8069 47.038 28.8568C47.118 28.8786 47.1654 28.9626 47.1447 29.0467C47.1299 29.1183 47.0676 29.1651 47.0024 29.1651ZM90.3652 28.944C90.3 28.944 90.2407 28.8972 90.2229 28.8287C90.2022 28.7446 90.2496 28.6606 90.3296 28.6388C90.5192 28.5858 90.7119 28.5329 90.9015 28.4799C90.9815 28.4581 91.0615 28.508 91.0822 28.5889C91.103 28.673 91.0556 28.7571 90.9785 28.7789C90.7889 28.8318 90.5933 28.8879 90.4066 28.9377C90.3889 28.9408 90.377 28.944 90.3652 28.944ZM45.5683 28.7727C45.5564 28.7727 45.5416 28.7696 45.5298 28.7664C45.3401 28.7135 45.1475 28.6574 44.9579 28.6014C44.8779 28.5796 44.8334 28.4924 44.8542 28.4083C44.8749 28.3242 44.9579 28.2775 45.0379 28.2993C45.2275 28.3554 45.4201 28.4083 45.6068 28.4644C45.6868 28.4862 45.7313 28.5734 45.7105 28.6543C45.6957 28.726 45.6335 28.7727 45.5683 28.7727ZM2.15519 28.645C2.13741 28.645 2.11667 28.6419 2.09889 28.6325C2.02185 28.6014 1.98629 28.508 2.01592 28.4301C2.09 28.237 2.17 28.0439 2.25001 27.854C2.2826 27.7761 2.3715 27.7387 2.44558 27.7761C2.51966 27.8104 2.55521 27.9038 2.51966 27.9816C2.43965 28.1685 2.36261 28.3585 2.29149 28.5484C2.27075 28.6076 2.21445 28.645 2.15519 28.645ZM91.7934 28.536C91.7282 28.536 91.6689 28.4924 91.6512 28.4239C91.6304 28.3398 91.6749 28.2557 91.7549 28.2308C91.9445 28.1747 92.1342 28.1187 92.3238 28.0595C92.4038 28.0346 92.4838 28.0844 92.5075 28.1654C92.5312 28.2495 92.4838 28.3336 92.4068 28.3585C92.2171 28.4145 92.0245 28.4737 91.8349 28.5298C91.8201 28.5329 91.8053 28.536 91.7934 28.536ZM97.2604 28.5266C97.2486 28.5266 97.2397 28.5266 97.2278 28.5235C97.1478 28.5048 97.0974 28.4208 97.1152 28.3367C97.1597 28.1342 97.2041 27.9287 97.2486 27.7294C97.2663 27.6453 97.3463 27.5955 97.4264 27.6142C97.5064 27.6329 97.5538 27.7169 97.536 27.801C97.4915 28.0003 97.4471 28.2028 97.4026 28.4052C97.3878 28.4768 97.3286 28.5266 97.2604 28.5266ZM44.143 28.3554C44.1282 28.3554 44.1163 28.3522 44.1015 28.3491C43.9119 28.2931 43.7193 28.2339 43.5326 28.1747C43.4556 28.1498 43.4081 28.0626 43.4319 27.9816C43.4556 27.9007 43.5385 27.8508 43.6156 27.8758C43.8022 27.9349 43.9949 27.9941 44.1815 28.0502C44.2615 28.0751 44.306 28.1592 44.2823 28.2432C44.2675 28.3118 44.2082 28.3554 44.143 28.3554ZM93.2157 28.1C93.1505 28.1 93.0942 28.0564 93.0735 27.9879C93.0498 27.9069 93.0942 27.8197 93.1742 27.7948C93.3609 27.7356 93.5535 27.6733 93.7402 27.6142C93.8172 27.5893 93.9002 27.636 93.9239 27.7169C93.9476 27.7979 93.9032 27.8851 93.8261 27.91C93.6394 27.9723 93.4468 28.0315 93.2572 28.0906C93.2424 28.1 93.2305 28.1 93.2157 28.1ZM42.7237 27.91C42.7088 27.91 42.694 27.9069 42.6792 27.9038C42.4896 27.8415 42.2999 27.7792 42.1133 27.72C42.0362 27.6951 41.9918 27.6079 42.0155 27.5239C42.0392 27.4429 42.1221 27.3962 42.2021 27.4211C42.3888 27.4834 42.5785 27.5457 42.7651 27.6048C42.8422 27.6297 42.8866 27.7169 42.8629 27.7979C42.8451 27.8695 42.7888 27.91 42.7237 27.91ZM94.6291 27.6422C94.5669 27.6422 94.5077 27.5986 94.4869 27.5332C94.4632 27.4522 94.5047 27.365 94.5817 27.337C94.7714 27.2747 94.958 27.2093 95.1447 27.147C95.2218 27.119 95.3047 27.1657 95.3314 27.2467C95.3581 27.3277 95.3136 27.4149 95.2366 27.4429C95.0499 27.5052 94.8603 27.5706 94.6736 27.636C94.6588 27.6391 94.644 27.6422 94.6291 27.6422ZM41.3132 27.4398C41.2984 27.4398 41.2836 27.4367 41.2658 27.4335C41.0791 27.3681 40.8895 27.3027 40.7028 27.2373C40.6257 27.2093 40.5843 27.1221 40.608 27.0411C40.6346 26.9602 40.7176 26.9166 40.7946 26.9415C40.9813 27.0069 41.168 27.0723 41.3547 27.1377C41.4317 27.1657 41.4762 27.2529 41.4495 27.3339C41.4347 27.3993 41.3754 27.4398 41.3132 27.4398ZM2.76856 27.228C2.74485 27.228 2.72411 27.2218 2.70337 27.2124C2.62929 27.1751 2.59966 27.0785 2.63818 27.0038C2.72708 26.8169 2.8219 26.6301 2.91672 26.4494C2.95524 26.3747 3.0471 26.3467 3.11821 26.3871C3.18933 26.4276 3.216 26.5242 3.17747 26.5989C3.08265 26.7795 2.9908 26.9633 2.90486 27.1439C2.87523 27.1969 2.8219 27.228 2.76856 27.228ZM96.0366 27.1564C95.9744 27.1564 95.9181 27.1159 95.8974 27.0505C95.8707 26.9695 95.9122 26.8792 95.9892 26.8543C96.1759 26.7889 96.3626 26.7204 96.5493 26.6519C96.6263 26.6238 96.7122 26.6674 96.7389 26.7484C96.7656 26.8294 96.7241 26.9197 96.647 26.9477C96.4604 27.0162 96.2737 27.0847 96.087 27.1501C96.0663 27.1533 96.0514 27.1564 96.0366 27.1564ZM97.6101 27.0131C97.5982 27.0131 97.5864 27.01 97.5715 27.0069C97.4915 26.9851 97.4441 26.901 97.4649 26.8169C97.4797 26.7515 97.4975 26.6861 97.5152 26.6207C97.5064 26.6238 97.4945 26.6269 97.4856 26.6332C97.4086 26.6612 97.3226 26.6207 97.296 26.5397C97.2693 26.4588 97.3078 26.3685 97.3849 26.3404C97.4589 26.3124 97.533 26.2844 97.6101 26.2563C97.613 26.2439 97.616 26.2283 97.6219 26.2159C97.6427 26.1318 97.7256 26.0851 97.8027 26.1069C97.8323 26.1162 97.856 26.1318 97.8767 26.1536C97.8975 26.1442 97.9212 26.138 97.9419 26.1287C98.019 26.1006 98.1049 26.1411 98.1316 26.2221C98.1612 26.3031 98.1197 26.3934 98.0427 26.4214C97.9805 26.4463 97.9182 26.4681 97.856 26.493C97.8204 26.6269 97.7878 26.764 97.7553 26.8979C97.7345 26.9664 97.6753 27.0131 97.6101 27.0131ZM39.9116 26.9446C39.8968 26.9446 39.879 26.9415 39.8642 26.9353C39.6775 26.8667 39.4909 26.7982 39.3042 26.7297C39.2271 26.7017 39.1857 26.6114 39.2153 26.5304C39.242 26.4494 39.3279 26.4058 39.4049 26.437C39.5886 26.5055 39.7783 26.574 39.962 26.6425C40.039 26.6705 40.0805 26.7609 40.0539 26.8418C40.0302 26.9041 39.9709 26.9446 39.9116 26.9446ZM38.516 26.4214C38.4982 26.4214 38.4804 26.4183 38.4656 26.4121C38.2819 26.3404 38.0952 26.2688 37.9085 26.1941C37.8315 26.1629 37.793 26.0726 37.8226 25.9948C37.8522 25.9138 37.9382 25.8733 38.0122 25.9044C38.196 25.9761 38.3826 26.0508 38.5664 26.1193C38.6434 26.1505 38.6819 26.2377 38.6553 26.3186C38.6315 26.384 38.5752 26.4214 38.516 26.4214ZM98.822 26.1038C98.7627 26.1038 98.7064 26.0664 98.6827 26.0041C98.6531 25.9231 98.6916 25.8328 98.7687 25.8048C98.9524 25.7332 99.139 25.6584 99.3198 25.5837C99.3968 25.5525 99.4828 25.593 99.5124 25.674C99.542 25.755 99.5035 25.8453 99.4265 25.8764C99.2428 25.9512 99.0561 26.0259 98.8724 26.1006C98.8576 26.1006 98.8398 26.1038 98.822 26.1038ZM37.1292 25.8733C37.1115 25.8733 37.0937 25.8702 37.0759 25.864C36.8922 25.7892 36.7055 25.7114 36.5247 25.6366C36.4477 25.6055 36.4122 25.5152 36.4418 25.4342C36.4714 25.3532 36.5573 25.3158 36.6344 25.347C36.8151 25.4217 37.0018 25.4996 37.1855 25.5743C37.2626 25.6055 37.3011 25.6958 37.2715 25.7768C37.2448 25.8359 37.1885 25.8733 37.1292 25.8733ZM3.48861 25.8702C3.46194 25.8702 3.43527 25.864 3.41156 25.8484C3.34045 25.8048 3.31971 25.7082 3.36415 25.6335C3.46786 25.456 3.5775 25.2785 3.68417 25.1041C3.72862 25.0324 3.82048 25.0138 3.88863 25.0605C3.95678 25.1072 3.97456 25.2037 3.93011 25.2754C3.82344 25.4466 3.71677 25.621 3.61306 25.7954C3.58639 25.8453 3.53898 25.8702 3.48861 25.8702ZM100.2 25.5401C100.141 25.5401 100.084 25.5027 100.064 25.4435C100.034 25.3626 100.069 25.2722 100.147 25.2411C100.33 25.1632 100.514 25.0854 100.695 25.0075C100.772 24.9764 100.858 25.0138 100.887 25.0916C100.917 25.1726 100.881 25.2629 100.807 25.294C100.627 25.3719 100.44 25.4498 100.256 25.5276C100.238 25.537 100.221 25.5401 100.2 25.5401ZM98.0012 25.5152C97.9864 25.5152 97.9745 25.512 97.9597 25.5089C97.8797 25.484 97.8353 25.3968 97.859 25.3158C97.9153 25.1165 97.9716 24.9172 98.0279 24.7179C98.0516 24.6369 98.1345 24.5902 98.2116 24.6151C98.2886 24.6401 98.3331 24.7273 98.3094 24.8082C98.2531 25.0044 98.1968 25.2037 98.1405 25.3999C98.1256 25.4716 98.0664 25.5152 98.0012 25.5152ZM35.7543 25.3003C35.7366 25.3003 35.7158 25.2972 35.698 25.2878C35.5143 25.21 35.3306 25.129 35.1498 25.0511C35.0758 25.0169 35.0373 24.9266 35.0698 24.8487C35.1024 24.7709 35.1884 24.7304 35.2625 24.7646C35.4432 24.8425 35.6269 24.9234 35.8077 25.0013C35.8847 25.0324 35.9203 25.1259 35.8877 25.2037C35.8669 25.2629 35.8136 25.3003 35.7543 25.3003ZM101.572 24.9515C101.513 24.9515 101.459 24.9172 101.435 24.8549C101.403 24.7771 101.438 24.6837 101.515 24.6525C101.658 24.5902 101.803 24.5248 101.945 24.4625L102.061 24.4096C102.135 24.3753 102.224 24.4127 102.256 24.4906C102.289 24.5684 102.253 24.6619 102.179 24.6961L102.064 24.7491C101.921 24.8145 101.776 24.8767 101.634 24.9421C101.61 24.9452 101.59 24.9515 101.572 24.9515ZM34.3883 24.6992C34.3676 24.6992 34.3498 24.6961 34.3291 24.6868C34.1483 24.6058 33.9646 24.5217 33.7838 24.4376C33.7098 24.4034 33.6742 24.3099 33.7068 24.2321C33.7394 24.1542 33.8283 24.1169 33.9024 24.1511C34.0831 24.2352 34.2639 24.3162 34.4446 24.3971C34.5187 24.4314 34.5543 24.5217 34.5217 24.6027C34.5009 24.665 34.4446 24.6992 34.3883 24.6992ZM4.31829 24.5809C4.28866 24.5809 4.25606 24.5715 4.22939 24.5497C4.1642 24.4999 4.14939 24.4003 4.19976 24.3317C4.31829 24.1636 4.43978 23.9954 4.56423 23.8335C4.6146 23.7649 4.70942 23.7556 4.77165 23.8085C4.83684 23.8615 4.84573 23.9611 4.79535 24.0265C4.67386 24.1854 4.55534 24.3504 4.43681 24.5155C4.40718 24.5591 4.36273 24.5809 4.31829 24.5809ZM102.929 24.3349C102.873 24.3349 102.819 24.3006 102.793 24.2414C102.76 24.1636 102.793 24.0701 102.867 24.0359C103.047 23.9518 103.228 23.8646 103.406 23.7805C103.48 23.7463 103.569 23.7805 103.602 23.8584C103.634 23.9362 103.602 24.0297 103.527 24.0639C103.35 24.148 103.169 24.2352 102.985 24.3193C102.97 24.3286 102.95 24.3349 102.929 24.3349ZM33.0342 24.0733C33.0134 24.0733 32.9927 24.0701 32.9749 24.0608C32.7941 23.9767 32.6164 23.8895 32.4356 23.8054C32.3615 23.7712 32.3289 23.6777 32.3615 23.5999C32.3941 23.522 32.483 23.4878 32.5571 23.522C32.7378 23.6061 32.9186 23.6933 33.0964 23.7774C33.1705 23.8117 33.2031 23.9051 33.1705 23.9829C33.1438 24.039 33.0905 24.0733 33.0342 24.0733ZM98.4368 24.0328C98.422 24.0328 98.4072 24.0297 98.3923 24.0265C98.3153 23.9985 98.2708 23.9113 98.2975 23.8303C98.3568 23.6341 98.422 23.4348 98.4842 23.2386C98.5109 23.1577 98.5938 23.1141 98.6709 23.1421C98.7479 23.1701 98.7894 23.2573 98.7627 23.3383C98.7005 23.5345 98.6383 23.7307 98.576 23.9269C98.5583 23.9892 98.499 24.0328 98.4368 24.0328ZM104.274 23.6871C104.218 23.6871 104.165 23.6528 104.141 23.5968C104.105 23.5189 104.138 23.4255 104.212 23.3881C104.393 23.3009 104.571 23.2106 104.745 23.1203C104.819 23.0829 104.908 23.1141 104.944 23.1919C104.979 23.2698 104.95 23.3632 104.876 23.4006C104.701 23.4909 104.52 23.5781 104.339 23.6684C104.319 23.684 104.298 23.6871 104.274 23.6871ZM31.683 23.4317C31.6622 23.4317 31.6415 23.4286 31.6207 23.4162L31.0814 23.1577C31.0074 23.1234 30.9748 23.03 31.0074 22.9521C31.04 22.8743 31.1289 22.84 31.2029 22.8743L31.7422 23.1328C31.8163 23.167 31.8489 23.2604 31.8163 23.3383C31.7926 23.3975 31.7393 23.4317 31.683 23.4317ZM5.24872 23.3725C5.21316 23.3725 5.1776 23.3601 5.15093 23.3321C5.08871 23.276 5.08278 23.1764 5.13908 23.111C5.27242 22.9552 5.40873 22.7995 5.54503 22.65C5.60133 22.5878 5.69615 22.5846 5.75541 22.6438C5.81468 22.703 5.81764 22.8026 5.76134 22.8649C5.628 23.0113 5.49466 23.1639 5.36428 23.3196C5.33168 23.3539 5.2902 23.3725 5.24872 23.3725ZM105.608 23.0082C105.554 23.0082 105.501 22.977 105.474 22.921C105.439 22.8431 105.468 22.7497 105.539 22.7123C105.717 22.6189 105.892 22.5255 106.067 22.432C106.141 22.3916 106.23 22.4227 106.265 22.5006C106.304 22.5784 106.274 22.6718 106.2 22.7092C106.025 22.8026 105.848 22.8992 105.67 22.9926C105.652 23.0051 105.631 23.0082 105.608 23.0082ZM30.3347 22.7871C30.314 22.7871 30.2932 22.784 30.2725 22.7746C30.0918 22.6874 29.914 22.6033 29.7332 22.5161C29.6591 22.4819 29.6265 22.3884 29.6591 22.3106C29.6917 22.2327 29.7806 22.1985 29.8547 22.2327C30.0355 22.3199 30.2162 22.404 30.394 22.4912C30.4681 22.5255 30.5007 22.6189 30.4681 22.6968C30.4444 22.7528 30.391 22.7871 30.3347 22.7871ZM98.9168 22.5628C98.899 22.5628 98.8842 22.5597 98.8664 22.5535C98.7894 22.5255 98.7479 22.4352 98.7775 22.3542C98.8457 22.158 98.9138 21.9618 98.982 21.7687C99.0116 21.6877 99.0946 21.6473 99.1716 21.6784C99.2487 21.7095 99.2872 21.7967 99.2576 21.8777C99.1894 22.0708 99.1213 22.267 99.0561 22.4601C99.0324 22.5224 98.9761 22.5628 98.9168 22.5628ZM106.923 22.295C106.87 22.295 106.82 22.2639 106.793 22.214C106.754 22.1393 106.781 22.0428 106.855 22.0023C107.03 21.9057 107.205 21.8061 107.374 21.7064C107.445 21.6659 107.537 21.694 107.575 21.7687C107.614 21.8435 107.59 21.94 107.516 21.9805C107.344 22.0801 107.169 22.1798 106.994 22.2794C106.971 22.2888 106.947 22.295 106.923 22.295ZM6.28285 22.2576C6.24433 22.2576 6.20285 22.2421 6.17322 22.2078C6.11692 22.1455 6.11988 22.0459 6.17914 21.9867C6.32434 21.8435 6.47546 21.7033 6.62362 21.5663C6.68584 21.5102 6.7777 21.5165 6.834 21.5819C6.88734 21.6473 6.88141 21.7438 6.81918 21.803C6.67103 21.9369 6.52583 22.0739 6.3836 22.214C6.35693 22.2452 6.31841 22.2576 6.28285 22.2576ZM28.9835 22.1455C28.9628 22.1455 28.9421 22.1424 28.9243 22.1331C28.7435 22.049 28.5628 21.9649 28.382 21.8808C28.3079 21.8466 28.2724 21.7531 28.305 21.6753C28.3376 21.5974 28.4265 21.5601 28.5005 21.5943C28.6813 21.6784 28.862 21.7625 29.0428 21.8466C29.1169 21.8808 29.1524 21.9742 29.1169 22.0521C29.0932 22.1113 29.0398 22.1455 28.9835 22.1455ZM108.218 21.5383C108.168 21.5383 108.117 21.5102 108.091 21.4604C108.049 21.3857 108.073 21.2891 108.144 21.2486C108.316 21.1459 108.488 21.04 108.654 20.9372C108.725 20.8936 108.814 20.9185 108.855 20.9933C108.897 21.068 108.873 21.1614 108.802 21.205C108.633 21.3109 108.461 21.4168 108.289 21.5196C108.269 21.532 108.242 21.5383 108.218 21.5383ZM27.6264 21.5196C27.6057 21.5196 27.5879 21.5165 27.5672 21.5071C27.3834 21.423 27.1997 21.3421 27.0249 21.2642C26.9508 21.2299 26.9153 21.1396 26.9449 21.0587C26.9775 20.9808 27.0634 20.9434 27.1405 20.9746C27.3153 21.0524 27.499 21.1365 27.6857 21.2206C27.7598 21.2549 27.7953 21.3452 27.7627 21.4261C27.739 21.4853 27.6857 21.5196 27.6264 21.5196ZM7.41478 21.2549C7.37033 21.2549 7.32588 21.2331 7.29625 21.1926C7.24588 21.1241 7.26069 21.0275 7.32292 20.9746C7.48293 20.8469 7.64294 20.7223 7.80591 20.604C7.87406 20.5541 7.96592 20.5728 8.01333 20.6413C8.06074 20.713 8.04296 20.8095 7.97778 20.8593C7.81777 20.9746 7.66072 21.0991 7.50367 21.2237C7.477 21.2455 7.44441 21.2549 7.41478 21.2549ZM99.4354 21.1085C99.4176 21.1085 99.3998 21.1054 99.382 21.0991C99.305 21.068 99.2694 20.9777 99.2991 20.8967C99.3702 20.7036 99.4443 20.5105 99.5183 20.3175C99.548 20.2365 99.6339 20.1991 99.7109 20.2303C99.788 20.2614 99.8235 20.3548 99.7939 20.4327C99.7198 20.6258 99.6458 20.8189 99.5746 21.0088C99.5509 21.068 99.4946 21.1085 99.4354 21.1085ZM26.2634 20.9185C26.2456 20.9185 26.2248 20.9154 26.2071 20.9061C26.0234 20.8282 25.8367 20.7503 25.6589 20.6756C25.5818 20.6445 25.5463 20.5541 25.5759 20.4732C25.6055 20.3922 25.6915 20.3548 25.7685 20.386C25.9463 20.4607 26.133 20.5386 26.3197 20.6195C26.3967 20.6507 26.4323 20.7441 26.3997 20.822C26.376 20.8811 26.3197 20.9185 26.2634 20.9185ZM109.489 20.741C109.439 20.741 109.392 20.7161 109.362 20.6663C109.317 20.5946 109.341 20.4981 109.409 20.4514C109.575 20.3424 109.744 20.2303 109.91 20.1213C109.978 20.0746 110.07 20.0964 110.115 20.168C110.159 20.2396 110.138 20.3362 110.07 20.3829C109.904 20.495 109.735 20.6071 109.566 20.7161C109.543 20.7348 109.516 20.741 109.489 20.741ZM8.63559 20.3798C8.58522 20.3798 8.53781 20.3517 8.50818 20.305C8.46669 20.2303 8.48744 20.1368 8.55855 20.0901C8.72745 19.9811 8.90228 19.8752 9.0771 19.7756C9.14822 19.7351 9.24008 19.7631 9.2786 19.8379C9.31712 19.9126 9.29045 20.0092 9.21933 20.0496C9.05044 20.1462 8.87857 20.2521 8.71264 20.358C8.68893 20.3704 8.66226 20.3798 8.63559 20.3798ZM24.8855 20.3486C24.8677 20.3486 24.8499 20.3455 24.8322 20.3393C24.6455 20.2645 24.4618 20.1929 24.2781 20.1244C24.201 20.0964 24.1625 20.006 24.1892 19.9251C24.2158 19.8441 24.3018 19.8036 24.3788 19.8316C24.5596 19.9002 24.7492 19.9749 24.9359 20.0496C25.0129 20.0808 25.0514 20.1711 25.0218 20.249C25.0011 20.3112 24.9448 20.3486 24.8855 20.3486ZM110.734 19.897C110.686 19.897 110.639 19.8721 110.609 19.8285C110.565 19.7569 110.583 19.6604 110.651 19.6136C110.814 19.4984 110.98 19.3801 111.137 19.2648C111.205 19.215 111.297 19.2337 111.344 19.3022C111.392 19.3738 111.374 19.4704 111.309 19.5202C111.149 19.6386 110.983 19.7569 110.817 19.8721C110.79 19.8877 110.761 19.897 110.734 19.897ZM23.4928 19.8254C23.478 19.8254 23.4602 19.8223 23.4454 19.8161C23.2587 19.7476 23.0691 19.6822 22.8854 19.623C22.8083 19.5981 22.7639 19.5078 22.7906 19.4268C22.8143 19.3458 22.9002 19.2991 22.9772 19.3271C23.1609 19.3894 23.3506 19.4548 23.5402 19.5233C23.6173 19.5514 23.6588 19.6386 23.6321 19.7195C23.6143 19.7818 23.555 19.8254 23.4928 19.8254ZM99.9954 19.6666C99.9747 19.6666 99.9569 19.6635 99.9391 19.6541C99.865 19.6199 99.8295 19.5296 99.8591 19.4486C99.9361 19.2586 100.016 19.0655 100.093 18.8756C100.126 18.7977 100.212 18.7603 100.289 18.7946C100.363 18.8289 100.398 18.9223 100.366 19.0001C100.289 19.1901 100.209 19.3801 100.132 19.57C100.108 19.6323 100.052 19.6666 99.9954 19.6666ZM9.93938 19.6479C9.88308 19.6479 9.82974 19.6136 9.80604 19.5576C9.77048 19.4797 9.80308 19.3863 9.87715 19.352C10.0579 19.2648 10.2416 19.1808 10.4253 19.0998C10.5024 19.0686 10.5883 19.106 10.6179 19.1839C10.6476 19.2648 10.612 19.3552 10.5379 19.3863C10.3601 19.4642 10.1794 19.5451 10.0016 19.6323C9.98383 19.6417 9.96012 19.6479 9.93938 19.6479ZM22.0853 19.3552C22.0705 19.3552 22.0587 19.352 22.0438 19.3489C21.8542 19.2898 21.6646 19.2337 21.4779 19.1808C21.3979 19.159 21.3534 19.0718 21.3742 18.9908C21.3949 18.9067 21.4779 18.86 21.5549 18.8818C21.7416 18.9347 21.9342 18.9939 22.1268 19.0531C22.2039 19.078 22.2513 19.1652 22.2276 19.2462C22.2068 19.3116 22.1476 19.3552 22.0853 19.3552ZM11.3143 19.0749C11.2521 19.0749 11.1958 19.0344 11.175 18.969C11.1483 18.888 11.1898 18.7977 11.2698 18.7728C11.4595 18.7074 11.6521 18.6451 11.8417 18.5859C11.9217 18.561 12.0017 18.6109 12.0254 18.6918C12.0491 18.7759 12.0017 18.86 11.9247 18.8849C11.738 18.941 11.5484 19.0033 11.3647 19.0655C11.3469 19.0718 11.3321 19.0749 11.3143 19.0749ZM111.946 19.0033C111.901 19.0033 111.854 18.9815 111.827 18.941C111.78 18.8725 111.792 18.7728 111.86 18.723C112.02 18.6015 112.177 18.4769 112.334 18.3524C112.399 18.2994 112.491 18.315 112.541 18.3835C112.592 18.452 112.577 18.5486 112.512 18.6015C112.355 18.7261 112.195 18.8507 112.035 18.9752C112.005 18.9939 111.975 19.0033 111.946 19.0033ZM20.6571 18.9534C20.6452 18.9534 20.6334 18.9534 20.6215 18.9503C20.4289 18.9036 20.2363 18.8569 20.0496 18.8133C19.9696 18.7946 19.9193 18.7136 19.937 18.6295C19.9548 18.5455 20.0319 18.4925 20.1119 18.5112C20.3015 18.5548 20.4971 18.6015 20.6926 18.6482C20.7727 18.6669 20.8201 18.751 20.8023 18.8351C20.7845 18.9067 20.7252 18.9534 20.6571 18.9534ZM12.7425 18.6638C12.6744 18.6638 12.6121 18.614 12.5973 18.5423C12.5795 18.4583 12.6299 18.3742 12.7099 18.3586C12.9025 18.315 13.1011 18.2745 13.2966 18.2371C13.3766 18.2216 13.4537 18.2807 13.4685 18.3648C13.4833 18.4489 13.427 18.5299 13.347 18.5455C13.1544 18.5797 12.9618 18.6202 12.7722 18.6638C12.7633 18.6638 12.7544 18.6638 12.7425 18.6638ZM19.2111 18.6358C19.2022 18.6358 19.1933 18.6358 19.1844 18.6327C18.9918 18.5953 18.7962 18.5641 18.6066 18.533C18.5266 18.5205 18.4703 18.4427 18.4821 18.3555C18.494 18.2714 18.571 18.2122 18.651 18.2247C18.8436 18.2558 19.0422 18.2901 19.2377 18.3243C19.3177 18.3399 19.3711 18.4209 19.3592 18.505C19.3444 18.5828 19.2822 18.6358 19.2111 18.6358ZM17.7473 18.4178C17.7414 18.4178 17.7384 18.4178 17.7325 18.4178C17.5369 18.396 17.3413 18.3773 17.1487 18.3648C17.0658 18.3586 17.0065 18.2839 17.0124 18.1998C17.0183 18.1126 17.0895 18.0503 17.1695 18.0565C17.365 18.0721 17.5636 18.0908 17.7621 18.1126C17.8421 18.1219 17.9014 18.1967 17.8954 18.2839C17.8865 18.3586 17.8214 18.4178 17.7473 18.4178ZM14.2034 18.4147C14.1293 18.4147 14.0641 18.3555 14.0552 18.2745C14.0463 18.1904 14.1056 18.1126 14.1856 18.1032C14.3811 18.0814 14.5826 18.0627 14.7812 18.0472C14.8612 18.0409 14.9323 18.1063 14.9382 18.1904C14.9441 18.2776 14.8819 18.3493 14.8019 18.3555C14.6063 18.3711 14.4108 18.3897 14.2182 18.4115C14.2152 18.4147 14.2093 18.4147 14.2034 18.4147ZM16.2716 18.3212H16.2687C16.0731 18.3181 15.8775 18.315 15.682 18.3181C15.599 18.3212 15.5338 18.2496 15.5308 18.1655C15.5308 18.0783 15.596 18.0098 15.676 18.0067C15.8746 18.0036 16.0731 18.0036 16.2716 18.0098C16.3546 18.0129 16.4198 18.0814 16.4168 18.1686C16.4168 18.2527 16.3516 18.3212 16.2716 18.3212ZM100.591 18.2403C100.57 18.2403 100.55 18.2371 100.529 18.2278C100.455 18.1935 100.422 18.1001 100.455 18.0223C100.535 17.8354 100.621 17.6454 100.704 17.4555C100.739 17.3776 100.825 17.3434 100.899 17.3807C100.973 17.4181 101.006 17.5084 100.97 17.5863C100.887 17.7731 100.804 17.9631 100.721 18.1499C100.701 18.2091 100.647 18.2403 100.591 18.2403ZM113.119 18.0565C113.075 18.0565 113.033 18.0378 113.004 17.9973C112.953 17.9288 112.962 17.8323 113.027 17.7793C113.181 17.6486 113.335 17.5177 113.484 17.387C113.546 17.3309 113.641 17.3402 113.691 17.4056C113.744 17.471 113.736 17.5707 113.673 17.6236C113.522 17.7544 113.368 17.8883 113.214 18.0191C113.184 18.0441 113.152 18.0565 113.119 18.0565ZM114.254 17.0537C114.213 17.0537 114.171 17.035 114.144 17.0008C114.091 16.9354 114.097 16.8388 114.156 16.7797C114.304 16.6426 114.45 16.5025 114.595 16.3655C114.654 16.3063 114.749 16.3125 114.805 16.3748C114.862 16.4371 114.856 16.5368 114.796 16.5959C114.651 16.7361 114.503 16.8762 114.355 17.0164C114.322 17.0413 114.287 17.0537 114.254 17.0537ZM101.219 16.8326C101.198 16.8326 101.175 16.8264 101.154 16.817C101.08 16.7797 101.05 16.6862 101.086 16.6084C101.172 16.4215 101.261 16.2316 101.347 16.0478C101.382 15.97 101.471 15.9388 101.545 15.9762C101.619 16.0136 101.649 16.107 101.613 16.1848C101.527 16.3686 101.438 16.5554 101.353 16.7423C101.329 16.8015 101.275 16.8326 101.219 16.8326ZM115.336 15.9949C115.297 15.9949 115.259 15.9793 115.229 15.9482C115.173 15.8859 115.173 15.7893 115.232 15.7271C115.371 15.5838 115.513 15.4343 115.647 15.2879C115.703 15.2257 115.798 15.2257 115.857 15.2848C115.916 15.344 115.916 15.4437 115.86 15.5059C115.724 15.6523 115.582 15.8018 115.439 15.9482C115.413 15.9793 115.374 15.9949 115.336 15.9949ZM101.883 15.4374C101.859 15.4374 101.838 15.4312 101.815 15.4187C101.741 15.3783 101.714 15.2848 101.75 15.2101C101.838 15.0263 101.93 14.8395 102.022 14.6557C102.061 14.581 102.15 14.5499 102.221 14.5904C102.292 14.6308 102.321 14.7243 102.283 14.799C102.191 14.9827 102.099 15.1696 102.01 15.3502C101.987 15.4063 101.936 15.4374 101.883 15.4374ZM116.364 14.8769C116.328 14.8769 116.293 14.8644 116.263 14.8364C116.204 14.7772 116.198 14.6807 116.254 14.6153C116.388 14.4627 116.518 14.307 116.645 14.1544C116.699 14.089 116.793 14.0827 116.856 14.1388C116.918 14.1948 116.924 14.2945 116.871 14.3599C116.74 14.5156 116.607 14.6713 116.473 14.827C116.444 14.8582 116.405 14.8769 116.364 14.8769ZM102.573 14.0578C102.55 14.0578 102.526 14.0516 102.502 14.0391C102.431 13.9986 102.404 13.9052 102.443 13.8274C102.538 13.6467 102.633 13.4599 102.727 13.2792C102.766 13.2045 102.858 13.1765 102.929 13.217C103 13.2574 103.027 13.354 102.988 13.4287C102.893 13.6094 102.799 13.7931 102.704 13.9768C102.677 14.0298 102.624 14.0578 102.573 14.0578ZM117.333 13.6997C117.3 13.6997 117.268 13.6872 117.238 13.6654C117.176 13.6125 117.164 13.5128 117.217 13.4474C117.342 13.2886 117.463 13.1235 117.585 12.9647C117.635 12.8962 117.727 12.8837 117.792 12.9367C117.857 12.9896 117.869 13.0862 117.819 13.1547C117.697 13.3166 117.573 13.4817 117.448 13.6436C117.419 13.681 117.374 13.6997 117.333 13.6997ZM103.287 12.6938C103.264 12.6938 103.237 12.6875 103.213 12.6751C103.142 12.6315 103.116 12.5381 103.157 12.4633C103.255 12.2827 103.353 12.0989 103.45 11.9214C103.492 11.8467 103.581 11.8218 103.652 11.8623C103.723 11.9059 103.747 11.9993 103.708 12.074C103.61 12.2515 103.513 12.4322 103.415 12.6128C103.391 12.6657 103.341 12.6938 103.287 12.6938ZM118.231 12.4633C118.201 12.4633 118.171 12.454 118.145 12.4353C118.077 12.3855 118.062 12.2889 118.109 12.2173C118.225 12.046 118.337 11.8747 118.441 11.7097C118.485 11.638 118.577 11.6194 118.645 11.6661C118.714 11.7128 118.731 11.8093 118.687 11.8809C118.58 12.0522 118.468 12.2235 118.349 12.3979C118.322 12.4415 118.278 12.4633 118.231 12.4633ZM104.025 11.3453C103.999 11.3453 103.975 11.3391 103.951 11.3235C103.88 11.2799 103.856 11.1834 103.898 11.1117C103.999 10.9342 104.099 10.7536 104.2 10.5761C104.242 10.5013 104.333 10.4764 104.405 10.5231C104.476 10.5667 104.499 10.6633 104.455 10.738C104.354 10.9155 104.253 11.0962 104.156 11.2737C104.126 11.3173 104.079 11.3453 104.025 11.3453ZM119.034 11.1584C119.007 11.1584 118.983 11.1522 118.96 11.1366C118.888 11.093 118.865 10.9996 118.906 10.9249C119.007 10.7442 119.102 10.5636 119.188 10.3861C119.226 10.3114 119.315 10.2802 119.386 10.3207C119.457 10.3612 119.487 10.4546 119.448 10.5294C119.36 10.71 119.262 10.8968 119.158 11.0806C119.134 11.1304 119.084 11.1584 119.034 11.1584ZM104.784 10.0093C104.757 10.0093 104.731 10.0031 104.707 9.98748C104.636 9.94388 104.615 9.84734 104.656 9.7726C104.757 9.59508 104.861 9.41757 104.965 9.24006C105.006 9.16532 105.098 9.14352 105.169 9.19023C105.24 9.23383 105.261 9.33037 105.216 9.40512C105.113 9.58263 105.009 9.76014 104.908 9.93454C104.885 9.98125 104.834 10.0093 104.784 10.0093ZM119.7 9.76948C119.68 9.76948 119.662 9.76637 119.641 9.75702C119.567 9.72277 119.531 9.63246 119.564 9.55149C119.641 9.36152 119.712 9.16843 119.777 8.98158C119.804 8.90061 119.89 8.85701 119.967 8.88815C120.044 8.91618 120.086 9.00649 120.056 9.08746C119.991 9.28054 119.917 9.47986 119.837 9.67605C119.813 9.73523 119.757 9.76948 119.7 9.76948ZM105.56 8.68261C105.534 8.68261 105.507 8.67638 105.483 8.65769C105.415 8.61098 105.391 8.51755 105.436 8.44281C105.48 8.36807 105.525 8.29644 105.569 8.2217C105.628 8.12204 105.694 8.01927 105.759 7.91339C105.803 7.84176 105.895 7.82307 105.963 7.86979C106.031 7.9165 106.049 8.01304 106.005 8.08467C105.939 8.18744 105.877 8.2871 105.821 8.38364C105.777 8.45838 105.732 8.53001 105.688 8.60475C105.658 8.65769 105.611 8.68261 105.56 8.68261ZM120.171 8.29644C120.16 8.29644 120.148 8.29644 120.136 8.29332C120.056 8.27153 120.009 8.18744 120.026 8.10336C120.074 7.90404 120.112 7.70473 120.145 7.50542C120.16 7.42133 120.234 7.36216 120.317 7.37773C120.397 7.39331 120.453 7.47116 120.438 7.55836C120.406 7.7639 120.364 7.97256 120.314 8.1781C120.299 8.24973 120.24 8.29644 120.171 8.29644ZM106.399 7.40265C106.366 7.40265 106.337 7.39331 106.31 7.37151C106.245 7.31856 106.233 7.22202 106.283 7.15351C106.399 6.99468 106.523 6.82651 106.654 6.66146C106.704 6.59606 106.799 6.5836 106.861 6.63966C106.923 6.6926 106.935 6.79225 106.882 6.85765C106.754 7.02271 106.633 7.18465 106.517 7.34348C106.488 7.38085 106.443 7.40265 106.399 7.40265ZM120.388 6.76111C120.385 6.76111 120.385 6.76111 120.382 6.76111C120.299 6.758 120.237 6.68637 120.24 6.59917C120.243 6.50886 120.246 6.41854 120.246 6.32823C120.246 6.21612 120.243 6.10089 120.237 5.98878C120.234 5.90158 120.296 5.82995 120.376 5.82684C120.459 5.82372 120.527 5.88912 120.53 5.97321C120.536 6.09155 120.539 6.20989 120.539 6.32823C120.539 6.42166 120.536 6.5182 120.533 6.61163C120.533 6.69571 120.468 6.76111 120.388 6.76111ZM107.341 6.20055C107.305 6.20055 107.273 6.18809 107.243 6.16317C107.181 6.10712 107.175 6.00746 107.228 5.94206C107.356 5.78946 107.492 5.63064 107.626 5.47492C107.682 5.41264 107.774 5.40641 107.836 5.46558C107.895 5.52475 107.901 5.62129 107.845 5.68669C107.711 5.83929 107.578 5.99501 107.451 6.1476C107.421 6.18186 107.38 6.20055 107.341 6.20055ZM120.281 5.21021C120.21 5.21021 120.148 5.15727 120.136 5.08253C120.1 4.88322 120.056 4.6839 120.003 4.49082C119.979 4.40674 120.026 4.32265 120.103 4.29774C120.183 4.27282 120.263 4.32265 120.287 4.40362C120.343 4.60605 120.388 4.8147 120.426 5.02336C120.441 5.10744 120.388 5.18841 120.308 5.20398C120.299 5.21021 120.29 5.21021 120.281 5.21021ZM108.346 5.05761C108.307 5.05761 108.271 5.04204 108.242 5.01401C108.183 4.95484 108.183 4.85519 108.239 4.7929C108.378 4.64342 108.52 4.49393 108.66 4.35068C108.719 4.29151 108.811 4.29151 108.87 4.35379C108.926 4.41608 108.926 4.51262 108.867 4.5749C108.728 4.71816 108.589 4.86764 108.452 5.01401C108.423 5.04204 108.384 5.05761 108.346 5.05761ZM109.409 3.97074C109.371 3.97074 109.329 3.95517 109.3 3.92091C109.243 3.85863 109.249 3.75897 109.309 3.6998C109.457 3.55654 109.605 3.4164 109.75 3.27937C109.812 3.22332 109.904 3.22955 109.96 3.29183C110.014 3.35723 110.008 3.45377 109.949 3.51294C109.803 3.64686 109.658 3.787 109.51 3.92714C109.48 3.95828 109.445 3.97074 109.409 3.97074ZM119.837 3.73094C119.78 3.73094 119.727 3.69668 119.703 3.64063C119.623 3.45689 119.531 3.27626 119.434 3.10498C119.392 3.03023 119.413 2.93681 119.484 2.89009C119.555 2.84649 119.644 2.86829 119.688 2.94304C119.792 3.12366 119.887 3.31363 119.973 3.50983C120.009 3.58769 119.976 3.68111 119.899 3.71537C119.878 3.72783 119.857 3.73094 119.837 3.73094ZM110.523 2.94926C110.479 2.94926 110.438 2.93058 110.408 2.89321C110.358 2.82781 110.366 2.72815 110.429 2.67521C110.589 2.53818 110.746 2.40738 110.897 2.28593C110.962 2.23298 111.054 2.24856 111.104 2.31396C111.155 2.38247 111.14 2.47901 111.078 2.53195C110.929 2.6503 110.772 2.78109 110.615 2.91501C110.592 2.93681 110.559 2.94926 110.523 2.94926ZM119.04 2.42607C118.998 2.42607 118.957 2.40738 118.927 2.37313C118.8 2.22053 118.663 2.07727 118.521 1.94959C118.459 1.89353 118.453 1.79387 118.506 1.72848C118.56 1.66308 118.654 1.65685 118.717 1.7129C118.868 1.85305 119.013 2.00564 119.149 2.16759C119.203 2.23299 119.197 2.32953 119.134 2.3887C119.111 2.41361 119.075 2.42607 119.04 2.42607ZM111.715 2.02122C111.667 2.02122 111.62 1.9963 111.59 1.94959C111.546 1.87796 111.566 1.78142 111.635 1.7347C111.801 1.61948 111.978 1.51048 112.153 1.41082C112.224 1.37034 112.316 1.39836 112.355 1.47311C112.393 1.54785 112.367 1.64439 112.295 1.68488C112.124 1.78142 111.958 1.8873 111.798 1.9963C111.768 2.01499 111.741 2.02122 111.715 2.02122ZM117.899 1.44819C117.875 1.44819 117.848 1.44196 117.825 1.42951C117.659 1.33296 117.487 1.24265 117.309 1.16791C117.232 1.13677 117.196 1.04645 117.226 0.965483C117.256 0.884512 117.342 0.847141 117.419 0.878284C117.608 0.959254 117.795 1.05268 117.97 1.15545C118.041 1.19905 118.065 1.29248 118.026 1.36722C117.999 1.42016 117.949 1.44819 117.899 1.44819ZM113.027 1.31428C112.968 1.31428 112.912 1.27691 112.888 1.21462C112.858 1.13365 112.897 1.04334 112.971 1.0122C113.158 0.93434 113.35 0.865827 113.543 0.803542C113.62 0.778628 113.703 0.825341 113.727 0.909426C113.75 0.990397 113.706 1.0776 113.626 1.10251C113.442 1.16168 113.258 1.22708 113.078 1.30182C113.066 1.30805 113.048 1.31428 113.027 1.31428ZM116.515 0.915655C116.506 0.915655 116.497 0.915655 116.485 0.912541C116.302 0.87517 116.109 0.847142 115.916 0.828456C115.833 0.822227 115.774 0.747485 115.78 0.660286C115.786 0.573087 115.857 0.510802 115.94 0.51703C116.145 0.535716 116.346 0.563744 116.542 0.604229C116.622 0.6198 116.675 0.703886 116.657 0.787971C116.645 0.862713 116.583 0.915655 116.515 0.915655ZM114.453 0.900083C114.381 0.900083 114.319 0.847141 114.307 0.769285C114.296 0.6852 114.349 0.604229 114.429 0.591772C114.63 0.557516 114.832 0.532602 115.03 0.51703C115.11 0.510802 115.182 0.576201 115.187 0.660286C115.193 0.747485 115.131 0.819113 115.051 0.825342C114.862 0.840913 114.669 0.862713 114.476 0.896969C114.467 0.896969 114.461 0.900083 114.453 0.900083Z" fill="#85C74C"/>
<path d="M127.752 68.1995C127.749 68.1995 127.749 68.1995 127.752 68.1995C127.651 68.1995 127.55 68.1964 127.452 68.1933C127.369 68.1933 127.304 68.1216 127.307 68.0344C127.307 67.9504 127.375 67.8818 127.455 67.8818H127.458C127.556 67.885 127.654 67.8849 127.754 67.8881C127.837 67.8881 127.903 67.9597 127.9 68.0469C127.897 68.131 127.832 68.1995 127.752 68.1995Z" fill="#85C74C"/>
<path d="M92.5013 51.708C91.8908 51.708 91.396 51.1879 91.396 50.5464C91.396 49.9048 91.8908 49.3848 92.5013 49.3848C93.1117 49.3848 93.6065 49.9048 93.6065 50.5464C93.6065 51.1879 93.1117 51.708 92.5013 51.708ZM92.5013 49.8612C92.1427 49.8612 91.8494 50.1696 91.8494 50.5464C91.8494 50.9232 92.1427 51.2315 92.5013 51.2315C92.8598 51.2315 93.1531 50.9232 93.1531 50.5464C93.1531 50.1696 92.8598 49.8612 92.5013 49.8612Z" fill="#FFC057"/>
<path d="M27.3921 15.082C26.7817 15.082 26.2869 14.5619 26.2869 13.9204C26.2869 13.2789 26.7817 12.7588 27.3921 12.7588C28.0025 12.7588 28.4974 13.2789 28.4974 13.9204C28.4974 14.5619 28.0025 15.082 27.3921 15.082ZM27.3921 13.2353C27.0336 13.2353 26.7402 13.5436 26.7402 13.9204C26.7402 14.2972 27.0336 14.6055 27.3921 14.6055C27.7507 14.6055 28.044 14.2972 28.044 13.9204C28.044 13.5436 27.7536 13.2353 27.3921 13.2353Z" fill="#FFC057"/>
<path d="M14.8047 64.879H14.221V64.0133C14.221 63.9167 14.1469 63.8389 14.055 63.8389C13.9632 63.8389 13.8891 63.9167 13.8891 64.0133V64.8759H13.3053C13.2135 64.8759 13.1394 64.9538 13.1394 65.0503C13.1394 65.1469 13.2135 65.2247 13.3053 65.2247H13.8891V66.0874C13.8891 66.1839 13.9632 66.2618 14.055 66.2618C14.1469 66.2618 14.221 66.1839 14.221 66.0874V65.2247H14.8047C14.8966 65.2247 14.9706 65.1469 14.9706 65.0503C14.9706 64.9569 14.8966 64.879 14.8047 64.879Z" fill="#85C74C"/>
<path d="M101.829 5.94482H100.955V4.64929C100.955 4.50604 100.845 4.3877 100.706 4.3877C100.57 4.3877 100.457 4.50292 100.457 4.64929V5.94482H99.5829C99.4466 5.94482 99.334 6.06005 99.334 6.20642C99.334 6.34968 99.4436 6.46802 99.5829 6.46802H100.457V7.76355C100.457 7.9068 100.567 8.02515 100.706 8.02515C100.842 8.02515 100.955 7.90992 100.955 7.76355V6.46802H101.829C101.965 6.46802 102.078 6.35279 102.078 6.20642C102.078 6.06005 101.965 5.94482 101.829 5.94482Z" fill="#85C74C"/>
<path d="M101.362 62.0638L37.2776 67.8543C35.9434 67.9762 34.8721 67.4402 34.8898 66.6598L35.8892 14.1673C35.9037 13.3196 37.0935 12.526 38.5437 12.394L102.416 6.62071C103.751 6.49879 104.822 7.03478 104.804 7.81525L103.804 60.4308C103.792 61.2105 102.696 61.9419 101.362 62.0638Z" fill="#F7F7F7"/>
<path fill-rule="evenodd" clip-rule="evenodd" d="M84.3477 67.2443L83.205 67.904C68.4017 76.4507 54.0163 59.1406 47.3872 47.6585C40.758 36.1762 32.9598 15.0632 47.763 6.5165L48.9057 5.85675C51.2756 4.4885 54.3245 5.30547 55.6927 7.67539L60.2606 15.5872C61.6288 17.9572 60.8119 21.0061 58.4419 22.3743L55.7623 23.9214C53.6887 25.1187 52.7721 27.5539 53.5418 29.8211C54.7885 33.4946 56.5161 37.3233 58.7091 41.1218C60.9022 44.9203 63.3543 48.3307 65.9122 51.2471C67.491 53.0472 70.0581 53.4711 72.1317 52.2739L74.8114 50.7267C77.1813 49.3585 80.2302 50.1754 81.5984 52.5454L86.1663 60.4572C87.5346 62.827 86.7176 65.8759 84.3477 67.2443Z" fill="#457B9D"/>
<path d="M82.4238 44.663C91.763 44.3265 99.0611 36.4827 98.7246 27.1435C98.388 17.8043 90.5443 10.5062 81.2051 10.8428C71.8658 11.1793 64.5677 19.0231 64.9043 28.3623C65.2408 37.7015 73.0846 44.9996 82.4238 44.663Z" fill="#FFC107"/>
<path d="M81.8234 41.1223C89.1927 41.1223 95.1668 35.1483 95.1668 27.7789C95.1668 20.4096 89.1927 14.4355 81.8234 14.4355C74.454 14.4355 68.48 20.4096 68.48 27.7789C68.48 35.1483 74.454 41.1223 81.8234 41.1223Z" fill="#F4F6F8"/>
<path fill-rule="evenodd" clip-rule="evenodd" d="M80.8751 21.9889C80.8751 21.4654 81.2995 21.041 81.8231 21.041C82.3466 21.041 82.771 21.4654 82.771 21.9889V27.235L85.8968 29.0397C86.3487 29.2994 86.5045 29.8763 86.2448 30.3283C85.9851 30.7802 85.4082 30.936 84.9562 30.6763L81.4293 28.64C81.1022 28.4905 80.875 28.1605 80.875 27.7776V21.9889H80.8751Z" fill="#CED4DA"/>
<path fill-rule="evenodd" clip-rule="evenodd" d="M81.8231 29.4495C82.7436 29.4495 83.4942 28.6988 83.4942 27.7785C83.4942 26.8582 82.7436 26.1074 81.8231 26.1074C80.9027 26.1074 80.1521 26.858 80.1521 27.7785C80.1521 28.6989 80.9027 29.4495 81.8231 29.4495Z" fill="#FFC107"/>
<path fill-rule="evenodd" clip-rule="evenodd" d="M80.875 37.3782C80.875 36.8547 81.2994 36.4303 81.8229 36.4303C82.3465 36.4303 82.7709 36.8547 82.7709 37.3782V38.043C82.7709 38.5665 82.3465 38.9909 81.8229 38.9909C81.2994 38.9909 80.875 38.5665 80.875 38.043V37.3782ZM87.94 35.2371C87.5699 34.8671 87.5699 34.2669 87.94 33.8967C88.3101 33.5266 88.9102 33.5266 89.2805 33.8967L89.7505 34.3667C90.1206 34.7368 90.1206 35.3369 89.7505 35.7072C89.3804 36.0773 88.7802 36.0773 88.41 35.7072L87.94 35.2371ZM91.4215 28.7275C90.898 28.7275 90.4736 28.3031 90.4736 27.7796C90.4736 27.2561 90.898 26.8317 91.4215 26.8317H92.0863C92.6098 26.8317 93.0342 27.2561 93.0342 27.7796C93.0342 28.3031 92.6098 28.7275 92.0863 28.7275H91.4215ZM89.2805 21.6626C88.9104 22.0327 88.3102 22.0327 87.94 21.6626C87.5699 21.2925 87.5699 20.6923 87.94 20.3221L88.41 19.8521C88.7801 19.482 89.3803 19.482 89.7505 19.8521C90.1206 20.2222 90.1206 20.8223 89.7505 21.1926L89.2805 21.6626ZM75.7061 20.3222C76.0761 20.6923 76.0761 21.2925 75.7061 21.6627C75.336 22.0328 74.7358 22.0328 74.3657 21.6627L73.8957 21.1927C73.5256 20.8226 73.5256 20.2224 73.8957 19.8522C74.2658 19.4821 74.8659 19.4821 75.2362 19.8522L75.7061 20.3222ZM72.2245 26.8317C72.748 26.8317 73.1724 27.2561 73.1724 27.7796C73.1724 28.3031 72.748 28.7275 72.2245 28.7275H71.5597C71.0362 28.7275 70.6118 28.3031 70.6118 27.7796C70.6118 27.2561 71.0362 26.8317 71.5597 26.8317H72.2245ZM74.3656 33.8967C74.7357 33.5266 75.3358 33.5266 75.7059 33.8967C76.076 34.2668 76.076 34.8669 75.7059 35.2371L75.2359 35.7072C74.8658 36.0773 74.2656 36.0773 73.8954 35.7072C73.5253 35.3371 73.5253 34.7369 73.8954 34.3667L74.3656 33.8967ZM82.771 18.181C82.771 18.7046 82.3466 19.1289 81.8231 19.1289C81.2996 19.1289 80.8752 18.7046 80.8752 18.181V17.5163C80.8752 16.9928 81.2996 16.5684 81.8231 16.5684C82.3466 16.5684 82.771 16.9928 82.771 17.5163V18.181Z" fill="#CED4DA"/>
<path d="M33.4239 9.48489L29.9934 9.86212C29.7308 9.88927 29.4965 9.70072 29.4699 9.44079C29.4423 9.17721 29.6296 8.94241 29.8886 8.91623L33.319 8.53901C33.5816 8.51185 33.816 8.70041 33.8426 8.96033C33.8692 9.22026 33.6818 9.45505 33.4239 9.48489Z" fill="#85C74C"/>
<path d="M37.2906 4.6348C37.0281 4.66196 36.7937 4.4734 36.7671 4.21347L36.3841 0.769734C36.3565 0.506146 36.5438 0.271352 36.8028 0.245174C37.0653 0.218017 37.2997 0.406576 37.3263 0.666499L37.7093 4.11024C37.7396 4.36918 37.5532 4.60764 37.2906 4.6348Z" fill="#85C74C"/>
<path d="M34.2786 6.19315C34.1569 6.20611 34.0307 6.17315 33.9303 6.09011L31.308 3.98079C31.1034 3.81568 31.0696 3.51448 31.2337 3.30949C31.3978 3.1045 31.6978 3.07123 31.9024 3.23634L34.5201 5.34297C34.7247 5.50808 34.7584 5.80929 34.5944 6.01428C34.5165 6.11763 34.4003 6.18018 34.2786 6.19315Z" fill="#85C74C"/>
</g>
<defs>
<clipPath id="clip0_1061_17678">
<rect width="127.747" height="75" fill="white" transform="translate(0.1521)"/>
</clipPath>
</defs>
</svg>
