<svg width="80" height="75" viewBox="0 0 80 75" fill="none" xmlns="http://www.w3.org/2000/svg">
<g clip-path="url(#clip0_534_152544)">
<path d="M11.3693 66.9453C11.6224 65.9492 10.9534 64.953 10.2301 64.2285C9.48878 63.5041 8.62085 62.8701 8.22305 61.9102C7.59019 60.3707 8.42195 58.3602 7.35513 57.0743C6.74035 56.3136 5.61928 56.0781 5.05875 55.2631C4.76944 54.8465 4.67903 54.3213 4.55246 53.8141C3.95576 51.2603 2.67195 48.8695 0.845695 46.9678C0.737205 49.2499 1.24349 51.5501 2.31032 53.5787C2.74428 54.3937 3.26865 55.1725 3.41331 56.0781C3.64837 57.5452 2.83469 59.0666 3.21441 60.5156C3.63029 62.1638 5.49271 63.2686 5.6012 64.9711C5.69161 66.402 4.44397 67.6879 4.53437 69.1188C4.57054 69.7346 4.85985 70.2961 5.18532 70.8213C6.30639 72.6688 7.95183 73.9366 10.4109 73.8823L13.4487 73.9728L11.3693 66.9453Z" fill="#F5F5F5"/>
<path d="M14.0996 74.0459C14.0996 74.0459 14.3889 74.1184 14.9314 74.0278C15.2026 73.9916 15.5281 73.9191 15.9078 73.7742C16.2875 73.6293 16.7034 73.4301 17.1193 73.1041C17.3182 72.923 17.5171 72.7237 17.6075 72.4339C17.716 72.1442 17.7341 71.8363 17.7522 71.5283C17.7702 71.2023 17.7702 70.8763 17.8245 70.5503C17.8787 70.2243 18.0053 69.8801 18.1861 69.5722C18.5478 68.9383 19.1264 68.3406 19.3072 67.4894C19.5061 66.6562 19.3614 65.7506 19.2168 64.8269C19.0721 63.9213 18.9275 62.9251 19.271 61.9833C19.5965 61.0415 20.2474 60.1721 20.5729 59.1035C20.8984 58.0168 20.7356 56.8576 20.808 55.7165C20.8441 55.1369 20.9526 54.5574 21.1877 54.0321C21.4228 53.4887 21.7663 52.9816 22.0375 52.4201C22.5619 51.2791 22.6523 49.975 22.797 48.7072C22.8693 48.0732 22.9416 47.4212 22.9959 46.7692C23.0682 46.1171 23.1224 45.4651 23.3213 44.8312C23.5022 44.1973 23.7734 43.5815 24.0265 42.9475C24.1531 42.6396 24.2978 42.3136 24.3701 41.9695C24.4243 41.6072 24.4424 41.2812 24.4605 40.919C24.4967 40.2307 24.4605 39.5244 24.3701 38.818C24.2797 38.1116 24.1531 37.4234 24.0808 36.717C24.0808 36.6808 24.0627 36.6264 24.0627 36.5902L24.0446 36.4453L23.918 36.4996C23.2671 36.8257 22.7246 37.3147 22.2907 37.8943C21.8567 38.4557 21.5493 39.1078 21.2962 39.7417C20.7899 41.0458 20.6272 42.4223 20.374 43.7264C20.1389 45.0304 19.8135 46.3164 19.1444 47.4031C18.819 47.9465 18.4212 48.4355 18.0595 48.9788C17.716 49.5041 17.4086 50.0837 17.3182 50.7176C17.1374 52.0036 17.8606 53.1265 17.716 54.2676C17.6617 54.829 17.4448 55.3543 17.1735 55.8433C16.9023 56.3323 16.5768 56.7851 16.2694 57.2379C15.9621 57.6907 15.6728 58.1435 15.4558 58.6507C15.2388 59.1397 15.1303 59.665 15.0941 60.1721C15.0218 61.2045 15.1845 62.1644 15.1122 63.0881C15.058 64.0118 14.7325 64.845 14.3709 65.5876C14.0092 66.3302 13.6114 67.0184 13.2679 67.6705C13.1051 67.9965 12.9424 68.3225 12.8158 68.6485C12.6893 68.9745 12.6169 69.3006 12.5627 69.6085C12.4723 70.2424 12.4723 70.822 12.5446 71.3472C12.6893 72.3796 13.069 73.1403 13.4306 73.5569C13.5029 73.6656 13.6114 73.7561 13.6838 73.8286C13.7561 73.901 13.8284 73.9554 13.8827 73.9916C14.0273 74.0097 14.0996 74.0459 14.0996 74.0459C14.1177 74.0278 13.8465 73.901 13.5029 73.4663C13.1594 73.0498 12.7978 72.3072 12.6712 71.2748C12.5989 70.7676 12.5989 70.188 12.7073 69.5722C12.7616 69.2643 12.8339 68.9383 12.9786 68.6304C13.1051 68.3225 13.2679 67.9965 13.4306 67.6705C13.7742 67.0184 14.172 66.3483 14.5517 65.5876C14.9133 64.845 15.2569 63.9937 15.3111 63.0519C15.3834 62.1101 15.2388 61.1501 15.3111 60.1359C15.3473 59.6287 15.4558 59.1397 15.6728 58.6688C15.8717 58.1979 16.161 57.7451 16.4683 57.2923C16.7757 56.8395 17.1012 56.3867 17.3724 55.8976C17.6437 55.4086 17.8787 54.8472 17.933 54.2495C18.0776 53.0359 17.3724 51.913 17.5352 50.7176C17.6256 50.1199 17.9149 49.5765 18.2584 49.0513C18.602 48.526 18.9998 48.037 19.3433 47.4755C20.0305 46.3526 20.3559 45.0485 20.591 43.7445C20.8441 42.4223 21.0069 41.082 21.5132 39.796C21.7482 39.1621 22.0556 38.5282 22.4715 37.9848C22.8874 37.4415 23.4117 36.9706 24.0265 36.6627L23.8819 36.5902C23.8819 36.6264 23.9 36.6627 23.9 36.717C23.9723 37.4234 24.1169 38.1297 24.1893 38.818C24.2797 39.5062 24.3158 40.1945 24.2797 40.8828C24.2616 41.2269 24.2435 41.571 24.1893 41.897C24.1169 42.2231 23.9904 42.531 23.8457 42.8389C23.5745 43.4728 23.3213 44.0886 23.1224 44.7406C22.9235 45.3927 22.8512 46.0628 22.797 46.7148C22.7246 47.3669 22.6523 48.0189 22.5981 48.6528C22.4534 49.9207 22.3811 51.2066 21.8567 52.3115C21.6036 52.8548 21.26 53.3801 21.025 53.9234C20.7718 54.4849 20.6633 55.0826 20.6272 55.6803C20.5729 56.8576 20.7176 57.9986 20.4102 59.031C20.1028 60.0634 19.4518 60.9328 19.1264 61.9108C18.7828 62.907 18.9275 63.9213 19.0721 64.8269C19.2168 65.7325 19.3795 66.62 19.1806 67.435C19.0179 68.2501 18.4393 68.8478 18.0776 69.4998C17.8968 69.8258 17.7522 70.1699 17.716 70.5141C17.6617 70.8582 17.6617 71.1842 17.6617 71.5102C17.6437 71.8181 17.6256 72.126 17.5352 72.3977C17.4448 72.6513 17.2639 72.8686 17.065 73.0316C16.6672 73.3577 16.2514 73.5569 15.8897 73.7018C15.51 73.8467 15.1845 73.9191 14.9133 73.9735C14.6421 74.0278 14.4432 74.0278 14.2985 74.0278C14.172 74.0278 14.0996 74.0459 14.0996 74.0459Z" fill="#E0E0E0"/>
<path d="M23.4662 38.2383C23.4662 38.2383 23.4481 38.2745 23.4301 38.3288C23.412 38.4013 23.3939 38.4918 23.3577 38.6005C23.3035 38.836 23.2312 39.1982 23.1227 39.651C23.0142 40.1038 22.7429 40.611 22.5079 41.2449C22.2728 41.8607 22.0197 42.5852 21.8027 43.4002C21.5676 44.2153 21.3687 45.1027 21.1698 46.0808C20.9529 47.0407 20.7359 48.0731 20.2115 49.0512C19.9584 49.5402 19.6871 50.0473 19.4702 50.5907C19.2532 51.1341 19.1266 51.7318 19.0362 52.3294C18.8915 53.5248 18.6926 54.7565 18.4033 56.0062C17.8066 58.4875 17.2461 60.8602 16.7217 63.0337C16.1974 65.189 15.7272 67.127 15.3113 68.7571C14.9135 70.369 14.6062 71.6912 14.3892 72.6149C14.2807 73.0677 14.2084 73.4119 14.1541 73.6654C14.136 73.7741 14.118 73.8647 14.0999 73.9371C14.0818 73.9914 14.0818 74.0277 14.0818 74.0277C14.0818 74.0277 14.0999 73.9914 14.118 73.9371C14.136 73.8647 14.1722 73.7741 14.1903 73.6654C14.2626 73.4119 14.353 73.0677 14.4615 72.6149C14.6966 71.6912 15.0401 70.3871 15.456 68.7571C15.8719 67.127 16.3601 65.189 16.9025 63.0337C17.4269 60.8783 17.9874 58.5057 18.5841 56.0062C18.8735 54.7565 19.0724 53.5067 19.217 52.3113C19.2893 51.7136 19.4159 51.1341 19.6329 50.6088C19.8499 50.0836 20.1211 49.5764 20.3562 49.0693C20.8805 48.0731 21.0975 47.0045 21.3145 46.0627C21.5134 45.1027 21.7123 44.1971 21.9293 43.3821C22.1463 42.5671 22.3813 41.8607 22.5983 41.2268C22.8153 40.5928 23.0865 40.0857 23.195 39.6148C23.3035 39.1439 23.3577 38.7998 23.3939 38.5462C23.412 38.4375 23.4301 38.347 23.4481 38.2745C23.4662 38.2745 23.4662 38.2383 23.4662 38.2383Z" fill="#E0E0E0"/>
<path d="M14.6242 74.0455C16.5951 72.8501 17.1375 69.282 16.3058 67.1267C15.474 64.9714 14.0094 63.0153 13.7743 60.7332C13.5935 58.9763 14.1541 57.1651 13.7382 55.4263C13.1776 53.108 10.8993 51.3149 10.8993 48.9241C10.8993 47.5838 11.6588 46.316 11.5864 44.9757C11.496 43.3275 10.2303 42.0415 9.4528 40.5926C8.24132 38.3829 8.15091 35.7566 7.73503 33.2753C7.31915 30.7939 6.34273 28.1315 4.13676 26.918C3.82937 29.0371 3.26883 30.486 3.46773 33.3296C3.54006 34.362 4.73346 36.3181 4.91427 38.564C5.02276 39.9043 5.09509 41.2627 5.1855 42.603C5.27591 43.9071 5.36632 45.2474 5.83644 46.4609C6.19808 47.4027 6.7767 48.254 7.04792 49.2139C7.55421 51.0432 6.90327 53.0174 7.31915 54.8648C7.6627 56.4225 8.76569 57.7628 8.98267 59.3566C9.30814 61.5844 7.87968 63.9209 8.62103 66.04C9.00075 67.0905 9.86868 67.9417 10.1218 69.0285C10.3207 69.8797 10.1218 70.7672 10.2846 71.6185C10.5739 72.995 13.1776 74.0274 14.5699 73.9368" fill="#E0E0E0"/>
<path d="M4.71558 29.0195C4.71558 29.0195 4.71558 29.0558 4.73366 29.1463C4.75174 29.2369 4.76982 29.3455 4.7879 29.4904C4.84215 29.7984 4.89639 30.2512 4.9868 30.8126C5.09529 31.3922 5.40268 32.0442 5.65583 32.8412C5.90897 33.62 6.16212 34.5437 6.39718 35.558C6.63224 36.5723 6.83114 37.6952 7.03004 38.9087C7.24702 40.1041 7.464 41.4444 8.0607 42.6941C8.35001 43.328 8.6574 43.962 8.89246 44.6321C9.12753 45.3023 9.2541 46.0267 9.32643 46.7693C9.43492 48.2726 9.6519 49.8122 9.94121 51.3879C10.556 54.5032 11.1527 57.4917 11.6951 60.1904C12.2557 62.8891 12.78 65.3161 13.214 67.3627C13.648 69.3913 14.0096 71.0395 14.2447 72.1986C14.3712 72.7601 14.4616 73.1948 14.534 73.5027C14.5701 73.6476 14.5882 73.7563 14.6063 73.8468C14.6244 73.9193 14.6425 73.9555 14.6425 73.9555C14.6425 73.9555 14.6425 73.9193 14.6244 73.8287C14.6063 73.7382 14.5882 73.6295 14.5701 73.4846C14.5159 73.1767 14.4255 72.7239 14.317 72.1624C14.0819 71.0033 13.7565 69.3551 13.3406 67.3084C12.9247 65.2617 12.4184 62.8347 11.876 60.1179C11.3335 57.4192 10.7549 54.4307 10.1401 51.3155C9.8508 49.7397 9.6519 48.2183 9.52533 46.715C9.453 45.9724 9.32643 45.2298 9.07328 44.5416C8.82014 43.8533 8.51275 43.2194 8.22344 42.5855C7.62674 41.3538 7.40976 40.0498 7.1747 38.8363C6.95772 37.6228 6.75882 36.4998 6.52375 35.4855C6.28869 34.4713 6.01746 33.5657 5.74624 32.7687C5.49309 31.9718 5.1857 31.3379 5.05913 30.7583C4.95064 30.1968 4.87831 29.744 4.82407 29.4361C4.7879 29.2912 4.76982 29.1825 4.75174 29.092C4.73366 29.0558 4.71558 29.0195 4.71558 29.0195Z" fill="#EBEBEB"/>
<path d="M33.1397 0.691406H12.6169V22.118H33.1397V0.691406Z" fill="#E0E0E0"/>
<path d="M31.7477 0.691406H11.2249V22.118H31.7477V0.691406Z" fill="#FAFAFA"/>
<path d="M31.7657 22.1361H11.2249V0.691406H31.7657V22.1361ZM11.2249 22.118H31.7296V0.709518H11.2249V22.118Z" fill="#E0E0E0"/>
<path d="M28.9993 3.57129H13.9915V19.2382H28.9993V3.57129Z" fill="#FAFAFA"/>
<path d="M13.9914 19.3467C14.0095 19.3648 13.8648 19.5278 13.6298 19.7814C13.3947 20.0349 13.0511 20.3791 12.6714 20.7413C12.2917 21.1217 11.9481 21.4477 11.695 21.6831C11.4419 21.9186 11.2791 22.0635 11.261 22.0454C11.243 22.0273 11.3876 21.8643 11.6227 21.6107C11.8577 21.3571 12.2013 21.013 12.581 20.6326C12.9607 20.2523 13.3043 19.9263 13.5574 19.6908C13.8106 19.4735 13.9733 19.3467 13.9914 19.3467Z" fill="#E0E0E0"/>
<path d="M28.9993 19.3101C29.0174 19.292 29.1801 19.4369 29.4333 19.6724C29.6864 19.9078 30.03 20.2519 30.3916 20.6323C30.7713 21.0126 31.0968 21.3568 31.3319 21.6103C31.5669 21.8639 31.7116 22.0269 31.6935 22.045C31.6754 22.0631 31.5127 21.9182 31.2595 21.6828C31.0064 21.4473 30.6628 21.1032 30.2831 20.7229C29.9034 20.3425 29.5779 19.9984 29.3429 19.7448C29.1259 19.4912 28.9812 19.3282 28.9993 19.3101Z" fill="#E0E0E0"/>
<path d="M28.9451 3.626C28.927 3.60789 29.0717 3.44488 29.3068 3.19131C29.5418 2.93774 29.8854 2.59361 30.2651 2.23137C30.6448 1.85102 30.9884 1.525 31.2415 1.28954C31.4947 1.05409 31.6574 0.909191 31.6755 0.927303C31.6936 0.945415 31.5489 1.10842 31.3138 1.36199C31.0788 1.61556 30.7352 1.95969 30.3555 2.34004C29.9758 2.7204 29.6322 3.04641 29.3791 3.28187C29.1259 3.49921 28.9632 3.64411 28.9451 3.626Z" fill="#E0E0E0"/>
<path d="M13.9372 3.66222C13.9191 3.68033 13.7563 3.53544 13.5032 3.29998C13.2501 3.06452 12.9065 2.72039 12.5449 2.34004C12.1651 1.95969 11.8397 1.61556 11.6046 1.36199C11.3695 1.10842 11.2249 0.945415 11.243 0.927303C11.2611 0.909191 11.4238 1.05409 11.6769 1.28954C11.9301 1.525 12.2736 1.86913 12.6534 2.24948C13.0331 2.62983 13.3585 2.97396 13.5936 3.22753C13.8287 3.4811 13.9552 3.64411 13.9372 3.66222Z" fill="#E0E0E0"/>
<path d="M28.9452 19.2569C28.9452 19.2569 28.9452 19.2388 28.9452 19.1845C28.9452 19.1302 28.9452 19.0577 28.9452 18.9672C28.9452 18.7679 28.9452 18.4962 28.9452 18.1159C28.9452 17.3733 28.9452 16.2866 28.9271 14.9282C28.9271 12.1751 28.909 8.28105 28.8909 3.59003L28.9452 3.64436C24.5694 3.64436 19.4522 3.64436 13.9735 3.64436L14.0458 3.57191C14.0458 9.33154 14.0458 14.7108 14.0277 19.2388L13.9735 19.1845C18.4577 19.2026 22.2007 19.2026 24.8044 19.2207C26.1063 19.2207 27.137 19.2388 27.8422 19.2388C28.1857 19.2388 28.4569 19.2388 28.6558 19.2388C28.7463 19.2388 28.8186 19.2388 28.8728 19.2388C28.9271 19.2388 28.9452 19.2569 28.9452 19.2569C28.9452 19.2569 28.9271 19.2569 28.8728 19.2569C28.8186 19.2569 28.7643 19.2569 28.6739 19.2569C28.4931 19.2569 28.2219 19.2569 27.8783 19.2569C27.1731 19.2569 26.1425 19.2569 24.8406 19.2751C22.2187 19.2751 18.4758 19.2932 13.9735 19.3113H13.9192V19.2569C13.9192 14.7108 13.9192 9.33154 13.9011 3.59003V3.51758H13.9735C19.4341 3.51758 24.5694 3.51758 28.9452 3.51758H28.9994V3.57191C28.9813 8.26293 28.9813 12.1932 28.9632 14.9463C28.9632 16.3047 28.9452 17.3914 28.9452 18.134C28.9452 18.4962 28.9452 18.7679 28.9452 18.9672C28.9452 19.0577 28.9452 19.1302 28.9452 19.1845C28.9632 19.2207 28.9452 19.2569 28.9452 19.2569Z" fill="#E0E0E0"/>
<path d="M23.9903 8.91406H18.9817V13.9311H23.9903V8.91406Z" fill="#EBEBEB"/>
<path d="M70.768 11.1602V29.8518H43.9527L42.9944 11.2869L70.768 11.1602Z" fill="#E0E0E0"/>
<path d="M42.9919 11.2858V29.8145H69.8072V11.2858H42.9919Z" fill="white"/>
<path d="M69.9363 29.9423H42.8679V11.1602H69.9363V29.9423ZM43.1211 29.6888H69.6832V11.4137H43.1211V29.6888Z" fill="#E0E0E0"/>
<path d="M66.9165 13.5869H45.9055V27.5151H66.9165V13.5869Z" fill="white"/>
<path d="M66.8985 13.5871C66.8985 13.5871 66.8624 13.5871 66.79 13.5871C66.7177 13.5871 66.6273 13.5871 66.4826 13.5871C66.2114 13.5871 65.8317 13.5871 65.3254 13.5871C64.3128 13.5871 62.8482 13.6052 61.0039 13.6052C57.2971 13.6052 52.0534 13.6233 45.8875 13.6414L45.9418 13.5871C45.9418 17.8434 45.9418 22.5526 45.9418 27.5153L45.8694 27.4428C53.7892 27.4428 61.0943 27.4609 66.8804 27.4609L66.8262 27.5153C66.8443 23.277 66.8443 19.7995 66.8624 17.3906C66.8624 16.1771 66.8804 15.2353 66.8804 14.5833C66.8804 14.2572 66.8804 14.0218 66.8804 13.8407C66.8985 13.6777 66.8985 13.5871 66.8985 13.5871C66.8985 13.5871 66.8985 13.6595 66.8985 13.8226C66.8985 13.9856 66.8985 14.2391 66.8985 14.547C66.8985 15.1991 66.8985 16.1409 66.9166 17.3363C66.9166 19.7633 66.9347 23.2408 66.9528 27.4971V27.5515H66.8985C61.1304 27.5515 53.8254 27.5515 45.8875 27.5696H45.8152V27.4971C45.8152 22.5344 45.8152 17.8253 45.8152 13.569V13.5146H45.8694C52.0534 13.5328 57.3152 13.5328 61.0219 13.5509C62.8663 13.5509 64.3309 13.569 65.3435 13.569C65.8317 13.569 66.2295 13.569 66.4826 13.569C66.6092 13.569 66.6996 13.569 66.7719 13.569C66.8804 13.5871 66.8985 13.5871 66.8985 13.5871Z" fill="#E0E0E0"/>
<path d="M42.9943 11.2322C43.0124 11.2141 43.1751 11.3409 43.4463 11.5401C43.7175 11.7393 44.0973 12.011 44.4951 12.337C44.8929 12.663 45.2545 12.9709 45.5076 13.1883C45.7608 13.4237 45.9054 13.5686 45.8874 13.5868C45.8693 13.623 45.2183 13.0796 44.4047 12.4457C43.6091 11.7937 42.9762 11.2684 42.9943 11.2322Z" fill="#E0E0E0"/>
<path d="M69.8097 11.287C69.8278 11.3232 69.195 11.8485 68.3994 12.4824C67.6038 13.1163 66.9347 13.6053 66.8986 13.5872C66.8805 13.551 67.5133 13.0257 68.3089 12.3918C69.1226 11.7579 69.7917 11.2508 69.8097 11.287Z" fill="#E0E0E0"/>
<path d="M69.7918 29.8157C68.7973 29.0006 67.8028 28.2037 66.8083 27.3887L69.7918 29.8157Z" fill="white"/>
<path d="M66.7902 27.3885C66.8082 27.3523 67.4954 27.8775 68.3271 28.5477C69.1589 29.2178 69.8098 29.7793 69.7737 29.8155C69.7556 29.8517 69.0685 29.3265 68.2367 28.6563C67.423 27.9862 66.7721 27.4247 66.7902 27.3885Z" fill="#E0E0E0"/>
<path d="M42.9943 29.8153C42.9762 29.779 43.591 29.2538 44.3866 28.6199C45.1822 27.9859 45.8512 27.4969 45.8693 27.5331C45.8874 27.5694 45.2726 28.0946 44.477 28.7285C43.6814 29.3625 43.0124 29.8515 42.9943 29.8153Z" fill="#E0E0E0"/>
<path d="M50.1648 17.9389V22.5938H63.3826V17.9389H50.1648Z" fill="#E0E0E0"/>
<path d="M68.6887 37.2064L70.9309 34.4896C70.9309 34.4896 71.4914 30.8128 71.4191 30.2876C71.3467 29.8529 70.9851 28.7843 70.8043 28.2409C70.732 28.0598 70.8585 27.8606 71.0574 27.8244C71.4733 27.7519 72.1243 27.8244 72.6486 28.8024C73.1188 29.708 73.3719 30.9215 73.4985 31.7185C73.5527 32.135 73.9867 32.3886 74.3845 32.2799C75.3971 31.9539 76.8617 31.5917 77.5307 31.5192C78.1455 31.4468 78.8326 32.0264 78.9772 32.4792C79.0857 32.8052 78.5614 33.4391 78.5614 33.4391C78.5614 33.4391 79.1038 33.6564 79.2846 34.0187C79.3027 34.073 79.3389 34.1092 79.357 34.1636C79.4835 34.4715 79.4474 34.8337 79.2485 35.1054L79.1038 35.3046C79.1038 35.3046 79.7548 35.4133 79.8633 35.7756C79.9717 36.1378 79.9175 36.5725 79.9175 36.5725L79.3931 37.2426C79.3931 37.2426 79.7005 37.46 79.7548 37.786C79.8271 38.112 79.0134 39.0357 79.0134 39.0357L74.9088 40.5934L73.4623 41.9699L68.6887 37.2064Z" fill="#FFB774"/>
<path d="M78.8868 33.5482C78.8868 33.5482 78.8507 33.5663 78.7964 33.6026C78.7241 33.6388 78.6518 33.675 78.5433 33.7293C78.3082 33.838 77.9828 34.001 77.603 34.1821C77.2052 34.3814 76.717 34.5987 76.1927 34.8523C75.9214 34.9791 75.6502 35.124 75.3428 35.2326C75.0354 35.3413 74.6557 35.3775 74.3483 35.1602C74.2037 35.0515 74.1132 34.8885 74.0771 34.7255C74.0409 34.5625 74.059 34.3814 74.0952 34.2184C74.1856 33.8924 74.4206 33.6569 74.6557 33.4758C74.8908 33.2947 75.1439 33.1679 75.379 33.0411C75.614 32.9143 75.831 32.8056 76.0118 32.697C76.3916 32.4977 76.717 32.3347 76.934 32.2079C77.0425 32.1536 77.1148 32.1174 77.1872 32.0811C77.2414 32.0449 77.2776 32.0449 77.2776 32.0449C77.2776 32.0449 77.2595 32.063 77.1872 32.0993C77.1148 32.1355 77.0425 32.1898 76.934 32.2442C76.6989 32.3709 76.3916 32.5521 76.0118 32.7513C75.8129 32.86 75.596 32.9686 75.379 33.0954C75.1439 33.2222 74.9089 33.349 74.6738 33.5301C74.4387 33.7112 74.2398 33.9286 74.1494 34.2365C74.059 34.5263 74.1133 34.8885 74.3845 35.0877C74.511 35.1783 74.6738 35.2145 74.8365 35.2326C74.9993 35.2326 75.1439 35.2145 75.2886 35.1602C75.5779 35.0515 75.8491 34.9066 76.1203 34.798C76.6447 34.5625 77.1329 34.327 77.5307 34.1459C77.9285 33.9648 78.254 33.8199 78.489 33.7112C78.5975 33.6569 78.6879 33.6207 78.7422 33.6026C78.8507 33.5482 78.8868 33.5301 78.8868 33.5482Z" fill="#EAA769"/>
<path d="M79.3208 35.4131C79.3208 35.4131 79.2485 35.4493 79.1219 35.5218C78.9953 35.5761 78.7964 35.6667 78.5614 35.7753C78.0912 35.9746 77.4403 36.2281 76.6989 36.4817C76.5181 36.536 76.3373 36.6085 76.1565 36.6447C75.9757 36.6809 75.7768 36.6809 75.614 36.6266C75.2705 36.5179 75.0716 36.1919 75.0535 35.9383C75.0354 35.6667 75.1439 35.4674 75.2343 35.3588C75.2886 35.3044 75.3247 35.2682 75.3609 35.2501C75.3971 35.232 75.4151 35.2139 75.4151 35.2139C75.4151 35.2139 75.3609 35.2682 75.2705 35.3769C75.1982 35.4855 75.1078 35.6848 75.1439 35.9383C75.1801 36.1738 75.3609 36.4636 75.6683 36.5542C75.8129 36.6085 75.9938 36.5904 76.1746 36.5542C76.3554 36.5179 76.5362 36.4455 76.717 36.3912C77.4584 36.1376 78.1093 35.884 78.5975 35.7029C78.8145 35.6123 79.0134 35.5399 79.1581 35.4855C79.2485 35.4312 79.3208 35.4131 79.3208 35.4131Z" fill="#EAA769"/>
<path d="M79.4475 37.1886C79.4475 37.1886 79.3752 37.2248 79.2486 37.261C79.104 37.2972 78.9232 37.3516 78.7062 37.4059C78.2542 37.5146 77.6213 37.6776 76.9161 37.8406C76.7353 37.8768 76.5726 37.9312 76.3917 37.9493C76.2109 37.9674 76.0301 37.9493 75.8854 37.8768C75.7408 37.8044 75.6142 37.6776 75.5781 37.5327C75.5419 37.3878 75.56 37.2429 75.5961 37.1342C75.6865 36.8988 75.8674 36.7901 75.9759 36.7177C76.1024 36.6452 76.1748 36.6271 76.1748 36.6452C76.1748 36.6452 76.1024 36.6814 75.9939 36.7539C75.8855 36.8263 75.7227 36.9531 75.6504 37.1523C75.6142 37.261 75.5961 37.3878 75.6323 37.5146C75.6685 37.6414 75.777 37.75 75.9035 37.8044C76.0301 37.8587 76.1928 37.8768 76.3556 37.8587C76.5183 37.8406 76.681 37.7863 76.8619 37.75C77.567 37.587 78.1999 37.4421 78.67 37.3335C78.887 37.2972 79.0678 37.2429 79.2125 37.2248C79.3752 37.1886 79.4475 37.1705 79.4475 37.1886Z" fill="#EAA769"/>
<path d="M79.3934 38.7826C79.3934 38.8007 79.1583 38.8007 78.7786 38.8188C78.3989 38.8188 77.8926 38.8188 77.3139 38.8188C77.1693 38.8188 77.0246 38.8188 76.8981 38.8188C76.7715 38.8188 76.6268 38.8188 76.5003 38.7826C76.3737 38.7463 76.2652 38.692 76.1748 38.5833C76.1025 38.4928 76.0844 38.366 76.1025 38.2573C76.1567 38.0581 76.3014 37.9675 76.4099 37.9132C76.5183 37.877 76.5726 37.877 76.5726 37.877C76.5726 37.877 76.5183 37.8951 76.4279 37.9494C76.3375 38.0037 76.211 38.0943 76.1748 38.2754C76.1567 38.366 76.1748 38.4565 76.2471 38.529C76.3014 38.6014 76.4099 38.6558 76.5183 38.692C76.6268 38.7101 76.7534 38.7101 76.8981 38.7101C77.0246 38.7101 77.1693 38.7101 77.3139 38.7101C77.8926 38.7101 78.3989 38.7282 78.7786 38.7282C79.1583 38.7645 79.3934 38.7645 79.3934 38.7826Z" fill="#EAA769"/>
<path d="M75.6138 37.2251C75.5958 37.2432 75.1799 36.9897 74.6013 36.8991C74.0226 36.8086 73.5525 36.9172 73.5344 36.881C73.5163 36.8629 74.0046 36.6999 74.6013 36.8086C75.216 36.8991 75.6319 37.207 75.6138 37.2251Z" fill="#EAA769"/>
<path d="M55.5613 46.1352L69.2492 36.2641L74.1132 41.8426L63.3907 52.9091C58.599 57.2379 56.9355 58.3427 48.9795 53.8147L43.9347 50.9168L45.7971 73.9372H23.0141C20.5188 73.8647 26.2688 67.5617 25.871 67.5617L20.8805 50.6632L13.1595 55.8976L20.4827 61.6391L17.7704 67.924L5.23974 62.11C0.701215 59.0853 1.29791 53.1808 5.18549 49.341C12.1651 42.4041 17.5715 37.369 23.5385 36.3547C26.6305 35.431 28.4206 35.268 28.4206 35.268C33.2303 35.1955 33.5739 35.2136 36.1595 35.3404C36.8467 35.3766 36.9009 35.4129 37.6603 35.5215C40.463 35.9381 43.121 37.0429 45.4174 38.7274L55.5613 46.1352Z" fill="#457B9D"/>
<path d="M55.887 50.7533C55.887 50.7533 55.8508 50.699 55.7785 50.5903C55.7242 50.4817 55.6338 50.3187 55.5615 50.1013C55.4711 49.884 55.3988 49.6304 55.3265 49.3406C55.2722 49.0508 55.218 48.7248 55.1999 48.3807C55.1818 48.0365 55.218 47.7105 55.2541 47.4026C55.3084 47.1128 55.3626 46.8411 55.4349 46.6238C55.5073 46.4065 55.5615 46.2435 55.6158 46.1167C55.67 46.008 55.7062 45.9355 55.7062 45.9355C55.7242 45.9355 55.6158 46.2072 55.4892 46.6238C55.4349 46.8411 55.3807 47.0947 55.3445 47.3845C55.3084 47.6743 55.2903 48.0003 55.3084 48.3444C55.3265 48.6886 55.3626 49.0146 55.4169 49.3044C55.4711 49.5942 55.5434 49.8477 55.6158 50.0651C55.7785 50.4998 55.9051 50.7533 55.887 50.7533Z" fill="#263238"/>
<path d="M43.4645 56.2418C44.8568 54.5574 45.4535 52.2209 45.0376 50.0837C44.6217 47.9284 43.1933 45.9904 41.2585 44.958" fill="#457B9D"/>
<path d="M41.2766 45.3203C41.2766 45.3203 41.3128 45.3384 41.367 45.3746C41.4213 45.4109 41.5298 45.4833 41.6382 45.5558C41.8733 45.7188 42.1807 45.9905 42.5423 46.3527C43.2656 47.0591 44.0974 48.2182 44.7302 49.631C45.0557 50.3373 45.2184 51.0799 45.2184 51.7501C45.2184 52.4202 45.0918 53.0179 44.9291 53.507C44.7845 53.996 44.6036 54.3763 44.4952 54.6299C44.4409 54.7567 44.3867 54.8472 44.3505 54.9197C44.3143 54.9921 44.2963 55.0284 44.2963 55.0103C44.2963 55.0103 44.3143 54.974 44.3324 54.9016C44.3686 54.8291 44.4047 54.7205 44.459 54.6118C44.5675 54.3582 44.7302 53.9779 44.8568 53.4888C45.0014 52.9998 45.128 52.4202 45.1099 51.7501C45.1099 51.0799 44.9472 50.3555 44.6217 49.6672C43.9889 48.2545 43.1752 47.1134 42.47 46.3889C42.1265 46.0267 41.8191 45.755 41.584 45.5739C41.4755 45.4833 41.3851 45.429 41.3309 45.3746C41.2947 45.3565 41.2766 45.3203 41.2766 45.3203Z" fill="#263238"/>
<path d="M36.2136 51.8223C36.2136 51.8223 36.2136 51.8404 36.2136 51.8947C36.2136 51.9491 36.2136 52.0215 36.1955 52.1121C36.1774 52.3113 36.1412 52.583 36.0328 52.909C35.8519 53.561 35.3999 54.4666 34.6043 55.1549C33.8087 55.8613 32.8684 56.1873 32.1994 56.2959C31.8559 56.3503 31.5846 56.3684 31.3857 56.3503C31.2953 56.3503 31.223 56.3322 31.1688 56.3322C31.1145 56.3322 31.0964 56.3322 31.0964 56.3141C31.0964 56.3141 31.2049 56.314 31.3857 56.2959C31.5846 56.2959 31.8559 56.2778 32.1813 56.2054C32.8504 56.0786 33.7545 55.7526 34.532 55.0643C35.3095 54.3761 35.7615 53.5067 35.9604 52.8547C36.0689 52.5286 36.1232 52.257 36.1412 52.0758C36.1955 51.9309 36.2136 51.8223 36.2136 51.8223Z" fill="#263238"/>
<path d="M27.2814 60.3711C27.2814 60.3711 27.2995 60.4073 27.2995 60.4798C27.3176 60.5522 27.3357 60.6609 27.3538 60.7696C27.3718 60.8963 27.408 61.0593 27.4261 61.2405C27.4442 61.4216 27.4803 61.6389 27.4803 61.8744C27.4803 61.9831 27.4803 62.1098 27.4984 62.2366C27.4984 62.3634 27.4984 62.4902 27.4984 62.6351C27.4984 62.9068 27.4623 63.1966 27.4442 63.5045C27.3718 64.1203 27.2453 64.7904 27.0464 65.4787C26.8475 66.167 26.5762 66.7828 26.305 67.3442C26.1604 67.6159 26.0338 67.8695 25.8711 68.1049C25.7987 68.2136 25.7264 68.3404 25.6541 68.4491C25.5817 68.5577 25.5094 68.6483 25.4371 68.757C25.3105 68.9562 25.1659 69.1192 25.0574 69.2641C24.9489 69.409 24.8404 69.5358 24.75 69.6264C24.6596 69.7169 24.6053 69.7894 24.5511 69.8437C24.4968 69.898 24.4788 69.9161 24.4788 69.9161C24.4788 69.9161 24.4968 69.8799 24.533 69.8256C24.5872 69.7712 24.6415 69.6807 24.7319 69.5901C24.8223 69.4996 24.9127 69.3728 25.0212 69.2279C25.1297 69.083 25.2563 68.92 25.3828 68.7207C25.4552 68.6302 25.5094 68.5215 25.5817 68.4128C25.6541 68.3042 25.7083 68.1955 25.7806 68.0687C25.9253 67.8333 26.0519 67.5797 26.1965 67.308C26.4678 66.7646 26.7209 66.1307 26.9198 65.4606C27.1187 64.7723 27.2453 64.1203 27.3176 63.5045C27.3538 63.1966 27.3718 62.9068 27.3899 62.6351C27.3899 62.4902 27.408 62.3634 27.408 62.2366C27.408 62.1098 27.408 61.9831 27.408 61.8744C27.408 61.6389 27.3899 61.4397 27.3718 61.2405C27.3538 61.0593 27.3357 60.8963 27.3176 60.7696C27.2995 60.6428 27.2995 60.5522 27.2814 60.4798C27.2814 60.4073 27.2634 60.3711 27.2814 60.3711Z" fill="#263238"/>
<path d="M8.34985 54.9562C8.34985 54.9562 8.42218 54.9199 8.54875 54.8837C8.62108 54.8656 8.69341 54.8475 8.78382 54.8294C8.87422 54.8113 8.98271 54.7932 9.10929 54.775C9.34435 54.7388 9.63366 54.7207 9.94105 54.7207C10.2484 54.7207 10.6101 54.7569 10.9717 54.8294C11.3333 54.9018 11.6588 55.0105 11.9662 55.1192C12.2555 55.246 12.5087 55.3727 12.7256 55.4995C12.8341 55.5539 12.9245 55.6263 12.9969 55.6806C13.0692 55.735 13.1415 55.7893 13.1958 55.8255C13.3043 55.9161 13.3585 55.9523 13.3585 55.9704C13.3404 55.9886 13.1234 55.8074 12.7076 55.572C12.5087 55.4633 12.2555 55.3365 11.9481 55.2278C11.6588 55.1192 11.3333 55.0105 10.9717 54.938C10.6101 54.8656 10.2846 54.8294 9.95913 54.8294C9.65174 54.8294 9.36243 54.8294 9.12737 54.8656C8.63916 54.9018 8.34985 54.9743 8.34985 54.9562Z" fill="#263238"/>
<path d="M23.8638 45.3378C23.8638 45.3378 23.8638 45.3015 23.8819 45.2291C23.8999 45.1566 23.918 45.048 23.9361 44.9212C23.9904 44.6495 24.0446 44.2691 24.0808 43.7982C24.1169 43.3273 24.1169 42.7477 24.0265 42.1319C23.9361 41.5161 23.7372 40.846 23.3756 40.212C23.0139 39.5781 22.5438 39.0529 22.0194 38.7087C21.4951 38.3646 20.9526 38.1654 20.4825 38.0929C20.0124 38.0205 19.6326 38.0386 19.3614 38.0929C19.0902 38.1292 18.9636 38.1835 18.9636 38.1835C18.9636 38.1835 18.9998 38.1654 19.0721 38.1473C19.1444 38.1292 19.2349 38.0929 19.3795 38.0748C19.6507 38.0205 20.0304 37.9843 20.5187 38.0386C20.9888 38.111 21.5493 38.2922 22.0918 38.6544C22.6342 38.9985 23.1043 39.5419 23.466 40.1758C23.8276 40.8279 24.0265 41.498 24.1169 42.1319C24.2073 42.7658 24.1893 43.3454 24.1531 43.8163C24.0988 44.2873 24.0265 44.6857 23.9723 44.9393C23.9361 45.0661 23.918 45.1747 23.8999 45.2472C23.8819 45.3015 23.8638 45.3378 23.8638 45.3378Z" fill="#263238"/>
<path d="M16.7395 44.3415C16.7215 44.3415 16.7034 43.6713 16.7034 42.8563C16.7034 42.0412 16.7395 41.3711 16.7576 41.3711C16.7757 41.3711 16.7938 42.0412 16.7938 42.8563C16.7938 43.6713 16.7757 44.3415 16.7395 44.3415Z" fill="#FAFAFA"/>
<path d="M13.304 48.6897C13.2859 48.7078 12.9604 48.3637 12.5988 47.929C12.2191 47.4943 11.9479 47.1321 11.9659 47.114C11.984 47.0959 12.3095 47.44 12.6711 47.8747C13.0328 48.3094 13.3221 48.6716 13.304 48.6897Z" fill="#FAFAFA"/>
<path d="M19.0723 47.8382C19.0723 47.8563 18.5117 48.0374 17.7885 48.2186C17.0833 48.3997 16.4866 48.5265 16.4866 48.5084C16.4866 48.4902 17.0471 48.3091 17.7704 48.128C18.4756 47.9288 19.0542 47.802 19.0723 47.8382Z" fill="#FAFAFA"/>
<path d="M21.4771 45.9361C21.459 45.9361 21.4409 45.7912 21.4048 45.5738C21.3686 45.3384 21.3505 45.0305 21.3324 44.6682C21.3144 44.3241 21.3324 43.9981 21.3505 43.7626C21.3686 43.5272 21.3867 43.4004 21.4048 43.4004C21.4409 43.4004 21.4229 43.9619 21.4409 44.6682C21.4409 45.3746 21.4952 45.9361 21.4771 45.9361Z" fill="#FAFAFA"/>
<path d="M12.4905 53.8695C12.4724 53.8695 12.4363 53.308 12.4363 52.6379C12.4363 51.9496 12.4544 51.4062 12.4905 51.4062C12.5267 51.4062 12.5448 51.9677 12.5448 52.6379C12.5448 53.308 12.5086 53.8695 12.4905 53.8695Z" fill="#FAFAFA"/>
<path d="M8.51259 52.5465C8.49451 52.5646 7.82548 52.311 6.97564 51.985C6.14388 51.659 5.47485 51.3692 5.47485 51.3329C5.49294 51.3148 6.16196 51.5684 7.0118 51.8944C7.86165 52.2386 8.53067 52.5283 8.51259 52.5465Z" fill="#FAFAFA"/>
<path d="M5.05905 57.0565C5.04097 57.0565 5.07713 56.4951 5.14946 55.8068C5.22179 55.1186 5.3122 54.5752 5.33028 54.5752C5.34836 54.5752 5.3122 55.1367 5.23987 55.8249C5.16754 56.5132 5.07713 57.0565 5.05905 57.0565Z" fill="#FAFAFA"/>
<path d="M10.7002 60.7698C10.7002 60.7879 10.5194 60.7335 10.2301 60.6611C9.94081 60.5886 9.54301 60.48 9.09097 60.3713C8.63892 60.2626 8.24112 60.1902 7.95182 60.1177C7.66251 60.0634 7.48169 60.0272 7.48169 60.0091C7.48169 59.9909 7.66251 60.0091 7.9699 60.0453C8.25921 60.0815 8.67509 60.154 9.12713 60.2626C9.57917 60.3713 9.97697 60.48 10.2663 60.5705C10.5375 60.6973 10.7002 60.7698 10.7002 60.7698Z" fill="#FAFAFA"/>
<path d="M12.6713 59.1034C12.6532 59.1034 12.5085 58.5601 12.3639 57.8718C12.2192 57.1835 12.1107 56.6221 12.1469 56.6221C12.165 56.6221 12.3096 57.1654 12.4543 57.8537C12.5989 58.5419 12.7074 59.1034 12.6713 59.1034Z" fill="#FAFAFA"/>
<path d="M14.6603 64.4828C14.6603 64.501 14.4976 64.4828 14.2444 64.4466C13.9913 64.4104 13.6296 64.3379 13.2499 64.2474C12.8702 64.1387 12.5266 64.03 12.2916 63.9395C12.0565 63.8489 11.9119 63.7765 11.9119 63.7584C11.9119 63.7402 12.0746 63.7946 12.3097 63.8851C12.5628 63.9576 12.8883 64.0663 13.268 64.1749C13.6477 64.2836 13.9913 64.356 14.2444 64.4104C14.5156 64.4466 14.6784 64.4647 14.6603 64.4828Z" fill="#FAFAFA"/>
<path d="M16.9203 63.9393C16.9022 63.9393 16.9203 63.7763 16.9384 63.4865C16.9565 63.2148 16.9927 62.8345 17.0107 62.4179C17.0288 62.0013 17.0288 61.621 17.0288 61.3493C17.0288 61.0776 17.0288 60.8965 17.0469 60.8965C17.065 60.8965 17.0831 61.0595 17.1012 61.3312C17.1192 61.6029 17.1192 61.9832 17.1012 62.3998C17.0831 62.8164 17.0469 63.1967 17.0107 63.4684C16.9565 63.7763 16.9203 63.9393 16.9203 63.9393Z" fill="#FAFAFA"/>
<path d="M25.5638 51.2789C25.5457 51.297 25.1841 50.8261 24.6959 50.2828C24.2077 49.7394 23.7737 49.3228 23.7918 49.3047C23.7918 49.2866 23.9184 49.3953 24.0992 49.5402C24.28 49.7032 24.5151 49.9386 24.7682 50.2103C25.0214 50.482 25.2203 50.7356 25.3649 50.9348C25.4915 51.134 25.5638 51.2608 25.5638 51.2789Z" fill="#FAFAFA"/>
<path d="M30.6629 46.7147C30.681 46.7328 30.3194 47.0407 29.8673 47.403C29.4153 47.7652 29.0356 48.055 29.0175 48.0188C28.9994 48.0007 29.361 47.6928 29.8131 47.3305C30.2651 46.9683 30.6449 46.6966 30.6629 46.7147Z" fill="#FAFAFA"/>
<path d="M27.8237 44.1787C27.8056 44.1787 27.7875 43.3999 27.8056 42.4399C27.8237 41.48 27.8598 40.7012 27.8779 40.7012C27.896 40.7012 27.9141 41.48 27.896 42.4399C27.8779 43.3999 27.8418 44.1787 27.8237 44.1787Z" fill="#FAFAFA"/>
<path d="M36.1055 39.3251C36.0875 39.307 36.3768 38.6911 36.7746 37.9486C37.1724 37.206 37.4978 36.6083 37.5159 36.6264C37.534 36.6445 37.2447 37.2603 36.8469 38.0029C36.4491 38.7455 36.1236 39.3432 36.1055 39.3251Z" fill="#FAFAFA"/>
<path d="M35.4904 44.7227C35.4723 44.7408 35.0022 44.125 34.4416 43.3643C33.8811 42.6036 33.4471 41.9516 33.4833 41.9516C33.5014 41.9334 33.9715 42.5493 34.532 43.31C35.0745 44.0707 35.5085 44.7227 35.4904 44.7227Z" fill="#FAFAFA"/>
<path d="M41.7109 41.0455C41.7289 41.0636 41.3312 41.5164 40.8429 42.0597C40.3367 42.6031 39.9208 43.0378 39.9027 43.0197C39.8846 43.0016 40.2824 42.5488 40.7706 42.0054C41.2769 41.462 41.6928 41.0274 41.7109 41.0455Z" fill="#FAFAFA"/>
<path d="M39.7758 49.7391C39.7578 49.7572 39.3238 49.1776 38.8175 48.435C38.3112 47.6924 37.9134 47.0947 37.9315 47.0766C37.9496 47.0585 38.3835 47.6381 38.8898 48.3807C39.3961 49.1232 39.7939 49.7209 39.7758 49.7391Z" fill="#FAFAFA"/>
<path d="M32.8685 52.4927C32.8504 52.4746 33.0674 51.9131 33.3386 51.2068C33.6279 50.5004 33.8811 49.957 33.8991 49.957C33.9172 49.9751 33.7002 50.5366 33.429 51.243C33.1397 51.9494 32.8866 52.5108 32.8685 52.4927Z" fill="#FAFAFA"/>
<path d="M28.2399 56.3329C28.2218 56.351 27.4262 55.9526 26.4498 55.4454C25.4734 54.9383 24.6959 54.5036 24.7139 54.4674C24.732 54.4493 25.5276 54.8477 26.504 55.3549C27.4804 55.8801 28.258 56.3148 28.2399 56.3329Z" fill="#FAFAFA"/>
<path d="M31.2774 62.9606C31.2593 62.9606 31.3498 62.7795 31.5125 62.5078C31.6752 62.2361 31.9103 61.8739 32.1996 61.4935C32.4889 61.1132 32.7601 60.769 32.9771 60.5517C33.1941 60.3162 33.3388 60.1895 33.3388 60.1895C33.3568 60.2076 33.2303 60.3525 33.0314 60.5879C32.8325 60.8234 32.5612 61.1675 32.2719 61.5479C31.9826 61.9282 31.7476 62.2905 31.5667 62.544C31.3859 62.7976 31.2955 62.9606 31.2774 62.9606Z" fill="#FAFAFA"/>
<path d="M25.3828 61.7482C25.3647 61.7482 25.3285 61.3135 25.3105 60.752C25.2924 60.2087 25.3105 59.7559 25.3286 59.7559C25.3466 59.7559 25.3828 60.1905 25.4009 60.752C25.419 61.2954 25.419 61.7482 25.3828 61.7482Z" fill="#FAFAFA"/>
<path d="M30.8254 68.2863C30.8073 68.3044 30.4819 67.9059 30.066 67.435C29.6501 66.9641 29.2704 66.6018 29.2885 66.5837C29.3065 66.5656 29.7043 66.8916 30.1383 67.3625C30.5542 67.8516 30.8435 68.2681 30.8254 68.2863Z" fill="#FAFAFA"/>
<path d="M27.8601 70.8219C27.8782 70.8401 27.3899 71.2204 26.7571 71.6732C26.1242 72.126 25.6179 72.4701 25.5999 72.452C25.5818 72.4339 26.07 72.0536 26.7028 71.6008C27.3357 71.1661 27.842 70.8038 27.8601 70.8219Z" fill="#FAFAFA"/>
<path d="M34.7312 71.1475C34.7312 71.1656 34.5685 71.1837 34.2972 71.238C34.026 71.2924 33.6644 71.3648 33.2846 71.4735C32.8868 71.5821 32.5433 71.6908 32.2901 71.7814C32.037 71.8719 31.8743 71.9263 31.8743 71.9082C31.8743 71.8901 32.0189 71.8176 32.2721 71.7089C32.5252 71.6003 32.8688 71.4735 33.2666 71.3648C33.6644 71.2561 34.026 71.1837 34.2972 71.1656C34.5504 71.1475 34.7312 71.1475 34.7312 71.1475Z" fill="#FAFAFA"/>
<path d="M37.6243 70.5502C37.6062 70.5502 37.4435 69.699 37.2807 68.6304C37.118 67.5618 37.0095 66.6924 37.0276 66.6924C37.0457 66.6924 37.2084 67.5436 37.3711 68.6123C37.5339 69.6809 37.6424 70.5502 37.6243 70.5502Z" fill="#FAFAFA"/>
<path d="M38.293 63.5595C38.293 63.5776 38.0941 63.5233 37.8048 63.4508C37.4974 63.3603 37.0816 63.2335 36.6476 63.0705C36.1955 62.9074 35.7977 62.7444 35.5084 62.5995C35.2191 62.4728 35.0564 62.3822 35.0564 62.3641C35.0564 62.346 35.2372 62.4184 35.5265 62.5452C35.8158 62.6539 36.2136 62.8169 36.6657 62.9799C37.1177 63.1429 37.5155 63.2878 37.8229 63.3784C38.1122 63.4689 38.3111 63.5414 38.293 63.5595Z" fill="#FAFAFA"/>
<path d="M43.3383 67.1625C43.3563 67.1807 43.0309 67.7421 42.5788 68.4123C42.1449 69.0824 41.7651 69.6258 41.7471 69.6077C41.729 69.5895 42.0544 69.0281 42.5065 68.3579C42.9405 67.6878 43.3202 67.1444 43.3383 67.1625Z" fill="#FAFAFA"/>
<path d="M42.4156 73.4656C42.3975 73.4837 41.9274 73.1396 41.3488 72.7049C40.7702 72.2702 40.3181 71.8899 40.3362 71.8718C40.3543 71.8537 40.8244 72.1978 41.403 72.6325C41.9817 73.0672 42.4337 73.4475 42.4156 73.4656Z" fill="#FAFAFA"/>
<path d="M41.4213 59.6465C41.4393 59.6465 41.2766 60.3166 41.0596 61.1136C40.8246 61.9286 40.6257 62.5625 40.6076 62.5625C40.5895 62.5625 40.7522 61.8924 40.9692 61.0954C41.2043 60.2804 41.4032 59.6465 41.4213 59.6465Z" fill="#FAFAFA"/>
<path d="M39.9566 56.8932C39.9385 56.9113 39.4684 56.7121 38.944 56.3317C38.4196 55.9695 38.058 55.5891 38.0761 55.571C38.0942 55.5529 38.4739 55.897 38.9983 56.2593C39.5045 56.6215 39.9566 56.8751 39.9566 56.8932Z" fill="#FAFAFA"/>
<path d="M42.1448 52.4929C42.1628 52.511 41.9459 52.8732 41.6566 53.3079C41.3672 53.7426 41.1141 54.0867 41.096 54.0867C41.0779 54.0686 41.2949 53.7064 41.5842 53.2717C41.8735 52.8189 42.1267 52.4748 42.1448 52.4929Z" fill="#FAFAFA"/>
<path d="M45.8332 44.2331C45.8151 44.2331 45.9778 43.5992 46.1948 42.8204C46.4299 42.0416 46.6288 41.4258 46.6468 41.4258C46.6649 41.4258 46.5022 42.0597 46.2852 42.8385C46.0682 43.6173 45.8512 44.2513 45.8332 44.2331Z" fill="#FAFAFA"/>
<path d="M48.6361 50.1193C48.6361 50.1374 48.4734 50.0287 48.2202 49.8476C47.9671 49.6665 47.6416 49.3767 47.2981 49.0507C46.9545 48.7247 46.6833 48.3805 46.4844 48.1451C46.2855 47.8915 46.1951 47.7285 46.1951 47.7285C46.2132 47.7285 46.3216 47.8734 46.5386 48.1089C46.7375 48.3443 47.0268 48.6522 47.3704 48.9964C47.714 49.3224 48.0213 49.6122 48.2564 49.8114C48.4915 49.9744 48.6542 50.1012 48.6361 50.1193Z" fill="#FAFAFA"/>
<path d="M50.8781 47.6389C50.86 47.6208 51.1132 47.2042 51.3482 46.6427C51.5833 46.0813 51.7279 45.6104 51.746 45.6104C51.7641 45.6104 51.6737 46.1175 51.4206 46.679C51.2036 47.2586 50.8962 47.657 50.8781 47.6389Z" fill="#FAFAFA"/>
<path d="M52.65 52.3297C52.6319 52.3297 52.7042 51.8769 52.8308 51.3335C52.9574 50.7902 53.0659 50.3555 53.102 50.3555C53.1201 50.3555 53.0478 50.8083 52.9212 51.3516C52.7946 51.895 52.668 52.3297 52.65 52.3297Z" fill="#FAFAFA"/>
<path d="M56.8272 55.0828C56.8091 55.1009 56.3571 54.7749 55.8146 54.3402C55.2721 53.9055 54.8382 53.5432 54.8563 53.5251C54.8743 53.507 55.3264 53.833 55.8688 54.2677C56.4113 54.7024 56.8272 55.0646 56.8272 55.0828Z" fill="#FAFAFA"/>
<path d="M59.7202 49.2871C59.7383 49.2871 59.6479 49.4501 59.5213 49.6856C59.3948 49.9391 59.232 50.2833 59.0693 50.6636C58.9065 51.044 58.78 51.4062 58.6896 51.6779C58.5992 51.9315 58.5449 52.0945 58.5268 52.0945C58.5087 52.0945 58.5449 51.9134 58.6172 51.6598C58.6896 51.3881 58.8161 51.0259 58.9789 50.6274C59.1416 50.2289 59.3224 49.9029 59.4671 49.6493C59.6117 49.432 59.7202 49.2871 59.7202 49.2871Z" fill="#FAFAFA"/>
<path d="M61.9805 46.3519C61.9805 46.37 61.203 46.1708 60.2627 45.881C59.3225 45.5912 58.563 45.3376 58.5811 45.3195C58.5811 45.3014 59.3586 45.5006 60.2989 45.7904C61.2211 46.0802 61.9805 46.3338 61.9805 46.3519Z" fill="#FAFAFA"/>
<path d="M64.385 48.9971C64.4031 49.0152 64.2765 49.142 64.0776 49.3774C63.8968 49.6129 63.6437 49.9389 63.3905 50.3374C63.1555 50.7358 62.9746 51.0981 62.8481 51.3698C62.7215 51.6414 62.6673 51.8226 62.6492 51.8044C62.6311 51.8044 62.6853 51.6233 62.7938 51.3335C62.9023 51.0437 63.0831 50.6634 63.3182 50.283C63.5533 49.8846 63.8245 49.5585 64.0234 49.3412C64.2404 49.1239 64.385 48.9971 64.385 48.9971Z" fill="#FAFAFA"/>
<path d="M65.5607 44.9573C65.5426 44.9573 65.5607 44.758 65.5607 44.432C65.5607 44.106 65.5787 43.6532 65.5607 43.1642C65.5426 42.6752 65.5064 42.2224 65.4883 41.8963C65.4522 41.5703 65.4341 41.3711 65.4522 41.3711C65.4702 41.3711 65.5064 41.5703 65.5607 41.8963C65.6149 42.2224 65.6511 42.6752 65.6692 43.1642C65.6872 43.6532 65.6692 44.106 65.6511 44.432C65.5968 44.758 65.5787 44.9573 65.5607 44.9573Z" fill="#FAFAFA"/>
<path d="M69.9727 44.8856C69.9546 44.9038 69.5026 44.5596 68.942 44.1068C68.3996 43.654 67.9656 43.2737 67.9837 43.2556C68.0018 43.2375 68.4538 43.5816 69.0144 44.0344C69.5568 44.4691 69.9908 44.8675 69.9727 44.8856Z" fill="#FAFAFA"/>
<path d="M71.7264 41.8605C71.7083 41.8605 71.654 41.6794 71.5275 41.3715C71.419 41.0636 71.2562 40.6289 71.0754 40.1761C70.8765 39.7052 70.6957 39.3067 70.5511 38.9988C70.4064 38.709 70.316 38.5098 70.3341 38.5098C70.3522 38.5098 70.4607 38.6728 70.6053 38.9626C70.768 39.2524 70.9669 39.6689 71.1478 40.1217C71.3467 40.5926 71.4913 41.0092 71.5817 41.3352C71.6902 41.6613 71.7264 41.8605 71.7264 41.8605Z" fill="#FAFAFA"/>
<g opacity="0.3">
<path opacity="0.3" d="M35.7436 53.4883C35.0203 55.39 33.0494 56.2594 31.2231 56.3681H31.1147C30.2829 56.3319 29.433 56.4224 28.6375 56.6579C29.2884 57.7446 30.4818 58.4872 31.7475 58.5596C33.0132 58.6321 34.297 58.0525 35.0746 57.0564C35.8882 56.0964 36.1233 54.7018 35.7436 53.4883Z" fill="black"/>
</g>
<g opacity="0.3">
<path opacity="0.3" d="M23.0139 57.8711C23.4479 59.5193 24.0807 61.4573 24.5147 63.1055C24.8944 64.5544 25.4911 66.1302 25.8708 67.5791L26.0336 67.561C26.8111 64.2103 25.5454 60.2075 23.0139 57.8711Z" fill="black"/>
</g>
<g opacity="0.3">
<path opacity="0.3" d="M46.8276 50.4098C46.1043 48.8702 44.7482 47.6748 43.157 47.0771C44.0611 48.3812 45.0736 49.957 45.1821 51.6414L46.5383 52.4202C46.9542 52.0217 47.0807 50.935 46.8276 50.4098Z" fill="black"/>
</g>
<path d="M27.5166 37.6947C27.5166 37.731 27.2453 37.731 27.0103 37.9302C26.7571 38.1113 26.6486 38.3649 26.6306 38.3468C26.6125 38.3468 26.6306 38.2743 26.6848 38.1838C26.7391 38.0932 26.8295 37.9664 26.956 37.8577C27.1007 37.7672 27.2453 37.7129 27.3538 37.6947C27.4623 37.6585 27.5166 37.6766 27.5166 37.6947Z" fill="#263238"/>
<path d="M29.7224 40.52C29.7043 40.52 29.6862 40.4475 29.6682 40.3026C29.6501 40.1758 29.6682 39.9766 29.7586 39.7774C29.8309 39.5781 29.9575 39.4333 30.066 39.3427C30.1745 39.2521 30.2468 39.2159 30.2468 39.234C30.2649 39.2521 29.9936 39.4514 29.849 39.8136C29.6862 40.1758 29.7586 40.52 29.7224 40.52Z" fill="#263238"/>
<path d="M27.3719 40.3933C27.3538 40.3933 27.3538 40.2484 27.4081 40.0492C27.4623 39.8318 27.5708 39.5601 27.7697 39.2885C27.9686 39.0168 28.2037 38.8175 28.3845 38.7089C28.5653 38.6002 28.6919 38.5459 28.7099 38.564C28.728 38.5821 28.2217 38.8175 27.8601 39.3428C27.4623 39.8499 27.4081 40.3933 27.3719 40.3933Z" fill="#263238"/>
<path d="M25.8168 37.0432C25.7987 37.0432 25.8349 36.9707 25.9253 36.8621C26.0157 36.7715 26.1603 36.6628 26.3592 36.6085C26.5581 36.5542 26.7389 36.5723 26.8655 36.6085C26.9921 36.6447 27.0463 36.6991 27.0463 36.6991C27.0463 36.7172 26.739 36.5904 26.3773 36.6991C26.0338 36.7896 25.8349 37.0613 25.8168 37.0432Z" fill="#263238"/>
<path d="M32.2357 40.3579C32.1995 40.3579 32.1814 40.1406 32.1272 39.9051C32.0729 39.6515 32.0006 39.4523 32.0187 39.4523C32.0368 39.4342 32.1634 39.6334 32.2176 39.887C32.2899 40.1406 32.2719 40.3579 32.2357 40.3579Z" fill="#263238"/>
<path d="M34.8396 40.3935C34.8034 40.3935 34.7672 39.995 34.5322 39.5784C34.3152 39.1619 33.9897 38.9083 34.0078 38.8721C34.0259 38.854 34.3694 39.0894 34.6045 39.5241C34.8576 39.9769 34.8576 40.3935 34.8396 40.3935Z" fill="#263238"/>
<path d="M35.9246 38.3652C35.9065 38.3833 35.8342 38.2384 35.6714 38.1478C35.5087 38.0573 35.3459 38.0573 35.3459 38.0392C35.3459 38.021 35.3821 38.0029 35.4544 38.0029C35.5268 38.0029 35.6172 38.021 35.7076 38.0754C35.798 38.1297 35.8703 38.2022 35.8884 38.2746C35.9426 38.3289 35.9426 38.3652 35.9246 38.3652Z" fill="#263238"/>
<path d="M38.004 37.4964C37.9859 37.5145 37.8955 37.4058 37.7327 37.2971C37.57 37.1885 37.3169 37.0617 37.0095 37.0073C36.7021 36.953 36.4128 36.9711 36.232 37.0255C36.0331 37.0798 35.9246 37.1341 35.9065 37.116C35.9065 37.116 36.015 37.0255 36.2139 36.9711C36.4128 36.8987 36.7202 36.8625 37.0276 36.9168C37.353 36.9711 37.6062 37.116 37.7689 37.2428C37.9497 37.3696 38.0221 37.4783 38.004 37.4964Z" fill="#263238"/>
<path d="M37.4432 35.8835C37.4251 35.9017 37.2081 35.8111 36.9188 35.8473C36.6295 35.8654 36.4125 36.0103 36.4125 35.9922C36.3944 35.9741 36.5933 35.793 36.9188 35.7568C37.2262 35.7205 37.4613 35.8654 37.4432 35.8835Z" fill="#263238"/>
<path d="M27.8062 33.493C25.8895 33.5293 23.123 33.3119 21.9839 31.7724C20.8447 30.2329 21.3329 27.4074 21.9296 25.5781C20.2299 23.6763 20.3023 20.4342 22.1105 18.623C22.4359 18.297 22.8156 18.0072 23.0507 17.6088C23.5027 16.8662 23.3581 15.9243 23.4666 15.055C23.6474 13.6603 24.5334 12.3563 25.7811 11.6861C27.0287 11.016 28.6018 10.9979 29.8494 11.6318C30.9163 10.69 32.0373 9.74814 33.3754 9.27723C34.7134 8.80632 36.3589 8.9331 37.3715 9.92926C37.932 10.4726 38.2756 11.2696 38.9627 11.6137C39.6678 11.9759 40.5177 11.7767 41.2952 11.9578C42.7598 12.3019 43.5735 13.8777 43.9532 15.3267C44.3329 16.7756 44.5318 18.3695 45.5083 19.5105C46.0145 20.1082 46.7197 20.5248 47.1356 21.195C47.6057 21.9375 47.6419 22.9156 47.2622 23.6763C46.8644 24.4551 46.0507 24.9985 45.1828 25.0528C46.0688 26.1758 46.2677 27.7696 45.8699 29.1461C45.4902 30.5408 44.6584 32.2795 43.23 32.7323C41.693 33.2213 40.355 32.5331 40.355 32.5331C40.355 32.5331 39.6136 33.9458 36.1961 33.819C30.8439 33.6198 28.6199 35.5035 27.8062 33.493Z" fill="#263238"/>
<path d="M40.1018 27.1176C40.3549 24.8899 40.0656 21.2493 39.7401 18.2971C39.4508 15.6346 37.5341 12.4288 34.8761 12.8454L26.667 15.3267C25.8714 15.4535 25.2928 16.1599 25.347 16.9749L27.0829 36.6265C27.101 36.8619 27.1914 37.0974 27.336 37.2966C28.0412 38.2384 29.5782 39.7055 32.2181 39.3614C35.4367 38.9448 36.1599 36.8619 36.3227 36.2099C36.3407 36.1012 36.3588 35.9925 36.3588 35.8658C36.2684 33.312 36.2323 32.3158 36.2323 32.3339C36.2142 32.3339 39.6135 31.6094 40.1018 27.1176Z" fill="#FFB774"/>
<path d="M38.3474 21.2127C38.3655 21.5206 38.1304 21.7923 37.823 21.8104C37.5156 21.8467 37.2444 21.6293 37.2083 21.3214C37.1902 21.0135 37.4252 20.7418 37.7326 20.7237C38.0581 20.7056 38.3293 20.9229 38.3474 21.2127Z" fill="#263238"/>
<path d="M39.143 20.5788C39.0707 20.6513 38.6367 20.3615 38.022 20.3796C37.4072 20.3977 36.9732 20.7418 36.9009 20.6694C36.8647 20.6332 36.937 20.5064 37.1179 20.3434C37.2987 20.1985 37.6242 20.0355 38.0039 20.0174C38.3836 19.9992 38.7091 20.126 38.908 20.2709C39.1069 20.3977 39.1792 20.5426 39.143 20.5788Z" fill="#263238"/>
<path d="M32.5071 21.4849C32.5252 21.7928 32.2901 22.0645 31.9827 22.0826C31.6753 22.1188 31.4041 21.9015 31.3679 21.5936C31.3498 21.2857 31.5849 21.014 31.8923 20.9959C32.2178 20.9597 32.489 21.1951 32.5071 21.4849Z" fill="#263238"/>
<path d="M33.0678 20.778C32.9955 20.8505 32.5615 20.5607 31.9468 20.5788C31.332 20.5969 30.898 20.9411 30.8257 20.8686C30.7895 20.8324 30.8619 20.7056 31.0427 20.5426C31.2235 20.3977 31.549 20.2347 31.9287 20.2166C32.3084 20.1985 32.6339 20.3252 32.8328 20.4701C33.0317 20.615 33.104 20.7418 33.0678 20.778Z" fill="#263238"/>
<path d="M35.4543 25.0707C35.4543 25.0345 35.834 24.9439 36.4487 24.8533C36.6115 24.8352 36.7561 24.799 36.7742 24.6903C36.8104 24.5816 36.7381 24.4005 36.6476 24.2375C36.4849 23.8572 36.3041 23.4768 36.1233 23.0602C35.4 21.3939 34.8756 20.0174 34.9299 19.9812C35.0022 19.945 35.6351 21.2853 36.3583 22.9516C36.5392 23.3681 36.7019 23.7666 36.8646 24.1288C36.937 24.31 37.0454 24.5092 36.9731 24.7447C36.937 24.8714 36.8285 24.962 36.72 24.9801C36.6296 25.0163 36.5392 25.0163 36.4487 25.0345C35.8521 25.0888 35.4723 25.1069 35.4543 25.0707Z" fill="#263238"/>
<path d="M36.2139 32.3339C36.2139 32.3339 33.2304 32.6599 30.1746 31.0117C30.1746 31.0117 31.82 34.0908 36.25 33.4568L36.2139 32.3339Z" fill="#EAA769"/>
<path d="M35.2734 26.5562C35.0384 26.2664 34.6406 26.1396 34.2609 26.1939C33.9896 26.2302 33.7365 26.375 33.5738 26.5924C33.4291 26.8097 33.411 27.1358 33.5557 27.335C33.7365 27.5523 34.0801 27.6067 34.3694 27.498C34.6587 27.4074 34.8937 27.1901 35.1288 26.9909C35.2011 26.9365 35.2554 26.8822 35.2915 26.8097C35.3277 26.7373 35.3277 26.6467 35.2734 26.5743" fill="#EAA769"/>
<path d="M33.6826 25.5785C33.7911 25.5604 33.8092 26.2305 34.4059 26.6833C35.0026 27.1361 35.7078 27.0275 35.7078 27.118C35.7258 27.1542 35.5631 27.2629 35.2557 27.281C34.9664 27.2991 34.5324 27.2267 34.1708 26.955C33.8092 26.6833 33.6464 26.303 33.6103 26.0313C33.556 25.7415 33.6284 25.5785 33.6826 25.5785Z" fill="#263238"/>
<path d="M33.2484 19.5292C33.1941 19.6922 32.5793 19.6559 31.8561 19.7646C31.1328 19.8733 30.5723 20.1087 30.4638 19.9638C30.4095 19.8914 30.518 19.7284 30.735 19.5654C30.952 19.3843 31.3317 19.2213 31.7476 19.1488C32.1815 19.0764 32.5793 19.1307 32.8506 19.2213C33.1399 19.3118 33.2664 19.4386 33.2484 19.5292Z" fill="#263238"/>
<path d="M39.0167 19.4741C38.9082 19.619 38.4923 19.4922 37.968 19.5103C37.4617 19.5103 37.0277 19.6552 36.9192 19.5103C36.865 19.4379 36.9373 19.293 37.1181 19.1662C37.2989 19.0213 37.6063 18.9126 37.9499 18.8945C38.2934 18.8945 38.6008 19.0032 38.7997 19.13C38.9986 19.2749 39.071 19.4198 39.0167 19.4741Z" fill="#263238"/>
<path d="M29.0176 12.7542C29.0538 13.6417 29.5058 14.511 30.211 15.0544C30.9162 15.5978 31.8745 15.797 32.7425 15.5978C33.4115 15.4348 34.1528 15.0725 34.7495 15.3985C35.3824 15.7608 35.4547 16.6845 36.0153 17.1373C36.8289 17.7893 38.0404 17.0829 39.053 17.3365C39.8305 17.5357 40.3368 18.2421 40.8793 18.8398C41.4217 19.4375 42.2173 19.999 42.9587 19.7273C42.8863 19.039 42.7959 18.3327 42.5609 17.6806C42.3258 17.0286 41.928 16.4128 41.3132 16.0506C40.9877 15.8513 40.608 15.7427 40.3006 15.5253C39.6316 15.0363 39.4508 14.1488 39.0349 13.4424C38.4925 12.5368 37.4799 11.921 36.4131 11.8667C35.527 11.8123 34.641 12.1202 33.7731 11.9391C33.1403 11.8123 32.5616 11.4139 31.9288 11.3233C30.6811 11.1422 29.5601 12.084 28.6921 13.0258" fill="#263238"/>
<path d="M26.5043 22.6442C26.4319 22.608 23.6835 21.8111 23.7739 24.6184C23.8643 27.4258 26.667 26.7557 26.667 26.6832C26.667 26.6108 26.5043 22.6442 26.5043 22.6442Z" fill="#FFB774"/>
<path d="M25.763 25.6515C25.745 25.6515 25.7088 25.6877 25.6365 25.7239C25.5641 25.7601 25.4195 25.7964 25.2748 25.742C24.9674 25.6515 24.7143 25.1806 24.6781 24.6734C24.6601 24.4199 24.7143 24.1663 24.7866 23.9671C24.859 23.7497 24.9855 23.6048 25.1483 23.5867C25.2929 23.5505 25.4014 23.641 25.4376 23.7135C25.4737 23.7859 25.4557 23.8403 25.4737 23.8584C25.4737 23.8584 25.528 23.804 25.5099 23.6954C25.4918 23.641 25.4557 23.5686 25.4014 23.5143C25.3291 23.4599 25.2387 23.4418 25.1302 23.4599C24.9132 23.478 24.7324 23.6954 24.642 23.9127C24.5335 24.1301 24.4792 24.4199 24.4973 24.7096C24.5335 25.2711 24.8409 25.7964 25.2568 25.905C25.4557 25.9413 25.6184 25.8869 25.7088 25.8145C25.763 25.7239 25.7811 25.6515 25.763 25.6515Z" fill="#EAA769"/>
<path d="M25.383 22.4449C26.3052 22.6441 27.3359 22.3906 28.0591 21.7566C28.7824 21.1408 29.1802 20.1628 29.1079 19.2028C30.1385 19.1485 31.0426 18.3516 31.4404 17.3916C31.8563 16.4317 31.8563 15.3631 31.7297 14.3307C31.6936 14.0953 31.6574 13.8417 31.5127 13.6424C31.2054 13.2078 30.5725 13.2259 30.0481 13.2621C28.692 13.3889 27.2997 13.5157 26.1063 14.1677C24.9129 14.8197 23.9726 16.1238 24.1896 17.4641C24.2981 18.1161 24.6598 18.7682 24.497 19.4021C24.3704 19.873 23.9726 20.2715 23.9365 20.7605C23.9003 21.1408 24.0811 21.5031 24.3524 21.7748C24.6236 22.0464 24.9491 22.2276 25.2926 22.4268" fill="#263238"/>
<path d="M25.8892 26.918C26.4316 27.0085 26.9922 27.1715 27.2996 27.6243C27.607 28.0771 27.7154 28.6567 27.607 29.2001C28.0409 29.182 28.4026 29.5623 28.5653 29.9608C28.9812 30.9932 28.511 32.261 27.625 32.9493C27.3176 33.1847 26.9379 33.384 26.5401 33.3296C26.1785 33.2753 25.8892 33.0217 25.618 32.7863C25.184 32.3878 24.75 31.9712 24.4246 31.4641C24.0991 30.957 23.9002 30.3774 23.9544 29.7797C23.9906 29.2182 24.2618 28.6929 24.6235 28.2583C24.9851 27.8417 25.4191 27.244 25.8892 26.918Z" fill="#263238"/>
<path d="M22.1824 18.2068C22.1824 18.1887 22.327 18.2974 22.6163 18.2249C22.7429 18.1887 22.9056 18.1163 23.0684 17.9895C23.2311 17.8627 23.3758 17.6997 23.5385 17.5005C23.7012 17.3193 23.9001 17.0839 24.1714 16.9571C24.4607 16.8122 24.8042 16.8484 25.1297 16.8847C25.2924 16.9028 25.4733 16.9028 25.636 16.8847C25.7987 16.8665 25.9615 16.7941 26.1242 16.7035C26.4316 16.5224 26.6666 16.2145 26.8475 15.8704C27.0283 15.5263 27.1368 15.164 27.2453 14.8199C27.3538 14.4758 27.4984 14.1316 27.6611 13.8418C27.9866 13.2441 28.4567 12.8094 28.9088 12.574C29.3789 12.3385 29.7948 12.3023 30.0841 12.3204C30.3734 12.3385 30.5181 12.411 30.5181 12.411C30.5181 12.4291 30.3734 12.3566 30.0841 12.3566C29.8129 12.3385 29.3789 12.3929 28.945 12.6283C28.4929 12.8638 28.0589 13.2985 27.7335 13.8781C27.5707 14.1679 27.4442 14.4939 27.3176 14.838C27.2091 15.1821 27.0825 15.5444 26.9198 15.9066C26.739 16.2507 26.4858 16.5768 26.1604 16.776C25.9976 16.8665 25.8168 16.939 25.636 16.9571C25.4552 16.9752 25.2744 16.9752 25.1116 16.9571C24.7861 16.9209 24.4607 16.9028 24.1894 17.0296C23.9182 17.1563 23.7374 17.3737 23.5747 17.5548C23.4119 17.754 23.2492 17.917 23.0865 18.0438C22.9237 18.1706 22.761 18.2431 22.6163 18.2612C22.4717 18.2974 22.3632 18.2793 22.2909 18.2612C22.2185 18.2249 22.1824 18.2068 22.1824 18.2068Z" fill="#455A64"/>
<path d="M20.736 21.5572C20.736 21.5572 20.736 21.5391 20.736 21.521C20.736 21.4848 20.736 21.4485 20.736 21.3942C20.7541 21.2855 20.7903 21.1225 20.8626 20.9414C20.953 20.7603 21.0615 20.5429 21.2242 20.3075C21.3146 20.1988 21.405 20.072 21.5135 19.9452C21.622 19.8185 21.7667 19.7098 21.9113 19.6192C22.2368 19.4381 22.6888 19.4381 23.0866 19.6192C23.2855 19.6917 23.4844 19.8185 23.6653 19.9634C23.8461 20.1082 24.045 20.2169 24.2439 20.3256C24.6598 20.5248 25.1661 20.6516 25.6723 20.5792C26.1786 20.5067 26.6849 20.2531 27.0104 19.8366C27.3359 19.4019 27.4082 18.8223 27.8241 18.4419C27.9326 18.3514 28.0411 18.2789 28.1857 18.2427C28.3123 18.2065 28.4388 18.2065 28.5654 18.1884C28.8186 18.1884 29.0536 18.2065 29.2887 18.1703C29.7588 18.0978 30.1747 17.9167 30.5183 17.6812C30.8618 17.4277 31.1149 17.1379 31.2777 16.8119C31.6212 16.1779 31.6393 15.5621 31.5851 15.1637C31.567 14.9644 31.5127 14.8195 31.4947 14.7109C31.4585 14.6022 31.4404 14.5479 31.4585 14.5479C31.4585 14.5479 31.567 14.7471 31.6393 15.1455C31.6936 15.544 31.6936 16.1598 31.35 16.83C31.0245 17.482 30.2832 18.0978 29.3068 18.2427C29.0717 18.2789 28.8186 18.2608 28.5654 18.2608C28.4388 18.2608 28.3123 18.2789 28.2038 18.297C28.0953 18.3333 27.9868 18.3876 27.8783 18.4782C27.4986 18.8223 27.4082 19.4019 27.0646 19.8547C26.7211 20.3075 26.1786 20.561 25.6543 20.6335C25.1299 20.7059 24.6055 20.5792 24.1716 20.3618C23.9546 20.2531 23.7557 20.1264 23.5749 19.9815C23.394 19.8366 23.2132 19.7279 23.0143 19.6554C22.6346 19.4924 22.2006 19.4743 21.8933 19.6554C21.7305 19.746 21.6039 19.8547 21.4955 19.9634C21.387 20.072 21.2785 20.1988 21.2061 20.3075C21.0434 20.5429 20.9168 20.7603 20.8264 20.9414C20.736 21.1225 20.6999 21.2674 20.6818 21.3761C20.6637 21.4304 20.6637 21.4667 20.6818 21.5029C20.736 21.5572 20.736 21.5572 20.736 21.5572Z" fill="#455A64"/>
<path d="M44.0255 15.5984C44.0075 15.6165 43.9713 15.3811 43.682 15.1094C43.4108 14.8377 42.8683 14.6022 42.1812 14.5298C41.8376 14.4936 41.4579 14.4936 41.042 14.4573C40.6442 14.4211 40.1922 14.3306 39.7763 14.077C39.3785 13.8234 39.0531 13.4431 38.7637 13.0446C38.4564 12.6461 38.167 12.2115 37.7693 11.8673C37.3715 11.5232 36.8832 11.324 36.395 11.2334C35.9068 11.1428 35.4186 11.1428 34.9666 11.1791C34.5145 11.2153 34.0806 11.2877 33.6828 11.3602C33.285 11.4326 32.9053 11.487 32.5436 11.5051C31.8565 11.5775 31.2779 11.5232 30.8982 11.4145C30.5185 11.324 30.3376 11.2153 30.3376 11.2153C30.3376 11.2153 30.3919 11.2334 30.4823 11.2696C30.5365 11.2877 30.5908 11.3058 30.6631 11.324C30.7354 11.3421 30.8259 11.3602 30.9163 11.3964C31.296 11.487 31.8565 11.5232 32.5436 11.4507C32.8872 11.4145 33.2669 11.3602 33.6647 11.2877C34.0625 11.2153 34.4965 11.1428 34.9666 11.1066C35.4186 11.0704 35.9249 11.0704 36.4131 11.161C36.9194 11.2515 37.4076 11.4689 37.8235 11.813C38.2394 12.1752 38.5287 12.6099 38.818 13.0084C39.1073 13.4068 39.4328 13.7872 39.8125 14.0227C40.1922 14.2762 40.6262 14.3668 41.024 14.403C41.4218 14.4392 41.8196 14.4392 42.1631 14.4936C42.8683 14.566 43.4108 14.8196 43.682 15.1094C43.8266 15.2543 43.899 15.3811 43.9532 15.4716C43.9713 15.526 43.9894 15.5622 43.9894 15.5803C44.0255 15.5803 44.0436 15.5984 44.0255 15.5984Z" fill="#455A64"/>
<path d="M46.1047 20.1263C46.1047 20.1263 46.0866 20.1263 46.0685 20.1444C46.0324 20.1625 45.9962 20.1625 45.9239 20.1806C45.7973 20.2168 45.6165 20.253 45.3814 20.2349C45.2549 20.2349 45.1283 20.1987 44.9836 20.1444C44.839 20.09 44.7124 20.0176 44.5677 19.927C44.2965 19.7278 44.0253 19.438 43.7902 19.0758C43.5552 18.7135 43.4286 18.2607 43.1935 17.826C43.085 17.6087 42.9404 17.3913 42.7415 17.2283C42.5426 17.0653 42.2894 16.9566 42.0182 16.9023C41.4758 16.7755 40.8791 16.8299 40.2643 16.7393C39.6495 16.6487 39.0528 16.3589 38.5646 15.9243C38.3115 15.7069 38.1126 15.4533 37.9498 15.1817C37.7871 14.91 37.6244 14.6383 37.4435 14.4028C37.2627 14.1674 37.0277 13.9863 36.7564 13.8595C36.4852 13.7508 36.214 13.6784 35.9427 13.6603C35.3822 13.624 34.8578 13.6965 34.3696 13.7327C33.8633 13.7689 33.3932 13.7327 32.9773 13.624C32.1456 13.4248 31.5308 13.0626 31.1692 12.7728C30.7894 12.483 30.6267 12.2656 30.6267 12.2656C30.6267 12.2656 30.6448 12.2837 30.6629 12.3018C30.699 12.32 30.7171 12.3562 30.7714 12.3924C30.8618 12.483 31.0064 12.5916 31.1872 12.7365C31.567 13.0082 32.1637 13.3705 32.9954 13.5516C33.4113 13.6421 33.8633 13.6784 34.3696 13.6421C34.8578 13.6059 35.4003 13.5154 35.9608 13.5697C36.2501 13.5878 36.5394 13.6421 36.8107 13.7689C37.0819 13.8957 37.335 14.0949 37.5339 14.3304C37.7328 14.5659 37.8775 14.8556 38.0402 15.1092C38.203 15.3809 38.4019 15.6164 38.6369 15.8337C39.1071 16.2684 39.7038 16.5401 40.3005 16.6306C40.8972 16.7212 41.4938 16.6669 42.0544 16.7936C42.3256 16.848 42.5968 16.9748 42.8138 17.1378C43.0308 17.3189 43.1755 17.5362 43.2839 17.7536C43.519 18.2064 43.6456 18.6592 43.8626 19.0033C44.0795 19.3655 44.3327 19.6553 44.6039 19.8365C44.7305 19.927 44.8751 19.9995 45.0017 20.0538C45.1283 20.1081 45.2549 20.1263 45.3814 20.1444C45.8516 20.2349 46.1047 20.1081 46.1047 20.1263Z" fill="#455A64"/>
<path d="M44.7847 31.3018C44.7666 31.2837 44.9474 31.175 45.1463 30.849C45.3452 30.5411 45.5079 30.0158 45.4899 29.3457C45.4718 29.0197 45.4356 28.6574 45.291 28.2952C45.2186 28.1141 45.1282 27.933 45.0016 27.77C44.8751 27.6069 44.7304 27.4439 44.5858 27.299C44.2784 26.9911 43.8987 26.7376 43.537 26.4115C43.1935 26.0855 42.8499 25.6871 42.7053 25.1799C42.6329 24.9264 42.6329 24.6728 42.6691 24.4192C42.7053 24.1657 42.7595 23.9302 42.7957 23.6947C42.8499 23.4593 42.8861 23.2238 42.9042 23.0065C42.9222 22.7891 42.8861 22.5537 42.8138 22.3545C42.6691 21.956 42.3798 21.63 42.1086 21.3764C41.8193 21.1228 41.5119 20.9236 41.2406 20.7244C40.6982 20.344 40.3004 19.9637 40.1196 19.6195C40.0292 19.4565 39.9749 19.3116 39.9388 19.2211C39.9207 19.1305 39.9026 19.0762 39.9026 19.0762C39.9207 19.0762 39.9388 19.2754 40.1377 19.6014C40.3366 19.9093 40.7163 20.2897 41.2768 20.67C41.548 20.8512 41.8554 21.0685 42.1447 21.3221C42.434 21.5756 42.7414 21.9017 42.8861 22.3363C42.9584 22.5537 42.9946 22.7891 42.9765 23.0246C42.9584 23.2601 42.9222 23.4955 42.868 23.731C42.7776 24.2019 42.651 24.6909 42.7776 25.1618C42.9042 25.6508 43.2296 26.0312 43.5732 26.3572C43.9167 26.6832 44.2965 26.9549 44.6219 27.2628C44.7847 27.4077 44.9293 27.5707 45.0559 27.7518C45.1825 27.9148 45.2729 28.1141 45.3452 28.2952C45.4899 28.6574 45.526 29.0378 45.5441 29.3638C45.5441 30.034 45.3633 30.5773 45.1644 30.8852C45.1101 30.9577 45.074 31.0301 45.0197 31.0845C44.9655 31.1388 44.9293 31.1931 44.8932 31.2112C44.8208 31.2837 44.7847 31.3018 44.7847 31.3018Z" fill="#455A64"/>
<path d="M22.1285 25.6331C22.1285 25.6331 22.002 25.5244 21.8935 25.2527C21.7669 24.9991 21.6765 24.5645 21.785 24.0573C21.8935 23.5502 22.2551 22.9887 22.8337 22.6265C23.123 22.4453 23.4485 22.3005 23.8282 22.228C24.1899 22.1556 24.5696 22.1193 24.9674 22.1193C25.7449 22.1012 26.4862 22.1193 27.1191 21.8839C27.752 21.6665 28.204 21.25 28.5114 20.8334C28.8188 20.4349 28.9634 20.0364 29.0358 19.7648C29.1081 19.4931 29.1081 19.3301 29.1262 19.3301C29.1262 19.3301 29.1262 19.3663 29.1262 19.4388C29.1262 19.5112 29.1081 19.6199 29.0719 19.7648C28.9996 20.0364 28.873 20.453 28.5656 20.8696C28.2763 21.2862 27.7881 21.7209 27.1553 21.9563C26.5043 22.1918 25.7449 22.1918 24.9674 22.1918C24.5877 22.2099 24.2079 22.228 23.8463 22.3005C23.4847 22.3729 23.1592 22.5178 22.888 22.6808C22.3274 23.0249 21.9658 23.5683 21.8573 24.0573C21.7488 24.5463 21.8211 24.9629 21.9296 25.2346C22.02 25.5063 22.1285 25.615 22.1285 25.6331Z" fill="#455A64"/>
<path d="M28.9451 24.1656L27.8059 26.6832C27.8059 26.6832 29.7407 29.8528 31.2414 30.9214C34.2792 33.0949 37.335 31.827 37.335 31.827C37.335 31.827 40.5716 30.6316 40.3366 24.9626C40.3366 24.9626 38.1487 24.1475 36.7564 24.0207C35.3641 23.894 32.254 24.7452 31.0787 24.6003C29.8853 24.4373 28.9451 24.1656 28.9451 24.1656Z" fill="#F5F5F5"/>
<path d="M28.9267 24.2193C28.9086 24.2375 28.3119 23.8752 27.6067 23.4043C26.8835 22.9334 26.3229 22.5168 26.341 22.4987C26.3591 22.4806 26.9377 22.8428 27.661 23.3137C28.3662 23.8028 28.9267 24.2012 28.9267 24.2193Z" fill="#263238"/>
<path d="M27.8058 26.6282C27.8058 26.6463 27.4442 26.7188 26.9922 26.755C26.5401 26.8093 26.1785 26.8093 26.1604 26.7912C26.1604 26.7731 26.522 26.7007 26.9741 26.6644C27.4442 26.6101 27.8058 26.592 27.8058 26.6282Z" fill="#263238"/>
<path d="M39.161 29.8516C39.161 29.8516 39.1248 29.8697 39.0525 29.9059C38.9802 29.9421 38.8717 29.9784 38.727 30.0327C38.4377 30.1233 38.0218 30.2681 37.4794 30.3587C36.955 30.4493 36.3041 30.5217 35.5808 30.5036C34.8575 30.4674 34.08 30.3587 33.2844 30.1233C32.8866 29.9965 32.5069 29.8516 32.1634 29.6886C31.8017 29.5256 31.4762 29.3263 31.1689 29.1452C30.5541 28.7648 30.0297 28.4026 29.5777 28.0947C29.1256 27.7868 28.764 27.5513 28.5108 27.3883C28.3843 27.3159 28.2939 27.2615 28.2215 27.2072C28.1492 27.171 28.113 27.1348 28.113 27.1348C28.113 27.1348 28.1492 27.1529 28.2215 27.1891C28.2939 27.2253 28.4023 27.2797 28.5289 27.3521C28.8001 27.497 29.1618 27.7325 29.6138 28.0404C30.0659 28.3302 30.5902 28.7105 31.205 29.0728C31.5124 29.2539 31.8379 29.435 32.1814 29.598C32.525 29.761 32.9047 29.9059 33.3025 30.0327C34.08 30.2863 34.8756 30.3949 35.5808 30.4312C36.286 30.4674 36.9369 30.3949 37.4613 30.3044C37.9857 30.2138 38.4196 30.087 38.709 29.9965C38.8355 29.9421 38.9621 29.9059 39.0344 29.8878C39.1068 29.8697 39.1429 29.8516 39.161 29.8516Z" fill="#E0E0E0"/>
<path d="M39.9748 27.4259C39.9748 27.4259 39.9386 27.444 39.8663 27.444C39.7759 27.4621 39.6674 27.4621 39.5408 27.4802C39.2696 27.5164 38.8537 27.5527 38.3474 27.5889C37.3529 27.6613 35.9426 27.7338 34.4237 27.5889C32.8867 27.4621 31.5306 27.0999 30.5904 26.7376C30.1202 26.5565 29.7586 26.3754 29.5054 26.2486C29.3789 26.1943 29.2885 26.1218 29.2161 26.0856C29.1438 26.0494 29.1257 26.0312 29.1257 26.0312C29.1257 26.0312 29.1619 26.0494 29.2342 26.0675C29.3065 26.1037 29.397 26.158 29.5235 26.2124C29.7767 26.3392 30.1564 26.5022 30.6265 26.6652C31.5668 27.0093 32.9229 27.3534 34.4418 27.4802C35.9606 27.607 37.3529 27.5527 38.3655 27.4983C38.8537 27.4621 39.2515 27.444 39.5589 27.4259C39.6855 27.4259 39.794 27.4078 39.8844 27.4078C39.9205 27.4078 39.9748 27.4078 39.9748 27.4259Z" fill="#263238"/>
<path d="M39.812 25.9939C38.7632 25.6497 37.6964 25.3056 36.5934 25.215C35.5085 25.1245 34.4417 25.2694 33.3568 25.3237C32.2719 25.3962 31.0785 25.3237 30.0659 24.9434H29.7947C32.8324 26.5553 36.4849 26.99 39.812 26.1206C39.8481 26.1206 39.8843 26.1025 39.8843 26.0663C39.9024 26.0301 39.8481 26.012 39.812 25.9939Z" fill="#E0E0E0"/>
<path d="M40.246 26.0306C40.246 26.0306 40.2098 26.0306 40.1375 26.0125C40.0471 25.9944 39.9567 25.9582 39.812 25.9401C39.5408 25.8676 39.1249 25.759 38.6367 25.6503C38.1304 25.5416 37.5337 25.4148 36.8647 25.3243C36.1957 25.2518 35.4543 25.2518 34.6768 25.288C33.8993 25.3243 33.1579 25.3786 32.4708 25.3786C31.7837 25.3786 31.1689 25.288 30.6807 25.1794C30.1744 25.0526 29.7947 24.8896 29.5416 24.7628C29.415 24.6903 29.3246 24.636 29.2523 24.5998C29.198 24.5636 29.1619 24.5273 29.1619 24.5273C29.1619 24.5273 29.3065 24.5998 29.5597 24.7266C29.8128 24.8534 30.2106 24.9983 30.6988 25.125C31.187 25.2337 31.8018 25.3062 32.4708 25.3062C33.1399 25.3062 33.8812 25.2518 34.6768 25.2156C35.4543 25.1794 36.2137 25.1794 36.8828 25.2518C37.5518 25.3243 38.1666 25.4692 38.6548 25.596C39.1611 25.7227 39.5589 25.8314 39.8301 25.922C39.9567 25.9582 40.0652 25.9944 40.1375 26.0125C40.2098 26.0125 40.246 26.0306 40.246 26.0306Z" fill="#263238"/>
<path d="M28.9993 26.7188C29.9395 27.2621 30.8617 27.8598 31.9104 28.1858C34.2791 28.9284 36.2681 29.1095 38.2752 29.0371C38.4379 29.0371 38.6549 29.0733 38.673 29.2363C38.6911 29.3812 38.5284 29.4718 38.3837 29.5261C37.9136 29.671 37.4254 29.7072 36.9372 29.7253C35.4906 29.7797 34.0441 29.5805 32.6699 29.0914C31.3137 28.6024 30.048 27.8236 29.0535 26.7731" fill="#E0E0E0"/>
<path d="M37.787 28.856C37.787 28.8741 37.5881 28.9285 37.2626 28.9647C36.9372 29.019 36.4851 29.0552 35.9788 29.0552C35.4725 29.0371 35.0205 28.9828 34.695 28.9104C34.3696 28.8379 34.1707 28.7836 34.1707 28.7655C34.1707 28.7473 34.3696 28.7836 34.695 28.8379C35.0205 28.8922 35.4725 28.9285 35.9788 28.9466C36.4851 28.9647 36.9372 28.9285 37.2626 28.8922C37.5881 28.8741 37.787 28.8379 37.787 28.856Z" fill="#263238"/>
<path d="M20.3019 62.1094C20.3381 62.1637 21.0614 62.7433 21.0614 62.7433L22.3994 62.2543L24.0629 63.1055C24.0629 63.1055 25.5637 63.2685 25.5637 63.7938C25.5818 64.3372 26.4497 66.9815 25.3106 68.7927C24.1714 70.6039 23.3758 71.2016 23.3758 71.2016L19.3436 67.4343L18.0959 67.1807L20.3019 62.1094Z" fill="#FFB774"/>
<path d="M77.0968 74.027C77.0968 74.0451 60.1361 74.0813 39.2336 74.0813C18.313 74.0813 1.37036 74.0632 1.37036 74.027C1.37036 73.9908 18.313 73.9727 39.2336 73.9727C60.1361 73.9727 77.0968 74.0089 77.0968 74.027Z" fill="#263238"/>
<path d="M60.281 1.50586C55.5074 1.50586 51.6379 5.38184 51.6379 10.1634C51.6379 12.4093 52.5059 14.4741 53.8982 16.0136C53.9343 16.0498 53.9705 16.0861 54.0067 16.1223L52.3612 20.3243L57.6049 18.4768L57.623 18.4044C58.4548 18.6761 59.3408 19.0202 60.2629 19.0202C65.0365 19.0202 68.9241 14.945 68.9241 10.1634C68.9241 5.38184 65.0546 1.50586 60.281 1.50586Z" fill="white"/>
<path d="M60.2809 1.63305C60.2809 1.63305 60.3351 1.63305 60.4436 1.63305C60.5521 1.63305 60.7148 1.63305 60.8956 1.65116C61.0945 1.65116 61.3477 1.68739 61.637 1.72361C61.7816 1.74172 61.9444 1.75983 62.1071 1.79606C62.2699 1.83228 62.4507 1.88662 62.6315 1.92284C63.3548 2.12208 64.2588 2.44809 65.1448 3.04579C66.0489 3.64349 66.9711 4.49475 67.6944 5.65392C68.4176 6.81309 68.9782 8.26206 69.0324 9.87403C69.1409 11.486 68.7612 13.2429 67.839 14.8005C66.9349 16.3763 65.4342 17.6984 63.626 18.4773C62.7219 18.8576 61.7274 19.0749 60.6967 19.1293C59.6842 19.2017 58.6354 19.0568 57.6409 18.7489L57.5505 18.7127H57.6228C55.8689 19.3104 54.1692 19.9081 52.5238 20.4877L52.3249 20.5601L52.3972 20.3428C52.8493 18.8757 53.3013 17.4449 53.7172 16.0865L53.7353 16.1951C52.7588 15.0903 52.0898 13.7862 51.7643 12.4641C51.4389 11.1419 51.4389 9.81969 51.6739 8.6243C51.909 7.4289 52.3972 6.36029 52.9939 5.4728C53.5906 4.58531 54.3139 3.89706 55.0191 3.35369C55.3626 3.08201 55.7423 2.86467 56.0859 2.66544C56.4475 2.50243 56.773 2.3032 57.0985 2.19452C57.4239 2.08585 57.7313 1.95907 58.0206 1.90473C58.3099 1.83228 58.5631 1.75983 58.8162 1.74172C59.0513 1.7055 59.2683 1.66927 59.4491 1.65116C59.6299 1.65116 59.7926 1.63305 59.9192 1.63305C60.0277 1.63305 60.1362 1.63305 60.2085 1.63305C60.2447 1.61494 60.2809 1.63305 60.2809 1.63305C60.2809 1.63305 60.2447 1.63305 60.1904 1.65116C60.1181 1.65116 60.0277 1.66927 59.9011 1.66927C59.7746 1.66927 59.6118 1.68739 59.431 1.7055C59.2502 1.72361 59.0332 1.75983 58.7981 1.81417C58.5631 1.85039 58.3099 1.92284 58.0206 1.99529C57.7313 2.04963 57.442 2.17641 57.1165 2.3032C56.7911 2.41187 56.4656 2.6111 56.1221 2.77411C55.7966 2.99145 55.4169 3.19069 55.0914 3.46237C54.4043 3.98762 53.6991 4.69399 53.1205 5.56336C52.5419 6.43274 52.0717 7.48324 51.8548 8.66052C51.6378 9.83781 51.6197 11.1419 51.9452 12.4278C52.2706 13.7138 52.9216 14.9816 53.8799 16.0683L53.9161 16.1046L53.898 16.1589C53.4821 17.5173 53.0301 18.9482 52.578 20.4152L52.4334 20.2703C54.0788 19.6908 55.7966 19.0931 57.5324 18.4954L57.5686 18.4773L57.6048 18.4954L57.6952 18.5316C58.6716 18.8395 59.6842 18.9663 60.6787 18.9119C61.6731 18.8576 62.6315 18.6584 63.5356 18.2961C65.3076 17.5535 66.7722 16.2676 67.6582 14.7281C68.5623 13.2066 68.942 11.486 68.8516 9.91025C68.7974 8.33451 68.273 6.90365 67.5678 5.7626C66.8626 4.62154 65.9585 3.77027 65.0725 3.17257C64.1865 2.55676 63.3186 2.23075 62.5953 2.0134C62.4145 1.95907 62.2337 1.92284 62.089 1.86851C61.9263 1.83228 61.7636 1.81417 61.637 1.79606C61.3477 1.74172 61.1126 1.7055 60.9137 1.7055C60.7329 1.68739 60.5702 1.68739 60.4617 1.66927C60.3351 1.63305 60.2809 1.63305 60.2809 1.63305Z" fill="#263238"/>
<path d="M55.1458 10.9601L56.4838 9.61985L59.0695 11.9201L64.1685 7.01172L65.4162 8.37012L58.8887 14.5101L55.1458 10.9601Z" fill="#457B9D"/>
<path d="M65.1627 65.0258C64.7287 65.6235 63.915 65.4061 63.5534 65.0258C63.1917 64.6454 63.029 64.1202 62.9024 63.613C62.595 62.4538 62.2877 61.2222 62.5589 60.0449C62.6493 59.7008 62.7759 59.3386 63.029 59.085C63.2822 58.8314 63.6619 58.6865 64.0054 58.7771C64.4213 58.9039 64.6564 59.3023 64.8372 59.7008C65.3616 60.8419 65.6147 62.1097 65.5966 63.3594C65.5785 63.939 65.5062 64.5367 65.1627 65.0258Z" fill="#457B9D"/>
<g opacity="0.2">
<g opacity="0.2">
<path opacity="0.2" d="M65.1627 65.0258C64.7287 65.6235 63.915 65.4061 63.5534 65.0258C63.1917 64.6454 63.029 64.1202 62.9024 63.613C62.595 62.4538 62.2877 61.2222 62.5589 60.0449C62.6493 59.7008 62.7759 59.3386 63.029 59.085C63.2822 58.8314 63.6619 58.6865 64.0054 58.7771C64.4213 58.9039 64.6564 59.3023 64.8372 59.7008C65.3616 60.8419 65.6147 62.1097 65.5966 63.3594C65.5785 63.939 65.5062 64.5367 65.1627 65.0258Z" fill="black"/>
</g>
</g>
<path d="M63.5172 68.0325C62.8301 67.6702 62.0345 67.5978 61.257 67.7065C60.8411 67.7608 60.4072 67.8876 60.1359 68.1774C59.8466 68.4853 59.7924 69.0286 60.0998 69.3003C60.2806 69.4633 60.5518 69.4995 60.805 69.4995C61.4017 69.4995 62.0707 69.409 62.5408 69.7893C62.812 70.0067 62.9748 70.3508 63.3003 70.4595C63.6076 70.5682 63.9874 70.387 64.1501 70.0972C64.3309 69.8075 64.3309 69.4452 64.2586 69.1192C64.2767 69.1192 64.2043 68.4128 63.5172 68.0325Z" fill="#457B9D"/>
<path d="M66.3018 65.9134C65.8497 65.3519 65.7955 64.5731 66.0125 63.8848C66.2294 63.2147 66.6996 62.6351 67.242 62.1823C67.8749 61.6389 68.6162 61.2223 69.3937 60.9688C69.7011 60.8601 70.0266 60.7877 70.3521 60.8239C70.6775 60.8601 71.003 61.0412 71.1477 61.331C71.3647 61.7657 71.1296 62.2728 70.8945 62.6894C70.4606 63.432 69.9904 64.1384 69.448 64.7904C69.014 65.3157 68.5258 65.8409 67.8749 66.0764C67.2239 66.3118 66.573 66.2575 66.2294 65.8047" fill="#457B9D"/>
<path d="M64.9818 74.082C64.9818 74.082 64.9637 73.9914 64.9456 73.8103C64.9276 73.6111 64.9095 73.3575 64.8914 73.0677C64.8552 72.7598 64.8191 72.3794 64.7467 71.9629C64.6744 71.5644 64.5478 71.1116 64.3851 70.6588C64.2224 70.206 64.0054 69.8075 63.7522 69.4815C63.4991 69.1555 63.2098 68.92 62.9386 68.7751C62.6673 68.6302 62.4142 68.5759 62.2515 68.5397C62.0706 68.5216 61.9802 68.5035 61.9802 68.4854C61.9802 68.4854 62.0706 68.4854 62.2515 68.4854C62.4323 68.5035 62.6854 68.5578 62.9747 68.6846C63.264 68.8295 63.5714 69.0649 63.8426 69.4091C64.1139 69.7351 64.3309 70.1517 64.4936 70.6226C64.6563 71.0754 64.7829 71.5282 64.8552 71.9448C64.9276 72.3613 64.9637 72.7417 64.9818 73.0496C64.9999 73.3756 64.9999 73.6292 64.9999 73.7922C64.9999 73.9914 64.9999 74.082 64.9818 74.082Z" fill="#263238"/>
<path d="M64.9455 73.5209C64.9455 73.5209 64.9455 73.4847 64.9455 73.3941C64.9455 73.3036 64.9455 73.1768 64.9455 73.0319C64.9455 72.724 64.9636 72.2712 64.9636 71.6916C64.9636 70.5687 64.8913 69.011 64.7466 67.3085C64.602 65.606 64.385 64.0664 64.1861 62.9435C64.1319 62.6718 64.0957 62.4182 64.0414 62.2009C64.0053 61.9835 63.9691 61.7843 63.9149 61.6394C63.8787 61.4945 63.8606 61.3858 63.8425 61.2772C63.8245 61.2047 63.8245 61.1504 63.8245 61.1504C63.8245 61.1504 63.8425 61.1866 63.8606 61.2772C63.8787 61.3677 63.9149 61.4764 63.951 61.6213C63.9872 61.7662 64.0414 61.9654 64.0957 62.1828C64.1499 62.4001 64.2042 62.6537 64.2584 62.9254C64.4754 64.0302 64.7105 65.5697 64.8551 67.2904C64.9998 69.011 65.054 70.5687 65.0359 71.6916C65.0359 72.2531 64.9998 72.7059 64.9817 73.0319C64.9636 73.1768 64.9636 73.3036 64.9455 73.3941C64.9636 73.4666 64.9636 73.5209 64.9455 73.5209Z" fill="#263238"/>
<path d="M65.0178 70.5136C65.0178 70.5136 65.0178 70.3868 65.0359 70.1333C65.054 69.8978 65.0902 69.5356 65.1806 69.119C65.271 68.6843 65.3795 68.1772 65.5422 67.6338C65.7049 67.0723 65.9219 66.4927 66.2112 65.8769C66.7537 64.6634 67.4769 63.6673 68.1098 63.0515C68.2545 62.8884 68.4172 62.7798 68.5438 62.653C68.6161 62.5987 68.6703 62.5443 68.7246 62.5081C68.7788 62.4719 68.8331 62.4357 68.8873 62.3994C69.0862 62.2726 69.2128 62.2002 69.2128 62.2002C69.2309 62.2183 68.7607 62.49 68.146 63.1058C67.5493 63.7216 66.8441 64.6997 66.3016 65.9132C66.0304 66.5109 65.7953 67.1086 65.6326 67.6519C65.4518 68.1953 65.3433 68.7024 65.2529 69.119C65.1625 69.5356 65.1082 69.8978 65.0721 70.1333C65.0359 70.3868 65.0178 70.5136 65.0178 70.5136Z" fill="#263238"/>
</g>
<defs>
<clipPath id="clip0_534_152544">
<rect width="79.0354" height="73.39" fill="white" transform="translate(0.864014 0.691406)"/>
</clipPath>
</defs>
</svg>
