<svg width="54" height="70" viewBox="0 0 54 70" fill="none" xmlns="http://www.w3.org/2000/svg">
<g clip-path="url(#clip0_1585_11562)">
<path d="M26.8717 69.9282C41.5993 69.9282 53.5384 58.1235 53.5384 43.5617C53.5384 29 41.5993 17.1953 26.8717 17.1953C12.1442 17.1953 0.205078 29 0.205078 43.5617C0.205078 58.1235 12.1442 69.9282 26.8717 69.9282Z" fill="#B9D1DF"/>
<path d="M13.2481 70.0032C14.8423 65.8476 15.6394 60.9039 15.7119 59.8292C15.7843 58.9694 16.0742 53.7391 16.2916 48.1506L10.2046 46.3594C9.33506 52.5211 8.90028 59.256 8.90028 59.256L6.79883 70.0032H13.2481Z" fill="#DA8F5B"/>
<path d="M7.88672 50.4466L12.6693 51.3781L16.0751 52.0229C16.1476 50.8765 16.2201 49.7302 16.2201 48.5838C16.5824 41.2757 16.9447 33.6094 16.9447 33.6094C16.9447 33.6094 12.2345 33.681 9.9157 40.7025C9.33599 42.9236 8.39397 47.2941 7.88672 50.4466Z" fill="#3B6A88"/>
<path d="M33.7559 24.8594C33.7559 24.8594 33.1762 29.4448 34.1182 31.5943C34.1182 31.5943 33.466 35.5349 28.1761 35.105C22.8863 34.6751 23.8283 30.8778 23.8283 30.8778C23.8283 30.8778 24.7704 28.6567 23.7559 25.9341L33.7559 24.8594Z" fill="#CF8755"/>
<path d="M39.6242 70.0012C39.6967 67.9951 40.1315 59.9705 40.6387 53.3789C40.7112 52.2326 40.8561 51.0862 40.9286 50.0115C41.0735 48.6502 41.2184 47.4321 41.2909 46.4291C41.4358 45.3544 41.5808 44.5662 41.7257 44.1363L41.7982 42.4884C41.7982 42.4884 42.5953 34.6788 41.6532 33.9623C40.6387 33.3175 34.117 31.6696 34.117 31.6696C34.117 31.6696 32.5228 34.9654 28.2474 34.6788C23.9721 34.3922 23.8271 30.9531 23.8271 30.9531C23.8271 30.9531 19.6242 32.0995 17.8851 32.816C16.146 33.5324 15.5663 33.6757 15.204 33.9623C14.7692 34.2489 15.8561 62.3349 16.3634 69.9296H39.6242V70.0012Z" fill="#457B9D"/>
<path d="M15.7832 9.24699C15.7832 9.24699 15.9281 15.1221 17.0151 18.6329L18.8267 18.9195L19.9861 7.3125L15.7832 9.24699Z" fill="black"/>
<path d="M19.0441 19.0594C19.0441 19.0594 17.3774 17.1966 16.3629 18.128C15.3484 19.0594 15.4934 21.1372 16.8702 22.5702C18.247 23.9315 19.334 22.8567 19.334 22.8567L19.0441 19.0594Z" fill="#CF8755"/>
<path d="M18.6099 9.16848C17.523 10.888 17.8128 19.7007 18.3201 23.3548C18.6824 26.2207 21.0012 30.0897 26.6534 30.233C30.2766 30.3046 34.6244 26.2207 34.7694 24.0712C35.0592 20.8471 34.4795 18.4827 34.407 16.9065C34.407 16.9065 34.1897 10.6731 32.3781 7.80717C31.1462 5.87268 20.6389 5.94433 18.6099 9.16848Z" fill="url(#paint0_linear_1585_11562)"/>
<path d="M35.7265 6.85201C38.9572 13.1141 36.8134 18.6738 36.8134 18.6738H34.1323C33.9149 14.8765 32.6105 11.0791 30.8714 9.14465C30.1467 8.35652 29.4221 7.78334 28.625 7.71169C25.8714 7.35345 21.0888 12.0822 20.5091 11.6523C19.9294 11.2224 21.5236 8.9297 21.596 8.78641C21.4511 8.9297 17.1033 13.4435 16.596 13.0853C16.0888 12.727 17.1033 10.9358 17.1033 10.8642C17.0518 10.9659 15.2108 12.2232 14.1471 12.944C13.8235 13.1633 13.4024 12.9434 13.4228 12.5531C13.5211 10.6787 14.1094 6.2936 17.3758 3.79497C23.7557 -0.907983 32.5915 0.850684 35.7265 6.85201Z" fill="black"/>
<path d="M33.1758 18.9825C33.1758 18.9825 34.9874 17.048 36.2917 17.9078C37.5961 18.7675 37.5961 20.8453 36.0743 22.3499C34.5526 23.8545 33.1758 22.7798 33.1758 22.7798V18.9825Z" fill="#DA8F5B"/>
<g opacity="0.4">
<path opacity="0.4" d="M20.0597 17.7017C19.9872 17.7017 19.9872 17.7017 19.9148 17.63C19.8423 17.5584 19.9148 17.4867 19.9872 17.4151L28.6104 11.8266C28.6829 11.7549 28.7554 11.8266 28.8278 11.8982C28.9003 11.9698 28.8278 12.0415 28.7554 12.1131L20.1322 17.7017H20.0597Z" fill="#163D6B"/>
<path opacity="0.4" d="M22.7413 17.4886C22.6689 17.4886 22.6689 17.4886 22.5964 17.417C22.524 17.3453 22.5964 17.2737 22.6689 17.202L28.5385 13.4047C28.6109 13.333 28.6834 13.4047 28.7558 13.4763C28.8283 13.548 28.7558 13.6196 28.6834 13.6913L22.8138 17.4886C22.8138 17.4886 22.8138 17.4886 22.7413 17.4886Z" fill="#163D6B"/>
<path opacity="0.4" d="M24.8429 17.338C24.7704 17.338 24.7704 17.338 24.698 17.2664C24.6255 17.1947 24.698 17.1231 24.7704 17.0514L28.0313 15.0453C28.1038 14.9737 28.1762 15.0453 28.2487 15.117C28.3212 15.1886 28.2487 15.2602 28.1762 15.3319L24.8429 17.338Z" fill="#163D6B"/>
<path opacity="0.4" d="M22.0167 14.6913C21.9443 14.6913 21.9443 14.6913 21.8718 14.6197C21.7993 14.548 21.8718 14.4764 21.9443 14.4047L26.437 11.4672C26.5095 11.3955 26.582 11.4672 26.6544 11.5388C26.7269 11.6105 26.6544 11.6821 26.582 11.7538L22.0892 14.6913H22.0167Z" fill="#163D6B"/>
</g>
<path d="M25.611 23.1753C25.4803 23.1709 25.4803 23.1709 25.3496 23.1665C24.9576 23.1533 24.5687 23.0194 24.3154 22.7758C23.4248 22.0405 24.0392 19.3967 24.1887 18.8532C24.1941 18.6966 24.4582 18.6272 24.5889 18.6316C24.8502 18.6404 24.9755 18.8013 24.9728 18.8796C24.671 20.0449 24.5407 21.8203 24.9422 22.1919C25.0702 22.2746 25.1982 22.3572 25.4595 22.366C25.9823 22.3836 26.5104 22.2447 26.7772 22.0969C26.9106 22.023 27.1719 22.0318 27.2999 22.1145C27.4279 22.1972 27.4648 22.5324 27.3315 22.6062C27.19 22.9149 26.5258 23.2061 25.611 23.1753Z" fill="#C57D4B"/>
<path d="M18.2478 13.4017C18.4652 13.6166 18.9725 13.9032 19.1174 13.9032C19.9145 14.1182 20.7841 14.1182 21.5812 13.9032C22.5957 13.6883 23.3203 12.7569 22.4507 12.112C22.0884 11.8254 21.1464 12.2553 20.7116 12.3986C19.987 12.6852 19.1899 12.8285 18.4652 12.9002C17.958 13.0435 18.0305 13.2584 18.2478 13.4017Z" fill="black"/>
<path d="M32.016 13.038C31.7987 13.2529 31.3639 13.5395 31.2189 13.6112C30.4943 13.8978 29.5523 13.8978 28.7552 13.7545C27.7407 13.5395 26.9436 12.6798 27.8131 12.0349C28.1755 11.7483 29.1175 12.1782 29.5523 12.2499C30.2769 12.4648 31.074 12.6081 31.8711 12.6798C32.2334 12.6081 32.2334 12.8231 32.016 13.038Z" fill="black"/>
<path d="M30.7585 17.709C30.8041 18.5705 30.2749 19.2713 29.5483 19.3208C28.8965 19.301 28.2647 18.6366 28.2914 17.7773C28.2457 16.9157 28.775 16.215 29.5015 16.1654C30.1556 16.1136 30.7128 16.8474 30.7585 17.709Z" fill="#292929"/>
<path d="M21.827 18.2353C21.8727 19.0968 21.3434 19.7976 20.6168 19.8471C19.965 19.8273 19.3332 19.1629 19.3599 18.3036C19.3142 17.442 19.8435 16.7413 20.5701 16.6917C21.2219 16.7115 21.7813 17.3737 21.827 18.2353Z" fill="#292929"/>
<path d="M23.192 26.98C23.0471 26.98 22.9746 26.8367 22.9746 26.6934C23.0471 26.4068 23.4094 25.8336 24.134 25.8336C24.7137 25.8336 24.9311 26.1202 25.0761 26.2635C25.1485 26.3352 25.1485 26.4068 25.221 26.4068C25.221 26.4068 25.2935 26.3352 25.2935 26.2635C25.4384 26.0486 25.6558 25.6903 26.3079 25.6187C27.0326 25.547 27.25 25.9053 27.3949 26.1202C27.3949 26.1919 27.4674 26.1919 27.4674 26.2635V26.1919C27.5398 25.9769 27.7572 25.6187 28.2645 25.6187C29.0616 25.547 29.4963 26.2635 29.4963 26.3352C29.5688 26.4068 29.4964 26.5501 29.4239 26.6218C29.3514 26.6934 29.2065 26.6218 29.134 26.5501C29.134 26.5501 28.8442 26.0486 28.2645 26.0486C27.9746 26.0486 27.9021 26.1919 27.8297 26.4068C27.7572 26.5501 27.6123 26.8367 27.25 26.6934C27.105 26.6218 26.9601 26.4785 26.8877 26.3352C26.7427 26.1202 26.6703 25.9769 26.2355 26.0486C25.8007 26.1202 25.6558 26.2635 25.5108 26.4785C25.4384 26.6218 25.2934 26.8367 25.0036 26.8367C24.7862 26.8367 24.6413 26.6934 24.5688 26.5501C24.4239 26.4068 24.3514 26.2635 23.9166 26.2635C23.3369 26.1919 23.2645 26.6934 23.192 26.7651C23.4094 26.9084 23.3369 26.98 23.192 26.98Z" fill="#163D6B"/>
<path d="M48.3917 47.9375C48.3917 47.9375 49.4062 52.3797 48.754 55.5322C48.1018 58.6847 46.4352 59.8311 45.2033 60.4042L40.8555 50.8034L48.3917 47.9375Z" fill="#CF8755"/>
<path d="M39.9871 51.7372C39.9871 51.7372 47.3784 49.731 49.1175 48.7996C49.1175 48.7996 44.8422 34.1834 40.7117 33.252C36.5813 32.3206 36.6537 39.772 37.0161 41.993C37.5958 45.7187 39.9871 51.7372 39.9871 51.7372Z" fill="#457B9D"/>
<path d="M34.3348 38.9075C33.9724 38.2626 31.9435 34.6086 31.5087 33.8205C31.0739 33.0323 30.0594 31.3844 29.9145 31.0978C29.7695 30.8113 25.7116 28.8768 25.4217 28.8051C25.1319 28.6618 23.3203 29.5216 23.0304 29.6649C22.7406 29.8798 22.7406 30.453 22.7406 30.453C22.7406 30.453 20.929 30.8829 20.7116 31.0262C20.4942 31.1695 20.4942 31.5994 20.7116 31.671C20.7116 31.671 20.2768 31.886 20.2043 32.1009C20.1319 32.3159 20.6391 32.8174 20.929 32.9607C21.2188 33.0323 22.3782 33.1756 22.6681 33.1756C22.6681 33.1756 23.6826 33.4622 23.9724 33.5339C23.9724 33.5339 25.8565 34.5369 25.7116 34.6802C25.5666 34.8235 23.9724 34.1787 23.8275 34.1071C23.6826 34.0354 22.2333 33.4622 21.9435 33.4622C21.7261 33.3906 20.4942 33.1756 20.2768 33.3189C20.0594 33.4622 20.1319 34.0354 20.4217 34.1787C20.7116 34.322 21.7261 34.8952 21.9435 35.0385C22.1608 35.1101 24.4072 36.0415 24.6246 36.2565C24.7695 36.4714 26.5087 39.1941 27.2333 39.9105C28.0304 40.627 29.5522 41.6301 30.2043 41.7734C30.2043 41.7734 32.5956 48.5799 35.2043 53.0937C37.813 57.6076 41.871 62.2647 45.2043 60.5451C48.6101 58.8256 47.4507 54.4551 44.3348 50.6577C41.2188 46.6454 34.3348 38.9075 34.3348 38.9075Z" fill="url(#paint1_linear_1585_11562)"/>
<path d="M26.726 33.101C26.726 33.101 26.6536 33.101 26.726 33.101C25.5666 32.5278 24.2623 31.9547 24.1173 31.9547C23.8999 31.9547 21.726 31.8114 20.6391 31.7397C20.5666 31.7397 20.4941 31.6681 20.4941 31.5964C20.4941 31.5248 20.5666 31.4531 20.6391 31.4531C20.784 31.4531 23.8275 31.5964 24.1173 31.6681C24.4072 31.6681 26.3637 32.5995 26.7985 32.8144C26.871 32.8144 26.871 32.9577 26.871 32.9577C26.7985 33.101 26.7985 33.101 26.726 33.101Z" fill="#CF8755"/>
<path d="M28.1754 31.5294C26.8711 31.0278 24.7696 30.2397 24.6247 30.1681C24.4798 30.1681 23.4653 30.383 22.7406 30.5263C22.6682 30.5263 22.5957 30.5263 22.5957 30.4547C22.5957 30.383 22.5957 30.3114 22.6682 30.3114C22.8131 30.3114 24.3348 29.9531 24.6247 29.9531C24.8421 29.9531 27.2334 30.8845 28.2479 31.3144C28.3203 31.3144 28.3203 31.3861 28.3203 31.4577C28.3203 31.5294 28.2479 31.5294 28.1754 31.5294Z" fill="#CF8755"/>
</g>
<defs>
<linearGradient id="paint0_linear_1585_11562" x1="26.3586" y1="6.51562" x2="26.3586" y2="30.2339" gradientUnits="userSpaceOnUse">
<stop stop-color="#163D6B"/>
<stop offset="0.59375" stop-color="#DA8F5B"/>
</linearGradient>
<linearGradient id="paint1_linear_1585_11562" x1="18.7755" y1="31.5214" x2="45.1789" y2="60.1126" gradientUnits="userSpaceOnUse">
<stop stop-color="#163D6B"/>
<stop offset="0.112248" stop-color="#DA8F5B"/>
</linearGradient>
<clipPath id="clip0_1585_11562">
<rect width="53.3333" height="70" fill="white" transform="translate(0.205078)"/>
</clipPath>
</defs>
</svg>
