<svg width="56" height="70" viewBox="0 0 56 70" fill="none" xmlns="http://www.w3.org/2000/svg">
<g clip-path="url(#clip0_1585_11602)">
<path d="M54.1132 39.2369C56.467 24.555 46.4731 10.7449 31.7913 8.39111C17.1094 6.03731 3.29931 16.0312 0.945517 30.713C-1.40828 45.3949 8.58559 59.205 23.2674 61.5588C37.9493 63.9126 51.7594 53.9187 54.1132 39.2369Z" fill="#B9D1DF"/>
<path d="M2.73952 46.625C2.73952 46.625 0.118061 52.1513 0.188911 53.9226C0.259761 55.6938 7.55733 56.1189 7.55733 56.1189L10.3913 47.9003L2.73952 46.625Z" fill="#CF8755"/>
<path d="M13.0839 32.875C13.0839 32.875 8.33692 34.292 5.71546 39.6058C3.094 44.9195 2.03125 47.4701 2.03125 47.4701L11.8794 49.7373C11.8794 49.7373 14.5717 42.4398 14.6426 41.9438C14.7134 41.377 13.0839 32.875 13.0839 32.875Z" fill="#3B6A88"/>
<path d="M41.5658 69.9974H12.8715C13.2966 69.0055 14.5719 66.5966 15.6346 64.6836C16.414 63.1957 17.0516 62.0621 17.0516 62.0621C12.3755 52.2848 11.7379 35.1391 12.3755 33.5804C13.084 32.0217 20.5233 30.5338 20.5233 30.5338C20.5233 30.5338 29.5213 29.4002 30.5132 29.1876C31.2925 28.9751 35.6144 30.9589 38.3067 32.2342C39.0152 32.5885 39.6529 32.8719 40.0071 33.0844C43.1954 34.6431 43.3371 55.6148 43.5496 57.8111C43.7622 60.0075 41.5658 69.9974 41.5658 69.9974Z" fill="#457B9D"/>
<path d="M41.5667 69.997H34.2691C36.5363 66.8796 38.9452 60.9282 39.3703 58.3776C39.5829 57.0314 34.9776 52.3553 33.0646 44.6326C31.0808 36.91 36.3946 34.1468 36.3946 34.1468L38.2367 32.3047C38.9452 32.6589 39.5829 32.9423 39.9371 33.1549C43.1254 34.7136 43.2671 55.6853 43.4796 57.8816C43.763 60.0071 41.5667 69.997 41.5667 69.997Z" fill="#3B6A88"/>
<path d="M30.3013 63.0544C30.3013 63.0544 24.1373 66.3135 15.5645 64.684C16.3438 63.1961 16.9815 62.0625 16.9815 62.0625C16.9815 62.0625 26.1211 63.8338 30.3013 63.0544Z" fill="#3B6A88"/>
<path d="M16.9805 43.9264C16.9805 43.9264 17.2639 42.3677 17.8307 41.3049C18.4683 40.2422 19.7436 38.5418 19.8853 37.5499C19.9562 36.558 20.4521 36.2037 21.0898 36.7705C21.6566 37.2665 21.7983 38.6835 21.3023 39.5337C20.8772 40.3839 20.9481 41.1632 21.0189 41.1632C21.0898 41.1632 23.9946 39.3211 24.774 38.7543C25.5533 38.1875 28.7416 36.6997 29.3793 36.8414C30.0169 36.9831 29.9461 37.5499 29.3793 37.975C28.8125 38.4001 26.6869 39.6045 26.0493 40.1005C25.3408 40.5964 24.3489 41.4466 24.4906 41.5883C24.6323 41.73 27.1829 40.1713 27.9623 39.8171C28.7416 39.4628 31.0088 38.7543 31.4339 38.8252C31.859 38.896 31.9299 39.5337 31.2214 40.1005C31.2214 40.1005 31.7173 40.4547 31.0797 41.0924C30.442 41.73 26.4035 44.7766 26.5452 44.8474C26.6869 44.9183 29.7335 44.564 30.1586 44.564C30.5837 44.6349 30.2295 45.3434 29.4501 45.7685C28.6708 46.1936 26.2618 46.9729 25.3408 47.3272C24.4197 47.6814 22.2234 48.8859 21.1606 48.815C20.027 48.815 19.3185 48.4608 19.3185 48.4608L16.9805 43.9264Z" fill="#DA8F5B"/>
<path d="M16.9814 43.9219C16.9814 43.9219 9.8255 46.685 5.71619 48.8814C1.60687 51.0069 -1.93564 54.1243 1.46517 57.6668C4.79513 61.2093 16.9105 51.0069 19.3194 48.3854L16.9814 43.9219Z" fill="#DA8F5B"/>
<path d="M27.8921 21.5312C28.1755 21.8147 31.2221 29.7499 31.5763 31.096C31.5763 31.096 30.797 34.4968 25.5541 34.6385C20.3111 34.7802 19.9569 30.3167 19.9569 30.3167C19.9569 30.3167 19.886 26.6325 19.4609 25.0029L27.8921 21.5312Z" fill="#CF8755"/>
<path d="M7.55859 11.261C7.55859 11.261 8.47965 17.2124 10.0384 20.6132L11.8805 20.6841L11.5262 8.78125L7.55859 11.261Z" fill="black"/>
<path d="M12.0922 20.7548C12.0922 20.7548 10.1792 19.1252 9.32901 20.188C8.47881 21.2507 8.83306 23.3763 10.3918 24.5807C11.9505 25.7852 12.8715 24.5807 12.8715 24.5807L12.0922 20.7548Z" fill="#CF8755"/>
<path d="M10.3916 10.7665C9.54139 12.6794 10.9584 21.5357 11.9503 25.2199C12.7296 28.0539 15.5637 31.7381 21.2317 31.1005C24.845 30.6754 28.6709 25.9993 28.6001 23.8029C28.4584 20.473 27.5373 18.2057 27.2539 16.5762C27.2539 16.5762 26.262 10.2705 24.0657 7.57821C22.507 5.87781 11.9503 7.29481 10.3916 10.7665Z" fill="url(#paint0_linear_1585_11602)"/>
<path d="M28.6005 6.58495C31.7593 12.7773 29.6632 18.2751 29.6632 18.2751H27.0418C26.8292 14.5201 25.5539 10.765 23.8535 8.85206C23.145 8.07271 22.4365 7.50591 21.6572 7.43506C18.9649 7.08081 14.2888 11.7569 13.722 11.3318C13.1552 10.9067 14.7139 8.63951 14.7847 8.49781C14.643 8.63951 10.392 13.1031 9.89604 12.7488C9.40009 12.3946 10.392 10.6233 10.392 10.5525C10.342 10.6525 8.56304 11.8816 7.5203 12.5964C7.19684 12.8181 6.77362 12.5984 6.79434 12.2068C6.89287 10.3446 7.47382 6.0258 10.6585 3.56195C16.8963 -1.08865 25.5353 0.65044 28.6005 6.58495Z" fill="black"/>
<path d="M26.2617 18.8474C26.2617 18.8474 27.8204 16.651 29.2374 17.3595C30.6544 18.068 30.9378 20.1935 29.5917 21.8939C28.2455 23.5943 26.7577 22.7441 26.7577 22.7441L26.2617 18.8474Z" fill="#DA8F5B"/>
<g opacity="0.4">
<path opacity="0.4" d="M13.0849 19.5986C13.0141 19.5986 13.0141 19.5986 13.0141 19.5277C12.9432 19.4569 12.9432 19.386 13.0141 19.3152L20.8784 12.5844C20.9493 12.5135 21.0201 12.5135 21.091 12.5844C21.1618 12.6552 21.1618 12.7261 21.091 12.7969L13.1558 19.5986H13.0849Z" fill="#9E3C41"/>
<path opacity="0.4" d="M15.7763 19.0356C15.7055 19.0356 15.7055 19.0356 15.7055 18.9647C15.6346 18.8939 15.6346 18.823 15.7055 18.7522L21.0901 14.1469C21.1609 14.076 21.2318 14.076 21.3026 14.1469C21.3735 14.2177 21.3735 14.2886 21.3026 14.3594L15.918 18.9647C15.8472 19.0356 15.7763 19.0356 15.7763 19.0356Z" fill="#9E3C41"/>
<path opacity="0.4" d="M17.831 18.6757C17.7602 18.6757 17.7602 18.6757 17.7602 18.6048C17.6893 18.534 17.6893 18.4631 17.7602 18.3923L20.7359 15.9125C20.8067 15.8417 20.8776 15.8417 20.9484 15.9125C21.0193 15.9834 21.0193 16.0542 20.9484 16.1251L17.9727 18.6048C17.9019 18.6048 17.831 18.6757 17.831 18.6757Z" fill="#9E3C41"/>
<path opacity="0.4" d="M14.6435 16.2697C14.5727 16.2697 14.5727 16.2697 14.5727 16.1988C14.5018 16.128 14.5018 16.0571 14.5727 15.9863L18.682 12.4438C18.7528 12.3729 18.8237 12.3729 18.8945 12.4438C18.9654 12.5146 18.9654 12.5855 18.8945 12.6563L14.7852 16.1988C14.7144 16.2697 14.7144 16.2697 14.6435 16.2697Z" fill="#9E3C41"/>
</g>
<path d="M10.6048 15.5145C10.8882 15.7271 11.3842 15.9396 11.5259 15.9396C12.3052 16.0813 13.2263 15.9396 14.0056 15.6562C14.9975 15.302 15.5643 14.3101 14.6433 13.7433C14.2182 13.4599 13.368 14.0975 12.9429 14.3101C12.2344 14.6643 11.5259 14.9477 10.7465 15.0894C10.2506 15.0894 10.3214 15.302 10.6048 15.5145Z" fill="black"/>
<path d="M24.3488 13.3193C24.1363 13.6027 23.7112 13.8861 23.5695 13.957C22.861 14.3112 21.9399 14.4529 21.0897 14.3821C20.027 14.3112 19.1768 13.5319 19.8853 12.7525C20.2395 12.3983 21.2314 12.6817 21.6565 12.7525C22.4359 12.8942 23.2152 12.8942 23.9946 12.8942C24.5614 12.8234 24.4905 13.0359 24.3488 13.3193Z" fill="black"/>
<path d="M19.7483 24.3535C19.6209 24.3641 19.6209 24.3641 19.4935 24.3748C19.1112 24.4068 18.7181 24.32 18.4439 24.1098C17.4939 23.4899 17.7836 20.8231 17.8657 20.2722C17.8528 20.1179 18.1011 20.0193 18.2285 20.0087C18.4834 19.9873 18.6237 20.131 18.6302 20.2082C18.4724 21.3872 18.5518 23.1456 18.9848 23.4645C19.1186 23.531 19.2525 23.5975 19.5073 23.5762C20.0169 23.5335 20.5136 23.3364 20.7555 23.1607C20.8764 23.0728 21.1312 23.0515 21.2651 23.118C21.399 23.1845 21.4737 23.5094 21.3528 23.5973C21.2512 23.9167 20.6401 24.2787 19.7483 24.3535Z" fill="#C57D4B"/>
<path d="M11.9508 20.9033C11.88 20.9033 11.7383 20.8325 11.7383 20.6908C11.7383 20.5491 11.8091 20.4782 11.88 20.4073L14.1472 19.9114L12.0925 19.2029C11.9508 19.132 11.88 19.0612 11.9508 18.9195C12.0217 18.7778 12.0925 18.7069 12.2342 18.7778L15.0682 19.7697C15.1391 19.7697 15.2099 19.9114 15.2099 19.9822C15.2099 20.0531 15.1391 20.1948 14.9974 20.1948L11.9508 20.9033Z" fill="black"/>
<path d="M21.8078 27.3792C21.8787 27.5917 21.8787 27.8043 21.8078 28.0168C21.737 28.5836 21.3119 29.0087 20.6742 29.1504C20.32 29.2213 19.9657 29.1504 19.6823 29.0087C19.3281 28.7962 19.1155 28.5128 18.9738 28.0168C18.903 27.5209 18.9738 27.0249 19.1864 26.6707C19.3989 26.3164 19.6823 26.1039 20.0366 26.033C20.5325 25.9622 21.0285 26.1039 21.3119 26.529C21.5953 26.7415 21.737 27.0249 21.8078 27.3792Z" fill="#AD3B42"/>
<path d="M21.8794 28.0201C21.8086 28.5869 21.3835 29.012 20.7458 29.1537C20.3916 29.2245 20.0373 29.1537 19.7539 29.012C20.1082 28.516 20.7458 27.8784 21.8794 28.0201Z" fill="#FF7882"/>
<path d="M21.3833 26.529C20.604 26.8832 19.7538 26.8124 19.2578 26.6707C19.4704 26.3164 19.7538 26.1039 20.108 26.033C20.604 25.9622 21.0291 26.1039 21.3833 26.529Z" fill="white"/>
<path d="M23.217 17.8521C23.3587 18.7023 23.0045 19.4817 22.296 19.6234C21.6583 19.7651 20.9498 19.1274 20.8081 18.2772C20.6664 17.427 21.0207 16.6477 21.7292 16.506C22.3668 16.4351 23.0753 17.0019 23.217 17.8521Z" fill="black"/>
<path d="M49.7147 44.1368C49.573 43.9951 48.156 42.7198 47.9434 42.5781C45.9596 44.8453 43.9758 47.3959 43.1964 49.8048L47.0932 52.8514C47.2349 52.7806 39.0163 66.8797 37.3867 70.068H43.9758C46.4555 67.0923 51.6985 60.6449 53.5406 57.2441C56.7288 51.151 54.3908 48.8838 49.7147 44.1368Z" fill="#DA8F5B"/>
<path d="M38.3777 32.4456C34.5518 31.4537 32.1429 39.2473 34.3392 43.9234C35.6854 46.7574 43.5497 52.0711 43.5497 52.0711C45.1084 50.2999 48.7926 45.1987 50.7765 42.9315C45.5335 37.8303 41.4242 33.225 38.3777 32.4456Z" fill="#457B9D"/>
<path d="M2.03216 33.5047C1.18195 33.1504 0.615151 32.4419 0.402601 31.6626C0.19005 30.9541 0.33175 30.1747 0.686001 29.5371C1.04025 28.8994 1.6779 28.4743 2.38641 28.2618C3.23661 28.0492 4.08681 28.2618 4.79531 28.7577C4.86616 28.8286 4.86616 28.8994 4.79531 28.9703C4.72446 29.0411 4.65361 29.0411 4.58276 28.9703C3.94511 28.4743 3.16576 28.3326 2.45726 28.5452C1.8196 28.6869 1.2528 29.112 0.969402 29.6788C0.615151 30.2456 0.544301 30.8832 0.686001 31.5917C0.898552 32.3002 1.3945 32.9379 2.10301 33.2213C2.17386 33.2921 2.24471 33.363 2.17386 33.4338C2.17386 33.5047 2.10301 33.5047 2.03216 33.5047Z" fill="white"/>
<path d="M3.37828 36.6233C2.95317 36.6233 2.59892 36.4816 2.24467 36.2691C1.81957 35.9857 1.53617 35.4897 1.46532 34.9938C1.39447 34.4978 1.53617 33.931 1.81957 33.5059C2.10297 33.0808 2.59892 32.7974 3.09488 32.7266C3.16573 32.7266 3.23658 32.7974 3.23658 32.8683C3.23658 32.9391 3.16573 33.01 3.09488 33.01C2.66977 33.0808 2.24467 33.2934 2.03212 33.6476C1.74872 34.0019 1.67787 34.427 1.74872 34.8521C1.81957 35.2772 2.03212 35.7023 2.38637 35.9148C2.74062 36.1982 3.16573 36.2691 3.59083 36.1982C4.01593 36.1274 4.44103 35.9148 4.65358 35.5606C4.72443 35.4897 4.79528 35.4897 4.86613 35.5606C4.93698 35.6314 4.93698 35.7023 4.86613 35.7731C4.58273 36.1982 4.08678 36.4816 3.59083 36.5525C3.59083 36.6233 3.44913 36.6233 3.37828 36.6233Z" fill="white"/>
<path d="M7.77171 31.4509C7.70086 31.4509 7.70086 31.4508 7.63001 31.38C7.55916 31.3091 7.55916 31.2383 7.63001 31.1674C8.33851 30.6006 8.48021 29.5379 7.91341 28.8294C7.63001 28.4751 7.2049 28.2626 6.7798 28.1917C6.3547 28.1209 5.9296 28.2626 5.57535 28.546C5.2211 28.8294 5.00855 29.2545 4.9377 29.6796C4.9377 29.7504 4.86685 29.8213 4.796 29.8213C4.72515 29.8213 4.6543 29.7504 4.6543 29.6796C4.72515 29.1836 4.9377 28.6877 5.3628 28.3334C5.7879 27.9792 6.28385 27.8375 6.7798 27.9083C7.27575 27.9792 7.77171 28.1917 8.12596 28.6168C8.83446 29.467 8.69276 30.7423 7.84256 31.38C7.84256 31.38 7.84256 31.4509 7.77171 31.4509Z" fill="white"/>
<path d="M6.85027 35.0658C6.49601 35.0658 6.07091 34.9241 5.78751 34.6407C5.71666 34.5698 5.71666 34.499 5.78751 34.4281C5.85836 34.3573 5.92921 34.3573 6.00006 34.4281C6.49601 34.9241 7.27537 34.8532 7.77132 34.3573C8.26727 33.8613 8.19642 33.082 7.70047 32.586C7.62962 32.5151 7.62962 32.4443 7.70047 32.3735C7.77132 32.3026 7.84217 32.3026 7.91302 32.3735C8.55067 32.9403 8.55067 33.9322 7.98387 34.5698C7.70047 34.9241 7.27537 35.0658 6.85027 35.0658Z" fill="white"/>
<path d="M3.80151 23.8028C3.73066 23.8028 3.73066 23.8028 3.65981 23.732C3.51811 23.3777 3.44726 22.9526 3.58896 22.5984C3.87236 21.8899 4.58086 21.6065 5.28936 21.819C5.64361 21.9607 5.99786 22.315 6.06872 22.6692C6.06872 22.7401 6.06871 22.8109 5.99786 22.8109C5.92701 22.8109 5.85616 22.8109 5.85616 22.7401C5.78531 22.4567 5.50191 22.1733 5.21851 22.1024C4.65171 21.8899 4.08491 22.1733 3.87236 22.6692C3.73066 22.9526 3.80151 23.3069 3.94321 23.5903C3.94321 23.6611 3.94321 23.732 3.80151 23.8028C3.87236 23.8028 3.87236 23.8028 3.80151 23.8028Z" fill="white"/>
<path d="M3.94415 25.4294C3.80245 25.4294 3.66075 25.4294 3.51905 25.3586C3.3065 25.2169 3.09395 25.0752 3.0231 24.7918C2.95225 24.5792 2.95225 24.2958 3.09395 24.0832C3.3065 23.5873 3.8733 23.4456 4.36925 23.6581C4.4401 23.6581 4.4401 23.7998 4.4401 23.8707C4.4401 23.9415 4.2984 23.9415 4.22755 23.9415C3.8733 23.7998 3.51905 23.9415 3.3065 24.2249C3.23565 24.3666 3.23565 24.5792 3.3065 24.7209C3.37735 24.8626 3.51905 25.0043 3.66075 25.146C3.80245 25.2169 4.015 25.2169 4.1567 25.146C4.22755 25.146 4.2984 25.146 4.2984 25.2169C4.2984 25.2877 4.2984 25.3586 4.22755 25.3586C4.1567 25.3586 4.08585 25.4294 3.94415 25.4294Z" fill="white"/>
<path d="M6.42429 24.5067C6.35344 24.5067 6.28259 24.4359 6.28259 24.365C6.28259 24.2942 6.35344 24.2233 6.42429 24.2233C6.63684 24.2233 6.77854 24.1525 6.92024 24.0108C7.06194 23.8691 7.13279 23.7274 7.06194 23.5148C7.06194 23.1606 6.70769 22.8772 6.35344 22.8772C6.14089 22.8772 5.99919 22.948 5.85748 23.0897C5.78663 23.1606 5.71578 23.1606 5.64493 23.0897C5.57408 23.0189 5.57408 22.948 5.64493 22.8772C5.78663 22.6646 6.07004 22.5938 6.28259 22.5938C6.77854 22.5938 7.27449 22.948 7.27449 23.5148C7.34534 24.0108 6.99109 24.4359 6.42429 24.5067Z" fill="white"/>
<path d="M5.50342 25.7107C5.14917 25.7107 4.86577 25.4981 4.79492 25.1439C4.79492 25.073 4.79492 25.0022 4.86577 25.0022C4.93662 25.0022 5.00747 25.0022 5.00747 25.073C5.07832 25.3564 5.29087 25.4981 5.57427 25.4273C5.71597 25.4273 5.78682 25.3564 5.85767 25.2147C5.92853 25.073 5.92853 25.0021 5.92853 24.8604C5.92853 24.7896 5.92852 24.7188 5.99938 24.7188C6.07023 24.7188 6.14108 24.7187 6.14108 24.7896C6.21193 25.0022 6.14108 25.2147 5.99938 25.3564C5.85767 25.4981 5.71597 25.6398 5.50342 25.7107C5.57427 25.7107 5.64512 25.7107 5.50342 25.7107Z" fill="white"/>
<path d="M39.7952 24.7893C39.7243 24.7893 39.7243 24.7893 39.6535 24.7185C39.5826 24.6476 39.5826 24.5768 39.6535 24.5059C40.1495 24.01 40.362 23.3723 40.2911 22.6638C40.1494 21.4594 39.0158 20.6092 37.8114 20.7509C37.1737 20.8217 36.5361 21.2468 36.1818 21.8136C36.111 21.8845 36.0401 21.8845 35.9693 21.8845C35.8984 21.8136 35.8984 21.7428 35.8984 21.6719C36.3235 21.0343 36.9612 20.6092 37.7405 20.4675C39.0867 20.3258 40.362 21.2468 40.5746 22.6638C40.6454 23.4432 40.4329 24.2225 39.866 24.7185C39.866 24.7893 39.7952 24.7893 39.7952 24.7893Z" fill="white"/>
<path d="M33.7021 24.157C33.6313 24.157 33.6313 24.157 33.6313 24.0862C33.277 23.7319 33.0645 23.3068 33.0645 22.8109C33.0645 21.819 33.773 20.9688 34.7649 20.9688C35.2608 20.9688 35.6859 21.1104 36.0402 21.4647C36.3944 21.819 36.607 22.2441 36.607 22.74C36.607 22.8109 36.5361 22.8817 36.4653 22.8817C36.3944 22.8817 36.3236 22.8109 36.3236 22.74C36.3236 22.3149 36.111 21.9607 35.8276 21.7481C35.5442 21.4647 35.19 21.323 34.7649 21.323C33.9855 21.323 33.3479 22.0315 33.3479 22.8817C33.3479 23.3068 33.5604 23.6611 33.8438 23.8736C33.9147 23.9445 33.9147 24.0153 33.8438 24.0862C33.773 24.0862 33.7021 24.157 33.7021 24.157Z" fill="white"/>
<path d="M38.6617 28.0509C38.0949 28.0509 37.4573 27.7675 37.1739 27.2007C37.103 27.1298 37.1739 27.059 37.2447 26.9881C37.3156 26.9173 37.3864 26.9881 37.4573 27.059C37.8824 27.7675 38.8034 27.98 39.5119 27.5549C39.8662 27.3424 40.0787 27.059 40.1496 26.6339C40.2204 26.2796 40.1496 25.8545 39.937 25.5003C39.7245 25.146 39.4411 24.9335 39.016 24.7918C38.9451 24.7918 38.8743 24.7209 38.8743 24.5792C38.8743 24.5084 38.9451 24.4375 39.0868 24.4375C39.5828 24.5792 39.937 24.8626 40.2204 25.2169C40.5038 25.642 40.5747 26.0671 40.433 26.563C40.2913 27.059 40.0079 27.4132 39.6536 27.6966C39.2994 27.9092 39.016 28.0509 38.6617 28.0509Z" fill="white"/>
<path d="M35.4022 27.4079C34.9771 27.4079 34.6229 27.2662 34.3395 26.9119C33.8435 26.3451 33.9144 25.4241 34.4812 24.9281C34.552 24.8573 34.6229 24.8573 34.6937 24.9281C34.7646 24.999 34.7646 25.0698 34.6937 25.1407C34.1978 25.4949 34.1978 26.2034 34.552 26.6994C34.9063 27.1953 35.6148 27.1953 36.1107 26.8411C36.1816 26.7702 36.2524 26.7702 36.3233 26.8411C36.3941 26.9119 36.3941 26.9828 36.3233 27.0536C36.0399 27.2662 35.7565 27.4079 35.4022 27.4079Z" fill="white"/>
</g>
<defs>
<linearGradient id="paint0_linear_1585_11602" x1="20.8334" y1="30.1936" x2="18.0106" y2="9.15074" gradientUnits="userSpaceOnUse">
<stop offset="0.71875" stop-color="#DA8F5B"/>
<stop offset="1" stop-color="#EF9986"/>
</linearGradient>
<clipPath id="clip0_1585_11602">
<rect width="54.9798" height="70" fill="white" transform="translate(0.0488281)"/>
</clipPath>
</defs>
</svg>
