<svg width="54" height="70" viewBox="0 0 54 70" fill="none" xmlns="http://www.w3.org/2000/svg">
<g clip-path="url(#clip0_1585_11704)">
<path d="M26.8723 69.9282C41.4341 69.9282 53.2387 58.1235 53.2387 43.5617C53.2387 29 41.4341 17.1953 26.8723 17.1953C12.3105 17.1953 0.505859 29 0.505859 43.5617C0.505859 58.1235 12.3105 69.9282 26.8723 69.9282Z" fill="#B9D1DF"/>
<path d="M13.4021 70.0032C14.9783 65.8476 15.7664 60.9039 15.8381 59.8292C15.9097 58.9694 16.1963 53.7391 16.4113 48.1506L10.3928 46.3594C9.53307 52.5211 9.10318 59.256 9.10318 59.256L7.02539 70.0032H13.4021Z" fill="#DA8F5B"/>
<path d="M8.09961 50.4466L12.8284 51.3781L16.1958 52.0229C16.2675 50.8765 16.3391 49.7302 16.3391 48.5838C16.6974 41.2757 17.0556 33.6094 17.0556 33.6094C17.0556 33.6094 12.3985 33.681 10.1058 40.7025C9.53257 42.9236 8.60114 47.2941 8.09961 50.4466Z" fill="#3B6A88"/>
<path d="M33.6784 24.8594C33.6784 24.8594 33.1052 29.4448 34.0367 31.5943C34.0367 31.5943 33.3918 35.5349 28.1615 35.105C22.9312 34.6751 23.8627 30.8778 23.8627 30.8778C23.8627 30.8778 24.7941 28.6567 23.791 25.9341L33.6784 24.8594Z" fill="#CF8755"/>
<path d="M39.4829 70.0012C39.5546 67.9951 39.9845 59.9705 40.486 53.3789C40.5576 52.2326 40.7009 51.0862 40.7726 50.0115C40.9159 48.6502 41.0592 47.4321 41.1308 46.4291C41.2741 45.3544 41.4174 44.5662 41.5607 44.1363L41.6324 42.4884C41.6324 42.4884 42.4205 34.6788 41.4891 33.9623C40.486 33.3175 34.0377 31.6696 34.0377 31.6696C34.0377 31.6696 32.4614 34.9654 28.2342 34.6788C24.007 34.3922 23.8637 30.9531 23.8637 30.9531C23.8637 30.9531 19.7081 32.0995 17.9886 32.816C16.269 33.5324 15.6958 33.6757 15.3376 33.9623C14.9077 34.2489 15.9824 62.3349 16.484 69.9296H39.4829V70.0012Z" fill="#457B9D"/>
<path d="M15.9082 9.24699C15.9082 9.24699 16.0515 15.1221 17.1262 18.6329L18.9174 18.9195L20.0638 7.3125L15.9082 9.24699Z" fill="black"/>
<path d="M19.1334 19.0594C19.1334 19.0594 17.4855 17.1966 16.4825 18.128C15.4794 19.0594 15.6227 21.1372 16.984 22.5702C18.3453 23.9315 19.42 22.8567 19.42 22.8567L19.1334 19.0594Z" fill="#CF8755"/>
<path d="M18.7031 9.16848C17.6284 10.888 17.915 19.7007 18.4165 23.3548C18.7748 26.2207 21.0675 30.0897 26.6561 30.233C30.2385 30.3046 34.5373 26.2207 34.6806 24.0712C34.9672 20.8471 34.394 18.4827 34.3224 16.9065C34.3224 16.9065 34.1074 10.6731 32.3162 7.80717C31.0982 5.87268 20.7093 5.94433 18.7031 9.16848Z" fill="#DA8F5B"/>
<path d="M35.6275 6.85201C38.8218 13.1141 36.7022 18.6738 36.7022 18.6738H34.0512C33.8363 14.8765 32.5466 11.0791 30.8271 9.14465C30.1106 8.35652 29.3941 7.78334 28.606 7.71169C25.8834 7.35345 21.1546 12.0822 20.5814 11.6523C20.0082 11.2224 21.5845 8.9297 21.6561 8.78641C21.5128 8.9297 17.214 13.4435 16.7124 13.0853C16.2109 12.727 17.214 10.9358 17.214 10.8642C17.1633 10.9656 15.355 12.2148 14.3016 12.9368C13.9782 13.1585 13.5548 12.9388 13.5753 12.5472C13.6734 10.6695 14.2572 6.29097 17.4835 3.79497C23.7915 -0.907983 32.5278 0.850684 35.6275 6.85201Z" fill="black"/>
<path d="M33.1055 18.9825C33.1055 18.9825 34.8967 17.048 36.1863 17.9078C37.476 18.7675 37.476 20.8453 35.9714 22.3499C34.4668 23.8546 33.1055 22.7798 33.1055 22.7798V18.9825Z" fill="#DA8F5B"/>
<g opacity="0.4">
<path opacity="0.4" d="M20.1359 17.7017C20.0642 17.7017 20.0642 17.7017 19.9926 17.63C19.9209 17.5584 19.9926 17.4867 20.0642 17.4151L28.5903 11.8266C28.662 11.7549 28.7336 11.8266 28.8053 11.8982C28.8769 11.9698 28.8053 12.0415 28.7336 12.1131L20.2075 17.7017H20.1359Z" fill="#DE6B71"/>
<path opacity="0.4" d="M22.7863 17.4886C22.7146 17.4886 22.7146 17.4886 22.643 17.417C22.5713 17.3453 22.643 17.2737 22.7146 17.202L28.5181 13.4047C28.5897 13.333 28.6614 13.4047 28.733 13.4763C28.8047 13.548 28.733 13.6196 28.6614 13.6913L22.8579 17.4886C22.8579 17.4886 22.8579 17.4886 22.7863 17.4886Z" fill="#DE6B71"/>
<path opacity="0.4" d="M24.8644 17.338C24.7927 17.338 24.7927 17.338 24.7211 17.2664C24.6494 17.1947 24.7211 17.1231 24.7927 17.0514L28.0169 15.0453C28.0885 14.9737 28.1602 15.0453 28.2318 15.117C28.3035 15.1886 28.2318 15.2602 28.1602 15.3319L24.8644 17.338Z" fill="#DE6B71"/>
<path opacity="0.4" d="M22.0695 14.6913C21.9978 14.6913 21.9978 14.6913 21.9262 14.6197C21.8545 14.548 21.9262 14.4764 21.9978 14.4047L26.44 11.4672C26.5116 11.3955 26.5833 11.4672 26.6549 11.5388C26.7266 11.6105 26.6549 11.6821 26.5833 11.7538L22.1411 14.6913H22.0695Z" fill="#DE6B71"/>
</g>
<path d="M25.6253 23.1753C25.4961 23.1709 25.4961 23.1709 25.3668 23.1665C24.9792 23.1533 24.5947 23.0194 24.3442 22.7758C23.4637 22.0405 24.0711 19.3967 24.219 18.8532C24.2243 18.6966 24.4854 18.6272 24.6146 18.6316C24.8731 18.6404 24.997 18.8013 24.9943 18.8796C24.6959 20.0449 24.567 21.8203 24.964 22.1919C25.0906 22.2746 25.2171 22.3572 25.4755 22.366C25.9924 22.3836 26.5146 22.2447 26.7783 22.0969C26.9102 22.023 27.1686 22.0318 27.2952 22.1145C27.4217 22.1972 27.4582 22.5324 27.3264 22.6062C27.1865 22.9149 26.5298 23.2061 25.6253 23.1753Z" fill="#C57D4B"/>
<path d="M18.3456 13.4017C18.5605 13.6166 19.0621 13.9032 19.2054 13.9032C19.9935 14.1182 20.8533 14.1182 21.6414 13.9032C22.6445 13.6883 23.3609 12.7569 22.5012 12.112C22.1429 11.8254 21.2115 12.2553 20.7816 12.3986C20.0651 12.6852 19.277 12.8285 18.5605 12.9002C18.059 13.0435 18.1306 13.2584 18.3456 13.4017Z" fill="black"/>
<path d="M31.9587 13.038C31.7437 13.2529 31.3138 13.5395 31.1706 13.6112C30.4541 13.8978 29.5227 13.8978 28.7345 13.7545C27.7315 13.5395 26.9433 12.6798 27.8031 12.0349C28.1613 11.7483 29.0928 12.1782 29.5227 12.2499C30.2391 12.4648 31.0273 12.6081 31.8154 12.6798C32.1736 12.6081 32.1736 12.8231 31.9587 13.038Z" fill="black"/>
<path d="M18.9903 18.9099C18.847 18.9099 18.7754 18.8383 18.7754 18.695C18.7754 18.5517 18.847 18.48 18.9903 18.48L21.2831 18.3367L19.3486 17.4053C19.2053 17.3337 19.2053 17.1904 19.2769 17.1187C19.3486 16.9754 19.4919 16.9754 19.5635 17.0471L22.2145 18.3367C22.2861 18.4084 22.3578 18.48 22.3578 18.5517C22.3578 18.6233 22.2861 18.695 22.1428 18.695L18.9903 18.9099Z" fill="#292929"/>
<path d="M30.7406 19.1242L27.3731 18.6943C27.3015 18.6943 27.1582 18.6227 27.1582 18.4794C27.1582 18.4077 27.2299 18.2644 27.3015 18.1928L30.2391 16.9031C30.3824 16.8315 30.5257 16.9031 30.5257 17.0464C30.5973 17.1897 30.5257 17.333 30.3824 17.333L28.2329 18.2644L30.7406 18.551C30.8839 18.551 30.9555 18.6943 30.9555 18.8376C30.9555 19.0525 30.8839 19.1242 30.7406 19.1242Z" fill="#292929"/>
<path d="M28.8054 26.013C28.8054 26.2996 28.8054 26.5146 28.6621 26.7295C28.3755 27.3743 27.5874 27.8042 26.656 27.8759C26.0828 27.9475 25.5096 27.8042 25.0797 27.5893C24.5782 27.3027 24.2916 26.9445 24.22 26.3713C24.1483 25.7981 24.4349 25.2966 24.8648 24.8667C25.223 24.5084 25.7962 24.2935 26.3694 24.2218C27.1575 24.1502 27.874 24.4368 28.3039 24.9383C28.5905 25.2249 28.7338 25.5831 28.8054 26.013Z" fill="#AD3B42"/>
<path d="M28.6625 26.6566C28.3759 27.3015 27.5878 27.7313 26.6563 27.803C26.0831 27.8746 25.51 27.7313 25.0801 27.5164C25.7249 27.0149 26.9429 26.37 28.6625 26.6566Z" fill="#FF7882"/>
<path d="M28.3043 24.9352C26.943 25.2218 25.6534 25.0785 24.8652 24.8636C25.2235 24.5053 25.7967 24.2904 26.3698 24.2188C27.158 24.2188 27.8744 24.4337 28.3043 24.9352Z" fill="white"/>
<path d="M48.1506 47.9375C48.1506 47.9375 49.1537 52.3797 48.5088 55.5322C47.864 58.6847 46.2161 59.8311 44.9981 60.4042L40.6992 50.8034L48.1506 47.9375Z" fill="#CF8755"/>
<path d="M39.8405 51.7372C39.8405 51.7372 47.1486 49.731 48.8682 48.7996C48.8682 48.7996 44.641 34.1834 40.557 33.252C36.4731 32.3206 36.5447 39.772 36.903 41.993C37.4762 45.7187 39.8405 51.7372 39.8405 51.7372Z" fill="#457B9D"/>
<path d="M34.2512 38.9075C33.893 38.2626 31.8869 34.6086 31.457 33.8205C31.0271 33.0323 30.024 31.3844 29.8807 31.0978C29.7374 30.8113 25.7251 28.8768 25.4385 28.8051C25.1519 28.6618 23.3608 29.5216 23.0742 29.6649C22.7876 29.8798 22.7876 30.453 22.7876 30.453C22.7876 30.453 20.9964 30.8829 20.7814 31.0262C20.5665 31.1695 20.5665 31.5994 20.7814 31.671C20.7814 31.671 20.3515 31.886 20.2799 32.1009C20.2082 32.3159 20.7098 32.8174 20.9964 32.9607C21.283 33.0323 22.4293 33.1756 22.7159 33.1756C22.7159 33.1756 23.719 33.4622 24.0056 33.5339C24.0056 33.5339 25.8684 34.5369 25.7251 34.6802C25.5818 34.8235 24.0056 34.1787 23.8623 34.1071C23.719 34.0354 22.286 33.4622 21.9994 33.4622C21.7845 33.3906 20.5665 33.1756 20.3515 33.3189C20.1366 33.4622 20.2082 34.0354 20.4948 34.1787C20.7814 34.322 21.7845 34.8952 21.9994 35.0385C22.2144 35.1101 24.4355 36.0415 24.6504 36.2565C24.7937 36.4714 26.5133 39.1941 27.2297 39.9105C28.0179 40.627 29.5225 41.6301 30.1673 41.7734C30.1673 41.7734 32.5317 48.5799 35.111 53.0938C37.6903 57.6076 41.7026 62.2647 44.9984 60.5451C48.3659 58.8256 47.2195 54.4551 44.1386 50.6577C41.0578 46.6454 34.2512 38.9075 34.2512 38.9075Z" fill="#DA8F5B"/>
<path d="M26.7281 33.101C26.7281 33.101 26.6565 33.101 26.7281 33.101C25.5818 32.5278 24.2921 31.9547 24.1488 31.9547C23.9339 31.9547 21.7844 31.8114 20.7097 31.7397C20.6381 31.7397 20.5664 31.6681 20.5664 31.5964C20.5664 31.5248 20.6381 31.4531 20.7097 31.4531C20.853 31.4531 23.8622 31.5964 24.1488 31.6681C24.4354 31.6681 26.3699 32.5995 26.7998 32.8144C26.8714 32.8144 26.8714 32.9577 26.8714 32.9577C26.7998 33.101 26.7998 33.101 26.7281 33.101Z" fill="#CF8755"/>
<path d="M28.1614 31.5294C26.8718 31.0278 24.794 30.2397 24.6507 30.1681C24.5074 30.1681 23.5043 30.383 22.7878 30.5263C22.7162 30.5263 22.6445 30.5263 22.6445 30.4547C22.6445 30.383 22.6445 30.3114 22.7162 30.3114C22.8595 30.3114 24.3641 29.9531 24.6507 29.9531C24.8656 29.9531 27.23 30.8845 28.2331 31.3144C28.3047 31.3144 28.3047 31.3861 28.3047 31.4577C28.3047 31.5294 28.2331 31.5294 28.1614 31.5294Z" fill="#CF8755"/>
<path d="M46.9329 39.5514C46.8613 39.5514 46.7896 39.4797 46.7896 39.4081C46.4314 36.9721 43.5655 33.6046 43.5655 33.6046C43.4938 33.533 43.4938 33.4613 43.5655 33.3897C43.6371 33.318 43.7088 33.318 43.7804 33.3897C43.9237 33.533 46.718 36.8288 47.0762 39.3365C47.0762 39.4081 47.0046 39.4797 46.9329 39.5514Z" fill="white"/>
<path d="M35.182 28.8046C35.1104 28.8046 35.1104 28.8046 35.1104 28.733C35.0387 28.6613 35.0387 28.5897 35.1104 28.518C36.8299 26.6552 36.9732 23.5743 36.9732 23.5027C36.9732 23.431 37.0449 23.3594 37.1165 23.3594C37.1882 23.3594 37.2598 23.431 37.2598 23.5027C37.2598 23.646 37.1165 26.7268 35.3253 28.6613C35.2537 28.8046 35.182 28.8046 35.182 28.8046Z" fill="white"/>
<path d="M36.9027 28.09C36.8311 28.09 36.8311 28.09 36.8311 28.0184C36.7594 27.9467 36.7594 27.8751 36.8311 27.8034C37.7625 26.8003 37.7625 25.0808 37.7625 25.0808C37.7625 25.0091 37.8342 24.9375 37.9058 24.9375C37.9774 24.9375 38.0491 25.0091 38.0491 25.0808C38.0491 25.1524 38.0491 26.9436 36.9744 28.09H36.9027Z" fill="white"/>
<path d="M47.5059 37.6897C47.4343 37.6897 47.3626 37.618 47.3626 37.5464C46.9327 35.7552 45.4281 33.964 45.3565 33.964C45.2848 33.8923 45.2848 33.8207 45.3565 33.749C45.4281 33.6774 45.4998 33.6774 45.5714 33.749C45.6431 33.8207 47.1477 35.6119 47.5776 37.4747C47.6492 37.618 47.6492 37.6897 47.5059 37.6897Z" fill="white"/>
<path d="M11.4675 29.5211C11.3959 29.5211 11.3242 29.4495 11.3242 29.3778C11.3242 29.3062 11.3959 29.2345 11.4675 29.2345C14.0468 28.8763 18.0591 28.3748 18.2741 28.3031C18.3457 28.2315 18.4174 28.3031 18.489 28.3748C18.5607 28.4464 18.489 28.5181 18.4174 28.5897C18.3457 28.5181 18.2024 28.5897 11.4675 29.5211Z" fill="white"/>
<path d="M18.3456 27.085L14.6199 26.5835C14.5482 26.5835 14.4766 26.5118 14.4766 26.4402C14.4766 26.3685 14.5482 26.2969 14.6199 26.2969L18.3456 26.7984C18.4172 26.7984 18.4888 26.8701 18.4888 26.9417C18.4888 27.0134 18.4888 27.085 18.3456 27.085Z" fill="white"/>
<path d="M15.4073 32.0999C15.3357 32.0999 15.3357 32.0999 15.2641 32.0282C15.1924 31.9566 15.2641 31.8849 15.3357 31.8133L18.7032 29.5922C18.7748 29.5205 18.8464 29.5922 18.9181 29.6638C18.9897 29.7355 18.9181 29.8071 18.8464 29.8788L15.479 32.0999C15.4073 32.0999 15.4073 32.0999 15.4073 32.0999Z" fill="white"/>
</g>
<defs>
<clipPath id="clip0_1585_11704">
<rect width="52.7329" height="70" fill="white" transform="translate(0.505859)"/>
</clipPath>
</defs>
</svg>
