<svg width="56" height="70" viewBox="0 0 56 70" fill="none" xmlns="http://www.w3.org/2000/svg">
<g clip-path="url(#clip0_1585_11800)">
<path d="M54.7812 39.2369C57.135 24.555 47.1411 10.7449 32.4593 8.39111C17.7774 6.03731 3.96728 16.0312 1.61349 30.713C-0.74031 45.3949 9.25356 59.205 23.9354 61.5588C38.6173 63.9126 52.4274 53.9187 54.7812 39.2369Z" fill="#B9D1DF"/>
<mask id="mask0_1585_11800" style="mask-type:alpha" maskUnits="userSpaceOnUse" x="1" y="8" width="55" height="54">
<path d="M54.7812 39.2447C57.135 24.5628 47.1411 10.7527 32.4593 8.39892C17.7774 6.04512 3.96728 16.039 1.61349 30.7208C-0.74031 45.4027 9.25356 59.2128 23.9354 61.5666C38.6173 63.9204 52.4274 53.9265 54.7812 39.2447Z" fill="#B9D1DF"/>
</mask>
<g mask="url(#mask0_1585_11800)">
<path d="M23.7922 21.328C23.8605 21.3024 23.9374 21.2938 24.0142 21.2938C24.5434 21.2853 24.9787 21.5328 25.4482 21.7377L26.6261 22.2072L27.8553 22.8047C28.0431 22.9327 28.2223 23.0607 28.4101 23.1888C28.6833 23.3766 29.0418 23.5558 29.2466 23.8119C29.5198 24.085 29.7588 24.4265 30.0063 24.7252C30.0063 24.7252 30.8172 26.1422 30.8343 26.1763C30.7745 26.0653 30.7916 25.8178 30.7745 25.6983C30.7404 25.4252 30.7062 25.152 30.6721 24.8703C30.5867 24.1875 30.3989 23.5131 29.9722 22.9583C29.8356 22.7876 29.6819 22.634 29.5283 22.4803L28.5296 21.8316C28.5296 21.8316 27.3175 21.1658 27.309 21.1573C26.8395 20.9012 26.3615 20.628 25.9689 20.261C25.7811 20.0903 25.6104 19.894 25.4311 19.7147C25.3201 19.6037 25.1836 19.5013 25.0897 19.3733L24.5946 18.6733C24.4239 18.4343 24.202 17.7429 24.3897 17.4613C24.5946 17.1454 25.0555 17.171 25.3628 17.2735L27.3175 17.9137C27.7529 18.0929 28.1796 18.2722 28.615 18.4514C29.571 18.8441 30.416 19.4416 31.2867 19.9964C31.2867 19.9964 32.55 20.9524 32.567 20.9695C33.0963 21.3707 33.5145 21.8999 33.8047 22.4888C33.9413 22.7705 34.0267 23.0693 34.1376 23.3595C34.2144 23.5729 34.2657 23.846 34.3766 24.0338L34.7351 24.6399C34.7351 24.6399 35.0253 24.4009 35.0253 24.3923C35.068 24.3582 35.0253 24.0594 35.0253 24.0168C35.0083 23.8204 34.9827 23.6241 34.9485 23.4278C34.8632 22.8644 34.7949 22.2925 34.7437 21.7206C34.6754 20.978 34.3254 20.5085 33.873 19.9537L32.8658 18.2892C32.5926 17.8368 32.0464 17.3588 31.5684 17.1284C31.2013 16.9491 30.7916 16.915 30.3904 16.8467C29.827 16.7528 29.1613 16.6418 28.6747 16.326C28.2479 16.0443 27.8467 15.7114 27.6163 15.242C27.548 15.1054 27.4968 14.9603 27.5224 14.8152C27.5907 14.414 28.1711 14.2262 28.5296 14.2177C29.3832 14.2006 30.2282 14.2603 31.0733 14.303C32.2854 14.3628 33.4035 14.7042 34.4876 15.242C35.1875 15.5919 35.7936 16.2321 36.2204 16.8894C36.6984 17.6405 37.202 18.3746 37.6885 19.1172L38.0299 19.7147L38.3031 20.389L38.4653 21.1743L38.5933 22.0706L38.6531 22.412L38.8494 22.4632C38.8238 22.4547 38.8067 22.0706 38.7982 22.0365C38.764 21.8316 38.6957 21.6353 38.6531 21.4304C38.6275 21.2853 38.6189 21.1317 38.6018 20.9865C38.6018 20.5341 38.5336 20.0903 38.4141 19.655L37.9958 18.8355L37.2873 17.7088L36.8093 16.9235C36.5533 16.5735 36.3143 16.215 36.007 15.9163C35.4948 15.4127 34.9827 14.9517 34.5388 14.3884C34.3083 14.0982 34.1462 13.697 34.0693 13.3385C34.0181 13.0909 34.0096 12.8178 34.1462 12.6129C34.4364 12.1605 35.068 12.152 35.5375 12.2374C36.2545 12.3654 36.9886 12.6556 37.5349 13.1422C37.8592 13.4324 38.1836 13.7141 38.508 14.0043L39.2591 14.7469L40.2407 15.7114C40.9748 16.437 41.4784 17.282 41.9052 18.2209L42.1015 18.9721L42.3832 20.389L42.7332 22.4547L43.2283 24.1619L43.5782 25.2118L44.0904 26.936L44.2355 27.7981L44.3208 28.5151L44.7732 27.6445L45.4476 26.2446L46.4036 24.196C46.4036 24.196 47.0267 23.0437 47.0352 23.0351C47.2571 22.6169 47.5474 22.2328 47.8632 21.8913C48.29 21.4304 48.6997 21.0463 49.2716 20.7646C49.3484 20.7305 49.4252 20.6878 49.5106 20.6793C49.596 20.6707 49.6898 20.6793 49.7496 20.739C49.8264 20.8073 49.852 20.9097 49.8691 21.0122C49.9288 21.5499 49.6642 22.1816 49.4594 22.6766C49.0155 23.9741 48.5802 25.2544 48.3583 26.6202C48.2985 26.9872 48.2558 27.3542 48.2046 27.7213C48.1107 28.4383 48.1449 29.1638 48.051 29.8808C48.0083 30.2052 47.9485 30.521 47.8973 30.8369L47.701 31.9294L47.2571 33.9012L46.7706 35.5401C46.4975 36.3851 46.2328 37.2302 45.9426 38.0752C45.6268 39.0141 45.2768 39.9019 44.8586 40.7981L44.7476 40.9774L44.7049 41.6432L44.5769 43.1284L44.4233 43.9478L43.8172 46.3037L42.8783 50.1021L42.0418 53.2775L41.8198 54.114L41.615 55.0102C41.5126 55.5224 41.4016 56.0431 41.2992 56.5552C41.0687 57.6734 41.0175 58.8599 40.9919 59.9951C40.9833 60.55 40.9919 61.1048 40.9919 61.6596L40.9663 62.6242L26.3957 63.9301C26.9505 61.7791 27.8126 59.722 28.4869 57.6136C28.5211 57.5027 28.5638 57.3832 28.5979 57.2722L29.1954 55.2663L29.9209 52.5434L30.638 50.0851L31.3464 48.0365C31.7049 46.9866 32.089 45.9367 32.2256 44.8356C32.3536 43.8454 32.1573 42.9065 31.611 42.0614C31.2696 41.5237 30.7831 41.1225 30.5099 40.5335C30.1856 39.8592 30.0404 39.1166 29.8441 38.3996C29.7161 37.9301 29.588 37.4606 29.46 36.9997C29.46 36.9912 29.4515 36.9826 29.4515 36.9656L29.0162 35.0365L28.6918 33.1501C28.4955 32.0404 28.4784 30.9051 28.4699 29.7784C28.4613 28.7029 28.5296 27.6018 28.137 26.586C28.0345 26.3129 27.8894 26.0483 27.6846 25.8349C27.4882 25.6386 27.2322 25.5276 26.9932 25.391L26.1823 24.913L25.4397 24.435L24.8165 23.9399L24.3385 23.368L23.8776 22.6766L23.6215 22.156L23.5703 21.7633C23.5703 21.7633 23.6301 21.5499 23.6301 21.5328C23.6386 21.4133 23.7069 21.3621 23.7922 21.328Z" fill="#F0D0B4"/>
<path d="M28.9909 24.8687C28.8884 25.0736 28.7689 25.2614 28.6153 25.4406C28.4446 25.637 28.2056 25.9016 27.9324 25.9357C27.8215 25.9442 27.9495 26.0211 28.0092 26.0125C28.5214 25.9613 28.9482 25.3297 29.153 24.9114C29.1786 24.8517 29.0165 24.8175 28.9909 24.8687Z" fill="#DFB28B"/>
<path d="M28.2563 20.0309C28.2477 20.5089 28.0002 20.9357 27.5819 21.1662C27.5222 21.2003 27.6758 21.2515 27.7271 21.2259C28.1538 20.9784 28.4185 20.5431 28.427 20.048C28.427 19.9968 28.2563 19.9797 28.2563 20.0309Z" fill="#DFB28B"/>
<path d="M29.8089 21.6351C29.7065 21.8912 29.5699 22.1302 29.3992 22.3606C29.3651 22.4033 29.5273 22.446 29.5614 22.4033C29.7321 22.1728 29.8687 21.9253 29.9797 21.6607C29.9882 21.618 29.826 21.5839 29.8089 21.6351Z" fill="#DFB28B"/>
<path d="M32.0302 21.9851C31.2535 22.0961 30.5962 22.5655 30.2377 23.2655C30.2207 23.2996 30.2719 23.3252 30.3231 23.3252C30.2633 23.3594 30.4255 23.4106 30.4682 23.385C30.9889 23.0606 31.4498 22.6594 31.8424 22.1814C31.8595 22.1644 31.8339 22.1473 31.7998 22.1302C31.9022 22.1046 32.0046 22.079 32.1071 22.0619C32.218 22.0449 32.09 21.9766 32.0302 21.9851ZM30.4255 23.2655C30.6901 22.7619 31.1169 22.3863 31.6376 22.19C31.2876 22.6082 30.8864 22.9667 30.4255 23.2655Z" fill="#DFB28B"/>
<path d="M32.9846 16.2428C32.5663 16.6184 32.0712 16.883 31.5164 17.0025C31.4054 17.0281 31.5335 17.0964 31.5932 17.0793C32.1822 16.9513 32.6943 16.6866 33.1467 16.2855C33.1809 16.2513 33.0272 16.2001 32.9846 16.2428Z" fill="#DFB28B"/>
<path d="M35.35 19.0437C34.9147 19.4022 34.4367 19.6838 33.916 19.8887C33.8307 19.9228 33.9843 19.9741 34.027 19.957C34.5647 19.7521 35.0513 19.4619 35.4866 19.0949C35.5549 19.0522 35.3927 19.0095 35.35 19.0437Z" fill="#DFB28B"/>
<path d="M37.7646 15.3302C37.3549 15.774 36.5355 15.7911 35.9721 15.757C35.8526 15.7484 35.9294 15.8338 36.0063 15.8338C36.6123 15.8679 37.483 15.8509 37.9183 15.3729C37.961 15.3302 37.8073 15.2875 37.7646 15.3302Z" fill="#DFB28B"/>
<path d="M39.7799 18.1416C39.1909 18.3123 38.6105 18.483 38.0215 18.6537C37.9361 18.6793 38.0898 18.7391 38.1325 18.722C38.7214 18.5513 39.3019 18.3806 39.8908 18.2099C39.9762 18.1843 39.8225 18.133 39.7799 18.1416Z" fill="#DFB28B"/>
<path d="M37.2287 24.2169C35.752 24.1486 34.335 24.6693 33.251 25.668C33.2169 25.7021 33.3705 25.7448 33.4132 25.7107C34.4546 24.7376 35.8373 24.2254 37.2628 24.2937C37.3823 24.3023 37.3055 24.2254 37.2287 24.2169Z" fill="#DFB28B"/>
<path d="M32.2763 26.1055C31.8154 26.0799 31.3716 26.0799 30.9362 26.2763C30.4582 26.4982 30.0485 26.8652 29.6303 27.1896C29.5705 27.2323 29.7327 27.2749 29.7754 27.2493C30.0826 27.0103 30.3899 26.7457 30.7143 26.5323C31.2094 26.208 31.7215 26.1568 32.302 26.1824C32.43 26.1909 32.3532 26.1055 32.2763 26.1055Z" fill="#DFB28B"/>
<path d="M47.5907 24.9509C47.1639 24.9509 46.7457 24.8826 46.3445 24.7461C46.2933 24.729 46.1482 24.7717 46.2506 24.8058C46.6944 24.9595 47.1554 25.0278 47.6248 25.0278C47.7358 25.0278 47.6675 24.9509 47.5907 24.9509Z" fill="#DFB28B"/>
<path d="M44.3374 28.4535C44.235 28.7864 44.1155 29.0766 43.9618 29.3498C43.1595 29.2986 42.4424 29.6144 41.751 29.9985C40.8633 30.4936 39.9927 31.0313 39.1391 31.5776C37.4234 32.6788 35.7675 33.8823 34.1713 35.1541C34.1115 35.1968 34.2737 35.2395 34.3164 35.2139C35.7419 34.0701 37.2271 32.986 38.755 31.9788C39.4976 31.4923 40.2573 31.0143 41.017 30.5619C41.8962 30.0412 42.8522 29.3839 43.9191 29.4266C43.7399 29.7168 43.518 29.9814 43.2192 30.2204C43.1595 30.2631 43.3216 30.3058 43.3643 30.2802C43.9704 29.7937 44.2776 29.2132 44.5081 28.4791C44.5166 28.4279 44.3545 28.3938 44.3374 28.4535Z" fill="#DFB28B"/>
<path d="M39.4896 24.3264C38.7043 26.1701 37.5007 27.7748 36.2374 29.3027C35.6399 30.0197 35.0595 30.7794 34.3766 31.4282C33.634 32.1366 32.7548 32.6744 31.7988 33.0329C31.7135 33.067 31.8671 33.1182 31.9098 33.1012C32.7548 32.7853 33.5316 32.3329 34.223 31.7525C35.0083 31.0867 35.6485 30.2502 36.2972 29.4649C37.6032 27.8943 38.8494 26.2469 39.6603 24.352C39.6774 24.3093 39.5152 24.2666 39.4896 24.3264Z" fill="#DFB28B"/>
<path d="M43.6385 26.9239C42.9044 27.7604 42.2216 28.6482 41.5984 29.57C41.5643 29.6212 41.7265 29.6554 41.7606 29.6127C42.3837 28.6823 43.0581 27.8031 43.8007 26.9666C43.8348 26.9239 43.6726 26.8812 43.6385 26.9239Z" fill="#DFB28B"/>
<path d="M42.3403 32.1753C41.1112 32.6533 40.1296 33.9763 39.4467 35.0604C38.6956 36.2554 38.1749 37.587 37.8078 38.9442C37.7908 38.9954 37.9615 39.021 37.9786 38.9612C38.3285 37.6467 38.8236 36.3749 39.5406 35.214C39.8735 34.6677 40.2576 34.147 40.6844 33.669C41.1795 33.1142 41.7514 32.5167 42.4598 32.2436C42.5367 32.2094 42.383 32.1582 42.3403 32.1753Z" fill="#DFB28B"/>
<path d="M38.917 43.5863C36.4928 43.8082 33.9577 43.6289 31.875 42.2461C31.8323 42.2205 31.6701 42.2376 31.7469 42.2888C33.8894 43.7058 36.5014 43.8935 38.9938 43.6631C39.1048 43.6545 38.9767 43.5777 38.917 43.5863Z" fill="#DFB28B"/>
<path d="M42.8957 45.0717C41.8458 46.1984 39.8996 46.1045 38.4912 46.0618C36.767 46.0106 35.0598 45.7033 33.4636 45.0546C33.4124 45.029 33.2673 45.0717 33.3697 45.1144C35.0598 45.7887 36.8694 46.113 38.6875 46.1472C40.113 46.1728 42.008 46.2496 43.0579 45.1144C43.092 45.0717 42.9384 45.029 42.8957 45.0717Z" fill="#DFB28B"/>
<path d="M44.6101 40.8984C43.1675 41.9654 41.4092 42.5032 39.6167 42.4349C39.4972 42.4263 39.574 42.5117 39.6508 42.5117C41.4775 42.5885 43.2785 42.0422 44.7467 40.9496C44.815 40.9155 44.6528 40.8728 44.6101 40.8984Z" fill="#DFB28B"/>
<path d="M40.727 22.0943C38.5674 22.1626 36.4932 22.9565 34.8373 24.3649C34.7775 24.4161 34.9397 24.4588 34.9824 24.4246C36.6042 23.0504 38.6357 22.248 40.7611 22.1797C40.8806 22.1712 40.8038 22.0858 40.727 22.0943Z" fill="#DFB28B"/>
<path opacity="0.73" d="M49.4422 20.7385C47.9825 21.575 47.0607 22.9919 46.3351 24.4601C45.9681 25.2027 45.6352 25.9709 45.2682 26.7135C45.0889 27.0806 44.9011 27.4476 44.7048 27.8061C44.6194 27.9597 44.4743 28.1305 44.4146 28.3012C44.3463 28.506 44.1926 28.7024 44.167 28.9157C44.0902 29.5645 44.9353 28.5572 45.0377 28.4036C45.601 27.5756 46.0022 26.6794 46.429 25.7831C46.8046 24.9893 47.2143 24.2125 47.6496 23.4443C48.213 22.4456 48.6227 21.5579 49.6556 20.9689C49.8433 20.8665 49.5958 20.6531 49.4422 20.7385Z" fill="#ECC19C"/>
<path opacity="0.67" d="M43.8009 25.8984L44.1082 26.9227C44.185 27.3665 44.3472 27.8787 44.313 28.3225C44.2874 28.664 44.1253 29.2273 43.835 29.3554C43.6302 29.4407 43.3485 29.381 43.1266 29.4322C42.6656 29.5346 42.162 29.7651 41.7438 29.987L40.4805 30.7211C40.9414 30.4479 41.4621 29.7224 41.7779 29.2785C42.1108 28.8091 42.3925 28.2969 42.6912 27.8104C42.9644 27.3751 43.0668 26.8202 43.2205 26.3337C43.2546 26.2654 43.7667 25.7618 43.8009 25.8984Z" fill="#DFB28B"/>
<path opacity="0.76" d="M38.7637 21.7249L38.9002 22.459C40.155 22.1346 41.3842 22.0493 42.6816 22.0493L42.6219 21.7249C41.3415 21.6396 40.0355 21.6481 38.7637 21.7249Z" fill="#ECC19C"/>
<path opacity="0.76" d="M34.9395 23.4452C35.1699 23.2318 35.3919 22.9587 35.6394 22.7794C36.1515 22.4209 36.7661 22.1734 37.3892 22.0965C37.5087 22.0795 38.5757 22.0112 38.5928 22.0709L38.6525 22.4124C38.6611 22.455 37.7989 22.7026 37.7051 22.7282C36.6722 23.0355 35.8613 23.7696 35.0163 24.4012C35.0163 24.4097 34.9395 23.4452 34.9395 23.4452Z" fill="#ECC19C"/>
<path opacity="0.6" d="M30.9375 26.2713L30.707 25.2385C31.3643 25.0592 31.9959 24.769 32.6617 24.6068C32.9861 24.53 33.319 24.4702 33.6604 24.4873C33.9336 24.4958 34.4884 24.7434 34.7189 24.658L32.7129 25.4262L30.9375 26.2713Z" fill="#DFB28B"/>
<path opacity="0.6" d="M30.2452 25.4375C30.5354 25.6509 30.6891 26.0009 30.9281 26.2569C30.8513 26.1716 29.7843 27.0764 29.6562 27.1617C29.8526 26.5898 30.0318 26.0009 30.2452 25.4375Z" fill="#DFB28B"/>
<path opacity="0.57" d="M27.1996 52.0726L26.6875 53.6432L33.243 52.8579L36.6829 52.1494C36.6829 52.1494 38.9108 51.6031 38.9193 51.6031C39.9521 51.347 40.157 50.6044 40.4387 49.8874C40.6094 49.4436 40.5155 49.4862 41.0874 49.2643C42.0861 48.8717 41.9495 48.5046 41.5739 47.8047C37.5706 49.0765 33.482 50.2118 29.4446 51.4068C28.6934 51.6287 27.9423 51.8507 27.1996 52.0726Z" fill="#CF9E76"/>
<path d="M27.5478 52.0234C27.4881 52.0405 27.4369 53.2099 27.4198 53.3465C27.3515 53.833 27.2576 54.3281 27.0784 54.789C26.7881 55.5317 26.276 56.206 25.8663 56.8803L22.0508 57.2303V53.6196C22.0508 53.6196 27.5393 52.0234 27.5478 52.0234Z" fill="#DFB28B"/>
<path d="M4.21187 47.4211L5.47517 47.7455L6.87504 47.9845L8.71023 48.1552H10.5881L12.5087 47.9418L14.5999 47.4297L16.2815 46.7212L18.2106 45.8847L19.7129 45.1933L21.0359 44.5019L21.6249 44.297L22.8797 44.2031L23.9039 44.4848L25.1929 45.0652L26.2257 45.6201L27.0878 46.1834L28.2999 46.4054L30.0497 46.6273L31.4496 46.7724L33.5494 46.8748H35.3846L37.1344 46.7297L38.7562 46.6444L39.9512 46.687L41.0609 46.7724C41.3596 46.8492 41.8035 46.8663 41.9828 47.148C42.1535 47.404 42.0767 47.9247 41.8718 48.1467C41.5048 48.5222 41.078 48.7954 40.5914 48.9917L39.5586 49.2392L38.9867 49.3502L38.4148 49.4612L38.944 49.5636L39.2598 49.6234L39.533 49.6916L39.7464 49.777L39.9598 49.9477L40.0451 50.1782L40.0195 50.3745L39.8744 50.605L39.5757 50.8781L38.8928 51.2195L36.1016 51.8768L34.1554 52.1499L32.5763 52.3036L29.9302 52.5341L28.8206 52.6706L27.8304 52.9865L26.9512 53.4815L26.3964 53.8656L25.7733 54.3436L25.0648 54.9241L24.5356 55.3509L24.0576 55.6923L23.5198 56.0081L23.0674 56.2045L22.5041 56.341L23.1869 56.3752L24.0064 56.3837L24.9197 56.3581L25.3209 56.1959L25.7989 55.8203L26.3879 55.1289L26.8317 54.6936L27.489 54.2156L27.8987 54.0278C27.8987 54.0278 28.3084 53.951 28.3596 53.9425C28.6242 53.8913 29.1279 54.0449 29.0254 54.3863C28.923 54.7278 28.8206 55.0948 28.6584 55.4106L27.7877 57.1092L27.3439 57.9884L27.0793 58.5603L26.7805 59.0383L26.2854 59.4822L25.8843 59.6444L24.9282 59.7468L23.3918 59.798L22.1712 59.8492L20.4811 59.8066L19.7385 59.6956L18.68 59.4737L16.8192 58.714L15.2657 57.9287L13.1318 56.7934L12.2526 56.452L11.271 56.1959L9.21385 55.6838L7.25061 55.2399L5.56906 54.9668L4.80938 54.8729L3.48633 54.8473L4.21187 47.4211Z" fill="#ECC19C"/>
<path opacity="0.7" d="M38.9679 46.7266C38.8996 46.9314 38.746 47.6143 38.9338 47.7935C39.0959 47.9557 39.83 47.8362 40.069 47.8448C40.769 47.8789 41.4945 47.8362 41.3494 46.9058C40.7177 46.6583 39.7532 46.7692 38.9679 46.7266Z" fill="#F0D0B4"/>
<path opacity="0.7" d="M27.5137 55.7197C27.6246 55.8307 28.0087 56.1551 28.188 56.0783C28.3502 56.0185 28.5209 55.4722 28.6063 55.3186C28.8623 54.8491 29.0843 54.3369 28.4355 54.1406C28.0685 54.4906 27.8124 55.1991 27.5137 55.7197Z" fill="#F0D0B4"/>
<path opacity="0.7" d="M37.3461 49.6101C37.0388 49.687 36.7742 50.1394 36.9278 50.4552C37.0729 50.7539 37.5595 50.7369 37.8582 50.7198C38.6179 50.6771 39.3691 50.6771 39.2154 49.7467C38.7459 49.5077 37.7046 49.4224 37.3461 49.6101Z" fill="#F0D0B4"/>
<path d="M38.4751 49.5686L30.8441 48.9285C28.8467 48.7577 26.7299 48.5529 24.8691 49.4748C24.8093 49.5004 24.9629 49.5516 25.0142 49.5345C27.0286 48.5444 29.3674 48.8858 31.5184 49.065C33.8316 49.2614 36.1534 49.4577 38.4666 49.654C38.5605 49.654 38.5775 49.5772 38.4751 49.5686Z" fill="#DFB28B"/>
<path d="M22.5122 56.3602C22 56.326 21.4879 56.3004 20.9758 56.2663C20.8733 56.2578 20.8648 56.3346 20.9672 56.3431C21.4794 56.3773 21.9915 56.4029 22.5037 56.437C22.6061 56.437 22.6146 56.3602 22.5122 56.3602Z" fill="#DFB28B"/>
<path d="M27.0028 46.2054C25.7992 46.1371 24.6042 46.2651 23.4434 46.5809C23.358 46.6065 23.5117 46.6663 23.5543 46.6492C24.6981 46.3419 25.859 46.2224 27.0369 46.2822C27.1564 46.2907 27.0796 46.2054 27.0028 46.2054Z" fill="#DFB28B"/>
<path d="M32.3288 46.9086C32.3459 46.8659 32.1752 46.8318 32.1581 46.8915C32.013 47.3439 32.0045 47.8134 32.1496 48.2658C32.1666 48.317 32.3374 48.3255 32.3118 48.2658C32.1752 47.8048 32.1837 47.3524 32.3288 46.9086Z" fill="#DFB28B"/>
<path d="M32.5502 47.1415C32.4905 47.3208 32.4648 47.5 32.4648 47.6793C32.4648 47.739 32.6356 47.7475 32.6356 47.6963C32.6356 47.5085 32.6612 47.3293 32.7209 47.1586C32.738 47.1159 32.5673 47.0818 32.5502 47.1415Z" fill="#DFB28B"/>
<path d="M33.0359 46.9557C33.0188 46.9045 32.8481 46.896 32.8737 46.9557C33.0359 47.4252 33.0444 47.8947 32.9079 48.3727C32.8908 48.4239 33.0615 48.4495 33.0786 48.3898C33.2066 47.9117 33.1895 47.4252 33.0359 46.9557Z" fill="#DFB28B"/>
<path d="M32.0215 49.2391C32.03 49.1879 31.8678 49.1623 31.8508 49.2221C31.7313 49.7684 31.774 50.3061 31.9874 50.8268C32.0044 50.878 32.1751 50.878 32.1495 50.8268C31.9447 50.3146 31.902 49.7769 32.0215 49.2391Z" fill="#DFB28B"/>
<path d="M32.498 49.3277C32.498 49.2679 32.3273 49.2509 32.3273 49.3106C32.3188 49.6777 32.3273 50.0532 32.3614 50.4203C32.37 50.48 32.5322 50.4886 32.5322 50.4373C32.498 50.0618 32.4895 49.6947 32.498 49.3277Z" fill="#DFB28B"/>
<path d="M32.9598 49.2572C32.9342 49.2059 32.772 49.2059 32.7977 49.2572C33.0623 49.7949 33.0793 50.3839 32.8318 50.9302C32.8062 50.9899 32.9684 51.0155 32.994 50.9729C33.2415 50.4095 33.233 49.8035 32.9598 49.2572Z" fill="#DFB28B"/>
<path d="M23.6131 56.0147C23.0156 55.8013 22.4096 55.5708 22.0084 55.0501C21.9743 55.0074 21.8121 55.016 21.8548 55.0757C22.2645 55.6135 22.8961 55.8525 23.5192 56.0744C23.579 56.0915 23.7241 56.0573 23.6131 56.0147Z" fill="#DFB28B"/>
<path d="M32.5248 51.4479C32.5077 51.3967 32.3455 51.3882 32.3626 51.4479C32.4223 51.6955 32.465 51.9515 32.4736 52.2076C32.4736 52.2674 32.6443 52.2759 32.6443 52.2247C32.6272 51.9686 32.5845 51.704 32.5248 51.4479Z" fill="#DFB28B"/>
<path d="M35.8021 51.0417C35.7935 50.9905 35.6228 50.9819 35.6399 51.0417C35.6996 51.3234 35.7252 51.605 35.7167 51.8867C35.7167 51.9465 35.8874 51.9635 35.8874 51.9038C35.8874 51.6221 35.8618 51.3319 35.8021 51.0417Z" fill="#DFB28B"/>
<path d="M28.6495 51.4892C28.6153 51.4551 28.4446 51.4636 28.4958 51.5148C28.8373 51.7965 29.1872 52.1038 29.2897 52.5647C29.2982 52.616 29.4689 52.6245 29.4518 52.5647C29.3494 52.0953 28.9909 51.7795 28.6495 51.4892Z" fill="#DFB28B"/>
<path d="M26.6949 59.0435C26.4218 58.446 26.0376 57.9253 25.5596 57.4814C25.5255 57.4473 25.3548 57.4558 25.406 57.507C25.884 57.9424 26.2596 58.463 26.5242 59.0435C26.5498 59.0947 26.7205 59.0947 26.6949 59.0435Z" fill="#DFB28B"/>
<path d="M26.532 59.243C26.2929 58.9528 26.0966 58.6369 25.9344 58.304C25.9088 58.2528 25.7467 58.2528 25.7723 58.304C25.9344 58.654 26.1393 58.9698 26.3868 59.2686C26.4125 59.3027 26.5746 59.3027 26.532 59.243Z" fill="#DFB28B"/>
<path d="M26.055 59.5269C25.6367 59.1343 25.4746 58.5794 25.3295 58.0417C25.3124 57.9905 25.1502 57.9819 25.1673 58.0417C25.3209 58.588 25.4831 59.1428 25.9099 59.544C25.9355 59.5781 26.1062 59.5696 26.055 59.5269Z" fill="#DFB28B"/>
<path d="M26.7715 46.7568C26.7715 46.9019 26.3704 47.0214 25.8838 47.0214C25.3973 47.0214 24.9961 46.9019 24.9961 46.7568C24.9961 46.6117 25.3973 46.4922 25.8838 46.4922C26.3704 46.4922 26.7715 46.6117 26.7715 46.7568Z" fill="#F0D0B4"/>
<path d="M23.6641 44.7802C23.6641 44.9253 23.2629 45.0448 22.7764 45.0448C22.2813 45.0448 21.8887 44.9253 21.8887 44.7802C21.8887 44.6351 22.2899 44.5156 22.7764 44.5156C23.2629 44.5156 23.6641 44.6351 23.6641 44.7802Z" fill="#F0D0B4"/>
<path d="M27.4278 49.64C27.4278 49.7851 27.0266 49.9046 26.5401 49.9046C26.045 49.9046 25.6523 49.7851 25.6523 49.64C25.6523 49.4949 26.0535 49.3754 26.5401 49.3754C27.0266 49.3669 27.4278 49.4949 27.4278 49.64Z" fill="#F0D0B4"/>
</g>
<path d="M12.9942 38.6113C12.7263 38.6113 12.6875 38.6113 12.039 33.326C11.8557 31.8311 11.6407 30.0787 11.4856 29.0809C11.4045 29.7755 11.3199 30.8086 11.2459 31.7077C11.1754 32.5715 11.1014 33.46 11.0274 34.1229C10.904 35.2653 10.8371 35.3922 10.6291 35.3957C10.6256 35.3957 10.6256 35.3957 10.6221 35.3957C10.326 35.3957 10.252 34.9902 10.1321 34.3203C10.0863 34.0735 10.0158 33.6751 9.95236 33.5446C9.56465 33.5023 9.44834 33.0792 9.37079 32.7936C9.34965 32.7125 9.3144 32.5891 9.28268 32.5222C9.258 32.575 9.22981 32.6526 9.20866 32.709C9.09587 33.0263 8.90202 33.5588 8.27815 33.5588C8.03495 33.5588 7.81642 33.5552 7.65781 33.5517C7.60847 33.5517 7.56617 33.5482 7.53092 33.5482C7.41108 33.7703 7.25952 34.6764 7.17141 35.23C6.97755 36.4041 6.92821 36.6192 6.74492 36.6827L6.65681 36.7144L6.56516 36.6615C6.4136 36.5663 6.36073 36.3442 6.08228 34.003C5.99769 33.2767 5.88843 32.367 5.79679 31.817C5.76859 31.9439 5.74039 32.0779 5.71572 32.1907C5.53596 33.0475 5.43022 33.4953 5.13062 33.5411C4.79578 33.5905 4.21638 33.5482 3.92383 33.5446L3.93088 33.1498C5.02 33.1674 4.71119 33.185 5.03898 33.1568C5.13767 33.0263 5.25751 32.4552 5.328 32.1132C5.48309 31.3692 5.56063 30.9955 5.85318 31.0307C6.08581 31.0589 6.13868 31.1506 6.47 33.9572C6.54049 34.546 6.62156 35.223 6.69205 35.713C6.72377 35.5297 6.7555 35.3358 6.78369 35.163C7.04804 33.5552 7.15731 33.1498 7.46748 33.1498C7.50977 33.1498 7.58027 33.1498 7.66838 33.1533C7.82347 33.1568 8.03847 33.1603 8.27815 33.1603C8.60242 33.1603 8.70816 32.9276 8.83857 32.5715C8.91964 32.3423 9.0148 32.0849 9.2721 32.0849C9.5858 32.0849 9.67744 32.4199 9.75146 32.6843C9.83958 33.0052 9.89949 33.1498 10.0229 33.1498C10.326 33.1498 10.4 33.5623 10.5234 34.2463C10.541 34.345 10.5621 34.4578 10.5833 34.5707C10.6714 33.8972 10.7736 32.6949 10.8582 31.6724C10.9287 30.8086 11.0027 29.9165 11.0767 29.2572C11.193 28.1748 11.253 27.9844 11.4821 27.9844C11.7499 27.9844 11.7887 27.9844 12.4373 33.2732C12.6241 34.8104 12.8461 36.6192 13.0047 37.5959C13.1069 36.9189 13.2233 35.8682 13.3255 34.962C13.7167 31.4714 13.7696 31.3727 14.0339 31.3657C14.3335 31.3657 14.3899 31.7429 14.5168 32.8571C14.545 33.1039 14.5803 33.4212 14.619 33.6681C14.753 33.3437 14.8798 33.1427 15.0808 33.1427L15.3623 33.1501L15.3626 33.5376H15.1266C15.0561 33.6222 14.9503 33.9008 14.901 34.0242C14.8023 34.278 14.7565 34.3944 14.6014 34.3944C14.3053 34.3944 14.2489 34.0101 14.1256 32.8994C14.1044 32.7125 14.0797 32.4869 14.0516 32.2824C13.9493 32.9523 13.826 34.0594 13.7202 35.0044C13.6251 35.847 13.5299 36.7179 13.4383 37.3631C13.2691 38.4879 13.2021 38.6113 12.9942 38.6113Z" fill="#FF1542"/>
<path d="M23.5268 38.6113C23.2589 38.6113 23.2201 38.6113 22.5716 33.326C22.3883 31.8311 22.1733 30.0787 22.0182 29.0809C21.9372 29.7755 21.8526 30.8086 21.7786 31.7077C21.7081 32.5715 21.634 33.46 21.56 34.1229C21.4367 35.2653 21.3697 35.3922 21.1617 35.3957C21.1582 35.3957 21.1582 35.3957 21.1547 35.3957C20.8586 35.3957 20.7846 34.9902 20.6648 34.3203C20.6189 34.0735 20.5484 33.6751 20.485 33.5446C20.0973 33.5023 19.981 33.0792 19.9034 32.7936C19.8823 32.7125 19.847 32.5891 19.8153 32.5222C19.7906 32.575 19.7624 32.6526 19.7413 32.709C19.6285 33.0263 19.4347 33.5588 18.8108 33.5588C18.5676 33.5588 18.3491 33.5552 18.1904 33.5517C18.1411 33.5517 18.0988 33.5482 18.0636 33.5482C17.9437 33.7703 17.7922 34.6764 17.704 35.23C17.5102 36.4041 17.4608 36.6192 17.2776 36.6827L17.1894 36.7144L17.0978 36.6615C16.9462 36.5663 16.8934 36.3442 16.6149 34.003C16.5303 33.2767 16.4211 32.367 16.3294 31.817C16.3012 31.9439 16.273 32.0779 16.2484 32.1907C16.0686 33.0475 16.0335 33.5335 15.6633 33.5411C15.452 33.5411 15.1563 33.5382 15.1563 33.5382L15.1569 33.1498C16.246 33.1674 15.2438 33.185 15.5716 33.1568C15.6703 33.0263 15.7901 32.4552 15.8606 32.1132C16.0157 31.3692 16.0933 30.9955 16.3858 31.0307C16.6184 31.0589 16.6713 31.1506 17.0026 33.9572C17.0731 34.546 17.1542 35.223 17.2247 35.713C17.2564 35.5297 17.2881 35.3358 17.3163 35.163C17.5807 33.5552 17.6899 33.1498 18.0001 33.1498C18.0424 33.1498 18.1129 33.1498 18.201 33.1533C18.3561 33.1568 18.5711 33.1603 18.8108 33.1603C19.1351 33.1603 19.2408 32.9276 19.3712 32.5715C19.4523 32.3423 19.5474 32.0849 19.8047 32.0849C20.1184 32.0849 20.2101 32.4199 20.2841 32.6843C20.3722 33.0052 20.4321 33.1498 20.5555 33.1498C20.8586 33.1498 20.9326 33.5623 21.056 34.2463C21.0736 34.345 21.0948 34.4578 21.1159 34.5707C21.204 33.8972 21.3062 32.6949 21.3908 31.6724C21.4613 30.8086 21.5353 29.9165 21.6094 29.2572C21.7257 28.1748 21.7856 27.9844 22.0147 27.9844C22.2826 27.9844 22.3214 27.9844 22.9699 33.2732C23.1567 34.8104 23.3787 36.6192 23.5374 37.5959C23.6396 36.9189 23.7559 35.8682 23.8581 34.962C24.2493 31.4714 24.3022 31.3727 24.5666 31.3657C24.8662 31.3657 24.9226 31.7429 25.0494 32.8571C25.0776 33.1039 25.1129 33.4212 25.1517 33.6681C25.2856 33.3437 25.4125 33.1427 25.6134 33.1427L26.1604 33.1501L26.1606 33.5376H25.6592C25.5887 33.6222 25.483 33.9008 25.4336 34.0242C25.3349 34.278 25.2891 34.3944 25.134 34.3944C24.838 34.3944 24.7816 34.0101 24.6582 32.8994C24.6371 32.7125 24.6124 32.4869 24.5842 32.2824C24.482 32.9523 24.3586 34.0594 24.2529 35.0044C24.1577 35.847 24.0625 36.7179 23.9709 37.3631C23.8017 38.4879 23.7347 38.6113 23.5268 38.6113Z" fill="#FF1542"/>
<path d="M3.92301 33.7877C4.16633 33.7877 4.36359 33.5904 4.36359 33.347C4.36359 33.1036 4.16633 32.9062 3.92301 32.9062C3.67968 32.9062 3.48242 33.1036 3.48242 33.347C3.48242 33.5904 3.67968 33.7877 3.92301 33.7877Z" fill="#FF1542"/>
<path d="M26.1613 33.7877C26.4046 33.7877 26.6019 33.5904 26.6019 33.347C26.6019 33.1036 26.4046 32.9062 26.1613 32.9062C25.918 32.9062 25.7207 33.1036 25.7207 33.347C25.7207 33.5904 25.918 33.7877 26.1613 33.7877Z" fill="#FF1542"/>
</g>
<defs>
<clipPath id="clip0_1585_11800">
<rect width="54.9798" height="70" fill="white" transform="translate(0.716797)"/>
</clipPath>
</defs>
</svg>
