<svg width="248" height="160" viewBox="0 0 248 160" fill="none" xmlns="http://www.w3.org/2000/svg">
<path d="M124.131 159.705C167.999 159.705 203.562 124.143 203.562 80.2746C203.562 36.4061 167.999 0.84375 124.131 0.84375C80.2626 0.84375 44.7002 36.4061 44.7002 80.2746C44.7002 124.143 80.2626 159.705 124.131 159.705Z" fill="#FFF3CD"/>
<path d="M92.3924 151.617C92.2038 151.611 92.0094 151.599 91.8208 151.594" stroke="#B9D1DF" stroke-width="0.571568" stroke-linecap="round" stroke-linejoin="round"/>
<path d="M90.1118 151.502C64.054 149.855 37.8762 136.195 23.6899 114.338C20.0433 108.72 18.3515 101.341 19.0774 94.682C19.8032 88.0232 25.6047 81.5817 32.2634 82.3247C38.9108 83.062 42.986 90.0294 44.6836 96.4939C46.6326 103.919 46.5583 112.709 41.2313 118.236C35.2756 124.415 24.6044 123.906 17.6199 118.916C10.6353 113.927 5.34257 105.399 3.18205 97.094C0.827185 88.0232 1.5988 78.5066 4.33661 69.5502C7.07442 60.5937 13.5732 52.506 22.3867 49.3224C36.6302 44.184 51.7653 52.426 65.603 58.576C107.076 77.0205 156.225 77.3749 197.955 59.5306C209.518 54.5865 220.829 48.0478 228.46 38.051C230.832 34.9417 232.861 31.4094 233.335 27.5228C233.81 23.6361 232.461 19.3493 229.237 17.1374C225.505 14.571 220.224 15.4055 216.474 17.949C212.725 20.4867 207.483 25.7852 205.077 29.6261C196.155 43.8525 189.77 57.37 187.433 73.9969C185.204 89.8808 187.633 107.977 199.39 120.974C210.844 133.64 228.008 138.756 246.196 139.23" stroke="#B9D1DF" stroke-width="1.60713" stroke-linecap="round" stroke-linejoin="round" stroke-dasharray="4.82 4.82"/>
<path d="M247.053 139.25C247.241 139.256 247.436 139.256 247.624 139.261" stroke="#B9D1DF" stroke-width="0.571568" stroke-linecap="round" stroke-linejoin="round"/>
<path d="M197.292 86.1936C196.115 86.1936 195.16 85.2391 195.16 84.0616C195.16 82.8842 196.115 81.9297 197.292 81.9297C198.47 81.9297 199.424 82.8842 199.424 84.0616C199.424 85.2391 198.47 86.1936 197.292 86.1936ZM197.292 82.8042C196.601 82.8042 196.035 83.37 196.035 84.0616C196.035 84.7532 196.601 85.3191 197.292 85.3191C197.984 85.3191 198.55 84.7532 198.55 84.0616C198.55 83.37 197.989 82.8042 197.292 82.8042Z" fill="#B9D1DF"/>
<path d="M54.0401 42.0608C52.8627 42.0608 51.9082 41.1063 51.9082 39.9288C51.9082 38.7514 52.8627 37.7969 54.0401 37.7969C55.2176 37.7969 56.1721 38.7514 56.1721 39.9288C56.1778 41.1005 55.2176 42.0608 54.0401 42.0608ZM54.0401 38.6657C53.3486 38.6657 52.7827 39.2315 52.7827 39.9231C52.7827 40.6147 53.3486 41.1806 54.0401 41.1806C54.7317 41.1806 55.2976 40.6147 55.2976 39.9231C55.3033 39.2315 54.7375 38.6657 54.0401 38.6657Z" fill="#B9D1DF"/>
<path d="M29.7654 133.45H28.6394V131.867C28.6394 131.69 28.4965 131.547 28.3194 131.547C28.1422 131.547 27.9993 131.69 27.9993 131.867V133.45H26.8733C26.6961 133.45 26.5532 133.593 26.5532 133.77C26.5532 133.947 26.6961 134.09 26.8733 134.09H27.9993V135.674C27.9993 135.851 28.1422 135.994 28.3194 135.994C28.4965 135.994 28.6394 135.851 28.6394 135.674V134.09H29.7654C29.9426 134.09 30.0855 133.947 30.0855 133.77C30.0798 133.593 29.9369 133.45 29.7654 133.45Z" fill="#B9D1DF"/>
<path d="M183.277 4.25628H181.591V1.87856C181.591 1.61563 181.379 1.39844 181.111 1.39844C180.848 1.39844 180.631 1.60992 180.631 1.87856V4.25628H178.944C178.682 4.25628 178.464 4.46776 178.464 4.7364C178.464 5.00503 178.676 5.21651 178.944 5.21651H180.631V7.59424C180.631 7.85716 180.842 8.07435 181.111 8.07435C181.374 8.07435 181.591 7.86287 181.591 7.59424V5.21651H183.277C183.54 5.21651 183.757 5.00503 183.757 4.7364C183.757 4.46776 183.546 4.25628 183.277 4.25628Z" fill="#B9D1DF"/>
<path d="M63.6137 13.2841H58.3896C57.9952 13.2841 57.6694 12.964 57.6694 12.5639C57.6694 12.1695 57.9895 11.8438 58.3896 11.8438H63.6137C64.0081 11.8438 64.3339 12.1638 64.3339 12.5639C64.3339 12.964 64.0138 13.2841 63.6137 13.2841Z" fill="#B9D1DF"/>
<path d="M70.2441 6.66449C69.8497 6.66449 69.5239 6.34441 69.5239 5.94431V0.720178C69.5239 0.325796 69.844 0 70.2441 0C70.6385 0 70.9643 0.32008 70.9643 0.720178V5.94431C70.9643 6.34441 70.6385 6.66449 70.2441 6.66449Z" fill="#B9D1DF"/>
<path d="M65.4542 8.49712C65.2713 8.49712 65.0884 8.42853 64.9455 8.28564L61.356 4.69619C61.076 4.41612 61.076 3.95887 61.356 3.6788C61.6361 3.39873 62.0934 3.39873 62.3734 3.6788L65.9629 7.26825C66.243 7.54832 66.243 8.00557 65.9629 8.28564C65.82 8.42853 65.6371 8.49712 65.4542 8.49712Z" fill="#B9D1DF"/>
<path d="M203.145 152.403H45.1175C44.6088 152.403 44.1973 151.991 44.1973 151.483C44.1973 150.974 44.6088 150.562 45.1175 150.562H203.15C203.659 150.562 204.071 150.974 204.071 151.483C204.071 151.991 203.653 152.403 203.145 152.403Z" fill="#457B9D"/>
<path d="M177.87 22.9314V140.914C177.87 146.241 173.554 150.557 168.227 150.557H80.0287C79.9716 150.557 79.9144 150.557 79.8573 150.557C75.902 150.488 72.5298 148.036 71.1123 144.578C70.6493 143.447 70.3921 142.212 70.3921 140.914V22.9314C70.3921 17.6044 74.7074 13.2891 80.0344 13.2891H168.239C173.554 13.2891 177.87 17.6101 177.87 22.9314Z" fill="#457B9D"/>
<path d="M177.87 36.3594V140.916C177.87 146.243 173.554 150.559 168.227 150.559H91.2256C176.681 146.632 177.87 36.3594 177.87 36.3594Z" fill="#457B9D"/>
<path d="M81.1719 20.9375V134.451L87.7106 140.995H167.09V20.9375H81.1719Z" fill="white"/>
<path d="M87.7106 140.998L81.1719 134.453H87.7106V140.998Z" fill="#B9D1DF"/>
<path d="M140.581 9.98512H132.007C131.001 9.98512 130.19 9.17349 130.19 8.16753C130.19 6.79005 129.064 5.66406 127.686 5.66406H120.581C119.204 5.66406 118.078 6.79005 118.078 8.16753C118.078 9.17349 117.266 9.98512 116.26 9.98512H107.687C106.675 9.98512 105.858 10.8025 105.858 11.8141V22.8282C105.858 23.5198 106.247 24.1314 106.812 24.4344C107.07 24.5772 107.367 24.6573 107.687 24.6573H140.581C141.592 24.6573 142.41 23.8342 142.41 22.8225V11.8141C142.41 10.8025 141.592 9.98512 140.581 9.98512Z" fill="#B9D1DF"/>
<path d="M140.221 22.9864H108.041C107.675 22.9864 107.373 22.6835 107.373 22.3177V12.1609C107.373 11.7951 107.675 11.4922 108.041 11.4922H140.221C140.586 11.4922 140.889 11.7951 140.889 12.1609V22.3177C140.889 22.6835 140.586 22.9864 140.221 22.9864Z" stroke="white" stroke-width="0.571568" stroke-linecap="round" stroke-linejoin="round" stroke-dasharray="1.15 1.15"/>
<path d="M109.624 146.492H62.3501V150.556H109.624V146.492Z" fill="#B9D1DF"/>
<path d="M112.356 150.556H109.619V146.492H112.356C112.694 146.492 112.962 146.761 112.962 147.098V149.95C112.968 150.282 112.694 150.556 112.356 150.556Z" fill="#B9D1DF"/>
<path d="M62.3501 146.492V150.556L58.7778 149.367L56.2515 148.527L58.7778 147.681L62.3501 146.492Z" fill="#B9D1DF"/>
<path d="M58.7778 147.68V149.366L56.2515 148.526L58.7778 147.68Z" fill="#457B9D"/>
<mask id="path-23-inside-1_1572_168030" fill="white">
<path d="M132.844 82.5566C137.338 75.7325 136.583 66.4671 130.579 60.4631C123.712 53.5956 112.578 53.5956 105.71 60.4631C98.8427 67.3306 98.8427 78.4649 105.71 85.3324C111.714 91.3361 120.979 92.0912 127.803 87.5975L147.702 107.497C149.094 108.889 151.351 108.889 152.743 107.497C154.135 106.105 154.135 103.848 152.743 102.456L132.844 82.5566Z"/>
</mask>
<path d="M132.844 82.5566C137.338 75.7325 136.583 66.4671 130.579 60.4631C123.712 53.5956 112.578 53.5956 105.71 60.4631C98.8427 67.3306 98.8427 78.4649 105.71 85.3324C111.714 91.3361 120.979 92.0912 127.803 87.5975L147.702 107.497C149.094 108.889 151.351 108.889 152.743 107.497C154.135 106.105 154.135 103.848 152.743 102.456L132.844 82.5566Z" fill="white"/>
<path d="M130.579 60.4631L127.17 63.8723L127.17 63.8723L130.579 60.4631ZM132.844 82.5566L128.817 79.9048L126.656 83.1869L129.435 85.9659L132.844 82.5566ZM105.71 85.3324L109.119 81.9231L105.71 85.3324ZM127.803 87.5975L131.212 84.1883L128.433 81.4095L125.151 83.5708L127.803 87.5975ZM147.702 107.497L151.112 104.088L147.702 107.497ZM127.17 63.8723C131.524 68.2262 132.078 74.9533 128.817 79.9048L136.871 85.2085C142.598 76.5118 141.643 64.708 133.989 57.0539L127.17 63.8723ZM109.119 63.8723C114.104 58.8877 122.186 58.8877 127.17 63.8723L133.989 57.0539C125.238 48.3035 111.051 48.3035 102.301 57.0539L109.119 63.8723ZM109.119 81.9231C104.135 76.9385 104.135 68.8569 109.119 63.8723L102.301 57.0539C93.5506 65.8042 93.5506 79.9913 102.301 88.7416L109.119 81.9231ZM125.151 83.5708C120.2 86.8314 113.473 86.2768 109.119 81.9231L102.301 88.7416C109.955 96.3955 121.758 97.351 130.455 91.6243L125.151 83.5708ZM151.112 104.088L131.212 84.1883L124.394 91.0068L144.293 110.906L151.112 104.088ZM149.334 104.088C149.825 103.597 150.621 103.597 151.112 104.088L144.293 110.906C147.568 114.181 152.878 114.181 156.153 110.906L149.334 104.088ZM149.334 105.865C148.843 105.374 148.843 104.579 149.334 104.088L156.153 110.906C159.428 107.631 159.428 102.322 156.153 99.0467L149.334 105.865ZM129.435 85.9659L149.334 105.865L156.153 99.0467L136.253 79.1474L129.435 85.9659Z" fill="#457B9D" mask="url(#path-23-inside-1_1572_168030)"/>
</svg>
