<svg width="171" height="101" viewBox="0 0 171 101" fill="none" xmlns="http://www.w3.org/2000/svg">
<g clip-path="url(#clip0_1572_167509)">
<path d="M117.992 96.5132C127.322 96.5132 134.885 88.9183 134.885 79.5496C134.885 70.1808 127.322 62.5859 117.992 62.5859C108.663 62.5859 101.1 70.1808 101.1 79.5496C101.1 88.9183 108.663 96.5132 117.992 96.5132Z" fill="#F7F7F7"/>
<path d="M63.2036 100.507C63.1996 100.507 63.1996 100.507 63.1957 100.507C63.0653 100.503 62.931 100.495 62.8006 100.491C62.69 100.487 62.607 100.391 62.611 100.284C62.6149 100.173 62.7097 100.09 62.8164 100.094C62.9468 100.098 63.0772 100.106 63.2115 100.11C63.3221 100.114 63.4051 100.205 63.4011 100.316C63.3972 100.423 63.3102 100.507 63.2036 100.507Z" fill="#85C74C"/>
<path d="M61.6277 100.427C61.6238 100.427 61.6198 100.427 61.6159 100.427C61.3551 100.411 61.0904 100.391 60.8257 100.371C60.7151 100.363 60.6361 100.268 60.644 100.157C60.6519 100.046 60.7467 99.9667 60.8573 99.9747C61.1181 99.9945 61.3828 100.014 61.6396 100.03C61.7502 100.038 61.8292 100.129 61.8253 100.24C61.8174 100.344 61.7305 100.427 61.6277 100.427ZM59.6602 100.268C59.6523 100.268 59.6484 100.268 59.6405 100.268C59.3797 100.244 59.115 100.217 58.8542 100.185C58.7476 100.173 58.6685 100.074 58.6804 99.9667C58.6923 99.8596 58.791 99.7803 58.8977 99.7922C59.1585 99.8199 59.4192 99.8477 59.68 99.8715C59.7866 99.8834 59.8696 99.9786 59.8578 100.09C59.8459 100.193 59.7629 100.268 59.6602 100.268ZM57.7006 100.046C57.6927 100.046 57.6848 100.046 57.6769 100.046C57.4161 100.01 57.1514 99.9747 56.8946 99.9389C56.7879 99.9231 56.7129 99.8239 56.7287 99.7128C56.7445 99.6057 56.8432 99.5303 56.9539 99.5462C57.2107 99.5819 57.4754 99.6176 57.7322 99.6533C57.8389 99.6692 57.9179 99.7683 57.9021 99.8755C57.8863 99.9747 57.7994 100.046 57.7006 100.046ZM55.7528 99.7604C55.741 99.7604 55.7331 99.7604 55.7212 99.7564C55.4604 99.7128 55.1997 99.6692 54.9429 99.6255C54.8362 99.6057 54.7651 99.5025 54.7809 99.3954C54.8006 99.2883 54.9034 99.2169 55.01 99.2327C55.2669 99.2764 55.5276 99.324 55.7844 99.3637C55.8911 99.3795 55.9662 99.4827 55.9464 99.5898C55.9306 99.689 55.8476 99.7604 55.7528 99.7604ZM53.809 99.4113C53.7971 99.4113 53.7853 99.4113 53.7695 99.4073C53.5127 99.3557 53.2519 99.3042 52.9951 99.2486C52.8884 99.2248 52.8213 99.1217 52.841 99.0145C52.8647 98.9074 52.9674 98.84 53.0741 98.8598C53.3309 98.9153 53.5917 98.9669 53.8445 99.0145C53.9512 99.0344 54.0223 99.1415 53.9986 99.2486C53.9868 99.3438 53.9038 99.4113 53.809 99.4113ZM51.881 98.9987C51.8652 98.9987 51.8533 98.9987 51.8375 98.9947C51.5807 98.9352 51.3239 98.8757 51.0671 98.8122C50.9604 98.7884 50.8972 98.6773 50.9209 98.5741C50.9446 98.467 51.0552 98.4035 51.158 98.4273C51.4108 98.4908 51.6676 98.5503 51.9244 98.6098C52.0311 98.6337 52.0983 98.7408 52.0746 98.8479C52.0508 98.9391 51.9718 98.9987 51.881 98.9987ZM49.9648 98.5305C49.949 98.5305 49.9332 98.5265 49.9134 98.5226C49.6566 98.4551 49.3998 98.3877 49.147 98.3163C49.0403 98.2885 48.981 98.1774 49.0087 98.0742C49.0363 97.9711 49.147 97.9076 49.2497 97.9354C49.4986 98.0028 49.7554 98.0742 50.0083 98.1417C50.1149 98.1695 50.1781 98.2766 50.1505 98.3837C50.1307 98.471 50.0517 98.5305 49.9648 98.5305ZM48.0644 97.9989C48.0447 97.9989 48.0289 97.9949 48.0091 97.9909C47.7563 97.9155 47.5034 97.8402 47.2505 97.7608C47.1478 97.7291 47.0886 97.618 47.1202 97.5109C47.1518 97.4077 47.2624 97.3482 47.3691 97.3799C47.618 97.4553 47.8708 97.5347 48.1237 97.61C48.2264 97.6418 48.2896 97.7529 48.258 97.856C48.2264 97.9433 48.1513 97.9989 48.0644 97.9989ZM46.1799 97.4077C46.1601 97.4077 46.1404 97.4037 46.1166 97.3958C45.8677 97.3125 45.6149 97.2292 45.366 97.1419C45.2633 97.1062 45.2079 96.9951 45.2435 96.888C45.2791 96.7848 45.3897 96.7293 45.4964 96.765C45.7453 96.8523 45.9942 96.9356 46.2431 97.0189C46.3458 97.0546 46.4011 97.1657 46.3695 97.2688C46.3418 97.3522 46.2628 97.4077 46.1799 97.4077ZM44.3151 96.757C44.2913 96.757 44.2716 96.7531 44.2479 96.7451C44.0029 96.6539 43.7501 96.5626 43.5051 96.4674C43.4024 96.4277 43.351 96.3127 43.3906 96.2135C43.4301 96.1103 43.5446 96.0588 43.6434 96.0984C43.8884 96.1897 44.1373 96.2849 44.3822 96.3722C44.4849 96.4079 44.5363 96.523 44.5007 96.6261C44.4731 96.7055 44.398 96.757 44.3151 96.757ZM42.4739 96.0508C42.4502 96.0508 42.4265 96.0469 42.3989 96.035C42.1539 95.9358 41.909 95.8366 41.664 95.7334C41.5613 95.6898 41.5139 95.5747 41.5574 95.4755C41.6008 95.3764 41.7154 95.3248 41.8142 95.3684C42.0552 95.4676 42.3001 95.5708 42.5451 95.666C42.6478 95.7057 42.6952 95.8207 42.6557 95.9239C42.6241 96.0032 42.549 96.0508 42.4739 96.0508ZM40.6526 95.2851C40.6249 95.2851 40.6012 95.2811 40.5736 95.2692C40.3326 95.1621 40.0876 95.055 39.8506 94.9479C39.7518 94.9042 39.7083 94.7852 39.7518 94.686C39.7953 94.5868 39.9138 94.5432 40.0126 94.5868C40.2496 94.694 40.4946 94.8011 40.7316 94.9082C40.8304 94.9518 40.8778 95.0709 40.8343 95.1701C40.7988 95.2415 40.7277 95.2851 40.6526 95.2851ZM38.855 94.4638C38.8273 94.4638 38.7996 94.4559 38.772 94.444C38.5349 94.3289 38.2939 94.2139 38.0569 94.0988C37.9581 94.0512 37.9186 93.9322 37.966 93.833C38.0134 93.7338 38.132 93.6942 38.2307 93.7418C38.4638 93.8568 38.7048 93.9719 38.9419 94.0869C39.0406 94.1345 39.0841 94.2536 39.0367 94.3528C38.9972 94.4202 38.9261 94.4638 38.855 94.4638ZM37.085 93.5831C37.0534 93.5831 37.0218 93.5751 36.9941 93.5593C36.761 93.4363 36.5239 93.3133 36.2908 93.1903C36.196 93.1387 36.1565 93.0197 36.2079 92.9205C36.2592 92.8253 36.3778 92.7856 36.4765 92.8372C36.7057 92.9602 36.9427 93.0832 37.1758 93.2022C37.2746 93.2538 37.3102 93.3728 37.2628 93.468C37.2233 93.5434 37.1561 93.5831 37.085 93.5831ZM35.3426 92.6507C35.311 92.6507 35.2755 92.6428 35.2478 92.6269C35.0187 92.4999 34.7856 92.369 34.5564 92.2381C34.4616 92.1825 34.43 92.0635 34.4813 91.9683C34.5367 91.8731 34.6552 91.8413 34.75 91.8929C34.9792 92.0238 35.2083 92.1548 35.4375 92.2817C35.5323 92.3333 35.5678 92.4563 35.5125 92.5515C35.477 92.615 35.4098 92.6507 35.3426 92.6507ZM168.834 91.889C168.831 91.889 168.831 91.889 168.827 91.889C168.562 91.881 168.297 91.8691 168.036 91.8572C167.926 91.8533 167.843 91.758 167.847 91.6509C167.851 91.5398 167.946 91.4565 168.052 91.4605C168.313 91.4724 168.578 91.4843 168.838 91.4922C168.949 91.4962 169.032 91.5874 169.028 91.6985C169.028 91.8017 168.941 91.889 168.834 91.889ZM166.867 91.7898C166.863 91.7898 166.859 91.7898 166.855 91.7898C166.594 91.7739 166.33 91.7541 166.069 91.7342C165.958 91.7263 165.879 91.6311 165.887 91.52C165.895 91.4089 165.99 91.3295 166.1 91.3375C166.361 91.3573 166.622 91.3772 166.883 91.393C166.993 91.401 167.072 91.4962 167.068 91.6033C167.057 91.7104 166.97 91.7898 166.867 91.7898ZM33.6319 91.6589C33.5964 91.6589 33.5608 91.6509 33.5292 91.6311C33.3 91.4962 33.0748 91.3573 32.8496 91.2185C32.7548 91.1629 32.7272 91.0399 32.7864 90.9447C32.8417 90.8495 32.9642 90.8217 33.059 90.8812C33.2803 91.0161 33.5055 91.155 33.7307 91.2899C33.8255 91.3454 33.8532 91.4684 33.7979 91.5636C33.7623 91.6271 33.6991 91.6589 33.6319 91.6589ZM164.903 91.635C164.895 91.635 164.891 91.635 164.884 91.635C164.623 91.6112 164.358 91.5835 164.097 91.5557C163.991 91.5438 163.912 91.4446 163.924 91.3375C163.935 91.2304 164.034 91.151 164.141 91.1629C164.398 91.1907 164.662 91.2185 164.923 91.2423C165.034 91.2542 165.113 91.3494 165.101 91.4565C165.089 91.5597 165.006 91.635 164.903 91.635ZM162.948 91.4208C162.94 91.4208 162.932 91.4208 162.924 91.4208C162.663 91.3891 162.398 91.3533 162.142 91.3176C162.035 91.3018 161.96 91.2026 161.972 91.0955C161.984 90.9883 162.086 90.913 162.193 90.9249C162.45 90.9606 162.711 90.9963 162.971 91.028C163.078 91.0399 163.157 91.1391 163.141 91.2502C163.129 91.3494 163.042 91.4208 162.948 91.4208ZM160.996 91.147C160.984 91.147 160.976 91.147 160.964 91.1431C160.704 91.1034 160.443 91.0598 160.186 91.0121C160.079 90.9923 160.008 90.8892 160.024 90.782C160.044 90.6749 160.146 90.6035 160.253 90.6194C160.506 90.663 160.767 90.7067 161.028 90.7463C161.134 90.7622 161.209 90.8654 161.193 90.9725C161.174 91.0756 161.091 91.147 160.996 91.147ZM159.056 90.8019C159.044 90.8019 159.032 90.8019 159.017 90.7979C158.76 90.7463 158.499 90.6947 158.242 90.6392C158.136 90.6154 158.068 90.5122 158.088 90.4051C158.112 90.298 158.215 90.2306 158.321 90.2504C158.574 90.302 158.835 90.3575 159.092 90.4051C159.198 90.425 159.269 90.5321 159.25 90.6392C159.234 90.7384 159.151 90.8019 159.056 90.8019ZM31.9528 90.6154C31.9172 90.6154 31.8777 90.6035 31.8461 90.5837C31.6249 90.4408 31.3997 90.294 31.1824 90.1472C31.0915 90.0877 31.0678 89.9647 31.1271 89.8735C31.1863 89.7822 31.3088 89.7584 31.3997 89.8179C31.617 89.9608 31.8382 90.1076 32.0595 90.2504C32.1503 90.3099 32.178 90.4329 32.1187 90.5241C32.0792 90.5837 32.016 90.6154 31.9528 90.6154ZM157.132 90.3932C157.116 90.3932 157.1 90.3932 157.089 90.3893C156.832 90.3298 156.575 90.2663 156.322 90.2028C156.215 90.175 156.152 90.0679 156.18 89.9608C156.208 89.8537 156.314 89.7902 156.421 89.8179C156.674 89.8814 156.931 89.9409 157.183 90.0004C157.29 90.0243 157.357 90.1314 157.33 90.2385C157.302 90.3297 157.223 90.3932 157.132 90.3932ZM155.224 89.9052C155.208 89.9052 155.188 89.9013 155.172 89.8973C154.916 89.8259 154.663 89.7545 154.414 89.6791C154.307 89.6473 154.248 89.5402 154.279 89.4331C154.311 89.326 154.422 89.2665 154.524 89.2982C154.773 89.3696 155.026 89.441 155.279 89.5124C155.386 89.5402 155.445 89.6513 155.417 89.7545C155.39 89.8497 155.311 89.9052 155.224 89.9052ZM30.3092 89.5124C30.2697 89.5124 30.2302 89.5005 30.1986 89.4767C29.9813 89.326 29.764 89.1712 29.5507 89.0205C29.4598 88.957 29.44 88.834 29.5033 88.7428C29.5665 88.6515 29.689 88.6317 29.7798 88.6951C29.9932 88.8459 30.2105 89.0006 30.4238 89.1474C30.5147 89.2109 30.5344 89.3339 30.4752 89.4252C30.4317 89.4847 30.3725 89.5124 30.3092 89.5124ZM153.335 89.3458C153.315 89.3458 153.296 89.3419 153.276 89.3379C153.027 89.2585 152.774 89.1752 152.525 89.0879C152.423 89.0522 152.367 88.9411 152.403 88.838C152.438 88.7348 152.549 88.6793 152.652 88.715C152.897 88.7983 153.15 88.8816 153.394 88.961C153.497 88.9927 153.556 89.1078 153.521 89.2109C153.497 89.2903 153.418 89.3458 153.335 89.3458ZM151.474 88.7031C151.451 88.7031 151.427 88.6991 151.407 88.6912C151.158 88.5999 150.909 88.5047 150.668 88.4095C150.566 88.3698 150.518 88.2548 150.558 88.1516C150.597 88.0484 150.712 88.0008 150.815 88.0405C151.056 88.1357 151.301 88.227 151.549 88.3182C151.652 88.3579 151.704 88.469 151.668 88.5722C151.628 88.6515 151.553 88.7031 151.474 88.7031ZM28.7012 88.3579C28.6617 88.3579 28.6183 88.346 28.5827 88.3182C28.3694 88.1595 28.156 88.0008 27.9506 87.8382C27.8637 87.7707 27.8478 87.6477 27.915 87.5605C27.9822 87.4732 28.1047 87.4573 28.1916 87.5247C28.397 87.6834 28.6104 87.8421 28.8198 88.0008C28.9067 88.0643 28.9264 88.1913 28.8593 88.2786C28.8198 88.3301 28.7605 88.3579 28.7012 88.3579ZM149.641 87.9731C149.617 87.9731 149.59 87.9691 149.566 87.9572C149.325 87.854 149.08 87.7469 148.839 87.6398C148.74 87.5962 148.693 87.4771 148.74 87.3779C148.784 87.2788 148.902 87.2311 149.001 87.2788C149.238 87.3859 149.479 87.489 149.72 87.5922C149.819 87.6358 149.866 87.7509 149.827 87.854C149.791 87.9294 149.716 87.9731 149.641 87.9731ZM147.847 87.1597C147.82 87.1597 147.788 87.1518 147.761 87.1399C147.523 87.0248 147.282 86.9058 147.049 86.7868C146.951 86.7392 146.915 86.6162 146.962 86.521C147.01 86.4258 147.132 86.3861 147.227 86.4337C147.46 86.5527 147.693 86.6678 147.93 86.7828C148.029 86.8304 148.069 86.9495 148.021 87.0486C147.99 87.1201 147.919 87.1597 147.847 87.1597ZM27.1367 87.1518C27.0932 87.1518 27.0498 87.1359 27.0142 87.1082C26.8088 86.9415 26.5994 86.7749 26.3979 86.6083C26.3149 86.5368 26.3031 86.4139 26.3702 86.3305C26.4374 86.2472 26.5638 86.2314 26.6468 86.3028C26.8483 86.4694 27.0537 86.636 27.2592 86.7987C27.3461 86.8661 27.3579 86.9931 27.2908 87.0764C27.2513 87.124 27.192 87.1518 27.1367 87.1518ZM146.093 86.2551C146.062 86.2551 146.03 86.2472 145.998 86.2314C145.765 86.1044 145.532 85.9735 145.307 85.8425C145.212 85.787 145.181 85.668 145.236 85.5727C145.291 85.4775 145.41 85.4458 145.505 85.5013C145.73 85.6323 145.959 85.7592 146.188 85.8862C146.283 85.9378 146.318 86.0607 146.267 86.156C146.232 86.2194 146.164 86.2551 146.093 86.2551ZM25.6117 85.8862C25.5682 85.8862 25.5208 85.8703 25.4852 85.8386C25.2837 85.668 25.0822 85.4934 24.8847 85.3188C24.8017 85.2474 24.7938 85.1205 24.8649 85.0371C24.9361 84.9538 25.0625 84.9459 25.1455 85.0173C25.343 85.1919 25.5405 85.3664 25.742 85.537C25.825 85.6085 25.8329 85.7354 25.7657 85.8148C25.7223 85.8624 25.667 85.8862 25.6117 85.8862ZM144.39 85.2593C144.355 85.2593 144.319 85.2514 144.288 85.2276C144.063 85.0887 143.837 84.9419 143.616 84.7991C143.525 84.7396 143.498 84.6166 143.557 84.5253C143.616 84.4341 143.739 84.4063 143.829 84.4658C144.047 84.6087 144.268 84.7515 144.493 84.8864C144.584 84.9459 144.616 85.0649 144.556 85.1601C144.521 85.2276 144.454 85.2593 144.39 85.2593ZM24.134 84.573C24.0866 84.573 24.0392 84.5571 23.9997 84.5214C23.8061 84.3428 23.6125 84.1603 23.4189 83.9778C23.3399 83.9025 23.336 83.7755 23.411 83.6961C23.4861 83.6168 23.6125 83.6128 23.6915 83.6882C23.8812 83.8667 24.0748 84.0492 24.2684 84.2278C24.3474 84.3032 24.3553 84.4261 24.2802 84.5095C24.2407 84.5491 24.1854 84.573 24.134 84.573ZM142.743 84.1722C142.703 84.1722 142.664 84.1603 142.628 84.1365C142.411 83.9858 142.194 83.8271 141.984 83.6723C141.897 83.6089 141.878 83.4819 141.941 83.3946C142.004 83.3073 142.131 83.2875 142.217 83.351C142.427 83.5057 142.64 83.6604 142.854 83.8112C142.944 83.8747 142.964 83.9977 142.901 84.0889C142.865 84.1405 142.802 84.1722 142.743 84.1722ZM22.7038 83.2042C22.6525 83.2042 22.6051 83.1843 22.5655 83.1486C22.3799 82.9622 22.1902 82.7757 22.0045 82.5852C21.9295 82.5059 21.9295 82.3829 22.0085 82.3036C22.0875 82.2282 22.21 82.2282 22.289 82.3075C22.4707 82.494 22.6604 82.6844 22.8461 82.8669C22.9251 82.9423 22.9251 83.0693 22.8461 83.1486C22.8026 83.1843 22.7552 83.2042 22.7038 83.2042ZM141.159 82.9899C141.115 82.9899 141.072 82.9741 141.036 82.9463C140.831 82.7836 140.621 82.613 140.42 82.4424C140.337 82.371 140.325 82.248 140.392 82.1647C140.463 82.0814 140.586 82.0695 140.669 82.1369C140.87 82.3036 141.076 82.4702 141.281 82.6329C141.368 82.7003 141.38 82.8273 141.313 82.9106C141.273 82.9622 141.218 82.9899 141.159 82.9899ZM21.321 81.7838C21.2697 81.7838 21.2143 81.764 21.1788 81.7203C20.997 81.5299 20.8193 81.3315 20.6415 81.1371C20.5664 81.0578 20.5743 80.9308 20.6533 80.8554C20.7323 80.7801 20.8588 80.788 20.9338 80.8673C21.1116 81.0617 21.2894 81.2561 21.4672 81.4466C21.5423 81.5259 21.5383 81.6529 21.4593 81.7283C21.4198 81.768 21.3724 81.7838 21.321 81.7838ZM139.645 81.7124C139.598 81.7124 139.551 81.6965 139.515 81.6608C139.318 81.4863 139.12 81.3038 138.926 81.1213C138.847 81.0459 138.843 80.9189 138.919 80.8396C138.994 80.7602 139.12 80.7562 139.199 80.8316C139.389 81.0102 139.586 81.1887 139.78 81.3633C139.863 81.4347 139.867 81.5616 139.796 81.645C139.752 81.6886 139.701 81.7124 139.645 81.7124ZM19.879 80.4825C19.8078 80.4825 19.7407 80.4825 19.6696 80.4825C19.5589 80.4825 19.472 80.3912 19.476 80.2802C19.476 80.173 19.5668 80.0857 19.6735 80.0857H19.6775C19.6854 80.0857 19.6972 80.0857 19.7051 80.0857C19.5787 79.9389 19.4562 79.7922 19.3298 79.6493C19.2587 79.566 19.2705 79.439 19.3535 79.3716C19.4365 79.3002 19.5629 79.3121 19.6301 79.3954C19.7999 79.5938 19.9698 79.7961 20.1437 79.9945C20.1674 80.0223 20.1832 80.054 20.1871 80.0857C20.274 80.0818 20.361 80.0818 20.4479 80.0778C20.5585 80.0738 20.6494 80.1572 20.6533 80.2682C20.6573 80.3793 20.5743 80.4706 20.4637 80.4746C20.274 80.4746 20.0765 80.4825 19.879 80.4825ZM18.4922 80.4111C18.4843 80.4111 18.4803 80.4111 18.4724 80.4111C18.2077 80.3833 17.943 80.3516 17.6783 80.3079C17.5716 80.2921 17.4966 80.1889 17.5124 80.0818C17.5282 79.9747 17.6309 79.8993 17.7376 79.9151C17.9944 79.9548 18.2551 79.9866 18.508 80.0143C18.6147 80.0262 18.6976 80.1215 18.6858 80.2325C18.6779 80.3357 18.591 80.4111 18.4922 80.4111ZM21.641 80.3635C21.5423 80.3635 21.4593 80.2921 21.4474 80.1929C21.4316 80.0857 21.5067 79.9826 21.6173 79.9707C21.8741 79.935 22.1309 79.8913 22.3838 79.8398C22.4905 79.816 22.5932 79.8874 22.6169 79.9945C22.6367 80.1016 22.5695 80.2048 22.4628 80.2286C22.2021 80.2802 21.9374 80.3278 21.6726 80.3635C21.6568 80.3635 21.6489 80.3635 21.641 80.3635ZM138.211 80.3476C138.16 80.3476 138.109 80.3278 138.073 80.2881C137.887 80.1016 137.702 79.9072 137.52 79.7128C137.445 79.6335 137.449 79.5065 137.528 79.4311C137.607 79.3557 137.733 79.3597 137.808 79.439C137.99 79.6295 138.172 79.8199 138.357 80.0064C138.433 80.0857 138.433 80.2087 138.357 80.2881C138.31 80.3278 138.259 80.3476 138.211 80.3476ZM16.5444 80.0818C16.5286 80.0818 16.5128 80.0818 16.497 80.0778C16.2402 80.0143 15.9795 79.9469 15.7226 79.8715C15.6199 79.8398 15.5567 79.7287 15.5883 79.6255C15.6199 79.5224 15.7305 79.4589 15.8333 79.4906C16.0822 79.566 16.335 79.6335 16.5879 79.693C16.6946 79.7168 16.7578 79.8239 16.7341 79.931C16.7143 80.0223 16.6353 80.0818 16.5444 80.0818ZM23.5651 79.9389C23.4821 79.9389 23.4031 79.8834 23.3755 79.8001C23.3439 79.6969 23.4031 79.5858 23.5058 79.5501C23.7548 79.4748 23.9997 79.3875 24.2368 79.2923C24.3395 79.2526 24.4541 79.3042 24.4936 79.4033C24.5331 79.5065 24.4817 79.6216 24.3829 79.6612C24.138 79.7564 23.8812 79.8477 23.6244 79.927C23.6046 79.935 23.5849 79.9389 23.5651 79.9389ZM14.6599 79.4986C14.6362 79.4986 14.6125 79.4946 14.5887 79.4867C14.3398 79.3914 14.0909 79.2883 13.8499 79.1772C13.7512 79.1336 13.7038 79.0145 13.7512 78.9153C13.7946 78.8162 13.9131 78.7725 14.0119 78.8162C14.249 78.9233 14.49 79.0225 14.731 79.1177C14.8337 79.1574 14.8851 79.2724 14.8456 79.3756C14.8139 79.447 14.7389 79.4986 14.6599 79.4986ZM25.3865 79.1812C25.3153 79.1812 25.2482 79.1415 25.2126 79.074C25.1613 78.9788 25.1968 78.8558 25.2956 78.8043C25.5247 78.6813 25.7499 78.5503 25.9633 78.4154C26.0542 78.3559 26.1766 78.3837 26.2359 78.475C26.2952 78.5662 26.2675 78.6892 26.1766 78.7487C25.9514 78.8915 25.7183 79.0264 25.4813 79.1534C25.4497 79.1772 25.4181 79.1812 25.3865 79.1812ZM136.86 78.8995C136.805 78.8995 136.749 78.8757 136.71 78.832C136.536 78.6337 136.362 78.4313 136.192 78.225C136.121 78.1417 136.133 78.0147 136.216 77.9473C136.299 77.8759 136.426 77.8878 136.493 77.9711C136.659 78.1734 136.832 78.3718 137.002 78.5702C137.073 78.6535 137.066 78.7765 136.983 78.8519C136.955 78.8836 136.908 78.8995 136.86 78.8995ZM18.7293 78.7963C18.67 78.7963 18.6147 78.7725 18.5752 78.7209C18.4092 78.5146 18.2433 78.3044 18.0813 78.098C18.0141 78.0108 18.03 77.8878 18.1169 77.8203C18.2038 77.7529 18.3263 77.7687 18.3934 77.856C18.5554 78.0623 18.7174 78.2686 18.8833 78.475C18.9505 78.5583 18.9387 78.6852 18.8517 78.7527C18.8162 78.7844 18.7727 78.7963 18.7293 78.7963ZM12.8701 78.6614C12.8385 78.6614 12.8069 78.6535 12.7753 78.6376C12.5422 78.5067 12.3091 78.3718 12.0839 78.229C11.993 78.1695 11.9654 78.0465 12.0207 77.9552C12.0799 77.864 12.2024 77.8362 12.2933 77.8917C12.5106 78.0306 12.7358 78.1615 12.9649 78.2885C13.0598 78.3401 13.0953 78.4631 13.044 78.5583C13.0084 78.6257 12.9412 78.6614 12.8701 78.6614ZM27.03 78.0901C26.9747 78.0901 26.9154 78.0663 26.8759 78.0187C26.8048 77.9354 26.8206 77.8084 26.9036 77.741C27.1011 77.5783 27.2947 77.4037 27.4804 77.2252C27.5594 77.1498 27.6819 77.1498 27.7609 77.2292C27.836 77.3085 27.836 77.4315 27.757 77.5109C27.5634 77.6973 27.3619 77.8798 27.1564 78.0504C27.1169 78.0742 27.0735 78.0901 27.03 78.0901ZM11.2147 77.5862C11.1752 77.5862 11.1317 77.5743 11.0962 77.5466C10.8868 77.3879 10.6734 77.2252 10.468 77.0586C10.3811 76.9911 10.3692 76.8642 10.4364 76.7808C10.5036 76.6936 10.63 76.6817 10.7129 76.7491C10.9144 76.9118 11.1238 77.0744 11.3293 77.2292C11.4162 77.2926 11.436 77.4196 11.3688 77.5069C11.3372 77.5585 11.2779 77.5862 11.2147 77.5862ZM135.608 77.368C135.548 77.368 135.489 77.3403 135.45 77.2926C135.288 77.0824 135.13 76.8681 134.972 76.6539C134.908 76.5666 134.928 76.4396 135.015 76.3762C135.102 76.3127 135.228 76.3325 135.292 76.4198C135.446 76.6301 135.604 76.8443 135.762 77.0506C135.829 77.1379 135.813 77.2609 135.726 77.3284C135.695 77.3561 135.651 77.368 135.608 77.368ZM17.5203 77.2331C17.461 77.2331 17.4018 77.2054 17.3623 77.1538C17.2042 76.9435 17.0462 76.7253 16.8961 76.5111C16.8328 76.4238 16.8526 76.2968 16.9395 76.2333C17.0264 76.1699 17.1529 76.1897 17.2161 76.277C17.3702 76.4912 17.5242 76.7055 17.6823 76.9157C17.7455 77.003 17.7297 77.126 17.6428 77.1935C17.5993 77.2173 17.5598 77.2331 17.5203 77.2331ZM28.4168 76.6817C28.3733 76.6817 28.3299 76.6658 28.2943 76.638C28.2113 76.5706 28.1955 76.4436 28.2666 76.3603C28.4286 76.1619 28.5827 75.9516 28.7289 75.7374C28.7921 75.6461 28.9146 75.6263 29.0055 75.6858C29.0963 75.7493 29.1161 75.8723 29.0568 75.9635C28.9067 76.1857 28.7447 76.4039 28.5748 76.6102C28.5313 76.6579 28.4721 76.6817 28.4168 76.6817ZM9.68967 76.3325C9.64226 76.3325 9.59485 76.3167 9.5593 76.2809C9.3657 76.1064 9.16816 75.9239 8.97852 75.7374C8.8995 75.662 8.89555 75.5351 8.97457 75.4557C9.04963 75.3764 9.17606 75.3724 9.25508 75.4517C9.44472 75.6342 9.63436 75.8128 9.82796 75.9874C9.91092 76.0588 9.91487 76.1857 9.84376 76.269C9.8003 76.3127 9.74499 76.3325 9.68967 76.3325ZM134.454 75.7652C134.391 75.7652 134.328 75.7334 134.292 75.6779C134.146 75.4597 134 75.2335 133.857 75.0114C133.798 74.9201 133.826 74.7971 133.917 74.7376C134.008 74.6781 134.13 74.7059 134.189 74.7971C134.328 75.0153 134.474 75.2375 134.62 75.4557C134.679 75.547 134.656 75.67 134.569 75.7295C134.533 75.7533 134.494 75.7652 134.454 75.7652ZM16.3745 75.6184C16.3113 75.6184 16.2481 75.5866 16.2126 75.5311C16.0624 75.3129 15.9162 75.0907 15.7701 74.8685C15.7108 74.7773 15.7345 74.6543 15.8254 74.5948C15.9162 74.5353 16.0387 74.5591 16.098 74.6503C16.2402 74.8685 16.3903 75.0907 16.5365 75.3049C16.5997 75.3962 16.576 75.5192 16.4852 75.5827C16.4496 75.6065 16.4101 75.6184 16.3745 75.6184ZM29.5033 75.0352C29.4717 75.0352 29.44 75.0272 29.4084 75.0114C29.3136 74.9598 29.2781 74.8408 29.3294 74.7416C29.4519 74.5154 29.5665 74.2813 29.6731 74.0433C29.7166 73.9441 29.8351 73.9005 29.9339 73.9441C30.0327 73.9877 30.0761 74.1068 30.0327 74.206C29.9221 74.4519 29.8035 74.694 29.6771 74.928C29.6415 74.9955 29.5744 75.0352 29.5033 75.0352ZM8.27922 74.9479C8.22785 74.9479 8.17254 74.928 8.13698 74.8844C7.95524 74.694 7.77746 74.4956 7.59967 74.2972C7.52855 74.2139 7.53645 74.0909 7.61547 74.0155C7.69844 73.9441 7.82092 73.952 7.89598 74.0314C8.06982 74.2258 8.24761 74.4242 8.4254 74.6106C8.50046 74.69 8.49651 74.8169 8.4175 74.8923C8.37799 74.932 8.33058 74.9479 8.27922 74.9479ZM133.403 74.0909C133.336 74.0909 133.269 74.0552 133.233 73.9917C133.099 73.7656 132.969 73.5315 132.838 73.3014C132.787 73.2062 132.818 73.0832 132.913 73.0316C133.008 72.98 133.13 73.0117 133.182 73.107C133.308 73.3331 133.439 73.5632 133.569 73.7894C133.624 73.8846 133.593 74.0036 133.498 74.0592C133.474 74.079 133.439 74.0909 133.403 74.0909ZM15.2999 73.956C15.2327 73.956 15.1656 73.9203 15.13 73.8568C14.9957 73.6307 14.8653 73.3926 14.7389 73.1585C14.6875 73.0633 14.7231 72.9403 14.8218 72.8888C14.9167 72.8372 15.0391 72.8729 15.0905 72.9721C15.213 73.2022 15.3434 73.4323 15.4737 73.6545C15.5291 73.7497 15.4974 73.8687 15.4026 73.9243C15.371 73.9481 15.3355 73.956 15.2999 73.956ZM6.98333 73.4561C6.92407 73.4561 6.86876 73.4323 6.82925 73.3807C6.66331 73.1744 6.49738 72.9641 6.33934 72.7539C6.27218 72.6666 6.29193 72.5436 6.3749 72.4761C6.46182 72.4087 6.58429 72.4285 6.65146 72.5118C6.80949 72.7182 6.97148 72.9284 7.13347 73.1308C7.20063 73.2141 7.18878 73.341 7.10581 73.4085C7.07025 73.4442 7.02679 73.4561 6.98333 73.4561ZM30.2816 73.2181C30.2618 73.2181 30.2381 73.2141 30.2184 73.2062C30.1156 73.1704 30.0603 73.0594 30.0959 72.9562C30.1789 72.7142 30.2539 72.4603 30.3211 72.2103C30.3487 72.1032 30.4594 72.0437 30.5621 72.0715C30.6688 72.0992 30.728 72.2103 30.7004 72.3135C30.6293 72.5753 30.5542 72.8332 30.4673 73.0832C30.4436 73.1625 30.3645 73.2181 30.2816 73.2181ZM132.459 72.3531C132.388 72.3531 132.317 72.3135 132.281 72.246C132.163 72.0119 132.044 71.7699 131.929 71.5319C131.882 71.4327 131.925 71.3137 132.02 71.2661C132.119 71.2185 132.238 71.2621 132.285 71.3573C132.4 71.5954 132.514 71.8294 132.633 72.0635C132.684 72.1627 132.645 72.2817 132.546 72.3293C132.518 72.3452 132.49 72.3531 132.459 72.3531ZM14.3873 72.1984C14.3122 72.1984 14.2411 72.1548 14.2095 72.0834C14.0988 71.8413 13.9922 71.5954 13.8894 71.3494C13.846 71.2462 13.8973 71.1312 13.9961 71.0915C14.0988 71.0479 14.2134 71.0994 14.2529 71.1986C14.3517 71.4406 14.4584 71.6826 14.565 71.9167C14.6125 72.0159 14.569 72.1349 14.4663 72.1786C14.4426 72.1945 14.4149 72.1984 14.3873 72.1984ZM5.79807 71.8731C5.73486 71.8731 5.6756 71.8453 5.63609 71.7898C5.48595 71.5716 5.33582 71.3494 5.18964 71.1272C5.13038 71.0359 5.15408 70.913 5.24495 70.8534C5.33582 70.7939 5.4583 70.8177 5.51756 70.909C5.65979 71.1272 5.80993 71.3454 5.95611 71.5597C6.01932 71.6509 5.99562 71.7739 5.9087 71.8374C5.87709 71.8612 5.83758 71.8731 5.79807 71.8731ZM30.7715 71.2978C30.7596 71.2978 30.7478 71.2978 30.7359 71.2938C30.6293 71.274 30.5581 71.1708 30.5779 71.0637C30.6253 70.8098 30.6648 70.5519 30.6964 70.2901C30.7122 70.1829 30.811 70.1036 30.9177 70.1195C31.0243 70.1353 31.1034 70.2345 31.0876 70.3416C31.052 70.6075 31.0125 70.8773 30.9651 71.1351C30.9493 71.2304 30.8663 71.2978 30.7715 71.2978ZM131.617 70.5638C131.542 70.5638 131.467 70.5202 131.436 70.4448C131.329 70.2028 131.226 69.9568 131.127 69.7108C131.088 69.6077 131.135 69.4926 131.234 69.4529C131.337 69.4133 131.451 69.4609 131.491 69.5601C131.59 69.8021 131.692 70.0441 131.795 70.2861C131.839 70.3853 131.795 70.5043 131.692 70.548C131.669 70.5599 131.641 70.5638 131.617 70.5638ZM13.6484 70.3615C13.5655 70.3615 13.4904 70.3099 13.4627 70.2306C13.3758 69.9806 13.2929 69.7267 13.2138 69.4728C13.1822 69.3696 13.2415 69.2585 13.3442 69.2228C13.4469 69.1911 13.5576 69.2506 13.5931 69.3537C13.6682 69.6037 13.7512 69.8536 13.8381 70.0996C13.8736 70.2028 13.8183 70.3178 13.7156 70.3535C13.6919 70.3575 13.6721 70.3615 13.6484 70.3615ZM4.72739 70.2107C4.66022 70.2107 4.59306 70.175 4.5575 70.1155C4.42317 69.8894 4.28884 69.6553 4.15846 69.4252C4.10315 69.3299 4.13871 69.207 4.23353 69.1554C4.32835 69.0998 4.45083 69.1355 4.50219 69.2308C4.62862 69.4569 4.76295 69.687 4.89728 69.9132C4.95259 70.0084 4.92493 70.1274 4.83011 70.1869C4.79455 70.1988 4.759 70.2107 4.72739 70.2107ZM31.0046 69.3299C31.0006 69.3299 30.9967 69.3299 30.9927 69.3299C30.8821 69.322 30.7991 69.2308 30.807 69.1197C30.8228 68.8618 30.8308 68.5999 30.8347 68.3341C30.8347 68.223 30.9256 68.1357 31.0362 68.1397C31.1468 68.1397 31.2337 68.231 31.2298 68.342C31.2258 68.6118 31.214 68.8816 31.1982 69.1435C31.1942 69.2466 31.1073 69.3299 31.0046 69.3299ZM130.878 68.7269C130.799 68.7269 130.724 68.6793 130.693 68.596C130.602 68.35 130.511 68.0961 130.424 67.8461C130.389 67.743 130.444 67.6279 130.547 67.5922C130.649 67.5565 130.764 67.612 130.799 67.7152C130.886 67.9612 130.973 68.2111 131.064 68.4571C131.104 68.5603 131.048 68.6753 130.95 68.711C130.922 68.7229 130.898 68.7269 130.878 68.7269ZM3.76733 68.4769C3.69621 68.4769 3.6251 68.4373 3.58954 68.3698C3.46706 68.1318 3.34854 67.8937 3.23396 67.6557C3.18655 67.5565 3.23001 67.4375 3.32483 67.3899C3.4236 67.3422 3.54213 67.3859 3.58954 67.4811C3.70016 67.7152 3.81869 67.9532 3.93722 68.1873C3.98858 68.2865 3.94907 68.4055 3.8503 68.4531C3.82659 68.469 3.79893 68.4769 3.76733 68.4769ZM13.0795 68.465C12.9926 68.465 12.9096 68.4055 12.8899 68.3143C12.8267 68.0564 12.7634 67.7945 12.7081 67.5366C12.6844 67.4295 12.7516 67.3224 12.8583 67.3026C12.9649 67.2788 13.0716 67.3462 13.0914 67.4533C13.1467 67.7072 13.2059 67.9651 13.2692 68.2191C13.2968 68.3262 13.2336 68.4333 13.1269 68.4611C13.1151 68.4611 13.0953 68.465 13.0795 68.465ZM31.0164 67.3462C30.9098 67.3462 30.8228 67.2629 30.8189 67.1558C30.807 66.8979 30.7912 66.6321 30.7715 66.3702C30.7636 66.2591 30.8426 66.1639 30.9532 66.156C31.0639 66.148 31.1587 66.2274 31.1666 66.3385C31.1863 66.6043 31.2061 66.8741 31.214 67.1359C31.2179 67.247 31.135 67.3383 31.0243 67.3422C31.0204 67.3462 31.0204 67.3462 31.0164 67.3462ZM130.238 66.8503C130.155 66.8503 130.076 66.7947 130.049 66.7114C129.97 66.4615 129.895 66.2036 129.82 65.9497C129.788 65.8425 129.851 65.7354 129.954 65.7037C130.061 65.6719 130.167 65.7354 130.199 65.8386C130.27 66.0925 130.349 66.3464 130.424 66.5924C130.456 66.6955 130.396 66.8066 130.294 66.8423C130.278 66.8503 130.258 66.8503 130.238 66.8503ZM2.92579 66.6836C2.85073 66.6836 2.77566 66.64 2.74405 66.5646C2.63738 66.3186 2.53466 66.0727 2.43984 65.8267C2.40033 65.7235 2.44774 65.6085 2.55046 65.5688C2.65318 65.5291 2.76776 65.5767 2.80727 65.6799C2.90209 65.9219 3.00481 66.1679 3.10753 66.4099C3.15099 66.5091 3.10358 66.6281 3.00481 66.6717C2.97715 66.6797 2.9495 66.6836 2.92579 66.6836ZM12.6844 66.5249C12.5896 66.5249 12.5066 66.4535 12.4908 66.3583C12.4474 66.0965 12.4118 65.8306 12.3802 65.5648C12.3684 65.4577 12.4434 65.3585 12.5541 65.3426C12.6607 65.3307 12.7595 65.4061 12.7753 65.5172C12.8069 65.7751 12.8425 66.0369 12.8859 66.2948C12.9017 66.402 12.8306 66.5051 12.7239 66.521C12.7042 66.521 12.6923 66.5249 12.6844 66.5249ZM30.8426 65.3744C30.7438 65.3744 30.6609 65.303 30.6451 65.2038C30.6095 64.9459 30.5739 64.684 30.5305 64.4262C30.5107 64.319 30.5858 64.2159 30.6925 64.2C30.7991 64.1802 30.9019 64.2556 30.9177 64.3627C30.9611 64.6245 31.0006 64.8903 31.0362 65.1522C31.052 65.2593 30.973 65.3585 30.8663 65.3744C30.8584 65.3744 30.8505 65.3744 30.8426 65.3744ZM129.701 64.9459C129.614 64.9459 129.531 64.8864 129.512 64.7951C129.448 64.5412 129.385 64.2794 129.322 64.0215C129.298 63.9143 129.361 63.8072 129.468 63.7834C129.575 63.7596 129.681 63.8231 129.705 63.9302C129.764 64.1881 129.828 64.442 129.891 64.6959C129.918 64.8031 129.855 64.9102 129.749 64.938C129.737 64.9419 129.721 64.9459 129.701 64.9459ZM2.20279 64.8388C2.11982 64.8388 2.04475 64.7872 2.01709 64.7078C1.93018 64.4579 1.84326 64.204 1.76424 63.9501C1.73263 63.8469 1.78794 63.7358 1.89067 63.7001C1.99339 63.6684 2.10401 63.7239 2.13957 63.8271C2.21859 64.073 2.30156 64.327 2.38848 64.5729C2.42403 64.6761 2.37267 64.7912 2.266 64.8269C2.24625 64.8348 2.22649 64.8388 2.20279 64.8388ZM12.4592 64.5531C12.3565 64.5531 12.2696 64.4738 12.2617 64.3666C12.2419 64.1008 12.2301 63.831 12.2222 63.5692C12.2182 63.4581 12.3051 63.3668 12.4118 63.3629C12.5224 63.3589 12.6133 63.4462 12.6173 63.5533C12.6252 63.8112 12.637 64.077 12.6568 64.3389C12.6647 64.45 12.5817 64.5412 12.475 64.5491C12.4711 64.5531 12.4632 64.5531 12.4592 64.5531ZM30.5068 63.4224C30.4159 63.4224 30.3329 63.3589 30.3132 63.2637C30.2579 63.0098 30.1986 62.7519 30.1394 62.498C30.1117 62.3908 30.1789 62.2837 30.2855 62.2599C30.3922 62.2321 30.4989 62.2996 30.5226 62.4067C30.5858 62.6646 30.6451 62.9264 30.7004 63.1843C30.7241 63.2915 30.6569 63.3986 30.5502 63.4184C30.5344 63.4184 30.5186 63.4224 30.5068 63.4224ZM129.263 63.0137C129.172 63.0137 129.089 62.9503 129.069 62.855C129.018 62.5971 128.966 62.3353 128.919 62.0734C128.899 61.9663 128.97 61.8632 129.077 61.8433C129.184 61.8235 129.286 61.8949 129.306 62.002C129.353 62.2599 129.405 62.5218 129.456 62.7757C129.48 62.8828 129.409 62.986 129.302 63.0098C129.29 63.0137 129.274 63.0137 129.263 63.0137ZM1.61411 62.9463C1.52719 62.9463 1.44817 62.8868 1.42447 62.7995C1.39681 62.7043 1.3731 62.6091 1.3494 62.5138C1.30594 62.3551 1.26643 62.1885 1.22692 62.0258C1.20322 61.9187 1.26643 61.8116 1.3731 61.7878C1.47978 61.76 1.58645 61.8275 1.61016 61.9346C1.64966 62.0933 1.68917 62.2559 1.72868 62.4146C1.75239 62.5099 1.77609 62.6011 1.80375 62.6963C1.8314 62.8035 1.77214 62.9106 1.66547 62.9384C1.64966 62.9423 1.63386 62.9463 1.61411 62.9463ZM12.4197 62.5733H12.4158C12.3051 62.5694 12.2222 62.4781 12.2222 62.371C12.2301 62.1052 12.2419 61.8354 12.2577 61.5696C12.2656 61.4585 12.3605 61.3752 12.4671 61.3831C12.5778 61.391 12.6568 61.4863 12.6528 61.5934C12.637 61.8513 12.6252 62.1171 12.6173 62.3789C12.6133 62.4861 12.5264 62.5733 12.4197 62.5733ZM30.0169 61.5021C29.9339 61.5021 29.8549 61.4466 29.8272 61.3593C29.7522 61.1093 29.6731 60.8554 29.5862 60.6094C29.5507 60.5063 29.606 60.3912 29.7087 60.3555C29.8114 60.3198 29.926 60.3754 29.9616 60.4785C30.0485 60.7285 30.1275 60.9864 30.2065 61.2403C30.2381 61.3434 30.1789 61.4545 30.0761 61.4863C30.0564 61.4982 30.0366 61.5021 30.0169 61.5021ZM128.915 61.0617C128.82 61.0617 128.733 60.9903 128.721 60.8951C128.682 60.6372 128.642 60.3714 128.607 60.1056C128.591 59.9985 128.666 59.8953 128.777 59.8834C128.883 59.8675 128.986 59.9429 128.998 60.054C129.033 60.3159 129.073 60.5777 129.112 60.8356C129.128 60.9427 129.057 61.0459 128.947 61.0617C128.935 61.0617 128.923 61.0617 128.915 61.0617ZM1.16371 61.0141C1.07284 61.0141 0.98987 60.9506 0.970116 60.8554C0.918755 60.5975 0.871344 60.3317 0.823934 60.0699C0.804179 59.9628 0.879246 59.8596 0.985919 59.8398C1.09259 59.8199 1.19532 59.8953 1.21507 60.0024C1.25853 60.2603 1.30594 60.5222 1.3573 60.7761C1.37705 60.8832 1.30989 60.9864 1.20322 61.0102C1.19136 61.0141 1.17556 61.0141 1.16371 61.0141ZM12.5738 60.5975C12.5659 60.5975 12.5541 60.5975 12.5422 60.5936C12.4355 60.5777 12.3605 60.4746 12.3763 60.3674C12.4158 60.1056 12.4671 59.8358 12.5303 59.5739C12.5541 59.4668 12.6607 59.3994 12.7674 59.4271C12.8741 59.4509 12.9412 59.5581 12.9136 59.6652C12.8543 59.9191 12.803 60.173 12.7674 60.4269C12.7555 60.5301 12.6726 60.5975 12.5738 60.5975ZM29.361 59.6335C29.282 59.6335 29.2109 59.5858 29.1793 59.5105C29.0805 59.2684 28.9738 59.0264 28.8672 58.7923C28.8198 58.6932 28.8632 58.5741 28.9659 58.5305C29.0647 58.4829 29.1832 58.5265 29.2267 58.6297C29.3373 58.8677 29.444 59.1177 29.5428 59.3637C29.5823 59.4668 29.5349 59.5819 29.4361 59.6215C29.4084 59.6295 29.3847 59.6335 29.361 59.6335ZM128.658 59.0978C128.559 59.0978 128.472 59.0225 128.461 58.9193C128.433 58.6575 128.405 58.3916 128.382 58.1258C128.37 58.0147 128.453 57.9195 128.559 57.9116C128.67 57.9036 128.765 57.983 128.773 58.0901C128.796 58.352 128.824 58.6138 128.852 58.8757C128.864 58.9828 128.785 59.082 128.678 59.0939C128.67 59.0978 128.662 59.0978 128.658 59.0978ZM0.843688 59.0621C0.744916 59.0621 0.661948 58.9907 0.646145 58.8915C0.610587 58.6297 0.57898 58.3639 0.551324 58.098C0.539471 57.9909 0.618489 57.8917 0.725162 57.8798C0.835786 57.8679 0.930607 57.9473 0.94246 58.0544C0.970116 58.3162 1.00172 58.5781 1.03333 58.836C1.04913 58.9431 0.970116 59.0423 0.863442 59.0582C0.859492 59.0582 0.85159 59.0621 0.843688 59.0621ZM13.0637 58.6813C13.04 58.6813 13.0203 58.6773 12.9965 58.6694C12.8938 58.6336 12.8425 58.5186 12.878 58.4154C12.9689 58.1655 13.0716 57.9116 13.1822 57.6656C13.2257 57.5664 13.3442 57.5228 13.443 57.5664C13.5418 57.61 13.5852 57.7291 13.5418 57.8283C13.4351 58.0663 13.3363 58.3083 13.2494 58.5503C13.2217 58.6336 13.1467 58.6813 13.0637 58.6813ZM28.5155 57.8402C28.4444 57.8402 28.3773 57.8044 28.3417 57.737C28.2153 57.5069 28.0849 57.2768 27.9545 57.0586C27.8992 56.9633 27.9269 56.8443 28.0217 56.7848C28.1165 56.7293 28.235 56.757 28.2943 56.8523C28.4286 57.0744 28.563 57.3085 28.6933 57.5466C28.7447 57.6418 28.7091 57.7648 28.6143 57.8163C28.5788 57.8322 28.5472 57.8402 28.5155 57.8402ZM128.484 57.126C128.382 57.126 128.295 57.0467 128.287 56.9395C128.271 56.6777 128.255 56.4079 128.239 56.146C128.235 56.035 128.318 55.9437 128.425 55.9397C128.532 55.9358 128.627 56.0191 128.63 56.1262C128.642 56.3881 128.658 56.6539 128.674 56.9157C128.682 57.0268 128.599 57.1181 128.488 57.126C128.492 57.126 128.488 57.126 128.484 57.126ZM0.646145 57.0903C0.543422 57.0903 0.456503 57.011 0.448602 56.9038C0.428847 56.642 0.416995 56.3722 0.405142 56.1064C0.401191 55.9953 0.484159 55.904 0.594784 55.9001C0.701457 55.8961 0.796278 55.9794 0.800229 56.0905C0.812081 56.3524 0.827885 56.6182 0.843688 56.8761C0.85159 56.9872 0.768622 57.0784 0.661948 57.0863C0.654047 57.0863 0.650096 57.0903 0.646145 57.0903ZM13.9052 56.8919C13.8697 56.8919 13.8381 56.884 13.8065 56.8642C13.7117 56.8086 13.68 56.6856 13.7354 56.5944C13.8697 56.3643 14.0159 56.1341 14.17 55.9159C14.2332 55.8247 14.3556 55.8048 14.4465 55.8644C14.5374 55.9278 14.5571 56.0508 14.4979 56.1421C14.3517 56.3524 14.2095 56.5745 14.0791 56.7967C14.0396 56.8562 13.9724 56.8919 13.9052 56.8919ZM27.4646 56.1659C27.4054 56.1659 27.3421 56.1381 27.3066 56.0826C27.1525 55.8683 26.9905 55.662 26.8285 55.4676C26.7574 55.3843 26.7693 55.2573 26.8562 55.1899C26.9391 55.1185 27.0656 55.1304 27.1327 55.2177C27.2987 55.42 27.4646 55.6342 27.6266 55.8525C27.6898 55.9397 27.6701 56.0667 27.5831 56.1302C27.5476 56.154 27.5041 56.1659 27.4646 56.1659ZM15.0589 55.2851C15.0115 55.2851 14.968 55.2692 14.9285 55.2375C14.8456 55.1661 14.8377 55.0391 14.9088 54.9558C15.0866 54.7535 15.2722 54.5551 15.4619 54.3686C15.5409 54.2932 15.6634 54.2932 15.7424 54.3726C15.8175 54.4519 15.8175 54.5749 15.7384 54.6543C15.5567 54.8328 15.375 55.0233 15.2051 55.2177C15.1695 55.2653 15.1142 55.2851 15.0589 55.2851ZM128.397 55.1462C128.291 55.1462 128.204 55.059 128.2 54.9518C128.192 54.69 128.188 54.4202 128.188 54.1583C128.188 54.0473 128.275 53.96 128.386 53.96C128.492 53.96 128.583 54.0473 128.583 54.1583C128.587 54.4202 128.591 54.686 128.595 54.9479C128.599 55.059 128.512 55.1502 128.401 55.1502C128.401 55.1462 128.397 55.1462 128.397 55.1462ZM0.571078 55.1066C0.464405 55.1066 0.373535 55.0193 0.373535 54.9082C0.373535 54.8249 0.373535 54.7416 0.373535 54.6543C0.373535 54.4757 0.373535 54.2893 0.377486 54.1107C0.377486 53.9996 0.468356 53.9124 0.57898 53.9163C0.689604 53.9163 0.776523 54.0076 0.772573 54.1187C0.768622 54.2972 0.768622 54.4797 0.768622 54.6582C0.768622 54.7416 0.768622 54.8249 0.768622 54.9082C0.768622 55.0193 0.681703 55.1066 0.571078 55.1066ZM26.1766 54.6662C26.1253 54.6662 26.0779 54.6463 26.0384 54.6106C25.8527 54.4281 25.6591 54.2536 25.4615 54.0949C25.3786 54.0235 25.3667 53.9005 25.4339 53.8171C25.505 53.7338 25.6275 53.7219 25.7104 53.7894C25.9119 53.956 26.1174 54.1385 26.311 54.3289C26.39 54.4043 26.39 54.5313 26.3149 54.6106C26.2794 54.6463 26.228 54.6662 26.1766 54.6662ZM16.501 53.9362C16.4417 53.9362 16.3824 53.9084 16.3429 53.8568C16.2758 53.7695 16.2955 53.6465 16.3824 53.5791C16.5997 53.4164 16.8249 53.2617 17.0501 53.1228C17.141 53.0633 17.2635 53.0951 17.3227 53.1863C17.382 53.2776 17.3504 53.4006 17.2595 53.4601C17.0462 53.595 16.8289 53.7418 16.6234 53.8965C16.5839 53.9243 16.5444 53.9362 16.501 53.9362ZM24.6279 53.4482C24.5923 53.4482 24.5568 53.4402 24.5252 53.4204C24.3039 53.2855 24.0787 53.1625 23.8496 53.0514C23.7508 53.0038 23.7113 52.8848 23.7587 52.7856C23.8061 52.6864 23.9246 52.6467 24.0234 52.6944C24.2644 52.8094 24.5015 52.9403 24.7346 53.0832C24.8294 53.1387 24.857 53.2617 24.8017 53.3569C24.7583 53.4125 24.6951 53.4482 24.6279 53.4482ZM128.389 53.1625C128.385 53.1625 128.385 53.1625 128.389 53.1625C128.279 53.1625 128.192 53.0713 128.192 52.9602C128.196 52.6983 128.204 52.4285 128.212 52.1627C128.216 52.0516 128.306 51.9683 128.417 51.9723C128.528 51.9762 128.611 52.0675 128.607 52.1786C128.599 52.4404 128.591 52.7063 128.587 52.9681C128.583 53.0792 128.496 53.1625 128.389 53.1625ZM0.614538 53.1268C0.610587 53.1268 0.606636 53.1268 0.602685 53.1268C0.492061 53.1228 0.409093 53.0276 0.416995 52.9205C0.428847 52.6586 0.448602 52.3889 0.464405 52.123C0.472307 52.0119 0.567128 51.9326 0.673801 51.9405C0.784425 51.9485 0.863442 52.0437 0.855541 52.1548C0.835786 52.4166 0.819983 52.6824 0.80813 52.9403C0.80813 53.0435 0.721211 53.1268 0.614538 53.1268ZM18.2038 52.9364C18.1287 52.9364 18.0537 52.8927 18.022 52.8173C17.9786 52.7182 18.026 52.5991 18.1248 52.5555C18.3737 52.4484 18.6305 52.3531 18.8833 52.2738C18.9861 52.2421 19.0967 52.3016 19.1283 52.4047C19.1599 52.5079 19.1006 52.619 18.9979 52.6507C18.7569 52.7261 18.5159 52.8134 18.2789 52.9165C18.2551 52.9324 18.2275 52.9364 18.2038 52.9364ZM22.8303 52.6428C22.8105 52.6428 22.7947 52.6388 22.7749 52.6348C22.53 52.5634 22.2811 52.5039 22.0282 52.4603C21.9216 52.4404 21.8504 52.3373 21.8662 52.2302C21.886 52.123 21.9887 52.0516 22.0954 52.0675C22.3601 52.1151 22.6248 52.1746 22.8856 52.25C22.9922 52.2817 23.0515 52.3889 23.0199 52.496C22.9962 52.5872 22.9172 52.6428 22.8303 52.6428ZM20.0963 52.4166C19.9975 52.4166 19.9145 52.3412 19.8987 52.2421C19.8869 52.1349 19.9619 52.0358 20.0686 52.0199C20.3373 51.9842 20.6099 51.9683 20.8785 51.9683C20.9891 51.9683 21.0761 52.0556 21.0761 52.1667C21.0761 52.2778 20.9891 52.3651 20.8785 52.3651C20.6257 52.3651 20.3689 52.3849 20.116 52.4166C20.116 52.4166 20.1042 52.4166 20.0963 52.4166ZM128.457 51.1827C128.453 51.1827 128.449 51.1827 128.445 51.1827C128.334 51.1788 128.251 51.0836 128.259 50.9725C128.275 50.7066 128.291 50.4408 128.306 50.179C128.314 50.0679 128.409 49.9885 128.516 49.9965C128.627 50.0044 128.706 50.0996 128.698 50.2068C128.678 50.4686 128.662 50.7344 128.65 50.9963C128.646 51.1034 128.559 51.1827 128.457 51.1827ZM0.768622 51.151C0.76072 51.151 0.752818 51.151 0.748867 51.151C0.642194 51.1391 0.563177 51.0399 0.575029 50.9328C0.602685 50.6709 0.634292 50.4051 0.665899 50.1393C0.677752 50.0322 0.776523 49.9528 0.887148 49.9687C0.993821 49.9806 1.07284 50.0838 1.05703 50.1909C1.02543 50.4527 0.993821 50.7146 0.966165 50.9725C0.954312 51.0756 0.867393 51.151 0.768622 51.151ZM128.599 49.2069C128.591 49.2069 128.587 49.2069 128.579 49.2069C128.472 49.195 128.389 49.0998 128.401 48.9927C128.425 48.7309 128.453 48.4611 128.48 48.1992C128.492 48.0921 128.591 48.0127 128.698 48.0246C128.804 48.0365 128.883 48.1357 128.871 48.2429C128.844 48.5047 128.816 48.7666 128.792 49.0284C128.788 49.1316 128.702 49.2069 128.599 49.2069ZM1.02938 49.1871C1.01753 49.1871 1.00962 49.1871 0.997772 49.1831C0.891098 49.1673 0.816032 49.0641 0.831835 48.957C0.871344 48.6951 0.918755 48.4333 0.966165 48.1714C0.985919 48.0643 1.08864 47.9929 1.19532 48.0127C1.30199 48.0326 1.3731 48.1357 1.35335 48.2429C1.30594 48.5007 1.26248 48.7626 1.22297 49.0205C1.20717 49.1157 1.1242 49.1871 1.02938 49.1871ZM1.38496 47.2391C1.3731 47.2391 1.3573 47.2391 1.34545 47.2351C1.23877 47.2113 1.17161 47.1082 1.19136 47.001C1.24668 46.7432 1.30199 46.4813 1.36125 46.2234C1.38496 46.1163 1.49163 46.0488 1.5983 46.0766C1.70498 46.1004 1.77214 46.2075 1.74449 46.3147C1.68522 46.5686 1.62991 46.8304 1.5746 47.0844C1.55879 47.1716 1.47978 47.2391 1.38496 47.2391ZM128.816 47.2351C128.808 47.2351 128.8 47.2351 128.792 47.2351C128.686 47.2192 128.607 47.1201 128.623 47.0129C128.65 46.8106 128.678 46.6043 128.706 46.398L128.729 46.2234C128.745 46.1163 128.844 46.0409 128.954 46.0568C129.061 46.0726 129.136 46.1718 129.12 46.2829L129.097 46.4575C129.069 46.6598 129.041 46.8661 129.014 47.0645C128.998 47.1637 128.915 47.2351 128.816 47.2351ZM91.3699 45.7037C91.2592 45.7037 91.1723 45.6164 91.1723 45.5053C91.1723 45.3942 91.2592 45.3069 91.3699 45.3069C91.6306 45.3069 91.8953 45.3069 92.16 45.303C92.2667 45.303 92.3576 45.3902 92.3576 45.5013C92.3576 45.6124 92.2707 45.6997 92.16 45.6997C91.8993 45.7037 91.6306 45.7037 91.3699 45.7037ZM90.1846 45.6997C89.9199 45.6957 89.6552 45.6957 89.3905 45.6918C89.2799 45.6918 89.1929 45.6005 89.1969 45.4894C89.1969 45.3783 89.2878 45.295 89.3984 45.295C89.6591 45.299 89.9238 45.303 90.1846 45.303C90.2952 45.303 90.3821 45.3942 90.3821 45.5013C90.3821 45.6124 90.2952 45.6997 90.1846 45.6997ZM93.3453 45.6838C93.2386 45.6838 93.1517 45.5966 93.1477 45.4894C93.1438 45.3783 93.2307 45.2911 93.3413 45.2871C93.6021 45.2831 93.8668 45.2752 94.1276 45.2712H94.1315C94.2382 45.2712 94.3251 45.3585 94.3291 45.4656C94.333 45.5767 94.2461 45.668 94.1355 45.668C93.8747 45.6759 93.61 45.6799 93.3453 45.6838ZM88.2131 45.664H88.2092C87.9484 45.6561 87.6797 45.6481 87.419 45.6402C87.3084 45.6362 87.2254 45.545 87.2293 45.4339C87.2333 45.3228 87.3242 45.2395 87.4348 45.2434C87.6956 45.2514 87.9603 45.2593 88.221 45.2673C88.3316 45.2712 88.4146 45.3625 88.4146 45.4696C88.4067 45.5807 88.3198 45.664 88.2131 45.664ZM95.3168 45.6323C95.2101 45.6323 95.1232 45.5489 95.1192 45.4418C95.1153 45.3307 95.2022 45.2395 95.3089 45.2355C95.5696 45.2276 95.8343 45.2157 96.0951 45.2038C96.2057 45.1998 96.2966 45.2831 96.3005 45.3942C96.3045 45.5053 96.2215 45.5965 96.1109 45.6005C95.8462 45.6124 95.5854 45.6204 95.3207 45.6323C95.3207 45.6323 95.3207 45.6323 95.3168 45.6323ZM86.2416 45.6005C86.2377 45.6005 86.2377 45.6005 86.2337 45.6005C85.973 45.5886 85.7043 45.5767 85.4436 45.5648C85.3329 45.5608 85.25 45.4656 85.2579 45.3585C85.2618 45.2474 85.3566 45.1641 85.4633 45.172C85.7241 45.1839 85.9888 45.1958 86.2495 45.2077C86.3602 45.2117 86.4431 45.303 86.4392 45.414C86.4352 45.5172 86.3444 45.6005 86.2416 45.6005ZM97.2882 45.545C97.1855 45.545 97.0986 45.4617 97.0907 45.3585C97.0868 45.2474 97.1697 45.1562 97.2764 45.1482C97.5372 45.1363 97.8019 45.1205 98.0626 45.1046C98.1693 45.0966 98.2641 45.18 98.272 45.2911C98.2799 45.4021 98.1969 45.4934 98.0863 45.5013C97.8216 45.5172 97.5609 45.5331 97.2962 45.545C97.2962 45.545 97.2922 45.545 97.2882 45.545ZM84.2701 45.4974C84.2662 45.4974 84.2622 45.4974 84.2583 45.4974C83.9975 45.4815 83.7328 45.4656 83.4681 45.4498C83.3575 45.4418 83.2785 45.3466 83.2824 45.2395C83.2864 45.1324 83.3852 45.049 83.4918 45.053C83.7526 45.0689 84.0173 45.0887 84.278 45.1006C84.3887 45.1086 84.4716 45.1998 84.4637 45.3109C84.4598 45.418 84.3729 45.4974 84.2701 45.4974ZM99.2597 45.426C99.157 45.426 99.0701 45.3466 99.0622 45.2395C99.0543 45.1284 99.1373 45.0371 99.2439 45.0292C99.5047 45.0094 99.7694 44.9935 100.03 44.9737C100.141 44.9657 100.236 45.049 100.243 45.1562C100.251 45.2673 100.168 45.3625 100.062 45.3704C99.797 45.3902 99.5363 45.4101 99.2716 45.426C99.2676 45.426 99.2637 45.426 99.2597 45.426ZM82.2987 45.3664C82.2947 45.3664 82.2868 45.3664 82.2829 45.3664C82.0221 45.3466 81.7534 45.3268 81.4927 45.303C81.3821 45.295 81.3031 45.1998 81.311 45.0887C81.3189 44.9776 81.4137 44.8983 81.5243 44.9062C81.7851 44.926 82.0498 44.9499 82.3105 44.9697C82.4211 44.9776 82.5002 45.0728 82.4923 45.1839C82.4883 45.2871 82.4014 45.3664 82.2987 45.3664ZM1.83931 45.3069C1.8235 45.3069 1.8077 45.303 1.78794 45.299C1.68127 45.2712 1.61806 45.1641 1.64571 45.057C1.71288 44.8031 1.78004 44.5452 1.85116 44.2873C1.87881 44.1802 1.98944 44.1207 2.09611 44.1484C2.20279 44.1762 2.26205 44.2873 2.23439 44.3944C2.16328 44.6483 2.09611 44.9022 2.02895 45.1562C2.00524 45.2474 1.92622 45.3069 1.83931 45.3069ZM129.101 45.2752C129.089 45.2752 129.081 45.2752 129.069 45.2712C128.962 45.2553 128.887 45.1522 128.907 45.0451C128.95 44.7832 128.994 44.5174 129.037 44.2595C129.057 44.1524 129.16 44.081 129.267 44.0969C129.373 44.1167 129.444 44.2198 129.429 44.327C129.385 44.5848 129.342 44.8467 129.298 45.1046C129.278 45.2077 129.195 45.2752 129.101 45.2752ZM101.227 45.2752C101.125 45.2752 101.038 45.1958 101.03 45.0927C101.022 44.9816 101.101 44.8864 101.211 44.8784C101.472 44.8546 101.733 44.8308 101.998 44.807C102.108 44.7951 102.203 44.8784 102.211 44.9856C102.223 45.0927 102.14 45.1919 102.033 45.1998C101.772 45.2236 101.504 45.2474 101.247 45.2712C101.239 45.2752 101.235 45.2752 101.227 45.2752ZM80.3351 45.1998C80.3272 45.1998 80.3232 45.1998 80.3153 45.1998C80.0546 45.176 79.7899 45.1482 79.5291 45.1244C79.4224 45.1125 79.3395 45.0173 79.3513 44.9062C79.3632 44.7991 79.458 44.7158 79.5686 44.7277C79.8294 44.7554 80.0901 44.7793 80.3548 44.8031C80.4655 44.815 80.5445 44.9102 80.5326 45.0173C80.5208 45.1205 80.4339 45.1998 80.3351 45.1998ZM103.195 45.0887C103.096 45.0887 103.009 45.0133 102.997 44.9102C102.985 44.8031 103.064 44.7039 103.175 44.692C103.436 44.6642 103.697 44.6364 103.957 44.6087C104.064 44.5967 104.163 44.6761 104.175 44.7832C104.186 44.8903 104.107 44.9895 104.001 45.0014C103.74 45.0292 103.475 45.057 103.215 45.0847C103.207 45.0887 103.199 45.0887 103.195 45.0887ZM78.3715 44.9975C78.3636 44.9975 78.3557 44.9975 78.3478 44.9975C78.087 44.9697 77.8223 44.938 77.5616 44.9062C77.4549 44.8943 77.3759 44.7951 77.3877 44.688C77.3996 44.5809 77.4984 44.5015 77.605 44.5134C77.8658 44.5452 78.1266 44.5729 78.3873 44.6007C78.494 44.6126 78.573 44.7118 78.5611 44.8189C78.5532 44.9221 78.4703 44.9975 78.3715 44.9975ZM105.154 44.8705C105.056 44.8705 104.969 44.7951 104.957 44.6959C104.945 44.5888 105.02 44.4896 105.131 44.4738C105.391 44.442 105.656 44.4103 105.913 44.3785C106.02 44.3666 106.118 44.442 106.134 44.5491C106.146 44.6563 106.071 44.7555 105.964 44.7713C105.704 44.8031 105.443 44.8388 105.178 44.8665C105.17 44.8705 105.162 44.8705 105.154 44.8705ZM76.4079 44.7634C76.4 44.7634 76.3921 44.7634 76.3842 44.7634C76.1235 44.7316 75.8588 44.6959 75.602 44.6602C75.4953 44.6444 75.4163 44.5452 75.4321 44.4381C75.4479 44.3309 75.5466 44.2516 75.6533 44.2674C75.9141 44.3032 76.1748 44.3349 76.4356 44.3706C76.5423 44.3825 76.6213 44.4857 76.6055 44.5928C76.5936 44.692 76.5067 44.7634 76.4079 44.7634ZM107.114 44.6166C107.015 44.6166 106.932 44.5452 106.92 44.446C106.905 44.3389 106.98 44.2357 107.09 44.2238C107.347 44.1881 107.612 44.1524 107.873 44.1127C107.979 44.0968 108.082 44.1722 108.098 44.2794C108.114 44.3865 108.039 44.4896 107.932 44.5055C107.671 44.5412 107.406 44.5809 107.15 44.6166C107.13 44.6166 107.122 44.6166 107.114 44.6166ZM74.4522 44.4976C74.4444 44.4976 74.4325 44.4976 74.4246 44.4936C74.1678 44.4579 73.9031 44.4182 73.6423 44.3785C73.5357 44.3627 73.4606 44.2595 73.4764 44.1524C73.4922 44.0453 73.5949 43.9699 73.7016 43.9858C73.9623 44.0254 74.2231 44.0651 74.4799 44.1008C74.5866 44.1167 74.6616 44.2159 74.6458 44.327C74.634 44.4261 74.551 44.4976 74.4522 44.4976ZM109.066 44.3309C108.971 44.3309 108.884 44.2595 108.872 44.1643C108.856 44.0572 108.927 43.954 109.038 43.9382C109.295 43.8985 109.56 43.8548 109.816 43.8152C109.923 43.7993 110.026 43.8707 110.042 43.9778C110.057 44.0849 109.986 44.1881 109.88 44.204C109.619 44.2476 109.358 44.2873 109.097 44.327C109.086 44.3309 109.078 44.3309 109.066 44.3309ZM72.5045 44.2C72.4926 44.2 72.4847 44.2 72.4729 44.196C72.2161 44.1524 71.9514 44.1087 71.6945 44.0651C71.5879 44.0453 71.5128 43.9461 71.5326 43.835C71.5523 43.7279 71.6511 43.6525 71.7617 43.6723C72.0225 43.716 72.2832 43.7596 72.54 43.8033C72.6467 43.8191 72.7218 43.9223 72.702 44.0294C72.6823 44.1286 72.5993 44.2 72.5045 44.2ZM111.014 44.0135C110.919 44.0135 110.836 43.9461 110.82 43.8469C110.8 43.7398 110.875 43.6366 110.982 43.6168C111.243 43.5731 111.503 43.5255 111.76 43.4819C111.867 43.4621 111.97 43.5335 111.989 43.6406C112.009 43.7477 111.938 43.8509 111.831 43.8707C111.575 43.9183 111.314 43.962 111.053 44.0096C111.037 44.0096 111.025 44.0135 111.014 44.0135ZM70.5567 43.8667C70.5448 43.8667 70.533 43.8667 70.5211 43.8628C70.2604 43.8152 69.9996 43.7676 69.7428 43.7199C69.6361 43.7001 69.565 43.5969 69.5848 43.4898C69.6045 43.3827 69.7073 43.3113 69.8139 43.3311C70.0707 43.3787 70.3315 43.4263 70.5883 43.474C70.695 43.4938 70.7661 43.597 70.7463 43.7041C70.7345 43.7993 70.6515 43.8667 70.5567 43.8667ZM112.957 43.6604C112.863 43.6604 112.78 43.593 112.764 43.4978C112.744 43.3906 112.815 43.2875 112.922 43.2677C113.179 43.22 113.439 43.1685 113.696 43.1169C113.803 43.097 113.906 43.1645 113.929 43.2716C113.949 43.3787 113.882 43.4819 113.775 43.5057C113.518 43.5573 113.258 43.6088 112.997 43.6565C112.981 43.6604 112.969 43.6604 112.957 43.6604ZM68.6168 43.4978C68.605 43.4978 68.5931 43.4978 68.5773 43.4938C68.3205 43.4422 68.0597 43.3906 67.8029 43.3391C67.6963 43.3153 67.6252 43.2121 67.6489 43.105C67.6726 42.9979 67.7753 42.9264 67.882 42.9503C68.1388 43.0018 68.3956 43.0534 68.6563 43.105C68.763 43.1248 68.8341 43.2319 68.8104 43.3391C68.7907 43.4343 68.7116 43.4978 68.6168 43.4978ZM2.38057 43.4025C2.36082 43.4025 2.34107 43.3986 2.32131 43.3946C2.21859 43.3629 2.15933 43.2518 2.19093 43.1447C2.26995 42.8907 2.35292 42.6368 2.43984 42.3869C2.4754 42.2837 2.58997 42.2282 2.69269 42.2639C2.79542 42.2996 2.85073 42.4146 2.81517 42.5178C2.72825 42.7638 2.64528 43.0137 2.57022 43.2637C2.54256 43.347 2.46354 43.4025 2.38057 43.4025ZM129.444 43.3232C129.432 43.3232 129.421 43.3232 129.405 43.3192C129.298 43.2994 129.227 43.1962 129.247 43.0851C129.298 42.8273 129.35 42.5614 129.401 42.3036C129.425 42.1964 129.527 42.129 129.634 42.1488C129.741 42.1726 129.808 42.2758 129.788 42.3829C129.737 42.6408 129.685 42.8987 129.634 43.1566C129.622 43.2597 129.539 43.3232 129.444 43.3232ZM114.893 43.2756C114.802 43.2756 114.719 43.2121 114.7 43.1169C114.676 43.0098 114.747 42.9026 114.854 42.8828C115.107 42.8312 115.367 42.7757 115.624 42.7201C115.731 42.6963 115.838 42.7638 115.857 42.8709C115.881 42.978 115.814 43.0851 115.707 43.105C115.45 43.1605 115.19 43.2161 114.933 43.2677C114.921 43.2716 114.905 43.2756 114.893 43.2756ZM66.6849 43.101C66.673 43.101 66.6572 43.101 66.6414 43.097C66.3846 43.0415 66.1238 42.986 65.867 42.9264C65.7603 42.9026 65.6932 42.7955 65.7169 42.6884C65.7406 42.5813 65.8473 42.5138 65.9539 42.5376C66.2068 42.5932 66.4676 42.6527 66.7244 42.7082C66.831 42.732 66.8982 42.8352 66.8745 42.9423C66.8587 43.0375 66.7757 43.101 66.6849 43.101ZM116.821 42.855C116.73 42.855 116.651 42.7915 116.628 42.7003C116.604 42.5932 116.671 42.4861 116.778 42.4622C117.035 42.4027 117.291 42.3432 117.544 42.2837C117.651 42.2599 117.758 42.3234 117.781 42.4305C117.805 42.5376 117.742 42.6448 117.635 42.6686C117.382 42.7281 117.122 42.7876 116.865 42.8471C116.849 42.855 116.837 42.855 116.821 42.855ZM64.7568 42.6686C64.741 42.6686 64.7252 42.6686 64.7134 42.6646C64.4566 42.6051 64.1958 42.5416 63.943 42.4821C63.8363 42.4583 63.7731 42.3512 63.7968 42.244C63.8205 42.1369 63.9271 42.0734 64.0338 42.0972C64.2867 42.1568 64.5435 42.2202 64.8003 42.2797C64.907 42.3036 64.9741 42.4107 64.9465 42.5178C64.9307 42.6051 64.8477 42.6686 64.7568 42.6686ZM118.741 42.4027C118.651 42.4027 118.572 42.3432 118.548 42.252C118.52 42.1449 118.587 42.0377 118.694 42.0139C118.947 41.9505 119.208 41.887 119.461 41.8235C119.567 41.7957 119.674 41.8632 119.702 41.9663C119.729 42.0734 119.662 42.1806 119.559 42.2083C119.306 42.2718 119.046 42.3353 118.793 42.3988C118.773 42.4027 118.757 42.4027 118.741 42.4027ZM62.8407 42.2004C62.8249 42.2004 62.8091 42.2004 62.7933 42.1925C62.5364 42.129 62.2796 42.0615 62.0268 41.9981C61.9201 41.9703 61.8569 41.8632 61.8846 41.756C61.9122 41.6489 62.0189 41.5854 62.1256 41.6132C62.3784 41.6767 62.6352 41.7441 62.8881 41.8076C62.9947 41.8354 63.058 41.9425 63.0303 42.0496C63.0105 42.1409 62.9276 42.2004 62.8407 42.2004ZM120.658 41.9187C120.571 41.9187 120.492 41.8592 120.468 41.7719C120.44 41.6648 120.504 41.5577 120.61 41.5299C120.863 41.4624 121.12 41.395 121.373 41.3276C121.479 41.2998 121.586 41.3633 121.614 41.4664C121.641 41.5735 121.578 41.6807 121.475 41.7084C121.223 41.7759 120.962 41.8473 120.713 41.9108C120.689 41.9147 120.673 41.9187 120.658 41.9187ZM60.9284 41.7005C60.9126 41.7005 60.8929 41.6965 60.8771 41.6926C60.6242 41.6251 60.3674 41.5537 60.1146 41.4823C60.0079 41.4545 59.9486 41.3434 59.9763 41.2363C60.0039 41.1292 60.1146 41.0697 60.2212 41.0974C60.4741 41.1689 60.7309 41.2363 60.9798 41.3077C61.0865 41.3355 61.1457 41.4466 61.1181 41.5497C61.0983 41.641 61.0154 41.7005 60.9284 41.7005ZM3.04432 41.5378C3.02061 41.5378 2.99296 41.5339 2.96925 41.522C2.86653 41.4823 2.81912 41.3633 2.85863 41.2641C2.9574 41.0181 3.06407 40.7721 3.17075 40.5301C3.21421 40.4309 3.33273 40.3833 3.4315 40.4309C3.53028 40.4746 3.57769 40.5936 3.53028 40.6928C3.4236 40.9308 3.32088 41.1728 3.22606 41.4148C3.1984 41.4902 3.12334 41.5378 3.04432 41.5378ZM122.562 41.399C122.475 41.399 122.396 41.3434 122.372 41.2561C122.345 41.149 122.404 41.0419 122.511 41.0102C122.763 40.9387 123.016 40.8673 123.269 40.792C123.376 40.7602 123.482 40.8237 123.514 40.9268C123.546 41.034 123.482 41.1411 123.38 41.1728C123.127 41.2442 122.87 41.3196 122.617 41.391C122.597 41.395 122.578 41.399 122.562 41.399ZM129.851 41.3871C129.835 41.3871 129.824 41.3871 129.808 41.3831C129.701 41.3593 129.634 41.2522 129.658 41.1451C129.717 40.8872 129.776 40.6253 129.835 40.3714C129.859 40.2643 129.966 40.2008 130.073 40.2246C130.179 40.2484 130.242 40.3555 130.219 40.4627C130.159 40.7166 130.1 40.9744 130.041 41.2323C130.021 41.3236 129.942 41.3871 129.851 41.3871ZM59.0281 41.1689C59.0083 41.1689 58.9925 41.1649 58.9728 41.1609C58.7199 41.0895 58.4631 41.0141 58.2142 40.9387C58.1115 40.907 58.0483 40.7959 58.0799 40.6928C58.1115 40.5896 58.2221 40.5261 58.3248 40.5579C58.5737 40.6332 58.8305 40.7086 59.0794 40.78C59.1861 40.8118 59.2454 40.9189 59.2138 41.026C59.194 41.1133 59.115 41.1689 59.0281 41.1689ZM124.458 40.8435C124.371 40.8435 124.296 40.788 124.269 40.7007C124.237 40.5975 124.296 40.4865 124.403 40.4547C124.652 40.3793 124.909 40.3 125.158 40.2246C125.26 40.1929 125.371 40.2524 125.403 40.3555C125.434 40.4587 125.375 40.5698 125.272 40.6015C125.023 40.6809 124.767 40.7562 124.514 40.8316C124.494 40.8435 124.478 40.8435 124.458 40.8435ZM57.1356 40.6015C57.1159 40.6015 57.0961 40.5975 57.0763 40.5936C56.8235 40.5142 56.5706 40.4349 56.3217 40.3595C56.219 40.3278 56.1597 40.2167 56.1914 40.1095C56.223 40.0064 56.3336 39.9469 56.4403 39.9786C56.6892 40.058 56.942 40.1373 57.1909 40.2127C57.2936 40.2444 57.3529 40.3555 57.3213 40.4587C57.2976 40.5499 57.2225 40.6015 57.1356 40.6015ZM126.343 40.2603C126.26 40.2603 126.181 40.2048 126.153 40.1214C126.122 40.0183 126.177 39.9072 126.28 39.8715C126.533 39.7921 126.781 39.7088 127.03 39.6295C127.133 39.5938 127.244 39.6533 127.279 39.7564C127.315 39.8596 127.256 39.9707 127.153 40.0064C126.904 40.0857 126.651 40.1691 126.402 40.2524C126.382 40.2563 126.363 40.2603 126.343 40.2603ZM55.255 40.0024C55.2352 40.0024 55.2155 39.9985 55.1918 39.9945C54.9429 39.9112 54.69 39.8279 54.4411 39.7445C54.3384 39.7088 54.2831 39.5977 54.3147 39.4946C54.3503 39.3914 54.4609 39.3359 54.5636 39.3676C54.8125 39.4509 55.0614 39.5343 55.3103 39.6176C55.413 39.6533 55.4723 39.7644 55.4367 39.8675C55.417 39.9508 55.338 40.0024 55.255 40.0024ZM3.86215 39.7326C3.83054 39.7326 3.80289 39.7247 3.77523 39.7128C3.67646 39.6652 3.63695 39.5422 3.68831 39.447C3.80684 39.2089 3.93326 38.9709 4.05969 38.7408C4.11105 38.6455 4.23353 38.6098 4.32835 38.6614C4.42317 38.713 4.45873 38.836 4.40737 38.9312C4.28094 39.1613 4.15846 39.3954 4.04389 39.6255C4.00438 39.693 3.93326 39.7326 3.86215 39.7326ZM128.22 39.6414C128.137 39.6414 128.062 39.5898 128.034 39.5065C127.998 39.4033 128.054 39.2883 128.156 39.2565C128.405 39.1732 128.654 39.0859 128.903 38.9987C129.006 38.9629 129.12 39.0185 129.156 39.1216C129.191 39.2248 129.136 39.3399 129.033 39.3756C128.785 39.4628 128.536 39.5501 128.287 39.6334C128.259 39.6374 128.239 39.6414 128.22 39.6414ZM130.317 39.4589C130.302 39.4589 130.286 39.4549 130.266 39.4509C130.159 39.4232 130.096 39.3161 130.124 39.2089C130.144 39.1256 130.167 39.0423 130.191 38.959C130.179 38.9629 130.163 38.9669 130.152 38.9748C130.049 39.0106 129.934 38.959 129.899 38.8558C129.863 38.7527 129.914 38.6376 130.017 38.6019C130.116 38.5662 130.215 38.5305 130.317 38.4948C130.321 38.4789 130.325 38.4591 130.333 38.4432C130.361 38.3361 130.472 38.2766 130.574 38.3043C130.614 38.3162 130.645 38.3361 130.673 38.3639C130.701 38.352 130.732 38.344 130.76 38.3321C130.863 38.2964 130.977 38.348 131.013 38.4511C131.052 38.5543 130.997 38.6694 130.894 38.7051C130.811 38.7368 130.728 38.7646 130.645 38.7963C130.598 38.9669 130.555 39.1415 130.511 39.3121C130.483 39.3994 130.404 39.4589 130.317 39.4589ZM53.3862 39.3716C53.3665 39.3716 53.3428 39.3676 53.323 39.3597C53.0741 39.2724 52.8252 39.1851 52.5763 39.0978C52.4736 39.0621 52.4183 38.9471 52.4578 38.8439C52.4933 38.7408 52.6079 38.6852 52.7106 38.7249C52.9556 38.8122 53.2085 38.8995 53.4534 38.9868C53.5561 39.0225 53.6114 39.1375 53.5759 39.2407C53.5443 39.32 53.4653 39.3716 53.3862 39.3716ZM51.5254 38.7051C51.5017 38.7051 51.478 38.7011 51.4582 38.6932C51.2133 38.6019 50.9644 38.5107 50.7155 38.4154C50.6127 38.3758 50.5614 38.2607 50.6009 38.1615C50.6404 38.0584 50.755 38.0068 50.8537 38.0465C51.0987 38.1377 51.3476 38.2329 51.5925 38.3202C51.6953 38.3599 51.7466 38.471 51.7111 38.5741C51.6795 38.6575 51.6044 38.7051 51.5254 38.7051ZM131.933 38.3004C131.854 38.3004 131.779 38.2528 131.748 38.1734C131.708 38.0703 131.76 37.9552 131.862 37.9195C132.107 37.8283 132.356 37.733 132.597 37.6378C132.7 37.5981 132.814 37.6497 132.854 37.7529C132.893 37.856 132.842 37.9711 132.739 38.0108C132.494 38.106 132.245 38.2012 132.001 38.2964C131.981 38.2964 131.957 38.3004 131.933 38.3004ZM49.6764 38.0068C49.6527 38.0068 49.629 38.0028 49.6053 37.9949C49.3603 37.8997 49.1114 37.8005 48.8704 37.7053C48.7677 37.6656 48.7203 37.5505 48.7598 37.4474C48.7993 37.3442 48.9139 37.2966 49.0166 37.3363C49.2576 37.4315 49.5065 37.5307 49.7514 37.6259C49.8542 37.6656 49.9055 37.7806 49.866 37.8838C49.8305 37.9592 49.7554 38.0068 49.6764 38.0068ZM4.82221 38.0028C4.78665 38.0028 4.75109 37.9949 4.71949 37.975C4.62467 37.9195 4.59701 37.7965 4.65627 37.7013C4.79455 37.4751 4.94073 37.249 5.08297 37.0268C5.14223 36.9356 5.26471 36.9118 5.35558 36.9713C5.44645 37.0308 5.47015 37.1538 5.41089 37.245C5.26866 37.4632 5.12643 37.6854 4.98815 37.9076C4.95259 37.9711 4.88937 38.0028 4.82221 38.0028ZM133.771 37.5823C133.692 37.5823 133.616 37.5347 133.589 37.4593C133.549 37.3561 133.597 37.2411 133.699 37.2014C133.944 37.1022 134.189 37.003 134.43 36.9038C134.533 36.8642 134.648 36.9118 134.687 37.011C134.727 37.1141 134.679 37.2292 134.58 37.2688C134.339 37.368 134.091 37.4672 133.846 37.5664C133.822 37.5783 133.798 37.5823 133.771 37.5823ZM130.839 37.5505C130.819 37.5505 130.803 37.5466 130.784 37.5426C130.677 37.5109 130.618 37.3998 130.649 37.2966C130.724 37.0427 130.799 36.7888 130.875 36.5349C130.906 36.4317 131.017 36.3722 131.12 36.4039C131.222 36.4357 131.281 36.5468 131.25 36.6499C131.175 36.8999 131.1 37.1538 131.025 37.4037C131.005 37.495 130.926 37.5505 130.839 37.5505ZM47.8432 37.2768C47.8195 37.2768 47.7918 37.2728 47.7681 37.2609C47.5232 37.1617 47.2782 37.0586 47.0372 36.9594C46.9384 36.9157 46.8871 36.8007 46.9305 36.7015C46.974 36.6023 47.0886 36.5507 47.1873 36.5944C47.4283 36.6936 47.6733 36.7967 47.9143 36.8959C48.017 36.9356 48.0644 37.0546 48.021 37.1538C47.9933 37.2292 47.9222 37.2768 47.8432 37.2768ZM135.6 36.8324C135.521 36.8324 135.45 36.7888 135.418 36.7094C135.375 36.6102 135.422 36.4912 135.525 36.4515C135.714 36.3722 135.908 36.2889 136.098 36.2095L136.252 36.1421C136.35 36.0984 136.469 36.146 136.512 36.2452C136.556 36.3444 136.508 36.4634 136.41 36.5071L136.256 36.5745C136.066 36.6578 135.872 36.7372 135.683 36.8205C135.651 36.8245 135.623 36.8324 135.6 36.8324ZM46.0218 36.5111C45.9942 36.5111 45.9705 36.5071 45.9428 36.4952C45.7018 36.392 45.4569 36.2849 45.2159 36.1778C45.1171 36.1341 45.0697 36.0151 45.1131 35.9159C45.1566 35.8167 45.2751 35.7691 45.3739 35.8128C45.6149 35.9199 45.8559 36.0231 46.0969 36.1262C46.1957 36.1699 46.2431 36.2849 46.1996 36.3881C46.172 36.4674 46.0969 36.5111 46.0218 36.5111ZM5.92845 36.3603C5.88894 36.3603 5.84548 36.3484 5.80993 36.3206C5.72301 36.2571 5.70325 36.1302 5.77042 36.0429C5.92845 35.8286 6.09044 35.6144 6.25637 35.4081C6.32354 35.3208 6.44997 35.3089 6.53293 35.3764C6.61985 35.4438 6.6317 35.5708 6.56454 35.6541C6.40255 35.8564 6.24452 36.0667 6.08649 36.277C6.04698 36.3325 5.98771 36.3603 5.92845 36.3603ZM137.409 36.0469C137.334 36.0469 137.263 36.0032 137.228 35.9278C137.184 35.8286 137.228 35.7096 137.326 35.666C137.567 35.5589 137.808 35.4478 138.045 35.3406C138.144 35.297 138.263 35.3406 138.306 35.4398C138.35 35.539 138.306 35.658 138.207 35.7017C137.97 35.8088 137.729 35.9199 137.484 36.027C137.465 36.0389 137.437 36.0469 137.409 36.0469ZM44.2163 35.7136C44.1886 35.7136 44.161 35.7096 44.1373 35.6977C43.8963 35.5906 43.6592 35.4795 43.4182 35.3724C43.3194 35.3287 43.276 35.2097 43.3194 35.1105C43.3629 35.0113 43.4814 34.9677 43.5802 35.0113C43.8212 35.1185 44.0622 35.2296 44.2993 35.3367C44.398 35.3803 44.4415 35.4993 44.398 35.5985C44.3625 35.6699 44.2913 35.7136 44.2163 35.7136ZM131.42 35.662C131.4 35.662 131.38 35.658 131.361 35.6541C131.258 35.6184 131.199 35.5073 131.234 35.4041C131.313 35.1542 131.4 34.9003 131.483 34.6503C131.519 34.5472 131.629 34.4916 131.732 34.5273C131.835 34.563 131.89 34.6741 131.854 34.7773C131.771 35.0272 131.688 35.2772 131.605 35.5271C131.582 35.6065 131.503 35.662 131.42 35.662ZM139.203 35.2216C139.128 35.2216 139.057 35.178 139.025 35.1066C138.978 35.0074 139.021 34.8884 139.12 34.8407C139.361 34.7297 139.598 34.6146 139.831 34.4995C139.93 34.4519 140.048 34.4916 140.096 34.5908C140.143 34.69 140.104 34.809 140.005 34.8566C139.772 34.9717 139.531 35.0828 139.29 35.1978C139.262 35.2177 139.235 35.2216 139.203 35.2216ZM42.4147 34.8963C42.387 34.8963 42.3594 34.8923 42.3317 34.8765L41.6127 34.5472C41.5139 34.5035 41.4704 34.3845 41.5139 34.2853C41.5574 34.1861 41.6759 34.1425 41.7746 34.1861L42.4937 34.5154C42.5925 34.5591 42.6359 34.6781 42.5925 34.7773C42.5609 34.8527 42.4898 34.8963 42.4147 34.8963ZM7.16902 34.8209C7.12161 34.8209 7.0742 34.805 7.03864 34.7693C6.95568 34.6979 6.94777 34.571 7.02284 34.4876C7.20063 34.2893 7.38237 34.0909 7.56411 33.9005C7.63918 33.8211 7.7656 33.8171 7.84462 33.8925C7.92364 33.9679 7.92759 34.0949 7.85252 34.1742C7.67473 34.3607 7.49694 34.5551 7.32311 34.7535C7.27965 34.7971 7.22433 34.8209 7.16902 34.8209ZM140.981 34.3567C140.91 34.3567 140.839 34.317 140.803 34.2456C140.756 34.1464 140.795 34.0274 140.89 33.9798C141.127 33.8608 141.36 33.7418 141.593 33.6227C141.692 33.5712 141.811 33.6108 141.858 33.71C141.909 33.8092 141.87 33.9282 141.771 33.9758C141.538 34.0949 141.301 34.2179 141.064 34.3369C141.04 34.3527 141.012 34.3567 140.981 34.3567ZM40.617 34.075C40.5894 34.075 40.5617 34.0711 40.5341 34.0592C40.2931 33.9481 40.056 33.8409 39.815 33.7299C39.7162 33.6862 39.6728 33.5672 39.7162 33.468C39.7597 33.3688 39.8782 33.3252 39.977 33.3688C40.218 33.4799 40.459 33.587 40.6961 33.6981C40.7948 33.7418 40.8383 33.8608 40.7948 33.96C40.7632 34.0314 40.6921 34.075 40.617 34.075ZM132.06 33.7894C132.036 33.7894 132.016 33.7854 131.993 33.7775C131.89 33.7418 131.835 33.6267 131.874 33.5235C131.965 33.2736 132.056 33.0236 132.147 32.7777C132.186 32.6745 132.297 32.6229 132.4 32.6626C132.502 32.7023 132.554 32.8134 132.514 32.9165C132.423 33.1625 132.332 33.4125 132.245 33.6584C132.214 33.7378 132.139 33.7894 132.06 33.7894ZM142.735 33.4482C142.664 33.4482 142.597 33.4085 142.561 33.345C142.51 33.2498 142.545 33.1268 142.644 33.0752C142.877 32.9522 143.11 32.8253 143.336 32.6983C143.43 32.6467 143.553 32.6824 143.604 32.7777C143.656 32.8729 143.624 32.9959 143.525 33.0475C143.296 33.1744 143.063 33.3014 142.83 33.4283C142.798 33.4402 142.767 33.4482 142.735 33.4482ZM8.54787 33.4006C8.49651 33.4006 8.4412 33.3807 8.40169 33.3371C8.32663 33.2577 8.33058 33.1308 8.40959 33.0554C8.60319 32.8729 8.80468 32.6943 9.00222 32.5198C9.08519 32.4484 9.20767 32.4563 9.28273 32.5396C9.35385 32.6229 9.34595 32.7459 9.26298 32.8213C9.06544 32.9919 8.87185 33.1665 8.6822 33.345C8.64665 33.3847 8.59528 33.4006 8.54787 33.4006ZM38.8154 33.2577C38.7878 33.2577 38.7601 33.2538 38.7364 33.2419C38.4954 33.1347 38.2544 33.0276 38.0134 32.9205C37.9147 32.8769 37.8672 32.7578 37.9107 32.6586C37.9542 32.5595 38.0727 32.5118 38.1715 32.5555C38.4125 32.6626 38.6535 32.7697 38.8945 32.8769C38.9932 32.9205 39.0406 33.0395 38.9932 33.1387C38.9616 33.2141 38.8905 33.2577 38.8154 33.2577ZM144.462 32.4841C144.394 32.4841 144.327 32.4484 144.292 32.3849C144.236 32.2897 144.268 32.1667 144.363 32.1151C144.592 31.9842 144.821 31.8493 145.042 31.7184C145.137 31.6628 145.256 31.6945 145.311 31.7898C145.366 31.885 145.335 32.004 145.24 32.0596C145.015 32.1944 144.786 32.3293 144.556 32.4603C144.529 32.4761 144.493 32.4841 144.462 32.4841ZM37.006 32.4603C36.9783 32.4603 36.9546 32.4563 36.9269 32.4444C36.682 32.3373 36.437 32.2341 36.2039 32.1349C36.1052 32.0913 36.0577 31.9762 36.0973 31.8731C36.1407 31.7739 36.2553 31.7263 36.358 31.766C36.5911 31.8651 36.8361 31.9723 37.085 32.0794C37.1837 32.123 37.2312 32.2381 37.1877 32.3412C37.1561 32.4166 37.085 32.4603 37.006 32.4603ZM10.0571 32.123C9.99784 32.123 9.93858 32.0953 9.89907 32.0437C9.83191 31.9564 9.85166 31.8334 9.93463 31.766C10.148 31.6033 10.3613 31.4446 10.5786 31.2938C10.6695 31.2304 10.792 31.2542 10.8552 31.3414C10.9184 31.4327 10.8947 31.5557 10.8078 31.6192C10.5944 31.766 10.385 31.9247 10.1756 32.0834C10.1401 32.1111 10.0966 32.123 10.0571 32.123ZM132.751 31.9366C132.728 31.9366 132.704 31.9326 132.68 31.9247C132.577 31.885 132.53 31.7699 132.569 31.6668C132.664 31.4208 132.763 31.1748 132.862 30.9288C132.901 30.8257 133.016 30.7781 133.119 30.8177C133.221 30.8574 133.269 30.9764 133.229 31.0756C133.13 31.3216 133.032 31.5676 132.937 31.8096C132.905 31.885 132.83 31.9366 132.751 31.9366ZM35.1886 31.6945C35.1649 31.6945 35.1372 31.6906 35.1135 31.6787C34.8685 31.5795 34.6196 31.4803 34.3826 31.3851C34.2799 31.3454 34.2324 31.2304 34.272 31.1272C34.3115 31.024 34.426 30.9764 34.5288 31.0161C34.7658 31.1113 35.0147 31.2105 35.2636 31.3137C35.3663 31.3533 35.4138 31.4724 35.3703 31.5716C35.3387 31.6469 35.2636 31.6945 35.1886 31.6945ZM146.156 31.4684C146.089 31.4684 146.026 31.4367 145.987 31.3732C145.927 31.2819 145.959 31.1589 146.05 31.0994C146.271 30.9606 146.496 30.8177 146.718 30.6789C146.808 30.6194 146.931 30.6471 146.99 30.7384C147.049 30.8296 147.022 30.9526 146.931 31.0121C146.71 31.155 146.484 31.2978 146.259 31.4367C146.228 31.4605 146.192 31.4684 146.156 31.4684ZM11.6849 31.0082C11.6177 31.0082 11.5545 30.9725 11.515 30.913C11.4597 30.8177 11.4873 30.6987 11.5821 30.6392C11.8073 30.5003 12.0404 30.3654 12.2735 30.2385C12.3684 30.1869 12.4908 30.2226 12.5422 30.3178C12.5936 30.4131 12.558 30.536 12.4632 30.5876C12.238 30.7106 12.0088 30.8455 11.7876 30.9804C11.756 30.9963 11.7204 31.0082 11.6849 31.0082ZM33.3514 30.9685C33.3277 30.9685 33.304 30.9645 33.2803 30.9566C33.0314 30.8614 32.7864 30.7701 32.5415 30.6828C32.4388 30.6471 32.3874 30.5321 32.423 30.4289C32.4585 30.3258 32.5731 30.2742 32.6758 30.3099C32.9168 30.3972 33.1697 30.4924 33.4186 30.5876C33.5213 30.6273 33.5727 30.7424 33.5331 30.8415C33.5055 30.9209 33.4304 30.9685 33.3514 30.9685ZM147.816 30.3932C147.753 30.3932 147.689 30.3615 147.65 30.3059C147.591 30.2147 147.614 30.0917 147.705 30.0322C147.923 29.8854 148.144 29.7346 148.353 29.5878C148.444 29.5243 148.567 29.5481 148.63 29.6354C148.693 29.7267 148.669 29.8497 148.582 29.9132C148.369 30.0639 148.148 30.2147 147.926 30.3615C147.891 30.3813 147.851 30.3932 147.816 30.3932ZM31.4945 30.302C31.4747 30.302 31.451 30.298 31.4313 30.2901C31.1824 30.2028 30.9295 30.1195 30.6846 30.0441C30.5818 30.0123 30.5226 29.8973 30.5581 29.7941C30.5897 29.691 30.7043 29.6315 30.807 29.6672C31.052 29.7465 31.3049 29.8298 31.5577 29.9171C31.6604 29.9528 31.7157 30.0639 31.6802 30.1671C31.6565 30.2464 31.5775 30.302 31.4945 30.302ZM133.498 30.0996C133.47 30.0996 133.447 30.0957 133.423 30.0838C133.324 30.0401 133.277 29.9251 133.316 29.8219C133.419 29.5799 133.526 29.3339 133.628 29.0919C133.672 28.9927 133.786 28.9451 133.889 28.9887C133.988 29.0324 134.035 29.1514 133.992 29.2506C133.889 29.4926 133.782 29.7346 133.68 29.9766C133.648 30.056 133.573 30.0996 133.498 30.0996ZM13.4232 30.0758C13.3482 30.0758 13.2771 30.0322 13.2455 29.9608C13.198 29.8616 13.2415 29.7426 13.3403 29.6989C13.5813 29.5878 13.8262 29.4807 14.0712 29.3775C14.1739 29.3379 14.2885 29.3855 14.328 29.4847C14.3675 29.5878 14.3201 29.7029 14.2213 29.7426C13.9843 29.8417 13.7433 29.9449 13.5062 30.056C13.4825 30.0679 13.4509 30.0758 13.4232 30.0758ZM29.6178 29.7029C29.5981 29.7029 29.5823 29.6989 29.5625 29.6949C29.3097 29.6196 29.0568 29.5481 28.8079 29.4807C28.7012 29.4529 28.642 29.3418 28.6696 29.2387C28.6973 29.1316 28.8079 29.0721 28.9106 29.0998C29.1595 29.1673 29.4163 29.2427 29.6731 29.318C29.7759 29.3498 29.8391 29.4609 29.8075 29.564C29.7798 29.6473 29.7008 29.7029 29.6178 29.7029ZM15.2564 29.3458C15.1735 29.3458 15.0984 29.2942 15.0708 29.2109C15.0352 29.1078 15.0905 28.9927 15.1972 28.961C15.45 28.8776 15.7068 28.7983 15.9597 28.7229C16.0664 28.6912 16.173 28.7547 16.2047 28.8578C16.2363 28.9649 16.173 29.0721 16.0703 29.1038C15.8214 29.1752 15.5686 29.2546 15.3236 29.3339C15.2999 29.3418 15.2801 29.3458 15.2564 29.3458ZM149.432 29.2546C149.372 29.2546 149.309 29.2268 149.274 29.1752C149.211 29.0879 149.226 28.961 149.317 28.8975C149.531 28.7428 149.74 28.5841 149.949 28.4254C150.036 28.3579 150.159 28.3777 150.226 28.465C150.293 28.5523 150.273 28.6753 150.186 28.7428C149.977 28.9014 149.764 29.0601 149.55 29.2188C149.511 29.2427 149.471 29.2546 149.432 29.2546ZM27.7135 29.1911C27.6977 29.1911 27.6819 29.1911 27.6661 29.1871C27.4093 29.1276 27.1525 29.0681 26.9036 29.0125C26.7969 28.9887 26.7298 28.8856 26.7535 28.7785C26.7772 28.6713 26.8799 28.6039 26.9866 28.6277C27.2394 28.6832 27.5002 28.7428 27.7609 28.8023C27.8676 28.8261 27.9308 28.9332 27.9071 29.0403C27.8834 29.1316 27.8044 29.1911 27.7135 29.1911ZM17.1608 28.8221C17.0699 28.8221 16.9869 28.7586 16.9672 28.6674C16.9435 28.5602 17.0106 28.4531 17.1173 28.4333C17.3741 28.3777 17.6388 28.3262 17.8996 28.2786C18.0062 28.2587 18.109 28.3341 18.1287 28.4412C18.1485 28.5483 18.0734 28.6515 17.9667 28.6713C17.7099 28.715 17.4531 28.7666 17.2003 28.8221C17.1884 28.8221 17.1766 28.8221 17.1608 28.8221ZM25.7855 28.7864C25.7736 28.7864 25.7618 28.7864 25.7499 28.7824C25.4931 28.7348 25.2324 28.6951 24.9795 28.6555C24.8728 28.6396 24.7978 28.5404 24.8136 28.4293C24.8294 28.3222 24.9321 28.2468 25.0388 28.2627C25.2956 28.3024 25.5603 28.346 25.8211 28.3896C25.9277 28.4095 25.9988 28.5126 25.983 28.6198C25.9633 28.7189 25.8803 28.7864 25.7855 28.7864ZM23.8338 28.5087C23.8259 28.5087 23.8219 28.5087 23.814 28.5087C23.5533 28.4809 23.2925 28.4571 23.0357 28.4412C22.9251 28.4333 22.8461 28.3381 22.854 28.2309C22.8619 28.1199 22.9567 28.0405 23.0634 28.0484C23.3241 28.0683 23.5888 28.0921 23.8535 28.1199C23.9602 28.1318 24.0392 28.227 24.0313 28.3381C24.0195 28.4333 23.9325 28.5087 23.8338 28.5087ZM19.1085 28.5047C19.0098 28.5047 18.9228 28.4293 18.911 28.3262C18.8991 28.219 18.9782 28.1199 19.0848 28.108C19.3456 28.0802 19.6142 28.0564 19.879 28.0365C19.9856 28.0286 20.0804 28.1119 20.0884 28.219C20.0963 28.3301 20.0133 28.4214 19.9066 28.4293C19.6459 28.4492 19.3851 28.473 19.1283 28.5007C19.1243 28.5047 19.1164 28.5047 19.1085 28.5047ZM21.8662 28.3857H21.8623C21.6015 28.3817 21.3408 28.3777 21.08 28.3817C20.9694 28.3857 20.8825 28.2944 20.8785 28.1873C20.8785 28.0762 20.9654 27.9889 21.0721 27.985C21.3368 27.981 21.6015 27.981 21.8662 27.9889C21.9769 27.9929 22.0638 28.0802 22.0598 28.1913C22.0598 28.2984 21.9729 28.3857 21.8662 28.3857ZM134.292 28.2825C134.264 28.2825 134.237 28.2786 134.209 28.2667C134.11 28.223 134.067 28.104 134.11 28.0048C134.217 27.7668 134.332 27.5247 134.442 27.2827C134.49 27.1835 134.604 27.1399 134.703 27.1875C134.802 27.2351 134.845 27.3502 134.798 27.4494C134.687 27.6874 134.577 27.9294 134.466 28.1675C134.438 28.2428 134.367 28.2825 134.292 28.2825ZM150.996 28.0484C150.937 28.0484 150.882 28.0246 150.842 27.9731C150.775 27.8858 150.787 27.7628 150.874 27.6953C151.079 27.5287 151.285 27.3621 151.482 27.1954C151.565 27.124 151.692 27.1359 151.759 27.2192C151.83 27.3026 151.818 27.4295 151.735 27.497C151.534 27.6636 151.328 27.8342 151.123 28.0008C151.083 28.0326 151.04 28.0484 150.996 28.0484ZM152.509 26.7709C152.454 26.7709 152.399 26.7471 152.363 26.7035C152.292 26.6202 152.3 26.4972 152.379 26.4218C152.577 26.2472 152.77 26.0687 152.964 25.8941C153.043 25.8187 153.169 25.8267 153.244 25.906C153.319 25.9854 153.312 26.1123 153.232 26.1877C153.039 26.3662 152.841 26.5448 152.644 26.7233C152.6 26.7551 152.553 26.7709 152.509 26.7709ZM135.13 26.4892C135.102 26.4892 135.07 26.4813 135.043 26.4694C134.944 26.4218 134.904 26.3028 134.952 26.2036C135.066 25.9655 135.185 25.7235 135.3 25.4894C135.347 25.3902 135.465 25.3506 135.564 25.3982C135.663 25.4458 135.703 25.5648 135.655 25.664C135.541 25.8981 135.422 26.1361 135.307 26.3742C135.276 26.4496 135.205 26.4892 135.13 26.4892ZM153.952 25.422C153.9 25.422 153.849 25.4021 153.809 25.3625C153.734 25.2831 153.734 25.1601 153.813 25.0808C153.999 24.8983 154.189 24.7078 154.366 24.5214C154.441 24.442 154.568 24.442 154.647 24.5174C154.726 24.5928 154.726 24.7197 154.651 24.7991C154.469 24.9856 154.279 25.176 154.09 25.3625C154.054 25.4021 154.003 25.422 153.952 25.422ZM136.015 24.7118C135.983 24.7118 135.955 24.7039 135.924 24.688C135.825 24.6364 135.789 24.5174 135.837 24.4222C135.955 24.1881 136.078 23.9501 136.2 23.716C136.252 23.6208 136.37 23.5811 136.465 23.6327C136.56 23.6842 136.599 23.8033 136.548 23.8985C136.426 24.1326 136.303 24.3706 136.185 24.6007C136.153 24.6721 136.086 24.7118 136.015 24.7118ZM155.322 23.9977C155.275 23.9977 155.228 23.9818 155.188 23.9461C155.109 23.8707 155.101 23.7477 155.176 23.6644C155.354 23.47 155.528 23.2716 155.698 23.0772C155.769 22.9939 155.895 22.986 155.978 23.0574C156.061 23.1288 156.069 23.2557 155.998 23.3391C155.824 23.5374 155.646 23.7358 155.469 23.9342C155.429 23.9739 155.378 23.9977 155.322 23.9977ZM136.935 22.9542C136.904 22.9542 136.872 22.9463 136.84 22.9304C136.746 22.8788 136.71 22.7598 136.761 22.6606C136.888 22.4305 137.014 22.1925 137.141 21.9624C137.192 21.8671 137.314 21.8314 137.409 21.883C137.504 21.9346 137.54 22.0576 137.488 22.1528C137.362 22.3829 137.235 22.617 137.109 22.8511C137.073 22.9185 137.002 22.9542 136.935 22.9542ZM156.614 22.498C156.571 22.498 156.528 22.4821 156.488 22.4543C156.405 22.3869 156.389 22.2599 156.46 22.1766C156.626 21.9743 156.788 21.764 156.95 21.5616C157.017 21.4744 157.14 21.4585 157.227 21.5259C157.314 21.5934 157.33 21.7164 157.262 21.8037C157.1 22.01 156.934 22.2202 156.769 22.4265C156.729 22.4742 156.67 22.498 156.614 22.498ZM137.887 21.2165C137.856 21.2165 137.82 21.2085 137.789 21.1927C137.694 21.1371 137.658 21.0181 137.714 20.9229C137.844 20.6928 137.974 20.4587 138.105 20.2325C138.16 20.1373 138.278 20.1056 138.373 20.1572C138.468 20.2127 138.5 20.3317 138.448 20.4269C138.318 20.6531 138.188 20.8832 138.057 21.1133C138.026 21.1808 137.958 21.2165 137.887 21.2165ZM157.812 20.9229C157.772 20.9229 157.733 20.911 157.697 20.8872C157.606 20.8237 157.586 20.7007 157.65 20.6094C157.804 20.3912 157.954 20.173 158.092 19.9627C158.151 19.8715 158.274 19.8477 158.365 19.9072C158.456 19.9667 158.479 20.0897 158.42 20.181C158.278 20.3992 158.128 20.6174 157.97 20.8396C157.934 20.8951 157.875 20.9229 157.812 20.9229ZM138.871 19.4986C138.836 19.4986 138.804 19.4906 138.772 19.4708C138.678 19.4152 138.646 19.2922 138.701 19.201C138.836 18.9748 138.97 18.7447 139.104 18.5186C139.16 18.4234 139.282 18.3916 139.377 18.4511C139.472 18.5067 139.503 18.6297 139.444 18.7249C139.31 18.951 139.175 19.1812 139.045 19.4073C139.005 19.4628 138.942 19.4986 138.871 19.4986ZM158.882 19.2605C158.847 19.2605 158.815 19.2526 158.783 19.2327C158.689 19.1772 158.657 19.0582 158.712 18.9629C158.847 18.7328 158.973 18.5027 159.088 18.2766C159.139 18.1814 159.258 18.1417 159.352 18.1933C159.447 18.2448 159.487 18.3639 159.435 18.4591C159.317 18.6892 159.186 18.9272 159.048 19.1613C159.017 19.2248 158.949 19.2605 158.882 19.2605ZM139.883 17.7965C139.847 17.7965 139.811 17.7886 139.78 17.7687C139.685 17.7132 139.657 17.5902 139.713 17.495C139.847 17.2688 139.985 17.0427 140.124 16.8165C140.179 16.7213 140.301 16.6936 140.396 16.7531C140.491 16.8086 140.519 16.9316 140.459 17.0268C140.321 17.253 140.183 17.4791 140.048 17.7013C140.017 17.7608 139.95 17.7965 139.883 17.7965ZM159.771 17.491C159.744 17.491 159.72 17.487 159.692 17.4751C159.593 17.4315 159.546 17.3164 159.589 17.2133C159.692 16.9713 159.787 16.7253 159.874 16.4872C159.909 16.3841 160.024 16.3285 160.127 16.3682C160.229 16.4039 160.285 16.519 160.245 16.6221C160.158 16.8681 160.06 17.122 159.953 17.372C159.921 17.4474 159.846 17.491 159.771 17.491ZM140.918 16.1064C140.882 16.1064 140.847 16.0984 140.815 16.0746C140.724 16.0151 140.692 15.8961 140.752 15.8009C140.811 15.7057 140.87 15.6144 140.93 15.5192C141.009 15.3922 141.095 15.2613 141.182 15.1264C141.242 15.0352 141.364 15.0113 141.455 15.0709C141.546 15.1304 141.57 15.2534 141.51 15.3446C141.423 15.4755 141.34 15.6025 141.265 15.7255C141.206 15.8207 141.147 15.912 141.088 16.0072C141.048 16.0746 140.985 16.1064 140.918 16.1064ZM160.399 15.6144C160.384 15.6144 160.368 15.6144 160.352 15.6104C160.245 15.5827 160.182 15.4755 160.206 15.3684C160.269 15.1145 160.32 14.8606 160.364 14.6067C160.384 14.4995 160.482 14.4242 160.593 14.444C160.7 14.4638 160.775 14.563 160.755 14.6741C160.711 14.936 160.656 15.2018 160.589 15.4636C160.569 15.5549 160.49 15.6144 160.399 15.6144ZM142.036 14.4757C141.992 14.4757 141.953 14.4638 141.917 14.4361C141.83 14.3686 141.814 14.2456 141.882 14.1583C142.036 13.956 142.202 13.7418 142.376 13.5315C142.443 13.4482 142.569 13.4323 142.652 13.5037C142.735 13.5712 142.751 13.6981 142.68 13.7814C142.51 13.9917 142.348 14.198 142.194 14.4004C142.154 14.448 142.095 14.4757 142.036 14.4757ZM160.688 13.6584C160.684 13.6584 160.684 13.6584 160.68 13.6584C160.569 13.6545 160.486 13.5632 160.49 13.4521C160.494 13.3371 160.498 13.222 160.498 13.107C160.498 12.9641 160.494 12.8173 160.486 12.6745C160.482 12.5634 160.565 12.4722 160.672 12.4682C160.783 12.4642 160.873 12.5476 160.877 12.6547C160.885 12.8054 160.889 12.9562 160.889 13.107C160.889 13.226 160.885 13.349 160.881 13.468C160.881 13.5751 160.794 13.6584 160.688 13.6584ZM143.292 12.9443C143.245 12.9443 143.201 12.9284 143.162 12.8967C143.079 12.8253 143.071 12.6983 143.142 12.615C143.312 12.4206 143.494 12.2183 143.671 12.0199C143.746 11.9405 143.869 11.9326 143.952 12.008C144.031 12.0834 144.039 12.2063 143.964 12.2897C143.786 12.4841 143.608 12.6824 143.438 12.8769C143.399 12.9205 143.343 12.9443 143.292 12.9443ZM160.546 11.6826C160.451 11.6826 160.368 11.6152 160.352 11.52C160.305 11.2661 160.245 11.0121 160.174 10.7662C160.143 10.659 160.206 10.5519 160.309 10.5202C160.415 10.4884 160.522 10.5519 160.553 10.6551C160.629 10.913 160.688 11.1788 160.739 11.4446C160.759 11.5517 160.688 11.6549 160.581 11.6747C160.569 11.6826 160.557 11.6826 160.546 11.6826ZM144.631 11.4882C144.58 11.4882 144.533 11.4684 144.493 11.4327C144.414 11.3573 144.414 11.2304 144.489 11.151C144.675 10.9606 144.865 10.7701 145.05 10.5876C145.129 10.5122 145.252 10.5122 145.331 10.5916C145.406 10.6709 145.406 10.7939 145.327 10.8733C145.141 11.0558 144.955 11.2462 144.774 11.4327C144.734 11.4684 144.683 11.4882 144.631 11.4882ZM146.05 10.1036C145.998 10.1036 145.943 10.0838 145.904 10.0401C145.829 9.96076 145.836 9.8338 145.915 9.75842C146.113 9.57592 146.311 9.39738 146.504 9.22281C146.587 9.1514 146.71 9.15933 146.785 9.23868C146.856 9.322 146.848 9.44499 146.769 9.52037C146.575 9.69098 146.382 9.86951 146.184 10.048C146.145 10.0877 146.097 10.1036 146.05 10.1036ZM159.953 9.7981C159.878 9.7981 159.807 9.75445 159.775 9.68304C159.668 9.44896 159.546 9.21885 159.416 9.00064C159.36 8.90542 159.388 8.78639 159.483 8.72688C159.578 8.67134 159.696 8.69911 159.755 8.79433C159.894 9.02444 160.02 9.26646 160.135 9.51641C160.182 9.61559 160.139 9.73462 160.036 9.77826C160.008 9.79413 159.981 9.7981 159.953 9.7981ZM147.535 8.80226C147.476 8.80226 147.421 8.77846 147.381 8.73085C147.314 8.64753 147.326 8.52057 147.409 8.45313C147.622 8.27856 147.832 8.11192 148.033 7.95719C148.12 7.88975 148.243 7.90958 148.31 7.9929C148.377 8.08018 148.357 8.20318 148.274 8.27062C148.077 8.42139 147.867 8.58802 147.658 8.75862C147.626 8.78639 147.583 8.80226 147.535 8.80226ZM158.89 8.13573C158.835 8.13573 158.78 8.11192 158.74 8.06828C158.57 7.87388 158.388 7.69137 158.199 7.52871C158.116 7.45729 158.108 7.33033 158.179 7.24702C158.25 7.1637 158.377 7.15576 158.459 7.22718C158.661 7.40571 158.855 7.60012 159.036 7.80643C159.107 7.88975 159.1 8.01274 159.017 8.08812C158.985 8.11986 158.938 8.13573 158.89 8.13573ZM149.124 7.61996C149.06 7.61996 148.997 7.58822 148.958 7.52871C148.898 7.43745 148.926 7.31446 149.017 7.25495C149.238 7.10815 149.475 6.96929 149.708 6.84233C149.803 6.79076 149.926 6.82646 149.977 6.92168C150.028 7.0169 149.993 7.13989 149.898 7.19147C149.669 7.31446 149.448 7.44936 149.234 7.58822C149.195 7.61202 149.159 7.61996 149.124 7.61996ZM157.369 6.88994C157.337 6.88994 157.302 6.88201 157.27 6.86614C157.049 6.74315 156.82 6.62809 156.583 6.53287C156.48 6.4932 156.433 6.37814 156.472 6.27499C156.512 6.17183 156.626 6.12422 156.729 6.1639C156.982 6.26705 157.231 6.38608 157.464 6.517C157.559 6.57255 157.59 6.69157 157.539 6.78679C157.503 6.85424 157.436 6.88994 157.369 6.88994ZM150.874 6.71934C150.795 6.71934 150.72 6.67173 150.688 6.59238C150.649 6.48923 150.7 6.37417 150.799 6.3345C151.048 6.23531 151.304 6.14803 151.561 6.06868C151.664 6.03694 151.775 6.09645 151.806 6.20357C151.838 6.30673 151.779 6.41781 151.672 6.44955C151.427 6.52494 151.182 6.60825 150.941 6.70347C150.925 6.71141 150.901 6.71934 150.874 6.71934ZM155.524 6.21151C155.512 6.21151 155.5 6.21151 155.484 6.20754C155.24 6.15993 154.983 6.12422 154.726 6.10042C154.615 6.09248 154.536 5.99726 154.544 5.88617C154.552 5.77509 154.647 5.69574 154.758 5.70367C155.03 5.72748 155.299 5.76318 155.56 5.81476C155.666 5.8346 155.737 5.94172 155.714 6.04884C155.698 6.14406 155.615 6.21151 155.524 6.21151ZM152.774 6.19167C152.679 6.19167 152.596 6.12422 152.581 6.02504C152.565 5.91791 152.636 5.81476 152.743 5.79889C153.011 5.75525 153.28 5.72351 153.545 5.70367C153.651 5.69574 153.746 5.77905 153.754 5.88617C153.762 5.99726 153.679 6.08852 153.572 6.09645C153.319 6.11629 153.063 6.14406 152.806 6.1877C152.794 6.1877 152.786 6.19167 152.774 6.19167Z" fill="#85C74C"/>
<path d="M170.506 91.9281C170.502 91.9281 170.502 91.9281 170.506 91.9281C170.372 91.9281 170.237 91.9241 170.107 91.9202C169.996 91.9202 169.909 91.8289 169.913 91.7178C169.913 91.6107 170.004 91.5234 170.111 91.5234H170.115C170.245 91.5274 170.375 91.5274 170.51 91.5314C170.62 91.5314 170.707 91.6226 170.703 91.7337C170.7 91.8408 170.613 91.9281 170.506 91.9281Z" fill="#85C74C"/>
<path d="M123.506 70.9207C122.692 70.9207 122.032 70.2581 122.032 69.4408C122.032 68.6235 122.692 67.9609 123.506 67.9609C124.32 67.9609 124.98 68.6235 124.98 69.4408C124.98 70.2581 124.32 70.9207 123.506 70.9207ZM123.506 68.568C123.028 68.568 122.637 68.9607 122.637 69.4408C122.637 69.9209 123.028 70.3136 123.506 70.3136C123.984 70.3136 124.375 69.9209 124.375 69.4408C124.375 68.9607 123.984 68.568 123.506 68.568Z" fill="#FFC057"/>
<path d="M36.6934 24.2566C35.8795 24.2566 35.2197 23.594 35.2197 22.7767C35.2197 21.9594 35.8795 21.2969 36.6934 21.2969C37.5073 21.2969 38.1671 21.9594 38.1671 22.7767C38.1671 23.594 37.5073 24.2566 36.6934 24.2566ZM36.6934 21.9039C36.2153 21.9039 35.8242 22.2967 35.8242 22.7767C35.8242 23.2568 36.2153 23.6496 36.6934 23.6496C37.1715 23.6496 37.5626 23.2568 37.5626 22.7767C37.5626 22.2967 37.1754 21.9039 36.6934 21.9039Z" fill="#FFC057"/>
<path d="M19.9103 87.7001H19.132V86.5972C19.132 86.4742 19.0332 86.375 18.9108 86.375C18.7883 86.375 18.6895 86.4742 18.6895 86.5972V87.6962H17.9112C17.7887 87.6962 17.6899 87.7954 17.6899 87.9184C17.6899 88.0413 17.7887 88.1405 17.9112 88.1405H18.6895V89.2395C18.6895 89.3625 18.7883 89.4617 18.9108 89.4617C19.0332 89.4617 19.132 89.3625 19.132 89.2395V88.1405H19.9103C20.0328 88.1405 20.1316 88.0413 20.1316 87.9184C20.1316 87.7993 20.0328 87.7001 19.9103 87.7001Z" fill="#85C74C"/>
<path d="M135.943 12.6165H134.777V10.9661C134.777 10.7836 134.631 10.6328 134.445 10.6328C134.264 10.6328 134.114 10.7796 134.114 10.9661V12.6165H132.948C132.766 12.6165 132.616 12.7633 132.616 12.9498C132.616 13.1323 132.762 13.2831 132.948 13.2831H134.114V14.9335C134.114 15.1161 134.26 15.2668 134.445 15.2668C134.627 15.2668 134.777 15.12 134.777 14.9335V13.2831H135.943C136.125 13.2831 136.275 13.1363 136.275 12.9498C136.275 12.7633 136.125 12.6165 135.943 12.6165Z" fill="#85C74C"/>
<path d="M51.5863 15.2629L46.862 14.5379C46.501 14.4801 46.2551 14.1438 46.3127 13.7866C46.3702 13.4241 46.7051 13.1772 47.0608 13.235L51.7851 13.96C52.1461 14.0178 52.392 14.354 52.3344 14.7112C52.2769 15.0685 51.942 15.3154 51.5863 15.2629Z" fill="#85C74C"/>
<path d="M58.4971 10.157C58.1362 10.0992 57.8903 9.76295 57.9478 9.4057L58.6698 4.66159C58.7273 4.29909 59.0622 4.05216 59.4179 4.10995C59.7789 4.16774 60.0248 4.50398 59.9673 4.86123L59.2453 9.60534C59.193 9.96259 58.8581 10.2148 58.4971 10.157Z" fill="#85C74C"/>
<path d="M53.9095 11.1628C53.7421 11.1365 53.5852 11.0472 53.4805 10.9001L50.7286 7.13845C50.5141 6.84424 50.5769 6.42919 50.8699 6.21379C51.1629 5.99839 51.5762 6.06143 51.7907 6.35564L54.5373 10.112C54.7518 10.4063 54.6891 10.8213 54.3961 11.0367C54.2548 11.147 54.0769 11.1891 53.9095 11.1628Z" fill="#85C74C"/>
<path d="M63.4014 33.2891V77.2922C63.4014 87.788 71.9098 96.2964 82.4055 96.2964H94.96C105.456 96.2964 113.964 87.788 113.964 77.2922V33.2891H63.4014Z" fill="#457B9D"/>
<path d="M108.059 33.2891V77.2919C108.059 87.7886 99.5497 96.2964 89.0546 96.2964H94.9608C105.456 96.2964 113.965 87.7886 113.965 77.2919V33.2891H108.059Z" fill="#B9D1DF"/>
<path d="M113.964 33.8896V22.989C113.964 22.0545 113.207 21.2969 112.272 21.2969H65.0935C64.159 21.2969 63.4014 22.0545 63.4014 22.989V33.8896H113.964Z" fill="#F5F7F8"/>
<path d="M108.059 22.9884V33.8895H113.966V22.9884C113.966 22.0543 113.208 21.2969 112.272 21.2969H106.366C107.302 21.2969 108.059 22.0543 108.059 22.9884Z" fill="#D9E7EB"/>
<path d="M97.9723 28.5434H79.394C76.7204 28.5434 74.4261 26.6391 73.9337 24.0113L73.4249 21.2969H103.941L103.433 24.0113C102.94 26.639 100.646 28.5434 97.9723 28.5434Z" fill="#457B9D"/>
<path d="M103.941 21.2969L103.432 24.0116C102.94 26.6387 100.645 28.5431 97.9727 28.5431H93.4366C96.109 28.5431 98.4042 26.6387 98.8962 24.0116L99.4048 21.2969H103.941Z" fill="#B9D1DF"/>
<path d="M94.6853 91.4017H82.6821C81.8487 91.4017 81.1731 90.7262 81.1731 89.8927V85.9465C81.1731 85.1131 81.8487 84.4375 82.6821 84.4375H94.6853C95.5188 84.4375 96.1943 85.1131 96.1943 85.9465V89.8927C96.1943 90.7262 95.5188 91.4017 94.6853 91.4017Z" fill="#F5F7F8"/>
<path d="M96.1934 85.9465V89.8926C96.1934 90.7256 95.5174 91.4016 94.6844 91.4016H90.1483C90.9813 91.4016 91.6574 90.7256 91.6574 89.8926V85.9465C91.6574 85.1135 90.9813 84.4375 90.1483 84.4375H94.6844C95.5174 84.4375 96.1934 85.1135 96.1934 85.9465Z" fill="#D9E7EB"/>
<path d="M103.409 79.9532H73.9565C72.7065 79.9532 71.693 78.9398 71.693 77.6896V36.1542C71.693 34.9041 72.7063 33.8906 73.9565 33.8906H103.41C104.66 33.8906 105.673 34.904 105.673 36.1542V77.6896C105.673 78.9398 104.659 79.9532 103.409 79.9532Z" fill="#596D76"/>
<path d="M105.673 36.1542V77.6896C105.673 78.9405 104.659 79.9532 103.409 79.9532H98.1593C99.4088 79.9532 100.423 78.9405 100.423 77.6896V36.1542C100.423 34.9047 99.4088 33.8906 98.1593 33.8906H103.409C104.659 33.8908 105.673 34.9047 105.673 36.1542Z" fill="#475A61"/>
<path d="M84.2572 40.6562H82.868C81.4609 40.6562 80.3162 41.801 80.3162 43.2081V44.1445C80.3162 44.6698 80.476 45.1583 80.7492 45.5646C80.476 45.9708 80.3162 46.4595 80.3162 46.9848V47.9212C80.3162 49.3283 81.4609 50.473 82.868 50.473H84.2572C85.6643 50.473 86.809 49.3283 86.809 47.9212V46.9848C86.809 46.4595 86.6492 45.971 86.376 45.5646C86.6492 45.1585 86.809 44.6698 86.809 44.1445V43.2081C86.8089 41.801 85.6641 40.6562 84.2572 40.6562ZM82.5797 43.2081C82.5797 43.049 82.7089 42.9198 82.868 42.9198H84.2572C84.4163 42.9198 84.5455 43.0491 84.5455 43.2081V44.1445C84.5455 44.3036 84.4163 44.4328 84.2572 44.4328H82.868C82.7089 44.4328 82.5797 44.3035 82.5797 44.1445V43.2081ZM84.5453 47.9211C84.5453 48.0801 84.4161 48.2093 84.2571 48.2093H82.8678C82.7088 48.2093 82.5796 48.08 82.5796 47.9211V46.9846C82.5796 46.8255 82.7088 46.6964 82.8678 46.6964H84.2571C84.4161 46.6964 84.5453 46.8257 84.5453 46.9846V47.9211Z" fill="#FFC107"/>
<path d="M91.7616 40.6562H90.3724C88.9653 40.6562 87.8206 41.801 87.8206 43.2081V47.9211C87.8206 49.3282 88.9653 50.4729 90.3724 50.4729H91.7616C93.1687 50.4729 94.3134 49.3282 94.3134 47.9211V43.2081C94.3134 41.801 93.1687 40.6562 91.7616 40.6562ZM92.0499 47.9211C92.0499 48.0801 91.9207 48.2093 91.7616 48.2093H90.3724C90.2133 48.2093 90.0841 48.08 90.0841 47.9211V43.2081C90.0841 43.049 90.2133 42.9198 90.3724 42.9198H91.7616C91.9207 42.9198 92.0499 43.0491 92.0499 43.2081V47.9211Z" fill="#FFC107"/>
<path d="M100.447 50.4197H98.1683C97.5431 50.4197 97.0366 49.913 97.0366 49.288C97.0366 48.6629 97.5433 48.1562 98.1683 48.1562H100.447C101.072 48.1562 101.579 48.6629 101.579 49.288C101.579 49.913 101.072 50.4197 100.447 50.4197Z" fill="#F5F7F8"/>
<path d="M100.447 54.5525H98.1683C97.5431 54.5525 97.0366 54.0458 97.0366 53.4208C97.0366 52.7957 97.5433 52.2891 98.1683 52.2891H100.447C101.072 52.2891 101.579 52.7957 101.579 53.4208C101.579 54.0458 101.072 54.5525 100.447 54.5525Z" fill="#F5F7F8"/>
<path d="M100.447 58.6775H98.1683C97.5431 58.6775 97.0366 58.1708 97.0366 57.5458C97.0366 56.9207 97.5433 56.4141 98.1683 56.4141H100.447C101.072 56.4141 101.579 56.9207 101.579 57.5458C101.579 58.1708 101.072 58.6775 100.447 58.6775Z" fill="#F5F7F8"/>
<path d="M100.447 62.8025H98.1683C97.5431 62.8025 97.0366 62.2958 97.0366 61.6708C97.0366 61.0457 97.5433 60.5391 98.1683 60.5391H100.447C101.072 60.5391 101.579 61.0457 101.579 61.6708C101.579 62.2958 101.072 62.8025 100.447 62.8025Z" fill="#F5F7F8"/>
<path d="M100.447 66.9353H98.1683C97.5431 66.9353 97.0366 66.4286 97.0366 65.8036C97.0366 65.1785 97.5433 64.6719 98.1683 64.6719H100.447C101.072 64.6719 101.579 65.1785 101.579 65.8036C101.579 66.4286 101.072 66.9353 100.447 66.9353Z" fill="#F5F7F8"/>
<path d="M76.9215 74.8626H98.5039C99.1925 74.8626 99.5212 74.0159 99.0131 73.5513L95.729 70.5483C95.5604 70.3941 95.331 70.3246 95.1051 70.3594L92.7447 70.7223L88.8657 65.0104C88.5595 64.5595 87.891 64.5719 87.6018 65.0339L84.0349 70.7338L80.9165 68.3759C80.6207 68.1523 80.2063 68.1767 79.9389 68.4334L76.9214 71.3299V74.8626H76.9215Z" fill="#FFF3CD"/>
<path d="M76.9215 75.9914C76.2963 75.9914 75.7898 75.4847 75.7898 74.8596V39.577C75.7898 38.952 76.2965 38.4453 76.9215 38.4453C77.5465 38.4453 78.0532 38.952 78.0532 39.577V74.8595C78.0534 75.4847 77.5467 75.9914 76.9215 75.9914Z" fill="#FFC107"/>
<path d="M100.8 73.7266H76.9689C76.3491 73.7266 75.8088 74.2042 75.7903 74.8237C75.7711 75.4647 76.285 75.9901 76.9216 75.9901H100.8C101.425 75.9901 101.931 75.4834 101.931 74.8584C101.931 74.2332 101.425 73.7266 100.8 73.7266Z" fill="#FFC107"/>
<path d="M85.6774 55.9118H81.4482C80.8231 55.9118 80.3165 55.4052 80.3165 54.7801C80.3165 54.1551 80.8232 53.6484 81.4482 53.6484H85.6774C86.3026 53.6484 86.8091 54.1551 86.8091 54.7801C86.8091 55.405 86.3024 55.9118 85.6774 55.9118Z" fill="#F5F7F8"/>
<path d="M91.5625 60.0447H81.4482C80.8231 60.0447 80.3165 59.538 80.3165 58.913C80.3165 58.2879 80.8232 57.7812 81.4482 57.7812H91.5625C92.1877 57.7812 92.6942 58.2879 92.6942 58.913C92.6942 59.538 92.1877 60.0447 91.5625 60.0447Z" fill="#F5F7F8"/>
</g>
<defs>
<clipPath id="clip0_1572_167509">
<rect width="170.33" height="100" fill="white" transform="translate(0.373535 0.5)"/>
</clipPath>
</defs>
</svg>
