<svg width="53" height="70" viewBox="0 0 53 70" fill="none" xmlns="http://www.w3.org/2000/svg">
<g clip-path="url(#clip0_1585_11756)">
<path d="M52.6074 39.1831C54.9122 24.8068 45.1263 11.2841 30.7501 8.97928C16.3738 6.67448 2.85107 16.4603 0.546268 30.8366C-1.75854 45.2129 8.02733 58.7356 22.4036 61.0404C36.7799 63.3452 50.3026 53.5593 52.6074 39.1831Z" fill="#B9D1DF"/>
<path d="M33.1278 24.9062C33.1278 24.9062 32.5727 29.485 33.4746 31.7051C33.4746 31.7051 32.8502 35.6595 27.6471 35.2432C22.3745 34.827 23.3458 31.0113 23.3458 31.0113C23.3458 31.0113 24.2477 28.7913 23.2764 26.0856L33.1278 24.9062Z" fill="#CF8755"/>
<path d="M12.3816 69.8967C13.952 65.7677 14.7397 60.8547 14.8118 59.7865C14.8838 58.932 15.1733 53.7337 15.3918 48.1792L9.41149 46.3936C8.55149 52.5172 8.11826 59.2109 8.11826 59.2109L6.04359 69.8911L12.3816 69.8967Z" fill="#DA8F5B"/>
<path d="M7.12967 50.4461L11.8289 51.3761L15.1754 52.0199C15.2476 50.8806 15.3199 49.7412 15.3209 48.6018C15.6834 41.3384 16.0462 33.7188 16.0462 33.7188C16.0462 33.7188 11.4173 33.7859 9.13225 40.7628C8.56058 42.97 7.63095 47.3132 7.12967 50.4461Z" fill="#3B6A88"/>
<path d="M38.9564 69.996C39.0258 67.9841 39.442 60.0059 39.9277 53.3458C39.997 52.1664 40.1358 51.0564 40.2052 50.0158C40.3439 48.6283 40.4827 47.3795 40.6214 46.4083C40.7602 45.3676 40.8989 44.5351 41.0377 44.1189L41.107 42.4539C41.107 42.4539 41.9395 34.6144 40.9683 33.9207C39.997 33.2269 33.4757 31.6313 33.4757 31.6313C33.4757 31.6313 31.8801 34.8919 27.7175 34.6144C23.4856 34.3369 23.3469 30.9375 23.3469 30.9375C23.3469 30.9375 19.1843 32.1169 17.45 32.8106C15.7156 33.5044 15.1606 33.6432 14.7443 33.99C14.3281 34.3369 15.3687 62.3647 15.9237 69.996H38.9564Z" fill="#457B9D"/>
<path d="M15.3691 9.28627C15.3691 9.28627 15.5079 15.1832 16.6179 18.652L18.4217 18.9295L19.6011 7.34375L15.3691 9.28627Z" fill="black"/>
<path d="M18.5598 19.0763C18.5598 19.0763 16.8948 17.2725 15.9236 18.1744C14.9523 19.0763 15.0217 21.2269 16.4092 22.6144C17.7967 24.002 18.8373 22.8919 18.8373 22.8919L18.5598 19.0763Z" fill="#CF8755"/>
<path d="M18.1436 9.14828C17.0336 10.8827 17.3805 19.6934 17.8661 23.3703C18.213 26.2147 20.5718 30.1691 26.1218 30.2385C29.7294 30.3078 33.9613 26.2147 34.1694 24.064C34.4469 20.8034 33.8225 18.4446 33.7532 16.849C33.7532 16.849 33.545 10.6052 31.7413 7.76077C30.5619 5.88763 20.1555 5.957 18.1436 9.14828Z" fill="#DA8F5B"/>
<path d="M34.8552 6.93551C37.9483 12.999 35.8959 18.3824 35.8959 18.3824H33.329C33.1209 14.7055 31.8721 11.0286 30.2071 9.15544C29.5133 8.39231 28.8196 7.8373 28.0564 7.76793C25.4202 7.42105 20.8414 11.9998 20.2864 11.5836C19.7314 11.1673 21.2576 8.94731 21.327 8.80856C21.1882 8.94731 17.0257 13.318 16.5401 12.9711C16.0545 12.6242 17.0257 10.8898 17.0257 10.8205C16.977 10.9179 15.2523 12.1099 14.2292 12.8112C13.9058 13.033 13.4827 12.8134 13.5039 12.4218C13.6033 10.5884 14.1788 6.37985 17.2867 3.97543C23.3947 -0.578378 31.8538 1.12451 34.8552 6.93551Z" fill="black"/>
<path d="M32.5742 19.0049C32.5742 19.0049 34.378 17.0624 35.6267 17.8949C36.8755 18.7274 36.9449 20.8781 35.4186 22.3349C33.8924 23.7918 32.5742 22.8206 32.5742 22.8206V19.0049Z" fill="#DA8F5B"/>
<g opacity="0.4">
<path opacity="0.4" d="M19.5991 17.7538C19.5298 17.7538 19.5298 17.7538 19.4604 17.6844C19.391 17.615 19.4604 17.5457 19.5298 17.4763L28.063 11.8569C28.1323 11.7875 28.2017 11.8569 28.2711 11.9262C28.3405 11.9956 28.2711 12.065 28.2017 12.1344L19.6685 17.7538C19.6685 17.6844 19.5991 17.7538 19.5991 17.7538Z" fill="#DE6B71"/>
<path opacity="0.4" d="M22.3042 17.4813C22.2348 17.4813 22.2348 17.4813 22.1655 17.4119C22.0961 17.3425 22.1655 17.2731 22.2348 17.2038L28.0624 13.3881C28.1318 13.3187 28.2011 13.3881 28.2705 13.4575C28.3399 13.5269 28.2705 13.5962 28.2011 13.6656L22.3736 17.4813C22.3042 17.4813 22.3042 17.4813 22.3042 17.4813Z" fill="#DE6B71"/>
<path opacity="0.4" d="M24.3159 17.3416C24.2465 17.3416 24.2465 17.3416 24.1772 17.2722C24.1078 17.2028 24.1772 17.1334 24.2466 17.0641L27.4378 15.0522C27.5072 14.9828 27.5766 15.0522 27.646 15.1215C27.7153 15.1909 27.646 15.2603 27.5766 15.3297L24.3853 17.3416H24.3159Z" fill="#DE6B71"/>
<path opacity="0.4" d="M21.5425 14.7044C21.4731 14.7044 21.4731 14.7044 21.4037 14.635C21.3344 14.5656 21.4037 14.4963 21.4731 14.4269L25.9131 11.5131C25.9825 11.4437 26.0519 11.5131 26.1213 11.5825C26.1907 11.6519 26.1213 11.7212 26.0519 11.7906L21.6119 14.7044H21.5425Z" fill="#DE6B71"/>
</g>
<path d="M29.797 17.4851C29.8664 18.3176 29.3807 19.0114 28.687 19.0808C28.0626 19.0808 27.4382 18.4564 27.4382 17.6239C27.3689 16.7914 27.8545 16.0976 28.5482 16.0282C29.1726 15.9589 29.7276 16.6526 29.797 17.4851Z" fill="#292929"/>
<path d="M21.2638 18.2538C21.3332 19.0863 20.8475 19.78 20.1538 19.8494C19.5294 19.8494 18.905 19.225 18.905 18.3925C18.8357 17.56 19.3213 16.8663 20.015 16.7969C20.6394 16.7969 21.1944 17.4213 21.2638 18.2538Z" fill="#292929"/>
<path d="M17.3795 13.7396C17.5876 13.9477 18.0732 14.2252 18.212 14.2946C18.9751 14.5027 19.877 14.5027 20.7095 14.2946C21.6808 14.0171 22.4439 13.1846 21.6114 12.4908C21.1951 12.2133 20.2932 12.6296 19.877 12.8377C19.1832 13.1152 18.4201 13.254 17.657 13.3234C17.102 13.3234 17.1713 13.5315 17.3795 13.7396Z" fill="black"/>
<path d="M31.115 13.045C30.9069 13.2532 30.4213 13.5307 30.2825 13.6C29.5194 13.8775 28.6175 13.8775 27.785 13.6694C26.7444 13.4613 26.0506 12.6288 26.8137 11.935C27.1606 11.5881 28.1319 12.0738 28.5481 12.2125C29.3113 12.49 30.0744 12.5594 30.8375 12.6288C31.3232 12.6288 31.3232 12.8369 31.115 13.045Z" fill="black"/>
<path d="M24.8362 23.0773C24.7111 23.0731 24.7111 23.0731 24.586 23.0688C24.2106 23.056 23.8383 22.9264 23.5958 22.6905C22.7432 21.9786 23.3314 19.4186 23.4746 18.8923C23.4797 18.7407 23.7325 18.6735 23.8576 18.6777C24.1079 18.6862 24.2278 18.8421 24.2252 18.9179C23.9363 20.0463 23.8115 21.7653 24.1959 22.1252C24.3185 22.2052 24.441 22.2853 24.6912 22.2938C25.1917 22.3108 25.6973 22.1763 25.9527 22.0332C26.0804 21.9616 26.3306 21.9702 26.4532 22.0502C26.5757 22.1303 26.6111 22.4548 26.4834 22.5264C26.3479 22.8253 25.712 23.1071 24.8362 23.0773Z" fill="#C57D4B"/>
<path d="M22.4445 26.6397C22.3057 26.6397 22.2363 26.5009 22.2363 26.3622C22.3057 26.0847 22.6526 25.5296 23.3463 25.5296C23.9013 25.5296 24.1095 25.8072 24.2482 25.9459C24.3176 26.0153 24.3176 26.0847 24.387 26.0847C24.387 26.0847 24.4563 26.0153 24.4563 25.9459C24.5951 25.7378 24.8032 25.3909 25.4276 25.3215C26.1214 25.2521 26.3295 25.599 26.4682 25.8072C26.4682 25.8765 26.5376 25.8765 26.5376 25.9459V25.8765C26.607 25.6684 26.8151 25.3215 27.3007 25.3215C28.0639 25.2521 28.4801 25.9459 28.4801 26.0153C28.5495 26.0847 28.4801 26.2234 28.4108 26.2928C28.3414 26.3622 28.2026 26.2928 28.1333 26.2234C28.1333 26.2234 27.8558 25.7378 27.3007 25.7378C27.0232 25.7378 26.9539 25.8765 26.8845 26.0847C26.8151 26.2234 26.6764 26.5009 26.3295 26.3622C26.1907 26.2928 26.052 26.154 25.9826 26.0153C25.8439 25.8072 25.7745 25.6684 25.3582 25.7378C24.942 25.8072 24.8032 25.9459 24.6645 26.154C24.5951 26.2928 24.4563 26.5009 24.1788 26.5009C23.9707 26.5009 23.832 26.3622 23.7626 26.2234C23.6238 26.0847 23.5545 25.9459 23.1382 25.9459C22.5832 25.8765 22.5138 26.3622 22.4445 26.4315C22.6526 26.5703 22.5832 26.6397 22.4445 26.6397Z" fill="#CF8755"/>
<path d="M40.4831 64.4446C40.4137 65.9708 40.4831 67.9827 40.5524 69.9946H46.7963C47.0738 68.1909 47.2819 66.3177 47.49 64.6527C48.3225 58.617 47.6981 52.4426 47.49 51.2632C47.2819 50.0838 45.3394 41.8281 45.3394 41.8281L37.6387 46.2682C37.8468 47.3088 40.6218 54.2464 40.6218 54.2464C40.6218 54.2464 40.6912 60.0739 40.4831 64.4446Z" fill="#DA8F5B"/>
<path d="M48.3222 49.4621C48.3222 49.4621 41.3152 52.3065 37.9158 52.1677C37.9158 52.1677 35.3489 39.7495 35.8346 36.6276C36.3202 33.5057 39.9277 32.0488 42.4253 34.8238C44.9228 37.5295 48.3222 49.4621 48.3222 49.4621Z" fill="#457B9D"/>
<path d="M10.88 14.0813C10.8107 14.0813 10.8107 14.0813 10.7413 14.0119L10.325 13.0406L9.21502 13.2488C9.14564 13.2488 9.07627 13.2488 9.07627 13.1794L8.66001 12.2775L7.34188 12.4163C7.2725 12.4163 7.20312 12.3469 7.20312 12.2775C7.20312 12.2081 7.2725 12.1388 7.34188 12.1388L8.72939 12C8.79876 12 8.86814 12 8.86814 12.0694L9.28439 12.9713L10.3944 12.7631C10.4638 12.7631 10.5332 12.7631 10.5332 12.8325L10.9494 13.7344L11.9207 13.4569C11.99 13.4569 12.0594 13.4569 12.0594 13.5263C12.0594 13.5956 12.0594 13.665 11.99 13.665L10.88 14.0813Z" fill="#DE6B71"/>
<path d="M12.6842 12.2735L11.5741 12.0653C11.5048 12.0653 11.4354 11.996 11.4354 11.9266V10.886L10.3254 10.5391C10.256 10.5391 10.256 10.4697 10.256 10.4003L10.3254 9.42907L9.07663 9.01282C9.00725 9.01282 8.93788 8.94344 9.00725 8.87406C9.00725 8.80469 9.07663 8.80469 9.146 8.80469L10.4641 9.29032C10.5335 9.29032 10.5335 9.35969 10.5335 9.42907L10.4641 10.4003L11.5741 10.7472C11.6435 10.7472 11.6435 10.8166 11.6435 10.886V11.9266L12.6148 12.0653C12.6842 12.0653 12.7535 12.1347 12.7535 12.2041C12.8229 12.2041 12.7535 12.2735 12.6842 12.2735Z" fill="#DE6B71"/>
<path d="M8.38289 17.5494C8.31352 17.5494 8.24414 17.48 8.24414 17.4106C8.24414 17.3413 8.31352 17.2719 8.38289 17.2719L9.70103 17.1331L9.90916 16.1619C9.90916 16.0925 9.97853 16.0231 10.0479 16.0231L11.2273 15.9538L11.4354 14.9825C11.4354 14.9131 11.5048 14.8438 11.5742 14.8438L12.6842 14.9131C12.7536 14.9131 12.8229 14.9825 12.8229 15.0519C12.8229 15.1213 12.7536 15.1906 12.6842 15.1906L11.7129 15.1213L11.5048 16.0925C11.5048 16.1619 11.4354 16.1619 11.366 16.2313L10.1867 16.3006L9.97853 17.2719C9.97853 17.3413 9.90916 17.3413 9.83978 17.4106L8.38289 17.5494Z" fill="#DE6B71"/>
<path d="M41.1805 14.0813C41.2499 14.0813 41.2499 14.0813 41.3193 14.0119L41.7355 13.0406L42.8455 13.2488C42.9149 13.2488 42.9843 13.2488 42.9843 13.1794L43.4005 12.2775L44.7187 12.4163C44.788 12.4163 44.8574 12.3469 44.8574 12.2775C44.8574 12.2081 44.788 12.1388 44.7187 12.1388L43.3312 12C43.2618 12 43.1924 12 43.1924 12.0694L42.7762 12.9713L41.6661 12.7631C41.5968 12.7631 41.5274 12.7631 41.5274 12.8325L41.1111 13.7344L40.1399 13.4569C40.0705 13.4569 40.0011 13.4569 40.0011 13.5263C40.0011 13.5956 40.0011 13.665 40.0705 13.665L41.1805 14.0813Z" fill="#DE6B71"/>
<path d="M39.3764 12.2735L40.4864 12.0653C40.5558 12.0653 40.6251 11.996 40.6251 11.9266V10.886L41.7352 10.5391C41.8045 10.5391 41.8045 10.4697 41.8045 10.4003L41.7352 9.42907L42.9839 9.01282C43.0533 9.01282 43.1227 8.94344 43.0533 8.87406C43.0533 8.80469 42.9839 8.80469 42.9145 8.80469L41.5964 9.29032C41.527 9.29032 41.527 9.35969 41.527 9.42907L41.5964 10.4003L40.4864 10.7472C40.417 10.7472 40.417 10.8166 40.417 10.886V11.9266L39.4458 12.0653C39.3764 12.0653 39.307 12.1347 39.307 12.2041C39.2376 12.2041 39.307 12.2735 39.3764 12.2735Z" fill="#DE6B71"/>
<path d="M43.6777 17.5494C43.747 17.5494 43.8164 17.48 43.8164 17.4106C43.8164 17.3413 43.747 17.2719 43.6777 17.2719L42.3595 17.1331L42.1514 16.1619C42.1514 16.0925 42.082 16.0231 42.0126 16.0231L40.8333 15.9538L40.6251 14.9825C40.6251 14.9131 40.5558 14.8438 40.4864 14.8438L39.3764 14.9131C39.307 14.9131 39.2376 14.9825 39.2376 15.0519C39.2376 15.1213 39.307 15.1906 39.3764 15.1906L40.3476 15.1213L40.5558 16.0925C40.5558 16.1619 40.6251 16.1619 40.6945 16.2313L41.8739 16.3006L42.082 17.2719C42.082 17.3413 42.1514 17.3413 42.2208 17.4106L43.6777 17.5494Z" fill="#DE6B71"/>
</g>
<defs>
<clipPath id="clip0_1585_11756">
<rect width="52.7255" height="70" fill="white" transform="translate(0.175781)"/>
</clipPath>
</defs>
</svg>
