<svg width="56" height="70" viewBox="0 0 56 70" fill="none" xmlns="http://www.w3.org/2000/svg">
<g clip-path="url(#clip0_1585_11660)">
<path d="M54.7812 39.2369C57.135 24.555 47.1411 10.7449 32.4593 8.39111C17.7774 6.03731 3.96728 16.0312 1.61349 30.713C-0.74031 45.3949 9.25356 59.205 23.9354 61.5588C38.6173 63.9126 52.4274 53.9187 54.7812 39.2369Z" fill="#B9D1DF"/>
<path d="M3.40749 46.625C3.40749 46.625 0.786029 52.1513 0.856879 53.9226C0.92773 55.6938 8.2253 56.1189 8.2253 56.1189L11.0593 47.9003L3.40749 46.625Z" fill="#CF8755"/>
<path d="M13.7518 32.875C13.7518 32.875 9.00489 34.292 6.38343 39.6058C3.76197 44.9195 2.69922 47.4701 2.69922 47.4701L12.5474 49.7373C12.5474 49.7373 15.2397 42.4398 15.3106 41.9438C15.3814 41.377 13.7518 32.875 13.7518 32.875Z" fill="#3B6A88"/>
<path d="M42.2338 69.9974H13.5395C13.9646 69.0055 15.2399 66.5966 16.3026 64.6836C17.082 63.1957 17.7196 62.0621 17.7196 62.0621C13.0435 52.2848 12.4059 35.1391 13.0435 33.5804C13.752 32.0217 21.1913 30.5338 21.1913 30.5338C21.1913 30.5338 30.1893 29.4002 31.1812 29.1876C31.9605 28.9751 36.2824 30.9589 38.9747 32.2342C39.6832 32.5885 40.3208 32.8719 40.6751 33.0844C43.8633 34.6431 44.005 55.6148 44.2176 57.8111C44.4301 60.0075 42.2338 69.9974 42.2338 69.9974Z" fill="#457B9D"/>
<path d="M42.2346 69.997H34.9371C37.2043 66.8796 39.6132 60.9282 40.0383 58.3776C40.2508 57.0314 35.6456 52.3553 33.7326 44.6326C31.7488 36.91 37.0626 34.1468 37.0626 34.1468L38.9047 32.3047C39.6132 32.6589 40.2508 32.9423 40.6051 33.1549C43.7933 34.7136 43.935 55.6853 44.1476 57.8816C44.431 60.0071 42.2346 69.997 42.2346 69.997Z" fill="#3B6A88"/>
<path d="M30.9693 63.0544C30.9693 63.0544 24.8053 66.3135 16.2324 64.684C17.0118 63.1961 17.6494 62.0625 17.6494 62.0625C17.6494 62.0625 26.7891 63.8338 30.9693 63.0544Z" fill="#3B6A88"/>
<path d="M17.6484 43.9264C17.6484 43.9264 17.9318 42.3677 18.4986 41.3049C19.1363 40.2422 20.4116 38.5418 20.5533 37.5499C20.6241 36.558 21.1201 36.2037 21.7578 36.7705C22.3246 37.2665 22.4663 38.6835 21.9703 39.5337C21.5452 40.3839 21.616 41.1632 21.6869 41.1632C21.7578 41.1632 24.6626 39.3211 25.442 38.7543C26.2213 38.1875 29.4096 36.6997 30.0472 36.8414C30.6849 36.9831 30.614 37.5499 30.0472 37.975C29.4804 38.4001 27.3549 39.6045 26.7173 40.1005C26.0088 40.5964 25.0169 41.4466 25.1586 41.5883C25.3003 41.73 27.8509 40.1713 28.6302 39.8171C29.4096 39.4628 31.6768 38.7543 32.1019 38.8252C32.527 38.896 32.5978 39.5337 31.8893 40.1005C31.8893 40.1005 32.3853 40.4547 31.7476 41.0924C31.11 41.73 27.0715 44.7766 27.2132 44.8474C27.3549 44.9183 30.4015 44.564 30.8266 44.564C31.2517 44.6349 30.8974 45.3434 30.1181 45.7685C29.3387 46.1936 26.9298 46.9729 26.0088 47.3272C25.0877 47.6814 22.8914 48.8859 21.8286 48.815C20.695 48.815 19.9865 48.4608 19.9865 48.4608L17.6484 43.9264Z" fill="#DA8F5B"/>
<path d="M17.6493 43.9219C17.6493 43.9219 10.4935 46.685 6.38415 48.8814C2.27484 51.0069 -1.26767 54.1243 2.13314 57.6668C5.4631 61.2093 17.5785 51.0069 19.9874 48.3854L17.6493 43.9219Z" fill="#DA8F5B"/>
<path d="M28.5601 21.5312C28.8435 21.8147 31.89 29.7499 32.2443 31.096C32.2443 31.096 31.4649 34.4968 26.222 34.6385C20.9791 34.7802 20.6249 30.3167 20.6249 30.3167C20.6249 30.3167 20.554 26.6325 20.1289 25.0029L28.5601 21.5312Z" fill="#CF8755"/>
<path d="M8.22656 11.261C8.22656 11.261 9.14762 17.2124 10.7063 20.6132L12.5484 20.6841L12.1942 8.78125L8.22656 11.261Z" fill="black"/>
<path d="M12.7601 20.7548C12.7601 20.7548 10.8472 19.1252 9.99698 20.188C9.14678 21.2507 9.50103 23.3763 11.0597 24.5807C12.6184 25.7852 13.5395 24.5807 13.5395 24.5807L12.7601 20.7548Z" fill="#CF8755"/>
<path d="M11.0615 10.7665C10.2113 12.6794 11.6283 21.5357 12.6202 25.2199C13.3996 28.0539 16.2336 31.7381 21.9016 31.1005C25.515 30.6754 29.3409 25.9993 29.27 23.8029C29.1283 20.473 28.2073 18.2057 27.9239 16.5762C27.9239 16.5762 26.932 10.2705 24.7356 7.57821C23.1769 5.87781 12.6202 7.29481 11.0615 10.7665Z" fill="url(#paint0_linear_1585_11660)"/>
<path d="M28.6747 7.32714C31.8335 13.5195 29.7375 19.0173 29.7375 19.0173H27.116C26.9035 15.2623 25.6282 11.5072 23.9278 9.59425C23.2193 8.8149 22.5108 8.2481 21.7314 8.17724C19.0391 7.82299 14.363 12.4991 13.7962 12.074C13.2294 11.6489 14.7881 9.3817 14.8589 9.24C14.7172 9.3817 10.4662 13.8453 9.97026 13.491C9.47431 13.1368 10.4662 11.3655 10.4662 11.2947C10.4162 11.3947 8.63726 12.6238 7.59452 13.3385C7.27105 13.5603 6.84783 13.3406 6.86855 12.949C6.96708 11.0868 7.54804 6.76798 10.7327 4.30414C16.9706 -0.34646 25.6095 1.39263 28.6747 7.32714Z" fill="black"/>
<path d="M26.9316 18.8474C26.9316 18.8474 28.4903 16.651 29.9074 17.3595C31.3244 18.068 31.6078 20.1935 30.2616 21.8939C28.9154 23.5943 27.4276 22.7441 27.4276 22.7441L26.9316 18.8474Z" fill="#DA8F5B"/>
<path d="M11.2728 15.5145C11.5562 15.7271 12.0521 15.9396 12.1938 15.9396C12.9732 16.0813 13.8943 15.9396 14.6736 15.6562C15.6655 15.302 16.2323 14.3101 15.3113 13.7433C14.8862 13.4599 14.036 14.0975 13.6109 14.3101C12.9024 14.6643 12.1938 14.9477 11.4145 15.0894C10.9185 15.0894 10.9894 15.302 11.2728 15.5145Z" fill="black"/>
<path d="M24.4934 13.5068C24.2808 13.7902 23.8557 14.0736 23.714 14.1445C23.0055 14.4987 22.0844 14.6404 21.2342 14.5696C20.1715 14.4987 19.3213 13.7194 20.0298 12.94C20.384 12.5858 21.3759 12.8692 21.801 12.94C22.5804 13.0817 23.3598 13.0817 24.1391 13.0817C24.7059 13.0109 24.6351 13.2234 24.4934 13.5068Z" fill="black"/>
<path d="M19.0306 24.9526C18.9028 24.9482 18.9028 24.9482 18.775 24.9439C18.3917 24.9308 18.0115 24.7984 17.7638 24.5575C16.8931 23.8304 17.4938 21.2161 17.64 20.6786C17.6452 20.5238 17.9034 20.4551 18.0312 20.4594C18.2868 20.4681 18.4093 20.6273 18.4066 20.7047C18.1116 21.8571 17.9841 23.6127 18.3767 23.9801C18.5018 24.0619 18.627 24.1436 18.8825 24.1523C19.3936 24.1697 19.91 24.0323 20.1708 23.8862C20.3012 23.8132 20.5568 23.8218 20.6819 23.9036C20.8071 23.9854 20.8432 24.3168 20.7127 24.3899C20.5744 24.6951 19.925 24.983 19.0306 24.9526Z" fill="#C57D4B"/>
<path d="M12.6188 20.9033C12.5479 20.9033 12.4062 20.8325 12.4062 20.6908C12.4062 20.5491 12.4771 20.4782 12.548 20.4073L14.8152 19.9114L12.7605 19.2029C12.6188 19.132 12.5479 19.0612 12.6188 18.9195C12.6897 18.7778 12.7605 18.7069 12.9022 18.7778L15.7362 19.7697C15.8071 19.7697 15.8779 19.9114 15.8779 19.9822C15.8779 20.0531 15.8071 20.1948 15.6654 20.1948L12.6188 20.9033Z" fill="black"/>
<path d="M24.0004 18.8068C24.0689 18.7885 24.1874 18.6834 24.1507 18.5465C24.1141 18.4096 24.0273 18.3595 23.9405 18.3094L21.6222 18.4172L23.4235 17.201C23.542 17.0959 23.5921 17.0091 23.487 16.8906C23.3819 16.7721 23.2951 16.722 23.1766 16.8271L20.6959 18.5187C20.6274 18.537 20.5957 18.6922 20.614 18.7607C20.6323 18.8291 20.7374 18.9476 20.8743 18.911L24.0004 18.8068Z" fill="black"/>
<path d="M18.1161 28.4453C18.001 28.4762 17.9126 28.3765 17.8818 28.2614C17.8776 28.0158 18.042 27.4782 18.6175 27.324C19.0779 27.2007 19.3123 27.3846 19.4582 27.4689C19.5312 27.511 19.5466 27.5685 19.6042 27.5531C19.6042 27.5531 19.6463 27.4802 19.6309 27.4226C19.6997 27.2191 19.7953 26.8851 20.2978 26.6888C20.8579 26.477 21.1077 26.7185 21.269 26.8603C21.2844 26.9178 21.342 26.9024 21.3574 26.96L21.342 26.9024C21.3533 26.7144 21.4488 26.3803 21.8517 26.2724C22.4693 26.0452 22.9689 26.5282 22.9843 26.5857C23.0572 26.6279 23.0305 26.7584 22.9884 26.8314C22.9463 26.9043 22.8158 26.8776 22.7428 26.8355C22.7428 26.8355 22.4046 26.4943 21.9442 26.6177C21.714 26.6794 21.6873 26.8099 21.676 26.998C21.6493 27.1285 21.5959 27.3895 21.2773 27.3516C21.1468 27.3248 21.0008 27.2406 20.9124 27.1409C20.7511 26.9991 20.6627 26.8994 20.3328 27.0495C20.0029 27.1996 19.9186 27.3455 19.8498 27.549C19.8231 27.6795 19.7542 27.883 19.524 27.9447C19.3514 27.991 19.2054 27.9067 19.117 27.807C18.9711 27.7228 18.8827 27.6231 18.5374 27.7156C18.0616 27.7814 18.112 28.1997 18.0698 28.2727C18.2733 28.3415 18.2312 28.4145 18.1161 28.4453Z" fill="#CF8755"/>
<path d="M50.3826 44.1368C50.2409 43.9951 48.8239 42.7198 48.6114 42.5781C46.6276 44.8453 44.6438 47.3959 43.8644 49.8049L47.7612 52.8514C47.9029 52.7806 39.6842 66.8798 38.0547 70.068H44.6438C47.1235 67.0923 52.3664 60.6449 54.2085 57.2441C57.3968 51.151 55.0587 48.8838 50.3826 44.1368Z" fill="#DA8F5B"/>
<path d="M39.0456 32.4456C35.2197 31.4537 32.8108 39.2473 35.0072 43.9234C36.3533 46.7574 44.2177 52.0711 44.2177 52.0711C45.7764 50.2999 49.4606 45.1987 51.4444 42.9315C46.2015 37.8303 42.0922 33.225 39.0456 32.4456Z" fill="#457B9D"/>
<path d="M35.3703 40.5635C35.462 40.5635 35.462 40.5635 35.5537 40.4718L36.1039 39.188L37.5712 39.4631C37.6629 39.4631 37.7546 39.4631 37.7546 39.3714L38.3048 38.1793L40.0471 38.3627C40.1388 38.3627 40.2305 38.271 40.2305 38.1793C40.2305 38.0876 40.1388 37.9959 40.0471 37.9959L38.2131 37.8125C38.1214 37.8125 38.0297 37.8125 38.0297 37.9042L37.4795 39.0963L36.0122 38.8212C35.9205 38.8212 35.8288 38.8212 35.8288 38.9129L35.2786 40.105L33.9948 39.7382C33.9031 39.7382 33.8114 39.7382 33.8114 39.8299C33.8114 39.9216 33.8114 40.0133 33.9031 40.0133L35.3703 40.5635Z" fill="#DE6B71"/>
<path d="M32.9867 38.1788L34.4539 37.9037C34.5456 37.9037 34.6373 37.812 34.6373 37.7203V36.3448L36.1045 35.8863C36.1962 35.8863 36.1962 35.7946 36.1962 35.7029L36.1045 34.4191L37.7551 33.8689C37.8468 33.8689 37.9385 33.7772 37.8468 33.6855C37.8468 33.5938 37.7551 33.5938 37.6634 33.5938L35.9211 34.2357C35.8294 34.2357 35.8294 34.3274 35.8294 34.4191L35.9211 35.7029L34.4539 36.1614C34.3622 36.1614 34.3622 36.2531 34.3622 36.3448V37.7203L33.0784 37.9037C32.9867 37.9037 32.895 37.9954 32.895 38.0871C32.8033 38.0871 32.895 38.1788 32.9867 38.1788Z" fill="#DE6B71"/>
<path d="M38.6721 45.1466C38.7638 45.1466 38.8555 45.0549 38.8555 44.9632C38.8555 44.8715 38.7638 44.7798 38.6721 44.7798L36.9298 44.5964L36.6547 43.3126C36.6547 43.2209 36.563 43.1292 36.4713 43.1292L34.9123 43.0375L34.6372 41.7537C34.6372 41.662 34.5455 41.5703 34.4538 41.5703L32.9866 41.662C32.8949 41.662 32.8032 41.7537 32.8032 41.8454C32.8032 41.9371 32.8949 42.0288 32.9866 42.0288L34.2704 41.9371L34.5455 43.2209C34.5455 43.3126 34.6372 43.3126 34.7289 43.4043L36.2879 43.496L36.563 44.7798C36.563 44.8715 36.6547 44.8715 36.7464 44.9632L38.6721 45.1466Z" fill="#DE6B71"/>
<path d="M15.5951 40.0807C15.506 40.0588 15.506 40.0588 15.4388 39.9479L15.2107 38.5699L13.7202 38.4872C13.6311 38.4653 13.5421 38.4434 13.564 38.3544L13.3139 37.0655L11.5781 36.8281C11.4891 36.8062 11.4219 36.6953 11.4438 36.6062C11.4656 36.5172 11.5766 36.45 11.6656 36.4718L13.4905 36.7311C13.5795 36.753 13.6686 36.7749 13.6467 36.8639L13.8967 38.1528L15.3872 38.2356C15.4763 38.2574 15.5653 38.2793 15.5434 38.3684L15.7935 39.6573L17.1277 39.6072C17.2168 39.6291 17.3058 39.651 17.284 39.74C17.2621 39.8291 17.2402 39.9181 17.1512 39.8963L15.5951 40.0807Z" fill="#DE6B71"/>
<path d="M18.4778 38.3318L17.1185 37.7147C17.0295 37.6928 16.9623 37.5819 16.9842 37.4929L17.3122 36.157L15.9967 35.3619C15.9076 35.34 15.9295 35.2509 15.9513 35.1619L16.3466 33.937L14.8748 33.009C14.7857 32.9872 14.7185 32.8762 14.8295 32.8091C14.8513 32.72 14.9404 32.7419 15.0294 32.7637L16.5684 33.8026C16.6575 33.8245 16.6356 33.9136 16.6137 34.0026L16.2185 35.2275L17.534 36.0227C17.6231 36.0445 17.6012 36.1336 17.5793 36.2227L17.2513 37.5585L18.4543 38.0427C18.5434 38.0646 18.6106 38.1755 18.5887 38.2646C18.6778 38.2865 18.5668 38.3536 18.4778 38.3318Z" fill="#DE6B71"/>
<path d="M11.294 43.7434C11.2049 43.7216 11.1377 43.6106 11.1596 43.5216C11.1815 43.4325 11.2924 43.3653 11.3814 43.3872L13.1172 43.6246L13.6906 42.4435C13.7124 42.3544 13.8233 42.2872 13.9124 42.3091L15.4482 42.5918L16.0215 41.4106C16.0434 41.3216 16.1543 41.2544 16.2434 41.2763L17.6464 41.7152C17.7354 41.7371 17.8026 41.848 17.7808 41.9371C17.7589 42.0261 17.648 42.0933 17.5589 42.0714L16.334 41.6762L15.7607 42.8574C15.7388 42.9464 15.6498 42.9246 15.5388 42.9918L14.003 42.709L13.4297 43.8902C13.4078 43.9793 13.3188 43.9574 13.2079 44.0246L11.294 43.7434Z" fill="#DE6B71"/>
</g>
<defs>
<linearGradient id="paint0_linear_1585_11660" x1="21.5033" y1="30.1936" x2="18.6805" y2="9.15074" gradientUnits="userSpaceOnUse">
<stop offset="0.541667" stop-color="#DA8F5B"/>
<stop offset="0.953125" stop-color="#FDB3A2"/>
</linearGradient>
<clipPath id="clip0_1585_11660">
<rect width="54.9798" height="70" fill="white" transform="translate(0.716797)"/>
</clipPath>
</defs>
</svg>
